<svg width="258" height="219" viewBox="0 0 258 219" fill="none" xmlns="http://www.w3.org/2000/svg">
<mask id="mask0_876_27183" style="mask-type:luminance" maskUnits="userSpaceOnUse" x="0" y="-11" width="258" height="241">
<path d="M257.333 -10.8623H0.560547V229.862H257.333V-10.8623Z" fill="white"/>
</mask>
<g mask="url(#mask0_876_27183)">
<path d="M211.366 68.2156C209.7 68.4692 208.229 66.9073 208.822 65.3245C208.883 65.1612 208.964 65.0284 209.074 64.9269C210.281 63.8156 211.777 62.9153 213.295 62.2617C220.499 59.1527 227.731 56.1048 234.962 53.0568L234.964 53.056L234.996 53.0427C236.713 52.319 238.43 51.5948 240.148 50.8702C240.395 50.7663 240.643 50.6483 240.893 50.5304C241.623 50.1845 242.361 49.8347 243.098 49.811C244.009 49.7821 245.614 50.2816 245.703 50.7811C245.883 51.8042 245.55 53.2413 244.872 54.0301C244.21 54.8012 243.119 55.2502 242.088 55.6739C241.925 55.7413 241.763 55.8075 241.605 55.8749C232.267 59.8428 222.928 63.8104 213.548 67.6744C212.886 67.948 212.173 68.0932 211.366 68.2156Z" fill="#24635C"/>
<path fill-rule="evenodd" clip-rule="evenodd" d="M35.0756 152.317C46.8752 159.778 59.7066 164.343 74.4401 166.832C74.66 169.939 74.8766 173.007 75.0917 176.049V176.053L75.1013 176.185L75.1025 176.204C75.5976 183.217 76.0831 190.088 76.5742 196.958C76.6111 197.475 76.6343 197.996 76.6576 198.517C76.7198 199.908 76.782 201.302 77.1053 202.63C77.8717 205.785 80.3262 206.586 82.7748 204.381C84.642 202.7 86.22 200.651 87.7085 198.608C94.3083 189.545 100.874 180.457 107.353 171.307C110.153 167.355 113.576 164.907 118.452 163.603C136.678 158.729 152.371 149.389 164.688 134.963C178.101 119.254 184.631 101.116 181.844 80.3536C178.755 57.3448 165.777 40.5502 146.639 28.6054C109.893 5.66988 59.7656 9.69099 26.9057 37.9448C13.3436 49.6047 4.35978 64.2387 1.41755 82.1222C-3.04934 109.267 10.2071 136.592 35.0756 152.317ZM84.4178 194.083C83.7493 194.946 83.0244 195.882 82.2207 196.932C81.9235 193.771 81.6514 190.759 81.3882 187.85L81.3846 187.812L81.3838 187.8C80.8041 181.387 80.2697 175.476 79.6141 169.579C78.8077 162.332 78.4602 162.263 71.752 160.937L71.3645 160.86C47.8164 156.194 27.8889 145.661 14.9775 124.556C1.58452 102.667 2.83067 75.8706 18.19 55.3223C36.2261 31.1949 61.2264 20.4737 90.5895 19.2577C113.337 18.3184 134.302 24.356 152.115 38.8844C186.848 67.2117 184.986 113.772 150.202 141.814C139.513 150.43 127.398 156.399 113.954 159.367C110.128 160.212 107.463 162.262 105.3 165.268C102.738 168.827 100.182 172.39 97.6275 175.953C94.391 180.466 91.1552 184.979 87.9047 189.481C86.8495 190.943 85.745 192.369 84.419 194.081L84.4178 194.083Z" fill="#24635C"/>
<path d="M216.885 118.675C216.91 118.695 216.935 118.716 216.96 118.737C216.986 118.758 217.012 118.78 217.037 118.802C216.989 118.875 216.939 118.948 216.891 119.022C218.802 120.333 220.711 121.646 222.62 122.959L222.626 122.963C227.139 126.067 231.652 129.17 236.188 132.236L236.532 132.469C239.733 134.632 242.947 136.805 246.327 138.642C246.546 138.762 246.808 138.795 247.098 138.775C248.778 138.661 249.763 136.88 249.189 135.277C249.119 135.082 249.045 134.888 248.966 134.695C248.874 134.471 248.594 134.319 248.315 134.167C248.191 134.1 248.067 134.033 247.961 133.959C245.873 132.519 243.787 131.077 241.701 129.634C234.427 124.604 227.151 119.573 219.817 114.633C218.823 113.965 216.788 113.563 216.036 114.112C214.321 115.365 215.352 117.033 216.562 118.382C216.659 118.49 216.772 118.583 216.885 118.675Z" fill="#24635C"/>
<path d="M216.65 90.2355C215.664 91.7264 216.67 93.7597 218.415 94.1549C219.494 94.3989 220.409 94.5942 221.333 94.7098C231.207 95.9471 241.082 97.184 250.972 98.2813C251.354 98.3239 251.771 98.3981 252.201 98.4743C254.35 98.8567 256.83 99.298 257.027 96.1208C257.185 93.5655 254.755 93.3649 252.671 93.1932C252.298 93.1623 251.937 93.1327 251.603 93.0905C241.521 91.8147 231.43 90.6006 221.332 89.454C219.911 89.2915 218.237 89.2321 217.055 89.8468C216.897 89.9294 216.764 90.0618 216.65 90.2355Z" fill="#24635C"/>
</g>
</svg>
