<svg width="178" height="211" viewBox="0 0 178 211" fill="none" xmlns="http://www.w3.org/2000/svg">
<g id="Yuppies Crosses">
<g id="Master/Stickers/Crosses">
<path id="Vector" d="M118.971 28.807C113.73 31.9448 110.921 34.1783 107.684 35.4582C99.693 38.5958 91.6165 41.611 83.3555 44.0718C76.4985 46.0899 73.8216 49.917 73.426 56.4879C72.8083 64.9677 71.7078 73.411 70.1296 81.7817C69.4109 85.8732 67.5255 89.7801 64.9936 93.552C56.304 80.539 63.6752 66.6462 60.5105 51.8611L30.3734 58.6597C28.9889 52.2856 33.2612 50.9197 36.5114 49.3999C41.9163 46.8071 47.526 44.6043 53.291 42.8104C60.5432 40.6385 63.6421 36.2824 64.0905 29.3915C64.565 22.1251 65.5606 14.8772 66.6355 7.66007C66.9586 5.48819 68.3167 3.44551 69.7604 0C81.2653 10.0227 72.6943 22.5374 77.6195 32.9662C90.4825 34.2275 102.495 25.3676 118.971 28.807Z" fill="#A1483A"/>
<path id="Vector_2" d="M137.085 68.4688C145.949 75.7956 142.893 82.6551 143.313 88.7523C143.747 95.1388 143.412 101.58 143.412 109.534L177.368 107.413C173.827 111.212 172.703 113.48 170.89 114.174C164.122 116.737 157.256 119.245 150.193 120.88C142.847 122.589 139.358 126.468 138.504 133.339C137.512 141.256 135.81 149.062 130.961 156.598C124.713 152.707 126.907 147.501 126.546 143.168C126.145 138.429 126.454 133.64 126.454 127.598H102.649C104.134 119.503 110.533 118.649 115.429 117.764C125.784 115.877 129.745 110.714 129.627 101.051C129.548 94.2906 131.04 87.4247 132.387 80.7067C133.11 77.0862 135.015 73.7058 137.085 68.4688Z" fill="#A1483A"/>
<path id="Vector_3" d="M39.6779 130.985L41.9131 165.073H63.4777C63.7209 165.982 63.9645 166.915 64.201 167.805C61.032 169.266 57.9683 170.985 54.6744 172.133C41.6632 176.675 41.7093 176.608 41.1898 190.015C40.973 195.638 40.4272 201.255 39.8356 206.853C39.7236 207.909 38.685 208.879 37.5014 210.831C28.9547 201.525 35.9433 189.033 28.4549 179.905C19.7238 177.995 10.7034 185.122 0 180.193C2.03156 177.682 3.28731 175.387 5.25967 173.876C6.82444 172.648 9.24398 172.464 11.2756 171.795C17.2781 169.812 25.4109 169.37 28.6918 165.417C31.9723 161.464 30.3878 153.888 31.3216 147.965C32.2289 142.219 33.6289 136.541 34.8125 130.838L39.6779 130.985Z" fill="#A1483A"/>
</g>
</g>
</svg>
