<svg width="199" height="216" viewBox="0 0 199 216" fill="none" xmlns="http://www.w3.org/2000/svg">
<g id="Yuppies Heart 2">
<g id="Master/Stickers/Heart 2">
<path id="Vector" d="M188.689 1.40521C184.425 -0.646669 178.967 -0.448079 172.931 1.97888C168.595 3.6968 164.558 6.00948 160.952 8.84053C153.949 14.315 147.313 20.1876 141.083 26.4249C123.895 43.9322 104.723 65.6096 92.8625 93.6519C92.6076 94.2505 92.1711 94.7665 91.6065 95.1369C91.042 95.5073 90.3739 95.7158 89.6846 95.7367C88.9964 95.75 88.3186 95.5799 87.7303 95.2455C87.1424 94.9115 86.6688 94.4275 86.3653 93.8503C85.5976 92.3391 84.9357 90.9601 84.3215 89.6915C83.3622 87.5686 82.2737 85.4985 81.0612 83.4917C79.5492 81.1199 78.0606 78.737 76.5723 76.3541C71.8471 68.7203 66.8857 60.8327 61.4043 53.5628C55.3965 45.6395 47.0411 39.5278 37.3649 35.9784C33.3031 34.3864 28.9522 33.5363 24.5478 33.4743C19.9877 33.4123 15.5079 34.597 11.6599 36.8828C4.57211 41.1301 0.484744 48.8854 0.0713036 58.7036C-0.507541 72.4599 2.43371 86.2827 9.04901 101.054C22.7758 131.579 37.0103 161.805 52.8518 195.331C55.1463 200.092 58.1138 204.544 61.6762 208.568C68.1496 215.927 75.4616 217.581 84.6994 213.742C90.1563 211.388 95.2598 208.376 99.8793 204.785C119.571 189.903 135.153 170.896 147.793 154.26C174.089 119.654 189.906 86.04 196.132 51.4887C198.223 39.9388 200.585 26.8331 197.561 13.9812C196.108 7.89172 193.049 3.53432 188.689 1.40521ZM189.634 27.6495C186.575 61.1196 174.396 94.2254 152.4 128.854C135.354 155.694 116.748 177.757 95.5324 196.301C88.3265 202.6 82.2187 206.837 76.4303 206.837C75.7039 206.839 74.9794 206.769 74.2689 206.627C67.9015 205.413 63.7667 199.147 59.5259 190.079C47.6067 164.707 32.0964 131.325 17.8026 97.3034C13.2597 85.9688 10.5097 74.0769 9.63965 62.002C9.01356 54.7433 11.5417 48.8412 16.574 45.8186C21.6065 42.796 28.588 43.0829 35.4749 46.7013C40.7906 49.4701 50.5717 55.3941 56.3958 63.9545C63.5661 74.512 69.8508 85.7642 75.9344 96.6414C78.5097 101.253 81.1792 106.018 83.8609 110.652C85.5502 113.575 87.3456 116.531 89.0938 119.378C89.3894 119.874 89.6846 120.37 89.9917 120.856C95.8981 118.286 97.1623 114.976 97.5169 112.295C100.954 86.2496 116.665 66.4036 132.459 48.3119C141.69 37.9086 151.501 27.9665 161.85 18.5263C165.387 15.4679 169.273 12.7821 173.439 10.5174C175.305 9.4142 177.231 8.31116 179.121 7.05355C179.863 6.57211 180.774 6.37366 181.668 6.49872C182.562 6.62382 183.37 7.06286 183.929 7.72631C190.213 15.1727 190.225 21.174 189.599 27.6937L189.634 27.6495Z" fill="#C97600"/>
</g>
</g>
</svg>
