<svg width="536" height="308" viewBox="0 0 536 308" fill="none" xmlns="http://www.w3.org/2000/svg">
<g clip-path="url(#clip0_876_27615)">
<path fill-rule="evenodd" clip-rule="evenodd" d="M216.346 307.587C233.826 307.489 251.305 307.391 268.785 307.292V307.242C310.847 306.965 352.909 306.688 394.972 306.411C437.034 306.134 479.096 305.857 521.159 305.58C522.289 305.571 523.305 305.578 524.216 305.583C527.954 305.607 529.942 305.62 530.982 304.633C532.166 303.51 532.12 301.096 532.025 295.931C532.017 295.475 532.007 294.994 531.999 294.492L527.535 61.3301C527.378 48.8405 527.059 23.8601 527.059 23.8601C527.056 23.5627 527.054 23.2642 527.051 22.9669V22.9454C527.043 21.7656 527.033 20.5857 526.937 19.413C525.992 8.07231 520.432 1.98271 509.112 0.68629C505.843 0.311637 502.519 0.436526 499.193 0.56141C497.659 0.6185 496.126 0.675586 494.597 0.685101C475.9 0.786198 457.204 0.884915 438.506 0.983633H438.504C399.142 1.19296 359.78 1.4011 320.418 1.63184C296.885 1.76862 273.35 1.92205 249.816 2.07667C204.907 2.36925 159.998 2.66304 115.089 2.84144C98.848 2.90567 82.6072 2.79268 66.3676 2.67969C51.6902 2.5774 37.0115 2.47511 22.3341 2.50365C10.3992 2.52744 3.16484 6.36794 1.1235 19.6128C0.674585 22.528 0.371548 25.5074 0.413548 28.4522C0.56156 38.9473 0.759894 49.4423 0.958116 59.9374C1.59192 99.9503 5.43829 300.997 5.43829 300.997C5.57036 308.863 5.63818 308.922 13.2315 308.89C17.6195 308.869 22.0075 308.805 26.3943 308.74C30.4813 308.679 34.5683 308.618 38.6552 308.596C97.6826 308.252 156.71 307.921 215.737 307.591L215.772 307.59L216.346 307.587Z" fill="white"/>
<path fill-rule="evenodd" clip-rule="evenodd" d="M7.99818 42.3061C7.25337 42.2133 6.41813 42.1098 5.44284 42.0028C5.55302 39.5622 5.61335 37.1787 5.67248 34.8356C5.80264 29.6904 5.92745 24.7497 6.56447 19.8769C7.69597 11.2218 11.0774 8.59325 19.6951 8.48383C28.1618 8.37679 36.6297 8.34349 45.0975 8.31138C49.771 8.29235 54.4446 8.27451 59.1181 8.24358C74.2715 8.14368 89.4236 8.03544 104.577 7.9284C135.415 7.70955 166.253 7.4907 197.091 7.33251C217.92 7.22666 238.75 7.16838 259.58 7.11011C283.26 7.04469 306.941 6.97928 330.62 6.84131C365.51 6.63911 400.399 6.37031 435.288 6.10152C455.927 5.94333 476.565 5.78395 497.205 5.63885L497.721 5.63528C501.363 5.60912 505.026 5.58295 508.64 5.935C516.868 6.73902 520.939 10.8614 521.194 19.0229C521.38 25.0197 521.338 31.0225 521.294 37.1716V37.1763V37.1823C521.273 39.9036 521.254 42.6522 521.254 45.4413C521.11 45.4746 520.933 45.5293 520.731 45.5923C520.193 45.76 519.482 45.9824 518.771 45.9777C507.705 45.9135 496.637 45.7624 485.57 45.6114C462.306 45.2926 439.04 44.9751 415.791 45.4615C335.895 47.1338 256.001 47.0101 176.102 46.4534C142.623 46.2191 109.143 45.5971 75.6719 44.868C60.3234 44.5326 44.982 43.9355 29.6407 43.3385C23.6013 43.103 17.563 42.8687 11.5224 42.6498C10.4492 42.6094 9.37836 42.4774 7.99818 42.3061ZM520.388 51.6165C520.875 51.6831 521.423 51.7581 522.071 51.8342C523.442 136.876 526.732 300.566 526.732 300.566C354.493 301.602 182.961 302.635 10.8079 303.671C10.7579 301.242 10.7056 298.869 10.6544 296.533C10.5485 291.715 10.7305 301.192 10.6544 296.533C10.2035 268.579 5.87081 58.1819 5.87081 58.1819C5.59359 41.1108 6.15518 75.253 5.87081 58.1819C5.56503 39.8572 6.16707 76.5054 5.87081 58.1819C5.57693 39.9809 6.15874 76.3817 5.87081 58.1819C5.82727 56.0422 5.8494 51.6355 5.8494 51.6355C5.8494 51.6355 5.86023 49.4661 5.86023 48.3255C6.43716 48.2554 6.97614 48.1673 7.48895 48.0853C8.51337 47.9199 9.43785 47.7689 10.354 47.7998C16.9991 48.0282 23.6441 48.2887 30.288 48.5479C42.0587 49.0082 53.8295 49.4697 65.6038 49.7528C69.9656 49.8574 74.3274 49.9645 78.6892 50.0715H78.7023C106.744 50.7602 134.788 51.4476 162.834 51.6094C222.595 51.9531 282.358 52.0471 342.119 51.8128C367.144 51.714 392.168 51.3632 417.192 51.0123H417.194C436.875 50.7352 456.555 50.4592 476.237 50.307C485.981 50.2309 495.73 50.5913 505.479 50.9517C509.706 51.1075 513.934 51.2633 518.161 51.3846C518.836 51.4036 519.509 51.4964 520.388 51.6165ZM216.346 307.587C233.826 307.489 251.305 307.391 268.785 307.292V307.242C310.847 306.965 352.909 306.688 394.972 306.411C437.034 306.134 479.096 305.857 521.159 305.58C522.289 305.571 523.305 305.578 524.216 305.583C527.954 305.607 529.942 305.62 530.982 304.633C532.166 303.51 532.12 301.096 532.025 295.931C532.017 295.475 532.007 294.994 531.999 294.492L527.535 61.3301C527.378 48.8405 527.059 23.8601 527.059 23.8601C527.056 23.5627 527.054 23.2642 527.051 22.9669V22.9454C527.043 21.7656 527.033 20.5857 526.937 19.413C525.992 8.07231 520.432 1.98271 509.112 0.68629C505.843 0.311637 502.519 0.436526 499.193 0.56141C497.659 0.6185 496.126 0.675586 494.597 0.685101C475.9 0.786198 457.204 0.884915 438.506 0.983633H438.504C399.142 1.19296 359.78 1.4011 320.418 1.63184C296.885 1.76862 273.35 1.92205 249.816 2.07667C204.907 2.36925 159.998 2.66304 115.089 2.84144C98.848 2.90567 82.6072 2.79268 66.3676 2.67969C51.6902 2.5774 37.0115 2.47511 22.3341 2.50365C10.3992 2.52744 3.16484 6.36794 1.1235 19.6128C0.674585 22.528 0.371548 25.5074 0.413548 28.4522C0.56156 38.9473 0.759894 49.4423 0.958116 59.9374C1.59192 99.9503 5.43829 300.997 5.43829 300.997C5.57036 308.863 5.63818 308.922 13.2315 308.89C17.6195 308.869 22.0075 308.805 26.3943 308.74C30.4813 308.679 34.5683 308.618 38.6552 308.596C97.6826 308.252 156.71 307.921 215.737 307.591L215.772 307.59L216.346 307.587Z" fill="black"/>
<path fill-rule="evenodd" clip-rule="evenodd" d="M39.6367 21.7808C39.7982 16.6179 35.8221 13.1994 29.3476 12.9338C24.2496 12.7237 19.4866 17.2215 19.2845 22.4339C19.0982 27.2658 22.8572 31.7121 27.3169 31.9361C33.0749 32.2255 39.4751 26.9486 39.6367 21.7808ZM29.9204 17.623C33.1809 17.5745 35.1254 18.972 35.2057 21.4201C35.2909 24.0665 31.405 27.3551 28.1266 27.4106C25.7491 27.4502 23.874 25.6206 23.7174 23.11C23.5133 19.8432 25.9582 17.6825 29.9204 17.623Z" fill="black"/>
<path fill-rule="evenodd" clip-rule="evenodd" d="M61.9505 15.4453C57.028 15.2887 52.483 19.7241 52.4206 24.7453C52.369 28.9675 55.3442 31.8706 59.79 31.935C64.6392 32.0034 69.207 28.2172 69.3992 23.9662C69.6054 19.4169 66.2537 15.5821 61.9505 15.4453ZM65.0068 23.7879C64.8076 25.6919 62.2398 27.5186 58.892 27.4225C58.7726 27.2648 58.5925 27.0805 58.3888 26.8722L58.3658 26.8486L58.3647 26.8475C57.7891 26.2609 57.0337 25.4912 56.901 24.6254C56.569 22.4657 59.4906 19.7777 61.6006 19.8075C63.3547 19.8332 65.1951 21.984 65.0068 23.7879Z" fill="black"/>
<path fill-rule="evenodd" clip-rule="evenodd" d="M90.2817 14.3007C93.8376 14.2006 98.6313 19.0542 98.8176 22.9454C99.0406 27.5969 93.9179 32.6081 88.8397 32.7043C84.1015 32.7935 80.7964 29.6495 80.6705 24.9347C80.5239 19.3515 84.9529 14.4513 90.2817 14.3007ZM94.2644 23.4122C94.303 21.5716 91.6589 18.7855 89.8681 18.7796C87.7413 18.7716 85.1606 21.7322 85.0357 24.327C84.9178 26.7603 86.4876 28.4294 88.8275 28.359C91.3011 28.2856 94.2188 25.6304 94.2644 23.4122Z" fill="black"/>
</g>
<defs>
<clipPath id="clip0_876_27615">
<rect width="535.19" height="307.547" fill="white" transform="translate(0.405273 0.436523)"/>
</clipPath>
</defs>
</svg>
