<svg width="432" height="178" viewBox="0 0 432 178" fill="none" xmlns="http://www.w3.org/2000/svg">
<g clip-path="url(#clip0_1260_29647)">
<path fill-rule="evenodd" clip-rule="evenodd" d="M360.912 59.852C359.857 61.9205 358.764 64.0638 359.337 66.9531C359.692 66.816 359.978 66.7211 360.213 66.6431C360.618 66.5088 360.87 66.4249 361.058 66.2639C361.715 65.6967 362.391 65.1047 362.883 64.3981C371.518 51.9723 374.465 38.5666 368.367 24.2915C362.124 9.68122 350.053 2.40543 334.867 0.384601C325.899 -0.809002 317.14 0.703745 309.679 6.45946C308.058 7.71038 306.733 9.37997 305.435 11.0147L305.435 11.0151C305.292 11.1949 305.15 11.3742 305.007 11.5526C304.747 11.8795 304.77 12.4348 304.793 13.0085C304.804 13.2767 304.815 13.5491 304.798 13.804C305.039 13.7871 305.237 13.7866 305.4 13.7866C305.678 13.7862 305.857 13.7857 305.985 13.7045C306.962 13.0782 307.926 12.4266 308.855 11.7309C320.372 3.12122 332.755 1.90102 345.829 7.53568C360.426 13.8256 368.208 27.5775 366.414 43.4836C365.782 49.0885 363.741 54.1857 361.256 59.1729C361.143 59.399 361.028 59.625 360.912 59.852ZM317.9 54.5723C315.58 53.563 315.206 51.7169 314.888 49.8167C314.718 48.7973 314.565 47.7734 314.411 46.7494V46.749V46.7485V46.7476L314.411 46.7471V46.7467V46.7458H314.41V46.7453C314.044 44.2948 313.678 41.8434 313.076 39.4525C309.171 23.916 296.244 13.2483 280.398 12.6402C273.918 12.3913 267.779 14.181 262.022 17.2129C256.438 20.1545 251.596 24.0737 247.135 28.5327C246.892 28.7748 246.646 29.0797 246.392 29.3943C245.395 30.6301 244.27 32.024 242.705 30.4471C241.174 28.905 242.81 27.1666 244.015 25.8864C244.111 25.7846 244.204 25.6855 244.292 25.5901C252.32 16.9185 261.867 11.0184 273.642 8.86593C296.83 4.62756 319.163 23.1048 319.856 47.8669C319.953 51.3597 319.862 51.6573 317.9 54.5723ZM157.2 69.1509C158.912 70.7426 160.623 72.3333 163.501 72.8592C164.435 70.2469 163.204 68.6144 162.077 67.1196L162.017 67.0402L161.949 66.9499C157.145 60.5573 151.246 55.4541 143.705 52.656C130.915 47.9119 118.912 49.3095 108.34 58.3186C100.121 65.3234 95.0246 74.3743 92.9529 85.0117C92.3278 88.2252 92.1818 91.5465 92.0372 94.8402V94.8425L92.0367 94.8453V94.848V94.8508V94.8526V94.8549L92.0363 94.8567V94.8586L92.0157 95.3268C92.0079 95.5019 92.0001 95.6771 91.9923 95.8523C91.904 97.7828 92.4221 99.6096 95.3788 99.9687C95.4758 99.3597 95.5838 98.7618 95.6909 98.1712C95.9192 96.9101 96.1416 95.6822 96.2359 94.4441C96.7521 87.6864 98.4284 81.264 101.381 75.1676C103.893 69.9786 107.375 65.5362 111.698 61.8041C121.844 53.0476 136.953 52.7046 148.217 61.0846C150.527 62.8037 152.629 64.8117 154.728 66.8174C155.467 67.5236 156.206 68.2297 156.954 68.9226C157.036 68.9982 157.118 69.0748 157.2 69.1509ZM291.072 72.1879C289.986 73.1687 288.924 74.6292 290.41 76.6377C290.769 76.4015 291.118 76.1677 291.461 75.9379C292.199 75.4436 292.911 74.9667 293.64 74.5196C294.759 73.8336 295.859 73.1041 296.961 72.3745L296.961 72.3741C299.489 70.6981 302.019 69.0221 304.764 67.8752C313.928 64.0464 323.545 63.332 333.249 65.483C345.185 68.1298 354.507 74.3004 359.64 86.015C362.625 92.8258 364.151 99.8435 363.621 107.321C363.414 110.23 363.419 113.177 363.647 116.082C363.698 116.725 364.226 117.331 364.755 117.936V117.936C364.996 118.213 365.238 118.489 365.433 118.769C365.672 118.546 365.932 118.335 366.193 118.124C366.782 117.648 367.371 117.171 367.704 116.553C368.235 115.567 368.486 114.315 368.505 113.174C368.53 111.671 368.601 110.159 368.671 108.647C368.854 104.733 369.037 100.812 368.433 97.0239C366.377 84.1244 360.961 72.8014 349.077 66.3721C332.719 57.5226 315.865 57.4235 299.2 65.743C296.697 66.993 294.532 68.9959 292.404 70.965C291.96 71.3763 291.517 71.7867 291.072 72.1879ZM377.768 157.832C378.13 158.207 378.493 158.583 378.835 158.972L379.037 158.884L379.255 158.789L379.564 158.655L379.789 158.556L379.938 158.491L380.288 158.338C380.232 157.82 380.21 157.289 380.188 156.758C380.14 155.613 380.092 154.468 379.706 153.454C374.132 138.816 364.724 127.363 351.029 119.78C342.991 115.328 334.348 114.038 325.248 115.973C313.416 118.488 304.327 125.254 296.742 134.337C289.893 142.539 285.032 151.809 282.721 162.335C282.684 162.503 282.64 162.673 282.596 162.844C282.282 164.067 281.944 165.383 283.924 166.458C284.104 166.198 284.302 165.942 284.503 165.682C284.953 165.098 285.414 164.502 285.696 163.83C286.171 162.696 286.545 161.519 286.92 160.342L286.921 160.338V160.338L286.922 160.337L286.922 160.337V160.336V160.335L286.923 160.335L286.923 160.334V160.334V160.333H286.923V160.333C287.126 159.697 287.328 159.061 287.546 158.433C292.36 144.565 300.31 132.987 312.934 125.338C324.717 118.201 337.131 116.989 349.384 124.244C358.307 129.528 365.651 136.588 370.547 145.964C370.689 146.237 370.832 146.51 370.974 146.783L370.986 146.806C372.464 149.641 373.944 152.48 375.591 155.216C376.17 156.177 376.969 157.004 377.768 157.832ZM213.959 125.267V125.266C213.771 124.346 213.635 123.678 213.761 123.065C214.198 120.925 214.755 118.769 215.594 116.76C222.536 100.152 234.18 88.1445 250.967 81.839C275.619 72.5781 300.585 85.7004 308.081 111.732C308.398 112.83 308.479 114.038 308.425 115.183C308.405 115.635 308.142 116.074 307.893 116.492C307.785 116.672 307.679 116.849 307.597 117.02C305.243 117.221 304.419 115.585 303.673 114.102L303.619 113.994C302.438 111.651 301.374 109.231 300.466 106.766C294.205 89.7586 274.02 78.0518 252.548 85.7059C237.183 91.1838 226.5 101.783 219.66 116.505C219.028 117.865 218.468 119.259 217.906 120.653L217.906 120.655V120.656L217.906 120.656V120.657L217.905 120.657V120.658L217.905 120.658L217.904 120.659V120.66L217.904 120.661V120.662L217.903 120.662V120.663L217.903 120.663V120.664H217.902V120.665C217.429 121.843 216.955 123.021 216.438 124.178C216.229 124.645 215.89 125.051 215.37 125.674C215.07 126.034 214.709 126.465 214.278 127.023C214.179 126.342 214.062 125.767 213.959 125.267ZM223.945 87.1531L223.944 87.1527L223.943 87.1517C223.091 86.3484 222.263 85.5679 221.477 84.7471C212.618 75.489 201.915 70.2409 189.006 70.107C175.294 69.9639 164.27 77.5374 159.34 90.4331C155.294 101.019 154.608 111.968 156.266 123.125C156.338 123.61 156.425 124.095 156.512 124.584L156.513 124.584C156.955 127.061 157.414 129.623 156.032 132.526C155.71 132.287 155.385 132.085 155.08 131.897C154.463 131.514 153.932 131.185 153.686 130.708C153.1 129.572 152.759 128.235 152.625 126.95C151.368 114.962 151.578 103.003 155.31 91.4635C159.595 78.2105 168.197 69.1248 182.273 66.2547C187.745 65.1395 193.289 65.4821 198.739 66.6931C207.135 68.5585 214.628 72.3131 221.066 78.0074C222.886 79.6169 224.356 81.6895 225.717 83.7287C226.455 84.8352 227.315 86.3108 225.154 88.3013C224.748 87.9093 224.343 87.5287 223.945 87.1536L223.945 87.1531ZM126.399 46.5321C126.452 47.1442 126.511 47.8302 126.529 48.6111C129.137 46.8604 129.855 44.8717 130.512 43.0554C130.703 42.5257 130.889 42.0108 131.115 41.5206C138.719 25.0399 150.173 13.1373 168.965 10.9555C181.091 9.54734 192.065 12.6173 200.296 22.5124C200.81 23.1309 201.308 23.7628 201.807 24.3947C202.482 25.2513 203.158 26.1078 203.872 26.9305C205.006 28.2364 206.195 29.5538 208.203 29.1311C208.9 26.2977 208.922 26.0537 207.64 23.8229C205.211 19.5978 202.141 15.9377 198.099 13.1589C188.319 6.43424 177.396 4.83758 166.017 6.67223C149.75 9.29559 138.531 19.1883 130.603 33.1654C129.004 35.9864 127.97 39.1531 126.95 42.2822L126.95 42.2827C126.793 42.7619 126.637 43.2406 126.48 43.7166C126.222 44.4943 126.299 45.3843 126.399 46.5321ZM372.161 98.9071C371.6 95.9343 373.281 95.0305 374.78 94.2239C374.88 94.1703 374.979 94.1171 375.077 94.0635C381.145 90.7417 387.718 89.7678 394.474 90.6441C412.207 92.945 426.984 107.399 429.73 125.21C431.336 135.641 428.407 145.211 423.369 154.217C422.98 154.915 422.38 155.496 421.694 156.166V156.167V156.168C421.342 156.509 420.971 156.873 420.587 157.287C419.017 154.962 419.566 153.008 420.065 151.218C420.083 151.155 420.102 151.092 420.12 151.03C420.605 149.282 421.204 147.567 421.808 145.853V145.852V145.852V145.851V145.85V145.849V145.849V145.848V145.847V145.846V145.846L421.813 145.845V145.844V145.843V145.843V145.842V145.841V145.841V145.84V145.839V145.838V145.837V145.837V145.836V145.835V145.835V145.834V145.833V145.832L421.818 145.832V145.831V145.83V145.829V145.827V145.826V145.825V145.823V145.822V145.821V145.819V145.818L421.822 145.817V145.815V145.814V145.813V145.812V145.81V145.809V145.808V145.807V145.805V145.804L421.827 145.802V145.801V145.8V145.798V145.797V145.796V145.795V145.793V145.792V145.791V145.79L421.831 145.788V145.787V145.786V145.785C422.239 144.626 422.646 143.467 423.017 142.297C429.725 121.089 417.717 100.02 396.136 95.2621C389.708 93.8452 383.469 94.9095 377.397 97.3182C376.28 97.7607 375.116 98.0808 373.906 98.4132H373.905C373.334 98.5705 372.753 98.7301 372.161 98.9071ZM294.839 168.547C294.807 169.04 294.775 169.533 294.712 170.013C295.179 170.204 295.647 170.394 296.114 170.585C296.398 170.148 296.687 169.713 296.975 169.278C297.597 168.341 298.218 167.404 298.799 166.443C299.753 164.866 300.673 163.267 301.594 161.667L301.594 161.666L301.595 161.666L301.595 161.666L301.596 161.665L301.596 161.664L301.597 161.663V161.663L301.597 161.662L301.598 161.662L301.598 161.661L301.599 161.661L301.599 161.66V161.66L301.6 161.659L301.6 161.658L301.6 161.658L301.601 161.657L301.601 161.656L301.602 161.656L301.602 161.655L301.603 161.655V161.654L301.603 161.653L301.604 161.653L301.604 161.652L301.605 161.651L301.605 161.651C303.519 158.328 305.433 155.005 307.633 151.885C312.016 145.671 317.611 140.779 325.465 139.506C327.681 139.146 329.949 139.099 332.215 139.053C333.016 139.037 333.815 139.02 334.613 138.99C339.979 138.788 344.592 140.773 348.655 144.11C353.094 147.755 356.642 152.179 359.611 157.084L359.692 157.216C360.873 159.167 362.056 161.121 363.35 162.996C364.291 164.361 365.493 165.387 367.932 164.129C367.795 163.591 367.684 163.036 367.573 162.479V162.478C367.331 161.259 367.087 160.031 366.553 158.946C362.774 151.262 357.811 144.405 350.814 139.373C348.043 137.38 344.76 135.696 341.462 134.913C331.48 132.546 321.975 134.32 313.655 140.35C304.91 146.689 299.422 155.639 295.363 165.486C294.979 166.42 294.909 167.484 294.839 168.547ZM374.353 28.2286C374.165 25.0238 375.955 23.9536 377.578 23.2969L377.801 23.2066C381.205 21.8296 384.685 20.4209 388.268 19.7909C408.002 16.3155 427.964 30.4379 431.419 50.2477C432.32 55.4422 432.174 60.7026 430.979 65.8902C429.098 74.051 426.106 81.7556 421.584 88.8172L421.543 88.8819L421.502 88.9497L421.406 89.1015C420.317 90.8206 419.163 92.6392 416.404 92.0656C415.736 90.2465 416.463 88.7392 417.182 87.2444V87.2435C417.328 86.9376 417.475 86.6322 417.607 86.3245C418.404 84.5018 419.227 82.6887 420.047 80.8756V80.8742V80.8733L420.051 80.8724V80.871V80.8701V80.8687V80.8678V80.8669V80.8655V80.8646V80.8632L420.056 80.8623V80.8614V80.86V80.8591V80.8581V80.8568V80.8559V80.8545V80.8536L420.06 80.8527V80.8513V80.8504V80.8494V80.8481V80.8471V80.8458V80.8448V80.844L420.065 80.8426V80.8417V80.8407V80.8394V80.8375V80.8362V80.8343L420.069 80.8325V80.8311V80.8293V80.8274V80.8251V80.8238C421.886 76.8179 423.698 72.8125 425.254 68.708C428.005 61.451 428.444 53.9092 426.357 46.362C422.033 30.7534 405.416 20.2806 389.527 23.3387C386.817 23.8596 384.189 24.8074 381.561 25.7557C380.37 26.1853 379.179 26.615 377.98 27.0048C377.303 27.2249 376.629 27.4546 375.812 27.7329C375.374 27.8824 374.895 28.0457 374.353 28.2286ZM41.5175 108.385C41.8612 108.785 42.2044 109.185 42.5146 109.598L42.7343 109.525L42.9892 109.441L43.1814 109.377L43.3045 109.336L43.4629 109.284C43.5104 109.003 43.5823 108.717 43.6541 108.431V108.431L43.6546 108.43V108.429V108.428C43.8125 107.802 43.9699 107.175 43.8701 106.594C43.4949 104.416 43.0006 102.259 42.5069 100.103V100.103L42.5064 100.102V100.102V100.101L42.506 100.1C42.3815 99.556 42.2566 99.0112 42.1339 98.4664C39.9835 88.9291 41.1454 79.8989 46.2342 71.4937C52.5202 61.108 62.2905 58.5323 72.5501 64.8465C75.2775 66.5257 77.7729 68.5961 80.2638 70.6632H80.2643V70.6637H80.2647L80.2652 70.6641L80.2656 70.6646H80.2661V70.6651H80.2666V70.6655H80.267L80.2675 70.666H80.2679V70.6664C81.1333 71.3841 81.9978 72.1017 82.8714 72.8024C83.2018 73.067 83.5226 73.3453 83.8429 73.6241C85.1494 74.7585 86.4537 75.8916 88.3807 76.0677C89.3871 73.9602 88.2943 72.4034 87.2577 70.9283L87.169 70.8013C82.8522 64.6411 77.0197 60.4518 70.0345 57.9394C59.2258 54.0537 50.4934 57.9403 44.7891 65.2556C35.1743 77.5869 33.7886 91.2379 39.6316 105.662C40.0371 106.662 40.7771 107.523 41.5175 108.385ZM264.766 72.9143C262.135 72.7171 261.682 71.0791 261.283 69.5618C260.809 67.7638 260.443 65.936 260.078 64.1087C259.986 63.6479 259.893 63.187 259.799 62.7271C256.468 46.3991 241.404 33.6372 225.715 34.5786C210.305 35.5021 198.776 42.6766 192.65 57.5267C192.534 57.8055 192.441 58.1425 192.344 58.4933C191.987 59.78 191.582 61.2442 189.879 60.6481C187.929 59.9662 188.544 58.1815 189.054 56.7036V56.7032C189.132 56.4762 189.208 56.2561 189.271 56.0488C191.398 49.1045 195.608 43.5002 201.388 39.375C228.648 19.9183 258.586 35.7644 264.632 62.4052C265.114 64.5265 265.343 66.7335 265.42 68.9102C265.453 69.8232 265.242 70.7453 265.03 71.6679C264.934 72.0834 264.839 72.4993 264.766 72.9143ZM224.839 140.556C226.231 141.273 227.715 142.038 229.729 140.57C229.571 140.289 229.43 139.987 229.288 139.682C228.969 139 228.646 138.309 228.128 137.841C226.954 136.78 225.565 135.913 224.159 135.174C211.573 128.568 198.157 125.919 184.084 127.44C174.644 128.462 166.573 132.599 160.462 140.142C155.503 146.262 153.329 153.487 152.524 161.195C152.513 161.302 152.501 161.413 152.488 161.526C152.322 162.987 152.113 164.826 154.206 165.063C156.135 165.282 156.506 163.62 156.832 162.155C156.864 162.014 156.895 161.875 156.926 161.74C157.223 160.483 157.448 159.208 157.672 157.934V157.933L157.673 157.932V157.932V157.931V157.93L157.673 157.93V157.929V157.928L157.674 157.927V157.927V157.926V157.925L157.674 157.925V157.924C157.698 157.785 157.723 157.646 157.748 157.507C157.778 157.338 157.808 157.169 157.838 156.999C159.911 145.51 166.162 137.467 177.239 133.687C183.659 131.496 190.329 131.269 197.061 132.042C206.696 133.148 215.772 136.035 224.44 140.353C224.488 140.377 224.536 140.401 224.584 140.426C224.668 140.468 224.753 140.512 224.839 140.556ZM68.3783 128.668L67.4292 127.977L67.4246 127.974C66.4824 127.289 65.5401 126.603 64.5965 125.918C58.1032 121.21 50.8915 118.057 42.8757 117.788C24.151 117.161 8.61688 129.611 5.98919 147.881C5.57641 150.749 5.0991 153.62 4.42685 156.436C4.21359 157.33 3.73903 158.163 3.2782 158.97C3.07318 159.33 2.87092 159.685 2.69519 160.039C0.201126 159.382 -0.0949599 157.832 0.0212773 156.174C1.05917 141.264 6.1283 128.462 19.1368 119.827C32.8354 110.734 51.3235 111.108 64.5535 120.86C66.1625 122.046 67.5844 123.56 68.8287 125.131C69.2231 125.629 69.3146 126.366 69.4062 127.103C69.4478 127.438 69.4895 127.772 69.5595 128.084C69.1655 128.279 68.7719 128.473 68.3783 128.668ZM71.7341 162.105C71.8343 162.606 71.9405 163.136 72.0284 163.707C74.0502 162.459 74.257 160.962 74.4497 159.564V159.563L74.4684 159.427C74.4744 159.387 74.4799 159.346 74.4858 159.306C74.4927 159.257 74.5 159.209 74.5069 159.161C74.8204 157.074 75.1009 154.981 75.3814 152.888L75.3819 152.887V152.886L75.3823 152.884V152.882V152.882L75.3828 152.881V152.88V152.879V152.879L75.3832 152.878V152.878V152.877V152.876L75.3837 152.875V152.874V152.873V152.873H75.3841V152.872C75.8582 149.337 76.3323 145.802 76.9634 142.295C79.7691 126.697 87.7776 114.98 102.931 109.315C116.607 104.203 130.219 104.672 143.43 111.332C143.632 111.434 143.834 111.555 144.039 111.679C145.052 112.288 146.147 112.947 147.814 111.579C147.463 111.187 147.132 110.772 146.803 110.359C146.075 109.444 145.356 108.542 144.445 107.925C142.543 106.639 140.419 105.588 138.26 104.791C129.017 101.379 119.483 101.015 109.962 103.06C94.1734 106.452 82.4224 115.081 76.5589 130.654C73.0846 139.881 71.8188 149.558 71.395 159.357C71.3579 160.229 71.5346 161.111 71.7341 162.105ZM223.322 128.399C223.454 127.809 223.547 127.254 223.634 126.733C223.806 125.703 223.957 124.804 224.343 124.021C231.64 109.203 242.987 99.7949 259.788 97.5718C276.611 95.346 287.814 103.824 296.718 116.686C297.256 117.464 297.441 118.485 297.625 119.501C297.711 119.972 297.795 120.441 297.915 120.885C295.112 122.041 293.851 120.609 292.639 119.231L292.547 119.126C291.51 117.95 290.495 116.756 289.479 115.561C288.233 114.095 286.987 112.629 285.702 111.198C273.068 97.1293 248.022 99.3565 237.618 112.07C235.303 114.9 233.144 117.857 230.985 120.814L230.983 120.816C229.973 122.2 228.962 123.584 227.935 124.955C227.732 125.227 227.557 125.53 227.378 125.839C226.691 127.023 225.943 128.311 223.322 128.399ZM219.687 168.917C219.689 169.311 219.691 169.706 219.661 170.087C219.985 170.253 220.31 170.419 220.634 170.585C220.99 170.223 221.367 169.874 221.744 169.526C222.574 168.76 223.405 167.993 224.003 167.073C224.969 165.586 225.84 164.036 226.711 162.486L226.711 162.486L226.712 162.485L226.712 162.485L226.713 162.484V162.484L226.713 162.483L226.714 162.482L226.714 162.481L226.714 162.481L226.715 162.48V162.48L226.715 162.479L226.716 162.479L226.716 162.478L226.717 162.477L226.717 162.476L226.718 162.476C227.553 160.99 228.388 159.503 229.307 158.072C236.509 146.864 246.515 140.583 260.039 141.317C263.545 141.507 267.027 142.137 270.509 142.766L270.51 142.767H270.511L270.512 142.767H270.512H270.513H270.513L270.514 142.768H270.515H270.516L270.516 142.768H270.517H270.517H270.518L270.519 142.769H270.519H270.52L270.521 142.769H270.522H270.523L270.523 142.77C272.149 143.064 273.776 143.357 275.405 143.606C276.315 143.745 277.228 143.863 278.189 143.987L278.191 143.987H278.192C278.649 144.046 279.115 144.106 279.598 144.171C279.785 140.979 277.822 140.082 275.983 139.412C265.617 135.628 255.139 134.739 244.746 139.161C232.378 144.424 225.228 154.637 219.992 166.504C219.679 167.214 219.683 168.066 219.687 168.917ZM144.415 131.353C143.491 131.053 142.585 130.791 141.699 130.535C139.828 129.994 138.052 129.481 136.407 128.691C128.476 124.883 120.788 125.837 113.344 129.762C102.382 135.539 95.6231 144.598 92.9662 156.774C92.8609 157.255 92.8014 157.761 92.7415 158.278C92.5378 160.019 92.3214 161.876 90.284 163.248C90.154 162.865 90.0126 162.513 89.8795 162.182C89.6141 161.52 89.3802 160.937 89.3308 160.339C88.8786 154.804 90.0799 149.532 92.6435 144.691C98.67 133.31 107.701 125.49 120.353 122.332C128.325 120.343 135.66 122.088 142.342 126.722L142.39 126.755L142.421 126.777C142.47 126.811 142.519 126.844 142.568 126.878C143.771 127.699 145.122 128.621 144.415 131.353ZM166.962 126.247C167.175 126.635 167.399 127.041 167.614 127.482C169.433 125.928 169.295 124.392 169.162 122.915C169.143 122.694 169.123 122.475 169.11 122.256C168.724 115.811 169.615 109.55 171.943 103.518C177.499 89.1331 193.032 83.3724 206.675 90.6156C207.398 90.9994 208.117 91.3906 208.836 91.7813L208.837 91.7817L208.837 91.7822L208.838 91.7826H208.839L208.84 91.7831L208.84 91.7836L208.841 91.784L208.841 91.7845H208.842L208.843 91.7849L208.844 91.7854L208.844 91.7859H208.845L208.845 91.7863L208.846 91.7868L208.847 91.7872C210.163 92.503 211.479 93.2184 212.818 93.8901C214.265 94.616 215.777 95.1819 217.373 93.2587C217.198 92.9882 217.037 92.6919 216.875 92.3916C216.519 91.7322 216.153 91.0554 215.602 90.6032C205.28 82.1164 190.912 80.1231 179.643 87.7694C169.433 94.6981 162.914 111.9 165.954 124.003C166.143 124.759 166.532 125.465 166.962 126.247ZM352.002 113.725C349.291 112.135 349.072 110.239 348.872 108.496C348.842 108.237 348.812 107.981 348.775 107.73C348.635 106.788 348.59 105.831 348.544 104.875C348.49 103.764 348.437 102.654 348.237 101.57C346.062 89.7875 335.493 80.5523 323.455 79.8301C315.76 79.3688 308.462 80.7343 301.719 84.7173C301.045 85.1162 300.318 85.4235 299.337 85.8371L299.337 85.8375C298.797 86.0645 298.182 86.3241 297.458 86.6492C297.635 85.9655 297.745 85.3849 297.839 84.8943C298.006 84.0189 298.118 83.4292 298.457 83.0477C299.41 81.9766 300.601 81.0388 301.851 80.3409C315.455 72.7519 334.577 74.0845 345.848 86.6744C351.206 92.6589 353.455 99.8077 353.278 107.775C353.252 108.969 352.93 110.156 352.562 111.518C352.376 112.202 352.179 112.93 352.002 113.725ZM401.105 149.669C400.616 151.044 400.076 152.561 401.97 154.077C404.863 152.768 406.089 150.274 407.274 147.855V147.855C407.471 147.453 407.668 147.052 407.874 146.66C416.564 129.858 406.217 110.348 384.731 109.152C382.798 109.044 380.786 109.64 378.867 110.209C378.701 110.258 378.536 110.306 378.372 110.354C377.887 110.496 377.522 111.04 377.152 111.59L377.151 111.591C376.982 111.843 376.811 112.097 376.627 112.315C376.859 112.487 377.034 112.637 377.175 112.758C377.404 112.954 377.54 113.072 377.682 113.077C378.533 113.11 379.387 113.121 380.24 113.132C381.423 113.147 382.606 113.162 383.786 113.236C400.474 114.273 410.029 128.476 403.837 142.98C403.636 143.447 403.435 143.913 403.233 144.379L403.229 144.383V144.387V144.388V144.389V144.389V144.39V144.391V144.392V144.392V144.393V144.394V144.395L403.224 144.395C402.506 146.051 401.787 147.707 401.197 149.407C401.165 149.493 401.137 149.58 401.105 149.669ZM165.485 169.21C163.317 167.909 163.753 166.251 164.18 164.628C164.194 164.576 164.208 164.524 164.221 164.472L164.237 164.41L164.251 164.359C166.268 156.553 171.303 151.158 178.008 147.418C186.037 142.943 194.788 141.687 203.748 143.264C206.611 143.767 209.378 144.864 212.135 145.957C213.025 146.31 213.915 146.662 214.806 146.994C215.717 147.334 216.615 148.035 217.217 148.813C217.671 149.401 218.011 150.576 217.726 151.124C217.427 151.696 216.232 152.229 215.581 152.082C213.612 151.637 211.694 150.914 209.795 150.192C201.961 147.213 194.002 146.492 185.907 148.885C177.623 151.333 171.534 156.37 168.329 164.71C167.854 165.942 167.331 167.162 166.733 168.336C166.619 168.558 166.36 168.702 166.036 168.881C165.866 168.976 165.678 169.079 165.485 169.21ZM17.8719 156.641C17.7987 158.216 17.7209 159.906 20.3898 160.956C20.5701 160.492 20.7454 160.055 20.9142 159.634L20.9151 159.632L20.9165 159.629L20.917 159.628C21.2593 158.776 21.5741 157.991 21.8459 157.191C25.9559 145.073 37.1362 138.212 49.553 140.258C51.0439 140.504 52.5216 140.831 53.9992 141.158H53.9997C54.9429 141.367 55.886 141.576 56.8329 141.763C59.8033 142.352 62.7687 142.547 65.8985 141.419C64.9576 140.197 63.943 139.165 62.7189 138.703C62.3262 138.556 61.9336 138.407 61.5405 138.257L61.5359 138.256L61.5354 138.255C58.3861 137.061 55.2147 135.857 51.95 135.129C40.7015 132.617 31.2287 136.406 23.2467 144.314C19.9358 147.595 18.0916 151.809 17.8742 156.589L17.8719 156.641ZM151.017 82.3443C148.468 83.2137 146.967 82.2526 145.558 81.3506C145.412 81.2566 145.266 81.1631 145.119 81.0723C144.042 80.4028 142.998 79.6783 141.955 78.9538C140.851 78.1871 139.747 77.4204 138.603 76.7193C132.656 73.0711 126.702 73.4718 121.247 77.8235C118.119 80.3194 115.771 83.4425 114.25 87.1439C113.764 88.3284 113.388 89.5582 113.012 90.788L113.012 90.7885V90.789V90.7899L113.012 90.7903V90.7913L113.011 90.7917V90.7926L113.011 90.7931V90.7936C112.834 91.3713 112.658 91.9486 112.47 92.5213C112.369 92.8281 112.299 93.1785 112.227 93.5338C111.969 94.8173 111.698 96.1664 109.942 95.772C108.266 95.3956 108.403 93.7356 108.522 92.2985C108.541 92.0752 108.559 91.8569 108.57 91.6496C109.135 80.6999 118.159 70.6586 128.969 69.3431C131.605 69.0221 134.483 69.5366 137.076 70.2767C142.108 71.7115 145.919 75.1501 149.317 79.0033C149.787 79.5352 150.08 80.224 150.424 81.0292C150.599 81.4391 150.787 81.8793 151.017 82.3443ZM383.508 40.1271C381.416 40.3554 379.184 40.7383 377.085 43.7469C377.868 43.7748 378.551 43.8321 379.163 43.884C380.32 43.9812 381.224 44.0568 382.072 43.8725C386.047 43.0067 389.959 43.5047 393.76 44.4461C410.084 48.4869 413.855 62.2975 407.947 73.5163C406.995 75.317 406.071 77.1457 405.352 79.0451C404.995 79.9901 404.812 81.0012 404.634 82.0128C404.551 82.4649 404.469 82.9175 404.373 83.3641L404.597 83.4898L404.748 83.576L405.004 83.7209L405.146 83.8021C405.215 83.841 405.284 83.88 405.352 83.9194C405.645 83.6764 405.961 83.4485 406.277 83.2211V83.2201V83.2192C406.963 82.7231 407.649 82.2269 408.116 81.574C410.835 77.7795 413.274 73.8272 414.377 69.1913C416.683 59.498 413.15 50.3243 404.798 44.9061C398.318 40.7021 391.121 39.2952 383.508 40.1271ZM299.277 57.7821C297.08 55.5453 296.342 53.0247 295.619 50.5517L295.616 50.543C295.537 50.2725 295.458 50.0024 295.377 49.7337C294.11 45.5132 292.322 41.6362 288.966 38.6244C283.594 33.8005 277.496 32.1249 270.643 34.5213C268.372 35.3155 266.198 36.3949 264.025 37.4744L264.024 37.4748C263.107 37.9301 262.19 38.3855 261.267 38.8193C261.114 38.8908 260.962 38.9674 260.81 39.044C259.67 39.6176 258.547 40.1835 257.644 38.4538C262.22 29.8679 277.675 26.5558 287.597 32.0217C297.639 37.5551 303.494 50.0432 299.277 57.7821ZM246.206 73.398L246.207 73.3989C246.444 73.7974 246.706 74.2376 246.979 74.7484C249.018 72.3149 248.977 70.1318 248.939 68.1137C248.933 67.8111 248.927 67.5121 248.929 67.2168C248.988 56.0566 242.007 46.527 232.214 44.8501C222.372 43.1663 211.597 47.2919 204.711 57.2658C204.057 58.2136 203.572 59.3288 205.216 60.6274C205.554 60.3018 205.895 59.9758 206.237 59.6489L206.24 59.6457L206.241 59.6452L206.241 59.6448C207.008 58.9115 207.781 58.1733 208.534 57.4148C212.3 53.6249 216.481 50.4297 221.735 49.2586C232.625 46.8283 240.55 50.6045 243.632 62.2085C243.878 63.1371 244.022 64.0945 244.166 65.051C244.219 65.4073 244.272 65.7632 244.331 66.1176C244.423 66.678 244.501 67.242 244.579 67.8056C244.744 68.9973 244.909 70.1886 245.208 71.3446C245.38 72.0109 245.746 72.6258 246.206 73.398ZM236.825 131.609C235.495 129.389 236.337 127.963 237.273 126.696C243.852 117.811 252.099 112.628 263.603 113.922C270.04 114.646 276.122 116.143 281.516 119.823C283.291 121.034 284.965 122.539 286.292 124.228C286.882 124.978 287.141 125.995 287.416 127.079H287.417V127.08C287.545 127.584 287.677 128.102 287.847 128.615C285.023 129.659 283.593 128.236 282.27 126.918C282.203 126.851 282.136 126.785 282.07 126.719C278.237 122.929 273.654 120.679 268.543 119.22C258.462 116.343 249.716 118.221 242.437 126.133C241.264 127.408 240.001 128.598 238.692 129.832L238.69 129.834L238.684 129.84C238.073 130.415 237.452 131.001 236.825 131.609ZM318.961 20.1779C317.731 20.8327 316.368 21.5572 316.74 24.0682C317.482 23.8467 318.206 23.6326 318.918 23.4226C320.404 22.9833 321.836 22.5605 323.262 22.1203C333.634 18.9169 342.939 23.357 346.434 33.125C347.765 36.8448 347.544 40.5645 346.655 44.2912C346.342 45.604 345.969 46.9026 345.596 48.2012C345.287 49.2765 344.978 50.3523 344.702 51.4363C344.314 52.9655 343.919 54.576 345.858 55.4894C346.016 55.4073 346.171 55.3394 346.317 55.2752C346.619 55.1427 346.886 55.0262 347.077 54.8332C347.58 54.3265 348.109 53.7785 348.408 53.1434C351.311 46.9594 352.994 40.5829 351.135 33.7179C346.776 17.6288 329.539 14.3497 319.294 19.999C319.185 20.0587 319.074 20.1183 318.961 20.1779ZM232.308 176.538C231.043 174.825 231.59 172.95 232.416 171.343C237.628 161.203 245.135 153.8 256.753 151.643C261.912 150.685 266.787 152.016 271.495 154.066C272.018 154.294 272.605 154.582 272.924 155.018C273.32 155.558 273.774 156.36 273.635 156.902C273.504 157.411 272.642 158.054 272.087 158.068C271.145 158.093 270.199 157.969 269.253 157.845C268.772 157.783 268.292 157.72 267.811 157.676C266.69 157.575 265.566 157.427 264.44 157.279H264.44L264.439 157.279H264.438H264.437H264.437H264.436L264.436 157.278H264.435H264.434H264.433C261.829 156.936 259.225 156.594 256.673 156.823C251.533 157.287 246.905 159.641 243.42 163.556C241.463 165.755 239.699 168.127 237.935 170.498L237.934 170.499C237.108 171.609 236.283 172.718 235.438 173.81C235.224 174.086 235.059 174.413 234.891 174.744C234.416 175.682 233.928 176.647 232.308 176.538ZM53.1934 105.35C53.7315 106.601 54.3228 107.976 56.6841 107.736C56.6279 107.148 56.5661 106.565 56.5048 105.986C56.372 104.73 56.2412 103.492 56.1711 102.25C56.1107 101.167 56.0137 100.078 55.9167 98.9883C55.6746 96.2686 55.4321 93.5448 55.7543 90.8944C56.5922 84.0084 62.5541 80.3345 69.09 82.2443C70.4738 82.6488 71.8215 83.177 73.1706 83.7053C74.2497 84.1285 75.3292 84.5513 76.4275 84.9113C77.4059 85.2323 78.4255 85.4221 79.4447 85.6124L79.4451 85.6129H79.4456H79.446H79.4465H79.4474H79.4479C79.9069 85.6986 80.3659 85.7844 80.8212 85.882C81.0326 85.5688 81.2454 85.2561 81.4578 84.9429C81.1869 84.5697 80.9379 84.1648 80.689 83.7603C80.1439 82.8749 79.5993 81.9889 78.825 81.43C75.4908 79.023 71.7469 77.4227 67.6136 77.0926C60.25 76.5047 53.4249 81.0237 51.6274 87.9478C50.1058 93.809 50.7144 99.6257 53.1252 105.192C53.1481 105.245 53.1705 105.297 53.1934 105.35ZM146.861 44.4842C145.173 41.6187 146.223 39.7006 147.472 37.9311C150.318 33.8981 154.257 31.1886 158.821 29.4979C165.878 26.8846 172.994 26.7695 180.035 29.6836C180.422 29.8446 180.811 30.0037 181.199 30.1633H181.2L181.201 30.1637L181.202 30.1642L181.204 30.1651C183.093 30.9396 184.984 31.715 186.791 32.6513C187.69 33.1181 188.487 33.7803 189.285 34.4429C189.644 34.7419 190.004 35.0408 190.373 35.3215L190.302 35.5296L190.243 35.703C190.171 35.9148 190.099 36.1267 190.027 36.3385C189.699 36.3592 189.366 36.4041 189.033 36.449C188.305 36.5472 187.578 36.6453 186.908 36.4926L186.727 36.4513L186.566 36.4147L186.376 36.3716L186.133 36.3161C183.427 35.7016 180.697 35.0816 178.124 34.0884C167.974 30.1701 156.106 32.677 148.807 42.8678C148.56 43.2113 148.202 43.4745 147.732 43.8189C147.475 44.0073 147.184 44.2201 146.861 44.4842ZM321.001 153.535C313.442 158.341 307.632 166.671 308.533 171.448C310.082 171.745 310.628 170.772 311.173 169.803C311.328 169.527 311.483 169.251 311.66 169.006C312.294 168.13 312.907 167.237 313.52 166.344L313.521 166.343C314.802 164.476 316.084 162.609 317.555 160.902C324.623 152.701 334.449 151.905 342.773 158.851C344.323 160.143 345.714 161.622 347.105 163.102L347.105 163.103H347.106L347.106 163.103L347.107 163.104H347.107L347.108 163.104L347.108 163.104L347.109 163.105L347.109 163.105H347.11V163.106L347.11 163.106L347.11 163.107L347.111 163.107C347.818 163.859 348.525 164.611 349.253 165.339C349.395 165.48 349.534 165.625 349.674 165.77C350.718 166.858 351.791 167.976 353.86 167.692C353.895 167.411 353.962 167.123 354.028 166.84V166.839C354.167 166.246 354.299 165.676 354.107 165.252C352.121 160.87 348.502 157.853 344.77 155.049C337.271 149.411 328.263 148.917 321.001 153.535ZM180.743 125.189C177.637 123.13 177.911 120.832 178.153 118.807L178.168 118.678C179.146 110.416 183.72 104.786 191.15 101.443C196.378 99.0901 201.803 99.0493 207.255 100.44C208.061 100.646 208.802 101.11 209.527 101.564C209.856 101.77 210.182 101.974 210.508 102.151C209.981 104.432 208.506 104.567 207.069 104.586C205.767 104.603 204.465 104.577 203.162 104.55C202.008 104.526 200.853 104.502 199.698 104.509C190.166 104.567 183.205 110.754 181.884 120.241C181.748 121.218 181.501 122.18 181.212 123.306L181.211 123.307C181.063 123.883 180.904 124.502 180.743 125.189ZM140.687 146.064L140.687 146.063C141.182 145.946 141.676 145.829 142.172 145.726L142.322 144.189C141.94 144.002 141.56 143.772 141.18 143.542C140.35 143.038 139.519 142.535 138.661 142.483C138.236 142.457 137.81 142.43 137.384 142.402C133.918 142.18 130.4 141.955 127.014 142.462C119.417 143.601 112.814 150.104 111.441 157.062C111.047 159.064 110.816 161.044 113.52 162.79C113.711 162.258 113.893 161.766 114.065 161.3V161.299H114.066C114.415 160.355 114.725 159.515 114.994 158.661C117.018 152.24 121.283 148.312 127.911 147.31C129.747 147.033 131.613 146.965 133.481 146.898C134.79 146.851 136.099 146.803 137.4 146.684C138.505 146.582 139.596 146.323 140.687 146.064ZM374.661 62.9073C373.722 60.8306 375.005 60.0386 376.331 59.3485C380.386 57.2424 386.637 58.2352 390.23 61.5129C393.719 64.6957 394.52 68.9638 392.374 73.7396C391.672 75.2996 390.809 76.8651 389.68 78.1358C389.245 78.6255 388.477 78.8291 387.709 79.0331C387.364 79.1244 387.018 79.2161 386.703 79.3339C386.622 79.018 386.507 78.6956 386.391 78.3737L386.391 78.3733C386.133 77.6534 385.875 76.933 385.995 76.28C386.187 75.235 386.629 74.2358 387.071 73.2352V73.2348V73.2343L387.072 73.2339L387.072 73.2329V73.2325V73.232L387.073 73.2311C387.275 72.773 387.478 72.3145 387.657 71.8509C389.619 66.7711 387.397 63.259 381.906 62.9321C380.223 62.8317 378.533 62.8583 376.872 62.8844C376.128 62.8959 375.39 62.9073 374.661 62.9073ZM317.809 89.9177C314.086 89.715 310.4 90.2249 307.983 94.5092C308.386 94.6192 308.698 94.7224 308.951 94.8063C309.377 94.9471 309.635 95.0328 309.879 95.0007C310.608 94.9058 311.329 94.7398 312.048 94.5743C312.31 94.5142 312.572 94.4541 312.834 94.3973C319.846 92.879 325.497 96.1948 327.616 103.074C327.723 103.423 327.815 103.78 327.908 104.137C328.109 104.917 328.311 105.698 328.673 106.394C329.038 107.095 329.555 107.718 330.16 108.447L330.161 108.448L330.162 108.448C330.454 108.799 330.766 109.176 331.093 109.598C334.403 105.655 333.06 102.059 331.64 98.8874C329.021 93.035 324.009 90.2547 317.809 89.9177ZM186.238 171.961C185.067 168.795 186.456 166.629 187.732 164.639L187.775 164.572C192.162 157.733 202.843 154.155 210.55 156.769C210.602 156.787 210.657 156.8 210.711 156.813C210.799 156.833 210.886 156.854 210.963 156.895C211.216 157.031 211.489 157.158 211.766 157.287H211.767C213.131 157.924 214.585 158.602 214.06 160.455C213.558 162.229 212.221 161.86 210.912 161.499C210.61 161.416 210.309 161.333 210.02 161.277C202.628 159.841 195.85 160.627 190.839 167.166C190.478 167.637 190.179 168.16 189.881 168.681C189.523 169.307 189.166 169.931 188.703 170.464C188.325 170.899 187.768 171.175 187.151 171.481C186.857 171.628 186.548 171.78 186.238 171.961ZM283.698 61.7788C284.277 63.2875 284.877 64.8548 287.364 65.1189C287.482 64.8906 287.609 64.6842 287.728 64.4916C287.963 64.1124 288.165 63.7841 288.206 63.4374C289.072 56.0809 284.254 46.4716 274.662 45.8782C272.44 45.7415 270.074 46.3844 267.93 47.1186C266.467 47.6188 265.279 48.9032 266.213 51.2584C266.6 51.1928 266.99 51.1332 267.379 51.0731C268.228 50.9433 269.078 50.8131 269.911 50.6173C275.331 49.3412 279.401 51.2065 281.685 56.2024C282.142 57.2016 282.484 58.2508 282.827 59.3004L282.828 59.3018C283.069 60.0414 283.31 60.781 283.592 61.5042C283.61 61.5486 283.627 61.5936 283.644 61.6385C283.662 61.6848 283.68 61.7316 283.698 61.7779L283.698 61.7784V61.7788ZM386.219 146.741C384.882 144.571 385.395 142.905 385.899 141.272C385.917 141.212 385.936 141.152 385.954 141.092L385.977 141.017C385.99 140.974 386.003 140.931 386.016 140.888C386.029 140.845 386.042 140.802 386.055 140.758C388.058 133.963 385.884 130.539 378.938 129.503C378.225 129.397 377.505 129.266 376.825 129.034C376.579 128.951 376.369 128.762 376.122 128.541C375.998 128.429 375.864 128.309 375.712 128.19C376.333 125.785 378.21 125.497 380.094 125.701C384.878 126.215 388.657 128.412 390.75 132.919C392.74 137.212 391.435 141.194 389.146 144.896C388.776 145.495 388.016 145.852 387.25 146.213C386.895 146.38 386.539 146.548 386.219 146.741ZM249.965 172.458C249.034 173.958 248.162 175.604 250.154 176.987C250.228 176.987 250.295 176.992 250.356 176.997C250.474 177.006 250.572 177.014 250.65 176.979C250.741 176.937 250.835 176.898 250.93 176.858C251.24 176.729 251.554 176.598 251.776 176.377C256.092 172.066 261.089 169.604 267.364 169.982C268.421 170.045 269.504 169.673 270.588 169.301C271.085 169.13 271.583 168.959 272.078 168.83C272.148 168.453 272.218 168.075 272.288 167.697C271.991 167.478 271.704 167.233 271.416 166.987L271.415 166.987C270.794 166.457 270.173 165.927 269.456 165.66C263.879 163.591 253.124 167.366 249.965 172.458ZM184.258 50.5004C183.733 50.6219 183.209 50.7581 182.686 50.8938C181.482 51.2065 180.279 51.5193 179.056 51.6545C178.118 51.7572 177.165 51.6944 176.21 51.6311C175.57 51.589 174.928 51.5468 174.29 51.5541L174.048 51.5569C170.803 51.5936 167.577 51.6302 164.784 53.8652C164.387 54.1825 163.702 54.1261 163.016 54.0702C162.7 54.044 162.384 54.0179 162.096 54.0289C162.105 53.7295 162.077 53.3961 162.049 53.0632V53.0627V53.0623V53.0618C161.987 52.3309 161.926 51.6 162.255 51.2276C163.474 49.846 164.893 48.3681 166.534 47.7078C171.396 45.7493 176.45 46.0474 181.413 47.4501C182.161 47.6615 182.828 48.1732 183.495 48.685C183.802 48.9207 184.108 49.1564 184.424 49.3632L184.389 49.6025L184.34 49.9396C184.312 50.1266 184.285 50.3133 184.258 50.5004ZM60.4806 155.749L60.4815 155.749L60.4834 155.748H60.4838H60.4843C61.016 155.487 61.5913 155.204 62.2374 154.913C56.8365 151.174 48.8889 151.511 45.0645 154.994C43.3873 156.52 42.2703 158.392 42.6254 160.689C42.7233 161.323 43.229 161.893 43.7342 162.463C43.9644 162.723 44.1951 162.983 44.3868 163.248C44.5964 163.068 44.8344 162.9 45.0728 162.732C45.5931 162.365 46.1139 161.999 46.3345 161.497C47.4657 158.93 49.3928 157.889 52.053 157.724C53.8977 157.61 55.7666 157.417 57.5504 156.965C58.5009 156.722 59.4011 156.28 60.4806 155.749ZM319.881 173.795C320.747 168.426 325.798 165.613 332.787 166.043C337.876 166.356 341.189 169.023 341.39 172.997C339.793 174.344 338.238 173.351 337.024 172.575L337.006 172.563C332.079 169.414 327.424 169.955 322.748 173.009C322.325 173.285 321.782 173.392 321.097 173.527C320.732 173.599 320.328 173.678 319.881 173.795ZM335.082 33.9761C332.169 30.6048 327.83 30.0876 323.542 33.5373C324.21 33.689 324.785 33.8229 325.299 33.9431H325.3L325.301 33.9435C326.283 34.1723 327.045 34.3503 327.811 34.5011C331.086 35.1468 332.284 36.2257 332.779 39.5653C332.965 40.8277 332.99 42.114 333.013 43.4011V43.4016V43.402V43.4029V43.4034V43.4039V43.4048C333.027 44.1499 333.041 44.8955 333.087 45.637C333.103 45.913 333.108 46.1941 333.113 46.4766V46.4771C333.136 47.905 333.161 49.3714 334.781 50.4453C334.955 50.3257 335.15 50.2179 335.345 50.1101C335.767 49.8767 336.192 49.6424 336.412 49.2802C338.667 45.5714 337.897 37.2378 335.082 33.9761ZM79.6273 101.805C79.0209 101.805 78.4232 101.806 77.8311 101.807C76.5456 101.811 75.2871 101.814 74.0286 101.801C69.6871 101.757 68.2488 103.39 68.8767 107.681C68.9307 108.049 68.9879 108.417 69.0456 108.785V108.786V108.787C69.1659 109.556 69.2858 110.325 69.3723 111.098C69.392 111.271 69.2973 111.456 69.2025 111.641C69.1595 111.724 69.1165 111.808 69.0845 111.891C65.8449 111.284 64.2689 108.75 64.5594 104.615C64.8606 100.323 68.2502 96.9743 72.4984 96.7712C76.2459 96.5923 79.0008 98.3518 79.6273 101.805ZM124.275 92.6319C130.096 91.1196 135.834 89.6288 142.322 87.9437C137.2 83.7695 127.38 84.8127 124.369 89.0928C123.541 90.2685 123.104 91.486 124.275 92.6319ZM235.677 73.3728C235.024 72.8647 234.421 72.4328 233.868 72.0366C232.79 71.2635 231.902 70.6265 231.194 69.8236C228.701 66.9925 225.844 65.605 222.091 66.528C221.838 66.5904 221.55 66.5014 221.27 66.4157C221.143 66.3763 221.018 66.3377 220.899 66.3143C220.105 64.8823 220.904 64.0358 221.91 63.42C224.138 62.0558 226.479 62.1411 228.889 62.9743C232.826 64.3343 235.742 68.2494 235.677 73.3728ZM201.527 117.886C203.734 116.978 205.992 116.049 207.763 114.087C204.145 111.962 199.874 112.583 196.799 115.224C194.579 117.129 194.395 117.98 196.043 121.062C197.562 119.516 199.524 118.709 201.527 117.886ZM323.542 107.706C320.475 108.137 315.441 106.082 314.186 103.885C313.489 102.667 314.279 101.523 315.926 101.366C319.209 101.054 322.96 104.176 323.542 107.706ZM136.494 160.717C136.756 160.371 137.02 160.023 137.288 159.676C137.101 159.376 136.958 159.094 136.832 158.849C136.605 158.403 136.438 158.077 136.181 157.967C134.51 157.254 133.471 158.385 132.726 159.619C132.701 159.661 132.674 159.704 132.648 159.747C131.947 160.901 131.133 162.241 132.68 163.422C133.041 163.699 133.972 163.816 134.187 163.58C135.007 162.681 135.746 161.705 136.494 160.717Z" fill="#D09C52"/>
</g>
<defs>
<clipPath id="clip0_1260_29647">
<rect width="432" height="177" fill="white" transform="translate(0 0.00488281)"/>
</clipPath>
</defs>
</svg>
