<svg width="102" height="77" viewBox="0 0 102 77" fill="none" xmlns="http://www.w3.org/2000/svg">
<path d="M45.851 24.7061C46.2265 24.9593 46.6093 25.1884 46.9974 25.3924C49.4921 26.4771 50.8646 28.7505 51.4751 31.7011C51.7723 33.0245 51.8989 34.3561 51.8497 35.6429C51.6898 38.2621 51.3431 40.8174 51.0555 43.3912C50.8172 45.5434 50.4906 47.6639 50.3109 49.8385C50.0577 52.9242 51.2296 55.4984 53.4502 57.5772C56.1048 60.0373 58.9936 61.4935 62.001 62.3776C66.8551 63.804 71.2368 63.149 75.3115 61.02C79.6909 58.7259 83.0171 54.8914 86.4989 50.6592C85.2974 50.3149 84.6469 50.8608 83.9008 50.9401C83.2246 51.0104 82.5432 51.1913 81.8566 51.043C81.5234 50.9696 81.0158 50.3087 80.8561 49.8332C80.7353 49.472 80.9501 48.875 81.1828 48.5886C81.4798 48.3115 81.8345 48.1291 82.2234 48.053C84.4775 47.3142 86.7349 46.5769 88.9992 45.863C89.7393 45.6319 90.4883 45.2393 91.5694 46.4127C91.5158 47.2451 91.4015 48.055 91.2279 48.8333C90.3774 51.7705 89.4581 54.6607 88.5635 57.5701C88.1437 58.9383 87.8549 60.4261 86.6252 61.3525C85.6885 58.9851 86.3015 57.0987 86.4442 54.6009C85.6573 55.5292 85.136 56.1334 84.6167 56.7467C81.0215 61.0044 76.7699 64.0463 71.5596 65.2193C66.0398 66.5465 59.8824 65.0676 54.3297 61.0808C53.3872 60.405 52.4876 59.615 51.6467 58.725C49.3829 56.3685 48.1413 53.436 48.2965 50.2174C48.475 47.2437 48.8217 44.3304 49.3343 41.4973C49.7901 38.7532 50.0824 35.9757 49.8601 33.0227C49.7477 31.5314 49.3366 30.0629 48.3668 28.8306C46.7277 26.7437 45.5572 26.8372 44.789 29.0451C41.9901 37.2734 37.0594 42.769 30.3451 45.9351C28.5462 46.7823 26.6357 47.3008 24.5003 46.9309C21.8989 46.48 20.3923 43.8678 21.3156 41.1448C21.866 39.453 22.6436 37.9311 23.6211 36.6323C28.6438 30.242 34.726 25.7619 42.4885 24.6102C43.453 24.468 43.8013 23.923 43.8397 22.7983C43.9827 18.9608 42.2006 15.6958 39.0836 14.1288C37.0324 13.145 34.9183 12.7448 32.9154 12.9613C28.1316 13.3258 23.9056 15.1889 19.9809 17.789C16.6471 19.998 13.5503 22.5962 11.0637 26.1031C10.9443 26.2574 10.7929 26.3694 10.6204 26.4312C10.4478 26.4929 10.2583 26.5027 10.0655 26.4599C10.1516 25.9622 10.2884 25.4915 10.4729 25.0577C10.9833 24.1255 11.5581 23.2571 12.1924 22.4599C16.6902 17.0636 22.0756 13.2621 28.4777 11.3835C30.9852 10.6501 33.5999 10.2759 36.3746 10.9097C37.737 11.1902 39.099 11.7187 40.4154 12.4778C43.5084 14.3609 45.2392 17.4777 45.6732 21.4623C45.7891 22.4911 45.7903 23.5045 45.851 24.7061ZM43.1287 27.4491L42.8216 26.9473C42.0025 27.1065 41.1537 27.1838 40.3501 27.4267C34.455 29.3044 29.2854 32.9939 25.2546 38.2001C24.4584 39.26 23.7921 40.4666 23.271 41.7927C22.5675 43.493 23.2032 44.7078 24.8472 44.6178C26.4573 44.5545 28.0079 44.2111 29.4557 43.5971C35.0108 41.0968 39.4518 36.3392 42.1794 29.9665C42.5592 29.1735 42.8242 28.2923 43.1287 27.4491Z" fill="#C97600"/>
</svg>
