<svg xmlns="http://www.w3.org/2000/svg" width="191" height="115" viewBox="0 0 191 115" fill="none">
  <path d="M87.4087 36.5179C88.2049 36.836 89.0207 37.1138 89.8521 37.35C95.231 38.5046 97.9368 41.8295 98.8474 46.4197C99.3078 48.4731 99.3878 50.5795 99.084 52.6555C98.333 56.8948 97.1765 61.0755 96.1487 65.272C95.2939 68.7806 94.2479 72.259 93.5201 75.7897C92.4911 80.7994 94.706 84.6539 99.3256 87.4676C104.852 90.7914 111.05 92.4495 117.598 93.1621C128.167 94.3112 138.002 92.2322 147.377 87.8605C157.453 83.1524 165.423 76.2205 173.798 68.6139C171.181 68.3436 169.653 69.372 167.983 69.6743C166.47 69.9457 164.929 70.3959 163.426 70.3191C162.697 70.2795 161.669 69.3385 161.386 68.613C161.172 68.062 161.739 67.0538 162.3 66.5397C163.002 66.0256 163.817 65.6496 164.693 65.4363C169.813 63.7221 174.939 62.0096 180.078 60.3329C181.757 59.7884 183.481 58.9829 185.706 60.6116C185.461 61.9595 185.084 63.2857 184.581 64.575C182.248 69.4865 179.768 74.3388 177.341 79.2161C176.202 81.5097 175.335 83.9642 172.463 85.7389C170.74 82.1609 172.387 78.9908 173.081 74.9502C171.193 76.6241 169.943 77.7156 168.697 78.8214C160.065 86.4955 150.16 92.3732 138.406 95.4776C125.942 98.9021 112.485 97.9746 100.75 92.8819C98.7583 92.0189 96.8788 90.9627 95.1452 89.7322C90.4715 86.4831 88.156 82.0701 88.9872 76.8702C89.8331 72.0579 91.0435 67.3029 92.6106 62.6376C94.0379 58.1284 95.107 53.6041 95.0595 48.9189C95.035 46.553 94.3435 44.2935 92.3752 42.5443C89.0487 39.5809 86.434 40.0057 84.3935 43.728C76.9316 57.5849 65.1461 67.5584 49.75 74.2132C45.6252 75.9943 41.3021 77.2745 36.6136 77.1822C30.9018 77.0693 27.9493 73.2323 30.4121 68.6474C31.8906 65.8042 33.8483 63.1801 36.2165 60.8671C48.3414 49.4369 62.5317 40.8225 79.9526 37.1531C82.1168 36.6987 82.9731 35.7426 83.2284 33.9294C84.1259 27.7396 80.6598 22.9199 73.9714 21.1376C69.5627 20.0406 64.926 19.8947 60.4434 20.7121C49.7595 22.4195 40.0888 26.4001 30.9761 31.4922C23.2353 35.8183 15.9622 40.7132 9.90758 46.9227C9.61895 47.1982 9.26569 47.4135 8.87295 47.553C8.48021 47.6926 8.05776 47.7528 7.63587 47.7294C7.90237 46.9107 8.27738 46.1234 8.75277 45.3843C10.0276 43.769 11.4359 42.241 12.9658 40.8132C23.7743 31.1008 36.3141 23.7384 50.822 19.2224C56.504 17.4574 62.37 16.2433 68.439 16.609C71.4235 16.7393 74.3699 17.2676 77.1798 18.1764C83.7674 20.4715 87.1418 25.0655 87.5039 31.3559C87.6059 32.9791 87.4556 34.6044 87.4087 36.5179ZM80.9458 41.5572L80.3395 40.8242C78.4954 41.2718 76.5979 41.5951 74.7758 42.1733C61.3943 46.569 49.351 53.701 39.6088 62.9989C37.6795 64.8861 36.0169 66.9783 34.6587 69.2278C32.8388 72.1207 34.0675 73.9202 37.7337 73.3901C41.3208 72.9106 44.8177 71.9959 48.1272 70.6712C60.8473 65.3564 71.4332 56.6819 78.4564 45.8185C79.4199 44.4571 80.1421 42.9813 80.9458 41.5572Z" fill="#C97600"/>
</svg>