<svg xmlns="http://www.w3.org/2000/svg" width="97" height="28" viewBox="0 0 97 28" fill="none">
  <path d="M55.996 8.15634C54.3709 3.86397 50.011 1.71763 44.8733 2.67914C42.4166 3.19371 40.106 4.19188 38.0966 5.60664C37.561 5.91066 37.1431 6.36557 36.9031 6.90569C36.6631 7.44595 36.6135 8.04317 36.7617 8.61139C37.3739 12.2341 36.4116 15.5953 34.4136 18.673C33.6888 19.8089 32.7297 20.7996 31.5916 21.5875C29.2346 23.1671 26.9879 22.1113 26.9511 19.4199C26.9632 18.0236 27.2216 16.6387 27.7154 15.3205C28.7466 12.4789 30.5742 10.0537 32.7057 7.8173C34.4275 6.00158 34.354 5.19878 32.3237 3.59346C29.6075 1.44728 26.3711 1.18112 23.0793 1.79488C21.0298 2.16908 19.0441 2.80147 17.1774 3.67491C10.9871 6.56049 5.95616 11.2257 2.82767 16.9817C1.85629 18.7458 1.35911 20.7377 0.429159 23.2016C0.20818 22.1585 -0.0773135 21.5917 0.0193646 21.0896C0.18654 19.9322 0.508261 18.7987 0.976973 17.7158C4.75662 9.89916 10.8427 4.27604 19.4608 1.15963C22.0213 0.159804 24.8166 -0.202675 27.5726 0.107959C30.8966 0.537316 32.5401 1.5116 35.8594 4.86831C36.5729 4.4391 37.3096 3.96691 38.0644 3.52478C40.8728 1.87648 43.8329 0.79475 47.2443 0.799108C51.2588 0.799108 54.3385 2.29276 56.6219 5.31479L57.7131 6.74413L59.8907 5.55089C62.455 4.14725 65.1527 3.21144 68.1773 3.20723C71.6762 3.20723 74.5213 4.38319 76.6253 7.02742C76.9198 7.39651 77.242 7.74862 77.6242 8.19932C78.3516 7.90311 79.033 7.63696 79.7005 7.34075C82.5159 6.10919 85.644 5.63505 88.7329 5.97153C89.8232 6.05013 90.8767 6.37444 91.8029 6.91651C92.7293 7.45857 93.5004 8.20217 94.0502 9.08358C96.6697 13.2043 96.7066 17.7845 96.9552 22.3129L96.3383 22.4804C96.0866 21.9813 95.8772 21.4646 95.7122 20.9352C95.1919 18.57 94.8374 16.1661 94.2022 13.831C92.6738 8.20368 90.0266 6.66253 83.3927 8.02754C81.7262 8.37094 80.17 9.17795 78.439 9.81756C78.6876 11.0623 78.8994 12.041 79.0743 13.024C79.6682 16.3379 79.3828 19.6088 77.7898 22.6134C76.9123 24.1021 75.7751 25.4439 74.4247 26.584C73.9017 27.0509 73.2375 27.3569 72.522 27.4604C71.8065 27.5641 71.0742 27.4604 70.4239 27.1635C68.9461 26.5539 68.5825 25.2532 68.5273 23.8539C68.403 19.8533 70.0695 16.398 72.3944 13.1828C73.3657 11.8393 74.6041 10.6588 75.7137 9.40984C75.0876 7.83067 73.8691 6.5166 72.2838 5.71094C70.6984 4.90512 68.8534 4.66227 67.0909 5.02715C64.8442 5.45636 62.6989 6.43515 60.572 7.29792C59.0114 7.92896 58.4175 9.10928 58.7859 10.7319C59.3704 13.3074 58.9838 15.8613 58.1919 18.3511C57.5199 20.4672 56.4517 22.4073 54.6194 23.884C53.6297 24.6824 52.511 25.2404 51.1758 24.7983C49.7026 24.3176 49.1687 23.0812 49.187 21.8193C49.2034 20.4231 49.4154 19.0348 49.8177 17.69C50.7303 14.8388 52.2893 12.2039 54.3893 9.96348C54.9141 9.38399 55.4389 8.78316 55.996 8.15634ZM76.9014 11.7921C76.6547 11.7763 76.4069 11.7923 76.1648 11.8393C75.9426 11.9505 75.7419 12.0955 75.5709 12.2685C72.8215 15.0242 71.022 18.486 70.4055 22.2056C70.2123 23.369 69.8393 24.781 71.3263 25.5751C72.2471 26.0774 73.7248 25.4594 74.885 23.9527C77.7532 20.2054 77.9832 16.0932 76.9245 11.7921H76.9014ZM56.7417 10.7062C52.474 13.8009 49.9788 20.4672 51.9494 23.1542C55.7473 21.9309 57.98 16.3164 56.7417 10.7018V10.7062ZM34.9063 8.29805C31.9691 11.0323 30.0863 13.8095 28.9905 17.0376C28.7705 17.6201 28.6707 18.2361 28.696 18.8531C28.7465 19.4069 28.9629 20.2311 29.3681 20.3985C29.7732 20.5659 30.5789 20.2269 31.1498 19.9693C31.5087 19.7738 31.8144 19.5034 32.0428 19.1794C34.6025 16.106 35.5647 12.6376 34.9063 8.29805Z" fill="black"/>
</svg>