<svg width="98" height="29" viewBox="0 0 98 29" fill="none" xmlns="http://www.w3.org/2000/svg">
<path d="M56.5184 8.66171C54.8933 4.36934 50.5334 2.223 45.3957 3.18451C42.939 3.69908 40.6284 4.69726 38.619 6.11201C38.0834 6.41604 37.6655 6.87094 37.4255 7.41106C37.1855 7.95132 37.1359 8.54854 37.284 9.11676C37.8963 12.7395 36.934 16.1007 34.936 19.1783C34.2112 20.3143 33.2521 21.305 32.114 22.0929C29.757 23.6725 27.5103 22.6166 27.4735 19.9252C27.4856 18.529 27.744 17.1441 28.2378 15.8258C29.269 12.9843 31.0966 10.559 33.2281 8.32267C34.9499 6.50696 34.8764 5.70415 32.8461 4.09883C30.1299 1.95265 26.8935 1.6865 23.6017 2.30025C21.5522 2.67445 19.5665 3.30684 17.6998 4.18028C11.5095 7.06586 6.47856 11.7311 3.35007 17.487C2.37869 19.2512 1.88151 21.2431 0.951559 23.7069C0.73058 22.6638 0.445086 22.0971 0.541765 21.595C0.708939 20.4375 1.03066 19.3041 1.49937 18.2212C5.27902 10.4045 11.3651 4.78141 19.9832 1.665C22.5437 0.665175 25.339 0.302696 28.095 0.61333C31.419 1.04269 33.0625 2.01697 36.3818 5.37368C37.0953 4.94447 37.832 4.47228 38.5868 4.03015C41.3952 2.38185 44.3553 1.30012 47.7667 1.30448C51.7812 1.30448 54.8609 2.79814 57.1443 5.82017L58.2355 7.2495L60.4131 6.05626C62.9774 4.65262 65.6751 3.71681 68.6997 3.7126C72.1986 3.7126 75.0437 4.88857 77.1477 7.53279C77.4422 7.90188 77.7644 8.25399 78.1466 8.70469C78.874 8.40848 79.5554 8.14233 80.2229 7.84612C83.0383 6.61456 86.1664 6.14042 89.2553 6.4769C90.3456 6.5555 91.3991 6.87981 92.3253 7.42188C93.2517 7.96395 94.0228 8.70755 94.5726 9.58895C97.1921 13.7097 97.229 18.2899 97.4776 22.8183L96.8607 22.9857C96.609 22.4866 96.3996 21.97 96.2346 21.4405C95.7143 19.0754 95.3598 16.6715 94.7246 14.3364C93.1962 8.70905 90.549 7.1679 83.9151 8.53292C82.2486 8.87631 80.6924 9.68333 78.9614 10.3229C79.21 11.5677 79.4218 12.5464 79.5967 13.5294C80.1906 16.8432 79.9052 20.1141 78.3122 23.1187C77.4347 24.6074 76.2975 25.9493 74.9471 27.0893C74.4241 27.5563 73.7599 27.8622 73.0444 27.9658C72.3289 28.0695 71.5965 27.9658 70.9463 27.6688C69.4685 27.0593 69.1049 25.7586 69.0497 24.3593C68.9254 20.3586 70.5919 16.9033 72.9168 13.6882C73.8881 12.3447 75.1265 11.1642 76.2361 9.91521C75.61 8.33605 74.3915 7.02197 72.8062 6.21631C71.2208 5.4105 69.3758 5.16764 67.6133 5.53252C65.3666 5.96173 63.2213 6.94052 61.0944 7.80329C59.5338 8.43433 58.9399 9.61465 59.3083 11.2372C59.8928 13.8128 59.5062 16.3667 58.7143 18.8564C58.0423 20.9725 56.9741 22.9127 55.1418 24.3894C54.1521 25.1878 53.0334 25.7458 51.6982 25.3037C50.225 24.8229 49.6911 23.5866 49.7094 22.3246C49.7258 20.9285 49.9378 19.5402 50.3401 18.1953C51.2527 15.3442 52.8117 12.7093 54.9117 10.4689C55.4365 9.88936 55.9613 9.28854 56.5184 8.66171ZM77.4238 12.2975C77.1771 12.2817 76.9293 12.2976 76.6872 12.3447C76.465 12.4559 76.2643 12.6009 76.0933 12.7739C73.3439 15.5296 71.5444 18.9914 70.9279 22.711C70.7347 23.8744 70.3617 25.2864 71.8487 26.0805C72.7695 26.5827 74.2472 25.9648 75.4074 24.458C78.2756 20.7108 78.5056 16.5986 77.4469 12.2975H77.4238ZM57.2641 11.2116C52.9964 14.3063 50.5012 20.9725 52.4718 23.6596C56.2697 22.4363 58.5024 16.8217 57.2641 11.2072V11.2116ZM35.4287 8.80342C32.4915 11.5377 30.6087 14.3149 29.5129 17.5429C29.2929 18.1254 29.1931 18.7415 29.2184 19.3585C29.2689 19.9123 29.4853 20.7365 29.8905 20.9039C30.2956 21.0713 31.1013 20.7322 31.6722 20.4747C32.0311 20.2791 32.3368 20.0088 32.5652 19.6848C35.1249 16.6114 36.0871 13.143 35.4287 8.80342Z" fill="black"/>
</svg>
