<svg width="264" height="139" viewBox="0 0 264 139" fill="none" xmlns="http://www.w3.org/2000/svg">
<path fill-rule="evenodd" clip-rule="evenodd" d="M64.6602 133.059C67.0537 132.795 69.2536 132.681 71.4063 132.295C110.105 125.382 148.86 118.861 188.016 115.019C195.846 114.251 203.609 112.821 211.432 112.008C162.766 111.107 114.135 110.208 64.6602 109.292V133.059ZM7.65712 102.81C91.3567 104.407 174.047 105.985 256.751 107.563C200.391 73.7535 144.035 39.9474 87.2989 5.91272C78.6604 16.3706 70.2439 26.5591 61.5121 37.1282C64.411 38.3733 66.4029 39.2721 68.4276 40.0915C87.1526 47.6662 105.882 55.2256 124.608 62.7946C126.236 63.4528 128.037 63.8991 129.403 64.9192C129.413 64.9262 129.424 64.9336 129.435 64.9406C131.174 66.2799 130.603 69.0313 128.598 69.9217C128.329 70.043 128.056 70.1551 127.781 70.2567C127.228 70.4613 126.486 70.1661 125.833 70.085C99.6808 66.8449 73.5217 63.6561 47.3836 60.3008C45.1245 60.0117 42.7818 59.9491 42.7818 59.9491C42.7818 59.9491 37.8271 66.8235 35.8063 69.4184C35.8063 69.4184 25.4221 81.5765 11.5441 97.7065C10.0263 99.4702 9.65383 99.7015 7.65712 102.81ZM58.4099 109.406C40.3353 108.103 22.0926 109.394 2.9658 107.745C0.678803 107.547 -0.6733 105.114 0.342617 103.055C0.770733 102.189 1.19521 101.444 1.73098 100.788C13.5324 86.3009 25.5031 71.9508 37.2612 57.4264C39.7936 54.2962 42.7337 53.2486 46.4888 53.7387C49.2704 54.1017 52.0471 54.502 54.9727 54.9063C54.9727 49.8394 55.1251 45.2841 54.9197 40.7445C54.7818 37.6752 55.7663 35.3356 57.735 33.0113C65.8392 23.4508 73.7752 13.7502 81.7949 4.11835C86.091 -1.04182 86.1392 -1.07204 92.0482 2.46808C125.791 22.6813 159.521 42.9151 193.252 63.1476C214.923 76.1452 236.602 89.1306 258.247 102.172C260.947 103.798 264.654 104.897 263.411 109.403C262.159 113.94 258.441 112.611 255.283 112.926C242.608 114.198 229.94 115.565 217.28 116.994C199.383 119.015 181.441 120.729 163.616 123.278C136.228 127.197 108.925 131.714 81.5834 135.982C76.5923 136.761 71.6226 137.72 66.6083 138.305C61.1455 138.94 58.4485 136.354 58.4196 130.78C58.3819 123.799 58.4099 116.816 58.4099 109.406Z" fill="#C97600"/>
</svg>
