<svg width="180" height="163" viewBox="0 0 180 163" fill="none" xmlns="http://www.w3.org/2000/svg">
<g id="Yuppies Books">
<g id="Master/Stickers/Books">
<path id="Books" fill-rule="evenodd" clip-rule="evenodd" d="M172.407 25.4095C173.027 24.5524 173.381 23.4968 173.359 22.3699C173.35 21.9348 173.342 21.5065 173.334 21.084C173.257 17.2 173.191 13.8126 173.101 10.4272C172.866 1.55137 171.964 1.29234 162.232 1.48357C159.68 1.53235 157.128 1.48162 154.578 1.34991C125.172 -0.180369 95.7971 0.425008 66.5208 3.5163C52.5527 4.99292 38.6406 7.19736 24.7959 9.6179C18.5431 10.7116 13.9366 16.3966 14.6313 22.7124C15.4542 30.1862 20.89 35.6819 28.958 36.9132C31.2156 37.2581 33.5088 37.3727 35.9635 37.4961C37.1279 37.5546 38.3284 37.6146 39.5787 37.702C41.1177 47.1666 42.5988 56.279 44.1656 65.9236C42.5085 66.0743 40.9368 66.1929 39.4265 66.3065C36.0752 66.5592 33.0288 66.7885 30.0302 67.3027C27.0594 67.8129 23.8276 68.57 21.4119 70.2349C12.1102 76.6434 9.35457 93.9443 22.6988 102.306C25.6315 104.144 30.7268 106.218 30.7268 106.218C33.1263 114.356 33.9976 130.196 33.9976 130.196C33.9976 130.196 26.7359 130.736 22.708 130.7C15.2157 130.63 9.21798 131.739 4.09786 136.84C-0.720786 141.64 -1.39104 148.637 2.62612 154.094C6.47109 159.316 11.2844 162.813 18.448 162.428C26.4272 161.999 34.4317 161.981 42.4314 161.963C43.8807 161.96 45.3305 161.957 46.7793 161.951C62.0529 161.894 77.3269 161.857 92.6004 161.82C109.346 161.779 126.091 161.739 142.836 161.672C151.424 161.639 160.016 161.493 168.6 161.23H174.701L174.708 161.16C177.516 161.036 177.952 160.15 178.463 154.713L178.99 149.384C178.99 149.384 179.815 135.445 179.99 131.302C180.151 127.491 178.312 127.352 174.884 127.504C173.296 127.574 171.474 127.56 169.516 127.546C166.722 127.525 163.652 127.502 160.597 127.717C166.41 117.594 168.126 108.086 155.513 100.414C157.132 100.328 158.967 100.259 160.841 100.189C164.656 100.046 168.626 99.8976 171.236 99.5863C176.344 98.9775 178.105 97.0316 178.109 91.8442C178.114 86.3314 177.918 80.7991 177.418 75.3106C177.13 72.152 176.577 69.0164 176 65.7343C175.919 65.2787 175.839 64.8206 175.758 64.3592C175.423 62.4435 173.829 60.9981 171.89 60.8625L159.451 60.1825C161.847 58.8478 165.295 50.0076 164.763 44.8943C164.75 44.7733 164.738 44.6519 164.725 44.5309C164.212 39.5606 163.681 34.4107 156.832 28.9437C157.882 28.811 159.325 28.6535 160.811 28.492C162.705 28.2857 164.669 28.072 165.975 27.891C167.006 27.7471 168.038 27.5959 169.072 27.4408C170.329 27.2515 171.418 26.609 172.184 25.6954L172.442 25.6534L172.407 25.4095ZM39.267 12.9575C41.2797 12.5975 43.4056 12.218 45.6832 11.777C41.1407 13.6897 39.0348 26.1324 49.1545 31.6643C46.8667 31.5043 44.2656 31.4555 41.7163 31.4082C38.0772 31.3404 34.5439 31.2745 32.1795 30.8891C29.4306 30.4403 26.2437 29.7301 24.3242 27.9661C22.4715 26.2646 22.0944 23.1587 22.3519 20.7596C22.551 18.9118 24.3364 16.2932 26.4803 15.6761C30.457 14.5317 34.5522 13.8 39.267 12.9575ZM35.0435 73.5267C35.9537 73.4345 36.9342 73.336 38.0201 73.2291C36.3908 82.6893 37.8928 91.5261 43.9588 98.961C43.3373 98.9746 42.7349 98.9892 42.15 99.0034C34.4117 99.1917 29.796 99.3039 24.7071 95.7911C20.2129 92.6867 18.9626 87.9651 20.3543 82.602C21.6758 77.5034 24.7315 74.456 30.117 73.9989C31.6658 73.8672 33.2122 73.7111 35.0435 73.5267ZM133.591 127.307C136.907 119.33 139.31 111.631 133.35 102.47C135.295 102.514 137.031 102.507 138.622 102.502C141.759 102.489 144.334 102.479 146.848 102.867C153.319 103.868 157.539 108.323 158.439 114.305C159.383 120.575 154.998 126.538 148.692 127.137C147.59 127.241 146.478 127.258 145.369 127.266C142.797 127.282 140.225 127.289 137.362 127.297C136.163 127.3 134.913 127.304 133.591 127.307ZM166.144 7.83835L166.465 11.8248C164.959 11.9219 163.451 12.0048 161.943 12.0877C158.302 12.2882 154.663 12.4882 151.045 12.8897C150.572 12.9419 150.045 12.9609 149.501 12.9804C147.039 13.0692 144.221 13.1707 144.367 16.4478C144.517 19.8718 147.132 19.5323 149.538 19.2201C150.124 19.144 150.698 19.0693 151.221 19.0513C152.954 18.9923 155.84 18.7381 158.79 18.4776C162.086 18.1869 165.463 17.8893 167.4 17.8498L167.733 22.5782C167.733 22.5782 160.363 22.8226 157.711 23.2329C154.67 23.3782 149.836 23.4748 143.913 23.5938C127.415 23.9251 102.465 24.4256 84.2607 26.6081C82.1036 26.8666 79.9484 27.17 77.7927 27.4739C72.4004 28.2339 67.0052 28.9944 61.5729 29.0452C56.8742 29.0896 49.6267 26.7949 48.8774 22.0792C48.1364 17.4239 53.2649 11.755 58.8577 10.6887C62.7358 9.94962 66.6959 9.62863 70.6521 9.30765C71.936 9.20374 73.2195 9.09936 74.4995 8.98131C103.836 6.271 133.217 6.62027 162.605 7.75298C164.063 7.81006 166.144 7.83835 166.144 7.83835ZM42.5339 130.158C42.2939 130.167 40.749 130.282 40.749 130.282C40.5397 127.411 40.3143 124.317 40.0231 120.337C40.9826 120.196 41.9158 120.044 42.8319 119.895C44.7573 119.582 46.6081 119.281 48.4711 119.112C53.3044 118.676 58.1401 118.262 62.9753 117.848C71.4633 117.121 79.9513 116.395 88.4267 115.545C88.7476 115.513 89.0667 115.464 89.3842 115.4C93.158 114.657 92.1643 108.935 88.3408 109.352C88.0403 109.385 87.7437 109.416 87.4539 109.438C77.2849 110.235 67.1237 111.149 56.9635 112.063C52.5005 112.464 48.0374 112.866 43.5734 113.257C42.049 113.39 38.667 113.833 38.667 113.833C38.3611 112.622 38.044 111.373 37.7113 110.064C37.382 108.768 37.0377 107.413 36.6752 105.977C40.2753 105.705 43.8183 105.412 47.3218 105.122C55.0283 104.484 62.5461 103.863 70.076 103.509C85.5276 102.783 100.998 102.388 116.463 102.026C124.736 101.831 128.62 104.408 130.39 110.652C132.045 116.49 129.686 122.526 123.954 126.238C122.282 127.32 120.133 128.153 118.17 128.226C104.198 128.742 90.4023 129.031 76.5878 129.321C65.2842 129.558 53.9683 129.796 42.5339 130.158ZM46.6057 40.0269C46.5545 39.0703 46.5032 38.1142 46.4535 37.7249C46.4535 37.7249 50.6238 37.3624 52.7873 36.9585C75.2732 32.7672 98.0293 31.5062 120.83 30.9301C128.682 30.7311 136.56 30.8003 144.404 31.2038C152.317 31.6106 156.588 35.62 158.506 43.5187C159.704 48.4451 156.26 57.1785 151.622 60.0396C150.264 60.8766 148.309 60.9357 146.591 60.9874C146.534 60.9893 146.477 60.9908 146.421 60.9928C127.751 61.562 108.802 62.0923 89.6833 62.6274C76.6332 62.9923 63.5046 63.3596 50.3321 63.7431L49.6648 57.9751C49.6648 57.9751 52.4619 57.6922 53.3356 57.7083C53.9566 57.718 61.1309 57.5341 65.3046 56.3136C67.0676 55.7995 68.9486 55.577 70.838 55.3541C72.9229 55.1082 75.0181 54.8609 76.9766 54.2184C77.1118 54.1741 77.242 54.1136 77.3669 54.0409C79.3859 52.8731 79.0425 49.8505 76.98 48.7622C76.6234 48.5749 76.2747 48.4681 75.9351 48.4949C71.6897 48.8305 67.4608 49.3744 63.2309 49.9183C60.7045 50.2432 58.1777 50.5681 55.6469 50.8491C53.3122 51.1076 48.6311 51.8316 48.6311 51.8316C48.5891 51.4813 48.453 50.7389 48.3174 49.9959C48.1808 49.2496 48.0438 48.5017 48.0018 48.1495C48.0018 48.1495 52.9756 47.5695 55.3478 47.2105C59.1279 46.6383 62.9207 46.148 66.713 45.6582C68.8969 45.3758 71.0804 45.0938 73.2614 44.7963C73.6 44.7499 73.9454 44.7124 74.2927 44.6743C75.5371 44.5387 76.8025 44.4007 77.843 43.8577C78.085 43.7328 78.3093 43.5714 78.5206 43.3889C80.0562 42.0655 79.9167 39.5005 78.1323 38.5405C77.8781 38.4025 77.621 38.3137 77.3571 38.2937C75.0732 38.1249 72.7375 38.4503 70.4301 38.7718C70.134 38.8127 69.8384 38.8542 69.5438 38.8942C67.2105 39.2122 64.8817 39.5645 62.5534 39.9167C59.1845 40.4264 55.8161 40.9357 52.4346 41.3416C50.5599 41.5674 46.7584 42.3323 46.7584 42.3323C46.7081 41.943 46.6569 40.9845 46.6057 40.0269ZM173.811 134.523C173.746 135.286 173.681 136.048 173.713 136.418C171.824 136.629 169.807 136.543 167.801 136.457C166.141 136.386 164.488 136.315 162.921 136.414C156.606 136.81 150.285 137.124 143.965 137.438C141.897 137.541 139.83 137.644 137.763 137.749C137.483 137.764 137.184 137.734 136.888 137.705C136.354 137.652 135.827 137.6 135.429 137.808C135.27 137.891 135.115 137.98 134.96 138.072C133.075 139.206 132.714 141.923 134.427 143.303C134.706 143.528 134.988 143.668 135.273 143.675C141.379 143.794 147.497 143.523 153.607 143.253C154.047 143.234 154.486 143.214 154.926 143.195C156.224 143.138 157.678 143.062 159.214 142.983C164.102 142.73 169.817 142.435 173.979 142.539L173.982 145.452C172.524 145.544 170.277 145.518 167.669 145.488C160.373 145.404 150.244 145.288 146.595 147.618C146.487 147.687 146.413 147.809 146.36 147.974C145.918 149.323 146.776 150.79 148.117 151.253C150.675 152.139 153.317 151.851 155.938 151.567C156.924 151.459 157.908 151.352 158.883 151.309C162.979 151.124 168.32 150.839 173.589 150.5L173.174 155.037C173.174 155.037 165.519 155.286 163.172 155.297C140.477 155.398 117.781 155.477 95.0858 155.555C78.942 155.611 62.7987 155.667 46.6554 155.731C43.2076 155.745 39.7597 155.794 36.3123 155.844C30.8395 155.923 25.3666 156.001 19.8958 155.937C17.3611 155.908 14.6708 155.308 12.3434 154.298C8.02917 152.43 5.83888 148.55 6.50133 145.026C7.15842 141.53 10.5156 138.607 15.1308 138.264C20.1787 137.889 25.2418 137.727 30.3053 137.565C32.0624 137.509 33.82 137.453 35.5766 137.388L39.1714 137.255C81.4992 135.689 123.827 134.122 166.157 132.604C168.457 132.521 171.601 132.454 173.909 132.615C173.942 132.987 173.876 133.755 173.811 134.523ZM152.732 80.3742C153.73 80.2386 154.728 80.1034 155.726 79.9707C157.065 79.9766 159.986 79.5849 162.908 79.1927C165.83 78.801 168.752 78.4088 170.09 78.4146C170.09 78.4146 170.553 81.1917 170.528 81.5557C168.632 81.2869 158.611 81.6967 155.986 82.0786C153.96 82.3718 152.481 84.1216 152.601 86.1655C152.602 86.1811 152.603 86.1963 152.604 86.2114C152.604 86.2226 152.605 86.2333 152.606 86.2446C152.667 87.2334 153.511 88.0129 154.503 87.9792C157.273 87.8846 159.847 87.6992 162.363 87.5182C165.248 87.3104 168.056 87.1085 170.997 87.0548C171.123 87.828 171.298 88.7456 171.487 89.7329C171.709 90.8959 171.949 92.1554 172.149 93.3891C170.522 93.6745 168.968 93.6979 167.505 93.7198C166.86 93.7296 166.231 93.7394 165.623 93.7706C161.086 94.0042 154.87 94.2808 149.134 94.536C141.37 94.8813 134.489 95.1872 133.852 95.2945C127.092 96.0609 122.048 96.0628 116.974 96.0648C114.722 96.0653 112.464 96.0662 110.047 96.1341C95.1922 96.5477 80.3416 97.1102 65.492 97.6731C63.5739 97.7458 61.6558 97.8185 59.7377 97.8912C52.5439 98.1639 48.3491 95.955 45.5827 89.6427C44.5456 87.2763 43.9237 84.7328 43.6793 82.161C43.0197 75.2219 45.3071 71.912 51.8404 71.4857L52.8902 71.4174C75.8215 69.9247 98.7581 68.431 121.715 67.447C136.118 66.8304 153.825 66.3636 168.25 66.267L169.507 72.7086C167.18 72.9233 164.845 73.1365 162.504 73.3501C156.06 73.9384 149.571 74.5306 143.084 75.1663C142.858 75.1882 142.631 75.2097 142.404 75.2311C140.275 75.4336 138.101 75.6399 136.138 76.3595C135.885 76.4521 135.655 76.6102 135.441 76.8112C133.94 78.2185 134.343 80.8259 136.172 81.7674C136.455 81.9118 136.738 82.0045 137.027 82.0171C139.262 82.1201 141.52 81.8244 143.771 81.5303C144.389 81.4493 145.007 81.3683 145.624 81.2962C147.997 81.0171 150.365 80.6956 152.732 80.3742Z" fill="#A1483A"/>
</g>
</g>
</svg>
