<svg width="320" height="102" viewBox="0 0 320 102" fill="none" xmlns="http://www.w3.org/2000/svg">
<path fill-rule="evenodd" clip-rule="evenodd" d="M317.265 90.4443L317.407 98.6061L266.226 97.7338L138.561 91.2805L114.806 36.31L98.1419 53.881L98.2044 57.4531L114.021 58.5454L116.684 61.2542L109.065 90.6751L104.999 92.9931L57.5125 91.5732L49.5965 78.693L44.9322 87.9164L29.8787 92.0554L22.2375 88.312L19.349 86.1683L8.12189 84.348L1.20145 74.8672L7.80081 65.9912L21.7932 62.9079L44.4885 62.5124L41.6481 43.0778L48.7362 29.517L60.2116 22.1312L92.0516 51.4169L90.9431 36.7254L94.9792 21.5253L98.7779 21.4591L98.9414 30.8197L95.4668 49.3977L104.139 43.8124L111.985 28.4145L104.447 3.79791L183.393 2.42188L237.613 4.27462L261.472 75.0007L263.455 77.6469L283.8 81.5598L308.46 85.9579L317.265 90.4443Z" fill="white"/>
<path fill-rule="evenodd" clip-rule="evenodd" d="M11.0415 76.4947C11.9571 77.8846 14.2535 78.5428 14.634 78.2669C14.5372 77.3994 14.3581 76.021 14.1796 74.6462C14.0034 73.2906 13.8279 71.9392 13.7323 71.0837C13.7149 70.9275 11.7635 71.4228 11.0199 72.2728C9.86325 73.5936 10.1266 75.1043 11.0415 76.4947ZM92.1916 41.9267C92.0864 44.083 91.9866 46.1378 91.8405 47.8661C94.702 40.5729 98.6948 25.0873 95.534 25.1426C92.9719 25.8742 92.5523 34.5061 92.1916 41.9267ZM13.3067 68.3894L13.3921 66.7759C7.08719 67.2183 3.40811 70.72 4.15894 75.7264C4.94403 80.9619 10.1056 85.1922 16.2463 84.1949L15.1726 81.343C12.524 80.924 7.90714 78.8735 7.39795 75.8376C6.9603 69.8802 9.97388 69.0182 13.3067 68.3894ZM315.373 95.2104C315.228 94.4 315.082 93.5896 315.015 93.3456C307.456 92.843 299.786 92.6284 292.08 92.412C284.298 92.1938 276.478 91.9744 268.695 91.4574L269.52 94.9386C269.52 94.9386 269.924 94.9717 270.359 94.9921C277.097 95.2999 283.836 95.5939 290.575 95.8885C295.423 96.1001 300.271 96.3117 305.119 96.5287C306.147 96.5744 307.175 96.6465 308.202 96.7187C309.858 96.8347 311.514 96.9507 313.171 96.9561C314.059 96.9591 315.732 97.0751 315.732 97.0751C315.664 96.8305 315.519 96.0201 315.373 95.2104ZM312.09 90.0994C297.39 85.8955 280.919 82.5315 265.284 80.2681C265.648 81.364 265.963 82.3169 266.263 83.2216C266.702 84.5441 267.106 85.7627 267.574 87.1742C274.658 87.6707 282.288 88.1571 289.91 88.6422C297.494 89.1249 305.07 89.6076 312.09 90.0994ZM44.7776 74.9816C43.7634 71.4475 42.6188 67.4576 41.5073 64.2859C37.4579 64.512 33.4356 64.8522 29.4837 65.1865C25.676 65.5087 21.9338 65.8249 18.295 66.0287C17.1396 71.1367 18.7483 82.0499 21.3525 85.6623C22.3805 87.0876 23.8394 88.5141 25.4187 89.1736C32.0259 91.9281 42.2016 87.8733 45.2104 81.3887C45.7208 80.2892 46.0887 79.4806 46.0887 79.4806C45.6907 78.1641 45.2483 76.6222 44.7776 74.9816ZM85.1737 49.0028C76.8201 40.7947 68.49 32.6094 60.3101 24.5709C47.7797 29.0368 41.3654 40.4148 43.5837 54.2413C54.1032 54.3723 64.6835 54.504 75.2818 54.6362L91.1077 54.8334L85.1737 49.0028ZM106.974 88.433C111.275 79.6844 112.849 70.4039 113.095 60.3881C109.894 60.1638 107.145 59.9703 103.949 59.7454L103.912 59.7424C103.934 61.0325 103.967 62.2817 104 63.502C104.075 66.3395 104.147 69.0212 104.069 71.6999C104.011 73.6837 103.634 75.7306 102.964 77.59C102.65 78.4545 101.288 79.4596 100.411 79.4506C99.5418 79.4404 98.1724 78.3859 97.9235 77.5281C97.4594 75.92 97.2977 74.2194 97.136 72.5247C97.0909 72.0492 97.0459 71.5737 96.9935 71.1012C96.8902 70.1634 96.8427 69.219 96.8012 68.3936C96.7838 68.0539 96.7681 67.7341 96.7495 67.4432C95.7852 67.3031 94.8078 67.2352 93.8471 67.1678C91.7142 67.0194 89.6667 66.8763 88.046 65.9668C86.4325 65.062 85.2278 63.4239 83.8458 61.5459C83.1905 60.655 82.495 59.7094 81.6979 58.7632C76.4035 58.6964 70.6541 58.6303 64.7087 58.5618C58.3143 58.4884 51.6938 58.4121 45.1683 58.3303C47.3072 69.4083 51.8026 79.2744 56.399 89.3612L56.4477 89.4694C57.1047 89.5199 57.7787 89.5818 58.4652 89.6443C59.9957 89.7838 61.5869 89.9293 63.1806 89.9743C70.2267 90.1745 78.6068 90.3392 86.8281 90.5009C93.2995 90.6284 99.6723 90.754 105.219 90.8929L106.974 88.433ZM124.08 4.41605C117.747 4.45813 111.394 4.50082 105.02 4.53328C106.275 8.12997 107.449 11.8601 108.595 15.4977C109.684 18.9591 110.748 22.3364 111.829 25.4347C111.829 25.4347 113.217 24.2985 113.62 24.0887C118.125 21.7527 122.535 22.9393 120.568 26.6557C118.541 29.8778 115.738 33.8328 115.738 33.8328C115.969 35.2972 117.024 37.7078 117.884 39.6742C118.182 40.3547 118.456 40.9823 118.666 41.4987C122.081 49.9497 125.448 58.4205 128.816 66.8919C130.924 72.1983 133.033 77.5053 135.155 82.8068C135.693 84.1528 136.306 85.4687 137 86.9608C137.351 87.7134 137.722 88.5111 138.115 89.3804C180.414 91.2067 222.866 93.0396 265.419 94.8767C255.675 65.1155 246.048 35.7072 236.228 5.70552C199.26 3.9147 162.009 4.16297 124.08 4.41605ZM259.929 65.6632C261.052 68.9731 262.176 72.2848 263.289 75.602C265.133 75.92 266.942 76.2152 268.726 76.5061C272.583 77.1355 276.321 77.7451 280.024 78.5254C280.949 78.7208 281.875 78.9155 282.8 79.1103C292.728 81.2011 302.663 83.2931 312.488 85.8053C318.57 87.3611 319.978 89.9749 319.799 96.1872C319.677 100.381 319.025 100.997 314.639 101.014C313.461 101.019 312.281 101.017 311.105 100.965C301.9 100.555 292.696 100.14 283.491 99.7262C267.317 98.9982 251.143 98.2702 234.967 97.5621C218.935 96.8599 202.902 96.183 186.869 95.5061C179.872 95.2104 172.875 94.9152 165.878 94.6176C163.35 94.51 160.822 94.4006 158.294 94.2918C152.753 94.0525 147.213 93.8139 141.672 93.5891C137.161 93.4051 134.215 91.1742 132.535 86.9908C130.853 82.8032 129.136 78.6294 127.42 74.4556C125.611 70.057 123.803 65.659 122.033 61.2447C120.002 56.1752 118.032 51.081 115.994 45.8102C115.085 43.4621 114.164 41.0791 113.217 38.6474C112.408 39.6105 111.636 40.5356 110.887 41.4338C109.229 43.4218 107.684 45.2739 106.102 47.0936C104.587 48.8321 103.035 50.537 101.336 52.4036C100.541 53.2776 99.7132 54.1872 98.8421 55.1514C100.311 55.2693 101.675 55.3841 102.967 55.4929C105.639 55.7177 108.007 55.9167 110.379 56.0652C116.699 56.4589 117.54 57.1424 117.091 63.3091C116.34 73.6495 114.583 83.747 109.173 92.8929C108.441 94.1295 107.143 94.9921 105.71 94.9687C105.702 94.9687 105.693 94.9681 105.685 94.9681C100.514 94.8503 95.3446 94.724 90.1741 94.5978C79.0263 94.3249 67.878 94.0525 56.7285 93.8644C54.5084 93.8271 53.2808 92.8875 52.2859 91.2199C51.6277 90.1174 50.8696 88.6416 50.1043 87.1525C49.3962 85.7729 48.6815 84.3824 48.0346 83.2649C47.3799 85.4573 46.498 86.7816 46.1049 87.316C41.4989 93.1358 33.8324 94.1794 25.9182 93.5265C24.0601 93.3732 21.9224 92.2948 20.6017 90.9602C18.7609 89.1021 17.6608 88.0591 17.6608 88.0591C17.2532 88.0236 16.5325 87.9977 15.6933 87.9683C13.8002 87.9004 11.3024 87.8114 10.4193 87.5379C3.34317 85.3455 -0.817383 79.3033 0.134827 72.7026C1.06601 66.2475 6.43011 62.144 13.9794 61.9324C20.7057 61.7443 27.4289 61.4377 34.1498 61.101C36.0993 61.003 38.5214 60.854 40.2809 60.6267C40.118 58.7758 39.8367 57.012 39.5668 55.3228C39.3191 53.7736 39.0822 52.2869 38.9554 50.8538C37.7879 37.6146 44.486 28.7423 55.0464 22.1753C59.3561 19.4953 60.7039 19.7508 64.3811 23.2261C68.615 27.2279 72.8068 31.2743 76.9993 35.3207C79.3546 37.5942 81.7105 39.8684 84.0736 42.1341C84.4235 42.4695 85.0373 43.138 85.7418 43.9051C86.8906 45.1567 88.2805 46.6704 89.1551 47.4254C88.777 46.0187 88.5576 37.7289 88.8059 36.0889C89.0175 34.6894 89.1552 33.6434 89.2754 32.7243C89.5285 30.7982 89.7076 29.4312 90.3466 26.542C90.8378 24.3166 91.9114 22.0496 93.291 20.2366C95.0097 17.9798 97.7781 18.4018 98.9756 20.9904C99.727 22.6165 100.205 24.5606 100.141 26.3382C99.9657 31.2959 99.2575 35.9921 97.005 45.539C98.7609 43.1362 100.988 39.7926 103.175 36.5103C105.283 33.3465 107.353 30.2391 108.925 28.087C108.004 24.8155 106.786 21.645 105.571 18.4842C103.804 13.889 102.045 9.31183 101.217 4.46595C100.912 2.68474 102.174 1.01053 103.971 0.860246C123.838 -0.799533 213.016 0.192967 235.849 2.05594C238.779 2.29519 241.209 4.43229 241.853 7.3082C242.327 9.42665 242.808 11.491 243.406 13.5217C246.313 23.3824 249.239 33.2407 252.385 43.0262C254.818 50.5947 257.372 58.1247 259.929 65.6632ZM176.773 59.8061C178.038 60.2768 179.436 60.2576 180.688 59.7544L180.729 59.7376C182.087 59.1918 183.336 58.6904 184.38 57.9131C187.065 55.9167 187.478 53.4622 185.348 50.9295C183.662 48.9259 181.509 47.1273 179.217 45.8715C175.366 43.7614 172.81 44.5952 170.553 48.0085C168.46 51.1772 168.82 55.2879 171.899 57.5248C173.235 58.4944 174.841 59.0896 176.492 59.7016C176.585 59.7364 176.679 59.7713 176.773 59.8061ZM180.819 63.808C180.448 63.882 180.13 63.9451 179.892 64.0082C174.771 63.9799 171.186 62.851 168.347 59.853C164.582 55.8782 164.185 50.0537 167.354 45.4903C170.744 40.609 174.959 39.2708 180.503 42.0042C183.282 43.3749 185.98 45.3821 188.011 47.717C192.688 53.0967 191.114 59.6348 184.637 62.6911C183.326 63.3091 181.862 63.6 180.819 63.808Z" fill="#24635C"/>
</svg>
