<svg xmlns="http://www.w3.org/2000/svg" width="200" height="41" viewBox="0 0 200 41" fill="none">
  <path d="M199.492 26.1779C197.885 27.3632 196.916 28.3583 195.733 28.9025C187.695 32.5813 179.622 36.2005 171.523 39.7452C170.118 40.3602 168.446 41.2733 166.756 39.0444C167.668 38.299 168.462 37.3597 169.485 36.8565C176.958 33.1702 184.443 29.5026 192 25.9878C194.072 25.0262 196.389 23.9602 199.496 26.1779H199.492Z" fill="#C97600"/>
  <path d="M135.443 0.493164C136.759 2.21516 135.782 3.42653 135.152 4.52607C132.927 8.40989 130.733 12.3235 128.244 16.0434C125.061 20.8031 121.614 25.4025 118.252 30.0467C117.706 30.7996 116.988 31.437 116.374 32.1004C114.458 30.8593 115.023 29.5212 115.668 28.3098C116.836 26.1182 118.061 23.9452 119.404 21.8542C123.107 16.0918 126.859 10.363 130.637 4.6528C131.782 2.91962 132.901 1.07835 135.443 0.493164Z" fill="#C97600"/>
  <path d="M62.1068 5.61809C65.1068 5.2379 66.0076 6.84063 66.4809 8.4769C67.2633 11.1941 67.8969 13.9784 68.2672 16.7775C68.7519 20.4415 68.9389 24.1426 69.2099 27.8289C69.2595 28.5296 69.103 29.2453 68.9923 30.5275C68 29.8379 67.0381 29.5285 66.8053 28.9471C66.1259 27.24 65.6221 25.4472 65.2595 23.6469C64.3817 19.2972 63.6068 14.9251 62.8244 10.5567C62.5496 9.02109 62.374 7.46681 62.1068 5.61436V5.61809Z" fill="#C97600"/>
  <path d="M0.225586 23.5127C2.54238 22.3759 4.16833 23.3897 5.54238 24.6085C7.49658 26.3455 9.30192 28.2538 11.0767 30.1696C13.4317 32.7079 15.6989 35.3245 18.0729 37.982C17.7828 39.2791 16.8096 39.6406 15.5691 39.1225C14.5462 38.6939 13.4584 38.1684 12.7027 37.4043C8.93551 33.595 5.24467 29.7037 1.58055 25.8013C1.02711 25.2124 0.737036 24.3924 0.225586 23.5127Z" fill="#C97600"/>
</svg>