<svg width="176" height="117" viewBox="0 0 176 117" fill="none" xmlns="http://www.w3.org/2000/svg">
<path d="M37.6505 84.2685C30.814 82.3255 24.2861 79.5916 18.4106 76.2106C6.1695 69.0064 1.71471 59.3329 6.84215 51.1859C10.852 44.8308 18.0077 40.4895 26.5817 37.1514C43.5622 30.5375 62.654 27.0495 84.618 27.8925C87.473 27.9003 90.2667 27.7433 92.9699 27.423C101.929 26.681 110.985 26.244 120.634 27.8582C134.239 30.13 147 34.1793 157.859 41.6236C165.969 47.1864 170.718 53.3527 170.393 60.324C170.232 64.6389 167.645 68.0385 164.156 71.0493C159.415 75.1258 153.116 77.9716 146.115 80.2485C132.226 84.7627 116.793 87.0636 100.606 88.2495C85.4007 89.372 69.8413 89.4246 53.6523 87.1187C48.317 86.36 42.9818 85.2283 37.6505 84.2685ZM60.7023 31.184C59.9514 31.2468 59.1805 31.2725 58.4684 31.3773C46.3617 33.0978 35.2345 36.2368 25.5199 40.6724C20.1042 43.1876 15.1276 46.0874 12.2362 50.1641C10.5791 52.5754 8.9867 55.2318 8.79923 58.0466C8.30129 65.8061 14.8091 72.0494 25.2796 76.7637C36.0996 81.6355 47.6421 83.9828 59.2553 84.9892C85.4095 87.2554 109.487 85.1524 132.157 80.1454C139.511 78.5573 146.296 76.2708 152.345 73.342C156.971 71.1068 160.854 68.4238 163.178 64.8075C166.919 58.9998 165.708 52.8403 158.252 46.7583C154.582 43.7939 150.368 41.1334 145.762 38.8734C134.275 33.1422 120.966 30.1038 108.485 30.363C98.8544 30.6059 89.3893 31.2419 80.1379 32.2673C69.3871 33.3537 58.9029 34.9043 48.2744 36.2071C46.6533 36.4016 44.8939 36.4005 43.1717 36.4854C43.0074 36.2006 42.8429 35.9158 42.6879 35.6336C48.3493 33.7351 55.1031 33.188 60.7023 31.184Z" fill="#C97600"/>
</svg>
