<svg width="834" height="964" viewBox="0 0 834 964" fill="none" xmlns="http://www.w3.org/2000/svg">
<g opacity="0.1">
<path fill-rule="evenodd" clip-rule="evenodd" d="M186.674 460.149L186.678 460.158L186.68 460.163C191.814 471.637 197.051 483.345 202.171 495.109C202.424 495.688 202.688 496.268 202.956 496.852C203.291 497.587 203.628 498.326 203.946 499.074C207.548 507.552 195.533 514.144 191.139 506.101C191.003 505.854 190.879 505.604 190.754 505.35C186.908 497.276 183.293 489.075 179.678 480.875C176.061 472.672 172.444 464.469 168.596 456.391C163.406 445.494 166.302 437.331 173.944 428.32C182.101 418.703 190.351 408.27 195.223 396.768C203.828 376.462 194.126 355.044 175.329 347.659C162.752 342.721 148.528 349.081 142.738 362.088C139.464 369.445 137.012 377.203 134.56 384.955C133.563 388.104 132.568 391.254 131.519 394.374C131.061 395.737 130.795 397.198 130.531 398.648C130.126 400.876 129.726 403.081 128.637 404.878C127.387 406.94 123.919 408.419 121.414 408.561C119.921 408.645 117.425 406.342 116.88 403.994C116.855 403.89 116.827 403.779 116.795 403.664C116.677 403.219 116.536 402.695 116.59 402.232C119.251 378.155 124.308 354.805 143.471 338.006C153.184 329.49 164.985 328.363 176.948 331.986C207.32 341.189 221.86 375.376 207.067 406.56C202.708 415.741 196.679 424.112 190.171 433.141C187.063 437.451 183.852 441.914 180.659 446.685C182.636 451.126 184.644 455.611 186.667 460.135L186.674 460.149ZM205.499 532.565C205.904 529.234 209.36 526.861 212.562 527.844C215.482 528.743 217.773 529.56 219.061 531.218C220.375 532.906 218.436 540.265 216.54 541.066C214.634 541.871 212.41 541.769 210.112 541.467C206.959 541.058 204.812 538.164 205.215 534.882L205.499 532.565Z" fill="#C97600"/>
<path d="M99.6148 506.566C108.772 515.084 118.861 522.207 128.844 529.254C143.83 539.834 158.575 550.246 169.565 564.954C170.689 566.455 170.7 568.634 169.622 570.187C164.488 577.58 159.286 576.27 153.992 572.253C133.319 556.582 112.729 540.79 92.1418 524.997C82.4612 517.574 78.7027 508.28 83.4016 495.746C85.7287 489.525 87.6745 482.933 88.4694 476.342C91.2264 453.532 79.212 432.748 59.261 424.702C40.4604 417.12 25.191 425.994 25.1233 447.036C25.081 459.905 26.9556 472.775 28.8286 485.636L28.8329 485.665L28.8332 485.667C29.6496 491.263 30.4661 496.859 31.1237 502.453C31.3252 504.173 31.9007 506.036 32.4839 507.915L32.4856 507.92C34.1948 513.444 35.9446 519.099 28.31 521.592C17.5989 525.088 15.1469 514.495 14.0399 506.703C13.459 502.612 12.8303 498.51 12.2002 494.402C9.6584 477.831 7.10216 461.159 7.65996 444.634C8.76074 411.796 36.3776 395.119 65.5759 407.196C94.5983 419.203 111.157 450.344 105.537 482.953C104.698 487.82 103.387 492.602 101.918 497.957L101.898 498.032L101.894 498.039C101.16 500.711 100.387 503.526 99.6148 506.566Z" fill="#C97600"/>
<path d="M183.476 597.538C180.597 597.471 178.696 594.836 179.401 591.892C179.464 591.634 179.523 591.379 179.583 591.127L179.587 591.108C180.522 587.189 181.25 584.137 182.997 583.046C185.964 581.195 192.83 581.85 194.659 584.231C196.367 586.451 195.033 593.842 192.555 596.226C191.003 597.723 188.024 597.651 184.204 597.556C183.963 597.55 183.721 597.543 183.476 597.538Z" fill="#C97600"/>
<path fill-rule="evenodd" clip-rule="evenodd" d="M712.32 451.281C730.554 443.963 747.614 447.942 765.682 454.176C768.589 456.438 771.624 458.579 774.678 460.73C781.371 465.457 788.065 470.183 793.464 476.195C809.226 493.759 804.342 511.589 782.495 519.589C767.731 525.004 752.54 524.476 737.58 520.056C732.713 518.616 727.905 516.897 723.098 515.177C716.073 512.667 709.069 510.162 701.877 508.525C694.214 506.781 684.15 505.102 678.235 508.777C661.175 519.421 645.428 532.45 629.816 545.412C629.149 545.966 628.677 546.791 628.339 547.782C626.278 553.847 631.487 560.428 637.57 559.37C638.346 559.225 639.083 558.976 639.709 558.561C649.609 552.088 659.229 544.853 667.833 536.634C681.058 524.003 693.779 522.26 711.001 529.968C734.66 540.55 760.004 545.956 785.868 537.46C822.147 525.565 831.38 489.852 804.278 461.791C782.128 438.851 754.505 428.039 723.159 430.028C717.161 430.408 710.644 432.393 705.734 435.769C704.964 436.282 704.352 437.037 703.834 437.94C700.662 443.503 704.021 451.154 710.221 451.566C710.964 451.61 711.674 451.533 712.32 451.281ZM586.338 480.805C583.404 490.62 596.472 496.383 601.003 487.272C601.529 486.207 602.008 485.134 602.433 484.034C605.512 476.018 607.847 467.669 610.175 459.349L610.46 458.328L610.732 457.359C613.827 446.341 619.085 439.902 630.76 436.275C646.019 431.513 660.903 423.438 674.236 414.018C688.486 403.969 695.343 387.839 694.688 369.218C694.18 354.377 687.936 342.678 674.788 336.923C660.769 330.785 646.778 332.577 634.252 341.732C631.817 343.507 630.051 349.665 631.089 352.489C631.974 354.903 637.398 356.71 640.687 356.491C643.188 356.321 645.618 355.325 648.065 354.327C650.095 353.502 652.125 352.674 654.204 352.301C670.52 349.397 680.514 360.183 677.485 377.391C675.388 389.491 668.619 399.022 658.735 404.355C646.176 411.145 632.913 416.83 619.416 421.091C609.486 424.229 602.343 428.45 599.226 439.589C597.007 447.518 594.463 455.344 591.917 463.171C590.033 468.973 588.145 474.778 586.392 480.623L586.338 480.805ZM615.165 565.53C617.261 564.247 619.892 565.112 620.882 567.428C621.044 567.811 621.187 568.181 621.353 568.553C622.736 571.79 623.802 574.314 623.218 574.895C620.432 577.67 616.126 579.924 612.494 579.89C610.783 579.869 607.205 572.651 608.063 571.294C609.504 569.045 611.943 567.526 614.908 565.702L615.165 565.53ZM587.693 524.133C591.841 522.104 593.383 516.525 590.94 512.439C589.963 510.802 589.018 509.653 587.913 509.447C585.24 508.944 580.023 512.408 579.174 515.247C578.371 517.902 581.144 523.942 583.599 524.924C584.677 525.352 586.054 524.933 587.693 524.133Z" fill="#C97600"/>
</g>
</svg>
