<svg width="591" height="419" viewBox="0 0 591 419" fill="none" xmlns="http://www.w3.org/2000/svg">
<path opacity="0.5" d="M230.84 418.762C328.485 418.762 407.642 414.042 407.642 408.22C407.642 402.398 328.485 397.678 230.84 397.678C133.194 397.678 54.0369 402.398 54.0369 408.22C54.0369 414.042 133.194 418.762 230.84 418.762Z" fill="#C9C9C9"/>
<g opacity="0.5">
<path fill-rule="evenodd" clip-rule="evenodd" d="M262.271 9.10624C283.981 9.03209 305.449 11.0667 326.261 17.636C332.581 19.6308 338.88 21.8398 344.91 24.5641C351.397 27.4949 357.292 31.5733 362.998 35.8502C370.499 41.4721 377.178 47.9562 382.901 55.3757C388.549 62.6996 392.624 70.7435 393.914 80.0564C394.733 85.9749 394.327 91.7363 392.263 97.3303C388.415 107.762 383.213 117.356 374.845 124.966C368.242 130.97 361.694 137.034 355.116 143.065C347.648 149.912 340.525 157.081 334.425 165.2C329.626 171.589 325.626 178.394 323.822 186.285C323.426 188.019 323.067 189.781 322.922 191.549C322.271 199.505 326.072 205.322 332.338 209.561C337.374 212.968 343.232 214.427 349.284 214.341C361.875 214.163 374.466 213.826 387.05 213.355C404.494 212.702 421.929 211.753 439.397 212.148C461.352 212.642 483.161 214.424 504.521 219.89C515.892 222.801 526.877 226.735 537.036 232.73C541.497 235.363 545.751 238.305 549.26 242.123C551.324 244.368 553.254 246.824 554.789 249.45C557.75 254.521 558.073 259.952 556.027 265.487C553.994 270.979 550.638 275.61 546.639 279.809C540.178 286.586 532.387 291.439 523.974 295.388C513.621 300.25 502.789 303.824 491.736 306.608C473.675 311.157 455.532 315.399 437.397 319.646C407.873 326.559 378.316 333.325 348.793 340.242C328.328 345.036 307.768 349.338 286.948 352.287C270.919 354.558 254.801 355.773 238.603 355.311C224.805 354.919 211.411 352.515 198.8 346.599C192.998 343.877 187.715 340.42 183.292 335.76C167.745 319.386 177.846 299.566 187.977 283.59C189.888 280.579 192.044 277.712 193.794 274.615C194.997 272.484 195.982 270.138 196.558 267.765C197.744 262.882 195.911 259.203 191.436 256.931C188.025 255.199 184.342 254.465 180.534 254.287C171.56 253.868 162.679 254.872 153.899 256.49C135.574 259.87 117.288 263.465 99.0053 267.072C84.6851 269.897 70.2757 270.452 55.7712 269.126C54.3958 269 52.9881 268.798 51.6872 268.36C38.7208 264.001 27.0285 257.555 17.5034 247.53C9.10711 238.692 4.45484 228.019 1.95951 216.276C-0.604585 204.212 -0.422837 192.102 1.18614 179.922C3.38892 163.243 8.27425 147.462 16.2405 132.629C20.9113 123.932 26.3916 115.816 33.5162 108.935C45.0665 97.7772 56.3473 86.3032 68.4076 75.7198C88.3235 58.2427 111.203 45.375 135.522 35.0248C159.802 24.6922 185.04 17.6731 211.063 13.3738C225.466 10.9942 239.941 9.43117 254.541 9.11441C257.117 9.05829 259.695 9.10624 262.271 9.10624Z" fill="#F1EEE8"/>
</g>
<path fill-rule="evenodd" clip-rule="evenodd" d="M365.327 324.212C364.617 322.715 364.618 322.729 363.088 322.794C362.671 322.811 362.248 322.718 361.829 322.667C360.745 322.534 359.766 322.053 358.584 322.118C357.391 322.184 356.089 321.802 354.982 321.293C354.292 320.977 353.745 320.91 353.025 320.94C350.47 321.044 348.045 322.47 345.403 321.679C345.168 321.608 344.859 321.808 344.582 321.861C342.972 322.168 341.296 322.223 339.851 323.143C337.952 322.595 336.363 323.856 334.588 324.053C332.784 324.255 331.246 325.025 329.915 326.287C329.53 326.653 328.924 326.967 328.409 326.984C326.372 327.051 324.95 328.278 323.478 329.429C322.821 329.943 322.096 330.429 321.599 331.079C320.933 331.954 320.481 332.989 319.897 333.93C319.024 335.339 319.835 337.156 321.492 337.436C322.723 337.645 323.967 337.787 325.185 338.054C326.54 338.352 327.852 339.092 329.238 338.088C329.424 337.954 329.883 338.204 330.217 338.269C330.554 338.336 331.056 338.571 331.205 338.431C332.497 337.215 333.865 337.984 335.226 338.158C336.036 338.261 337.358 338.539 337.583 338.185C338.121 337.337 338.588 337.809 339.16 337.785C340.552 337.726 341.997 337.713 343.31 337.316C344.512 336.953 345.822 336.444 346.98 336.503C347.383 336.524 347.876 336.507 348.187 336.298C349.249 335.584 350.332 335.269 351.588 335.677C351.834 335.757 352.262 335.784 352.389 335.642C353.41 334.492 354.91 334.878 356.147 334.434C357.214 334.052 358.566 334.291 359.49 333.742C360.576 333.097 361.603 332.854 362.8 332.792C363.394 332.761 364.261 332.56 364.496 332.146C365.047 331.176 365.948 331.426 366.686 331.234C368.143 330.855 369.652 330.683 371.113 330.318C371.723 330.165 372.266 329.74 372.84 329.44C371.456 328.711 371.249 326.894 369.669 326.869C369.536 326.866 369.331 326.58 369.289 326.396C368.802 324.273 367.135 324.318 365.327 324.212ZM392.8 280.042C393.663 279.685 394.39 279.432 395.07 279.086C395.484 278.874 396.067 278.581 396.159 278.219C396.634 276.336 397.655 274.802 398.849 273.325C399.439 272.596 399.191 271.494 398.522 271.262C396.818 270.672 395.219 268.95 393.15 270.395C392.933 270.547 392.481 270.436 392.163 270.351C391.411 270.151 390.58 270.036 389.956 269.622C389.215 269.129 388.31 270.32 387.745 269.266C386.676 269.736 385.753 268.847 384.743 268.927C382.408 269.111 380.109 269.717 377.734 269.481C377.35 269.443 376.842 269.569 376.558 269.815C374.912 271.236 372.877 271.264 370.897 271.599C369.326 271.865 367.759 272.273 366.263 272.817C365.028 273.265 364.362 274.966 362.677 274.523C362.083 276.254 359.773 275.547 359.052 277.096C356.587 277.47 355.681 279.301 355.222 281.216C354.705 281.755 354.124 280.999 353.701 281.896C353.226 282.905 351.557 283.313 352.194 284.936C352.203 284.957 352.087 285.018 352.043 285.072C350.756 286.665 350.601 288.651 350.195 290.542C350.113 290.919 350.214 291.406 350.395 291.757C351.242 293.39 352.14 294.997 353.039 296.603C353.133 296.77 353.335 296.946 353.515 296.985C356.019 297.523 358.134 299.452 360.896 299.067C361.577 298.972 362.272 298.959 362.948 298.835C364.107 298.621 365.194 298.206 366.423 298.836C367.241 299.256 368.213 299.506 369.074 298.434C369.581 297.802 370.551 297.487 371.368 297.174C373.263 296.45 375.234 295.912 377.092 295.106C378.446 294.519 379.69 293.659 380.941 292.855C381.8 292.304 382.615 291.673 383.399 291.018C384.636 289.987 385.861 288.939 387.032 287.834C387.784 287.126 388.293 285.985 389.158 285.612C390.482 285.037 390.914 284.135 390.909 282.934C393.649 282.26 393.59 281.836 392.8 280.042ZM423.117 279.33C423.742 280.877 424.313 282.659 425.176 284.283C425.696 285.253 426.539 285.994 426.051 287.254C425.938 287.539 426.047 288.001 426.211 288.291C427.29 290.184 426.852 292.251 426.981 294.261C427.18 297.28 425.793 299.897 425.024 302.671C424.969 302.861 424.828 303.088 424.664 303.176C423.621 303.735 423.637 304.7 423.653 305.255C422.856 306.097 422.242 306.683 421.699 307.33C420.49 308.777 419.319 310.257 418.12 311.715C418 311.862 417.795 312.045 417.638 312.038C415.879 311.961 415.771 313.178 415.771 314.534C414.49 314.84 413.662 316.272 412.119 315.862C411.535 316.675 410.947 317.483 410.371 318.302C410.254 318.468 410.187 318.67 410.065 318.919C408.927 319.239 407.647 318.974 406.665 320.166C405.93 321.059 404.205 320.717 403.496 322.016C403.384 322.221 403.028 322.305 402.772 322.417C401.18 323.111 399.661 323.833 398.323 325.064C397.425 325.892 396.005 326.359 394.76 326.516C394.039 326.607 393.772 326.601 393.4 327.283C392.868 328.256 392.508 328.238 391.313 328C387.537 329.741 384.093 331.329 380.402 333.031C380.031 335.374 379.659 337.854 379.238 340.326C379.016 341.628 378.675 342.911 378.455 344.213C378.321 345.011 377.407 345.006 377.115 345.867C376.764 346.899 376.539 348.337 375.176 348.842C375.067 348.882 374.977 349.056 374.936 349.186C374.103 351.772 372.026 353.388 370.267 355.253C370.089 355.444 369.939 355.821 369.763 355.831C367.708 355.933 366.682 357.552 365.341 358.731C364.86 359.155 364.07 359.225 363.591 359.649C362.279 360.808 360.846 361.789 359.318 362.598C357.903 363.348 356.358 363.849 354.914 364.552C353.472 365.253 352.099 366.097 350.666 366.819C350.214 367.047 349.668 367.092 349.162 367.204C348.893 367.264 348.523 367.187 348.358 367.343C346.693 368.906 344.379 369.061 342.478 370.105C341.908 370.419 341.306 371.023 340.552 370.327C340.427 370.212 340.011 370.322 339.779 370.432C337.392 371.57 335.004 372.363 332.246 372.428C329.99 372.482 327.768 373.568 325.508 374.099C324.09 374.432 322.626 374.562 321.191 374.829C320.443 374.968 319.715 375.214 318.975 375.398C317.485 375.769 316.098 376.446 314.413 375.86C313.502 375.543 312.3 375.869 311.279 376.114C309.81 376.466 308.342 376.483 306.853 376.539C305.323 376.598 303.714 376.615 302.292 377.1C299.904 377.917 297.448 377.185 295.077 377.746C294.836 377.803 294.52 377.458 294.219 377.375C293.88 377.282 293.519 377.252 293.166 377.241C293.051 377.237 292.894 377.473 292.82 377.442C289.765 376.179 286.441 376.221 283.288 375.441C283.196 375.418 283.143 375.232 283 375.008C283.639 374.131 284.654 374.151 285.587 374.006C286.735 373.83 287.923 373.924 288.974 373.199C289.302 372.971 289.91 373.179 290.385 373.134C291.696 373.011 293.084 373.089 294.298 372.669C296.435 371.93 298.527 371.418 300.788 371.867C301.697 372.048 303.225 371.558 304.04 370.934C305.115 371.837 306.175 371.803 307.55 371.388C310.01 370.645 312.587 369.963 315.122 369.936C316.576 369.921 317.986 369.977 319.378 369.567C320.131 369.346 320.82 368.872 321.579 368.721C322.603 368.517 323.496 368.136 324.76 368.482C326.051 368.836 327.897 368.222 329.108 367.43C329.978 366.863 330.684 367.561 331.183 367.164C332.143 366.401 333.286 366.456 334.321 366.088C334.992 365.848 335.566 365.727 336.292 365.732C337.172 365.738 338.092 365.371 338.93 365.012C340.603 364.295 342.21 363.419 343.889 362.718C344.707 362.376 345.653 362.356 346.495 362.056C347.941 361.542 349.405 361.028 350.759 360.317C352.32 359.497 353.732 358.392 355.283 357.549C356.237 357.031 357.336 356.787 358.359 356.394C360.308 355.646 362.33 355.047 363.612 353.152C363.872 352.768 364.599 352.734 365.044 352.437C366.141 351.706 367.316 349.754 367.822 348.518C368.043 347.976 368.799 347.654 369.626 346.974C369.68 346.876 368.677 345.968 370.056 345.807C371.18 345.675 372.421 343.959 372.581 342.819C372.657 342.278 372.708 341.622 373.032 341.247C374.486 339.569 374.138 337.414 374.664 335.496C374.707 335.338 374.524 335.118 374.405 334.823C373.139 335.224 371.801 335.434 370.678 336.044C368.035 337.482 365.109 337.766 362.281 338.473C361.129 338.761 359.884 339.087 358.96 339.773C357.812 340.623 356.208 339.964 355.273 341.16C353.252 340.656 351.434 341.637 349.529 341.963C347.544 342.303 345.532 342.424 343.604 343.171C342.474 343.61 341.131 343.866 339.951 343.704C338.637 343.525 337.467 343.963 336.253 343.98C333.757 344.015 331.217 344.407 328.756 343.591C328.558 343.526 328.331 343.5 328.126 343.521C323.898 343.952 323.898 343.954 320.015 342.412C317.751 342.788 316.915 340.088 314.845 339.972C314.585 339.957 314.343 339.341 314.121 338.985C313.85 338.549 313.606 338.096 313.355 337.646C313.256 337.469 313.048 337.235 313.097 337.11C313.823 335.271 313.234 333.067 314.663 331.427C314.801 331.268 314.971 331.09 315.01 330.898C315.258 329.66 315.928 328.774 316.919 327.971C318.517 326.676 319.966 325.197 321.483 323.8C322.231 323.112 323.546 323.224 323.946 322.045C325.759 322.679 326.49 320.143 328.232 320.572C329.28 318.966 331.252 319.363 332.695 318.542C333.748 317.942 335.185 318.056 336.421 317.737C337.482 317.463 338.502 317.026 339.848 316.553C339.997 316.621 340.493 316.848 340.99 317.075C340.979 316.959 340.968 316.843 340.958 316.726C341.913 316.445 342.858 315.99 343.829 315.925C345.092 315.84 346.327 315.718 347.583 315.535C348.865 315.348 350.225 315.765 351.556 315.829C353.12 315.905 354.696 315.803 356.255 315.929C358.195 316.087 360.131 316.164 362.02 316.931C362.796 317.246 363.849 317.17 364.726 317.542C365.109 317.704 365.513 317.82 365.881 318.01C368.293 319.252 370.951 319.914 373.295 321.382C374.146 321.915 374.237 322.393 374.275 323.164C376.628 322.939 376.499 325.907 379.337 326.228C380.716 326.011 382.963 325.449 385.003 324.215C385.122 324.144 385.268 324.109 385.405 324.078C386.555 323.815 387.843 323.795 388.819 323.23C389.78 322.673 390.571 321.907 391.769 321.788C392.205 321.744 392.648 321.37 393.009 321.055C393.747 320.414 394.422 319.981 395.534 319.878C396.658 319.775 397.733 318.877 398.777 318.238C399.649 317.703 400.446 317.043 401.267 316.426C401.37 316.349 401.444 316.083 401.483 316.093C403.061 316.508 403.574 314.748 404.848 314.413C405.515 314.237 405.96 313.211 406.624 312.429C407.674 313.174 408.422 312.228 409.247 311.48C409.816 310.965 410.436 310.505 410.976 309.963C411.348 309.588 411.609 309.104 411.945 308.69C412.195 308.382 412.436 308.009 412.769 307.836C414.519 306.927 416.243 306.084 416.546 303.751C416.619 303.183 417.342 302.63 417.873 302.205C420.15 300.391 421.326 298.145 420.904 295.158C420.831 294.635 420.838 293.929 421.126 293.556C422.231 292.128 421.366 290.579 421.361 289.156C421.356 287.978 420.281 286.806 419.69 285.627C419.501 285.249 419.211 284.859 419.197 284.467C419.163 283.466 418.443 283.033 417.844 282.438C417.38 281.978 417.158 281.28 416.712 280.797C415.486 279.473 414.291 278.088 412.886 276.982C412.409 276.606 411.623 276.52 411.221 275.884C411.149 275.771 410.994 275.613 410.901 275.627C408.85 275.933 407.841 273.997 406.197 273.442C406.068 273.399 405.923 273.407 405.581 273.368C404.559 274.998 403.507 276.719 402.41 278.41C401.775 279.386 401.027 280.289 400.403 281.272C399.841 282.158 399.509 283.22 398.841 284.003C397.653 285.398 396.292 286.644 394.995 287.945C394.745 288.196 394.277 288.375 394.221 288.652C393.899 290.256 392.4 290.558 391.375 291.384C391.111 291.597 390.737 291.843 390.686 292.123C390.389 293.746 388.913 294.272 387.883 295.163C386.842 296.064 385.797 296.998 384.339 297.359C383.512 297.564 382.789 298.258 382.06 298.789C380.954 299.595 379.995 300.636 378.488 300.722C378.167 300.74 377.868 301.037 377.547 301.177C375.905 301.894 374.449 303.183 372.466 302.861C370.285 304.381 367.317 303.663 365.211 305.431C364.969 305.633 364.496 305.747 364.205 305.658C363.528 305.451 362.921 304.961 362.24 304.836C361.529 304.705 360.741 304.998 360.029 304.87C359.004 304.685 358.024 304.062 357.011 304.03C355.074 303.968 353.477 303.441 351.918 302.202C350.464 301.046 348.923 300.043 347.539 298.744C346.236 297.521 346.326 295.916 345.594 294.579C345.228 293.911 344.973 293.168 344.755 292.434C344.497 291.567 343.935 290.82 344.7 289.742C345.189 289.054 344.907 287.822 345.001 286.836C345.08 286.012 345.291 285.279 345.682 284.481C346.759 282.282 347.662 280.015 349.341 278.168C349.534 277.956 349.458 277.518 349.576 277.213C349.703 276.887 349.999 276.307 350.076 276.33C351.235 276.675 351.504 275.811 351.936 275.088C352.098 274.815 352.454 274.499 352.734 274.486C353.866 274.436 354.419 273.621 355.142 272.944C356.035 272.109 356.732 270.901 358.214 270.916C358.385 270.918 358.636 270.742 358.721 270.58C359.416 269.254 360.759 269.232 361.955 268.848C362.952 268.527 364.01 268.158 364.805 267.516C365.645 266.837 366.257 265.938 367.522 266.366C367.633 266.403 367.843 266.358 367.913 266.274C369.23 264.667 371.189 265.071 372.881 264.721C375.188 264.245 377.53 263.936 379.866 263.619C380.616 263.516 381.394 263.642 382.157 263.615C382.738 263.595 383.298 263.974 383.928 263.378C384.232 263.091 385.105 263.413 385.72 263.455C386.966 263.54 388.029 264.245 389.515 263.636C390.639 263.176 392.268 263.954 393.671 264.185C395.047 264.412 396.417 264.676 397.797 264.864C399.177 265.051 400.614 265.003 401.716 266.072C402.633 265.914 403.04 265.359 403.239 264.507C403.702 262.516 404.249 260.546 404.715 258.557C404.993 257.369 404.914 256.089 405.749 255.053C405.894 254.874 405.919 254.435 405.801 254.232C405.076 252.991 406.209 252.066 406.464 251.06C406.651 250.324 406.935 249.843 406.647 249.008C406.372 248.208 406.402 247.198 406.607 246.357C407.114 244.28 407.134 242.249 406.666 240.169C406.499 239.429 406.609 238.627 406.585 237.853C406.525 235.939 406.139 234.093 405.629 232.245C405.058 230.178 406.13 228.379 408.111 227.777C408.362 227.702 408.777 227.677 408.924 227.824C410.305 229.197 412.249 230.036 411.893 232.737C411.639 234.671 412.366 236.736 412.661 238.743C412.691 238.951 412.868 239.252 412.787 239.347C411.775 240.535 412.346 241.928 412.477 243.135C412.741 245.582 411.992 248.032 412.642 250.457C412.744 250.835 412.653 251.298 412.545 251.692C412.062 253.443 411.498 255.173 411.048 256.932C410.723 258.201 410.435 259.494 410.301 260.795C410.113 262.631 409.767 264.331 408.58 265.856C407.637 267.068 408.295 268.819 409.821 269.278C411.339 269.735 412.77 270.237 413.797 271.527C413.876 271.627 414.037 271.687 414.17 271.716C415.194 271.935 415.977 272.43 416.649 273.296C417.309 274.146 418.229 274.792 419.049 275.512C419.407 275.826 419.765 276.173 420.186 276.374C420.909 276.719 421.481 277.046 421.723 277.959C421.859 278.481 422.594 278.843 423.117 279.33Z" fill="black"/>
<path fill-rule="evenodd" clip-rule="evenodd" d="M88.0537 114.683C87.7908 114.543 87.5278 114.402 87.2644 114.263C87.3142 114.171 87.364 114.08 87.4138 113.989C87.1697 113.959 86.905 113.955 86.6402 113.952C86.0609 113.943 85.482 113.935 85.1168 113.651C83.9819 112.773 82.7111 112.198 81.4407 111.624C80.8546 111.359 80.2686 111.094 79.696 110.8C78.2457 110.053 76.8896 109.839 75.4433 110.667C74.8097 112.294 74.9784 113.476 76.3722 114.916C77.1786 115.749 78.0707 116.116 78.9502 116.477C79.1728 116.569 79.3949 116.66 79.6143 116.759C81.2859 117.507 82.6828 118.628 84.0838 119.753C85.1064 120.574 86.1314 121.396 87.2662 122.076C88.0277 122.533 88.8485 122.916 89.6732 123.301C91.601 124.201 93.5503 125.111 94.8185 126.992C95.8398 126.87 96.2257 127.599 96.4752 128.07C96.5412 128.195 96.5973 128.301 96.6534 128.369C97.1281 128.379 97.5544 128.375 97.9466 128.371C98.7247 128.362 99.3696 128.356 99.9933 128.466C101.572 128.742 103.1 128.686 104.858 128.406C104.582 127.87 104.381 127.312 104.185 126.768C103.695 125.405 103.235 124.127 101.695 123.495C101.349 123.352 101.062 122.98 100.836 122.652C99.9323 121.343 99.0492 120.829 97.2102 120.439C96.5901 120.307 95.8681 120.092 95.4539 119.664C95.0186 119.212 94.4572 118.927 93.8936 118.641C93.0047 118.19 92.1108 117.736 91.7002 116.623C91.5781 116.292 91.0688 116.107 90.5546 115.921C90.3055 115.831 90.0547 115.74 89.8469 115.632C89.2469 115.32 88.6506 115.002 88.0537 114.683ZM100.899 149.432L100.898 149.432C98.8629 150.178 96.8907 150.9 94.5972 149.834C93.5831 149.363 92.4972 149.048 91.3147 148.704C90.752 148.541 90.1677 148.371 89.5588 148.175C89.5153 147.988 89.3748 147.382 89.233 146.773C87.6113 146.856 86.3634 146.082 85.1396 145.324C84.9507 145.207 84.7618 145.089 84.5724 144.976C84.349 144.842 84.1277 144.705 83.9074 144.568C82.7057 143.821 81.5237 143.087 80.0146 142.964C79.3316 142.908 78.6074 142.52 78.0361 142.102C76.6773 141.106 75.2764 140.534 73.5321 140.407C72.8747 140.359 72.2546 139.935 71.6246 139.505C71.2481 139.248 70.8684 138.989 70.4749 138.806C69.7349 138.462 68.964 138.185 68.1585 137.895C67.795 137.764 67.4244 137.631 67.0461 137.488C67.0169 137.387 66.9949 137.262 66.9707 137.126C66.9101 136.785 66.837 136.373 66.6077 136.087C65.4943 134.698 66.346 133.432 67.1233 132.586C67.6232 132.041 68.6189 131.903 69.5289 131.776C69.7107 131.751 69.8893 131.726 70.0594 131.699C70.553 131.619 71.2368 131.759 71.6106 132.069C72.9048 133.141 74.4117 133.523 75.9495 133.913V133.913C76.3107 134.005 76.6737 134.096 77.0359 134.198C77.3051 134.273 77.573 134.353 77.8409 134.433C78.6913 134.687 79.5416 134.942 80.4369 135.046C80.6707 135.073 81.0301 135.153 81.097 135.309C81.7418 136.816 83.0283 137.143 84.3535 137.48C84.6083 137.545 84.8641 137.61 85.1172 137.684C85.6934 137.852 86.2076 138.229 86.7232 138.606C86.979 138.793 87.2348 138.98 87.4991 139.143C87.6297 139.223 87.7589 139.323 87.8877 139.423C88.4733 139.878 89.0522 140.328 89.7392 138.871C90.8655 141.153 92.5295 141.893 94.4694 142.463C96.0224 142.919 97.4728 143.717 98.6947 145.02C98.8387 145.174 98.976 145.318 99.1066 145.456L99.1075 145.457C100.25 146.66 100.906 147.35 101.491 149.217C101.293 149.288 101.095 149.36 100.899 149.432ZM62.9172 160.988C63.0218 159.501 64.0382 158.637 65.1865 158.173C66.1414 157.786 67.3046 157.805 68.3721 157.827C70.7352 157.876 73.0973 158.011 75.4554 158.178C75.7529 158.199 76.041 158.322 76.3309 158.445C76.5656 158.545 76.8016 158.645 77.0449 158.693C77.1063 158.705 77.1687 158.717 77.2315 158.73C77.796 158.843 78.4041 158.965 78.9188 158.823C80.7698 158.312 82.5186 158.478 84.2879 159.163C84.9902 159.436 85.7652 159.544 86.5218 159.651L86.6438 159.668C87.0243 159.722 87.4147 159.739 87.8038 159.757C88.4558 159.786 89.1051 159.815 89.6997 160.015C90.1915 160.18 90.6923 160.331 91.1936 160.482C93.4862 161.175 95.79 161.871 97.3211 163.936C97.2879 164.044 97.2659 164.146 97.2466 164.234V164.234C97.2129 164.389 97.1887 164.501 97.1304 164.523C96.6875 164.693 96.2477 164.875 95.8079 165.056C93.5975 165.968 91.3879 166.88 88.8417 166.303C88.5218 166.23 88.1722 166.301 87.8195 166.372C87.6068 166.415 87.3937 166.457 87.1845 166.47L87.1652 166.471C86.7273 166.497 86.2673 166.524 85.8518 166.417C85.4075 166.302 84.9687 166.162 84.5298 166.023C83.7862 165.786 83.044 165.55 82.2821 165.439C81.9841 165.395 81.6422 165.653 81.2433 165.953C81.0436 166.103 80.8295 166.264 80.5993 166.404C80.4364 166.327 80.2717 166.246 80.1057 166.164C78.7985 165.521 77.3805 164.823 75.5721 165.562C74.8182 165.87 73.8472 165.695 72.9165 165.526C72.6652 165.481 72.4166 165.436 72.1765 165.401C71.8987 165.361 71.6793 164.914 71.6775 164.882L71.6811 164.882C71.6788 164.879 71.6775 164.879 71.6775 164.882L64.5453 164.006C64.1225 163.223 63.554 162.169 62.9172 160.988Z" fill="#C97600"/>
<path fill-rule="evenodd" clip-rule="evenodd" d="M310.851 129.5C313.041 126.492 314.375 123.371 314.265 119.831C314.176 119.763 314.113 119.708 314.065 119.666C313.99 119.601 313.952 119.568 313.912 119.565C313.597 119.546 313.28 119.534 312.965 119.549C310.7 119.648 310.327 120.018 309.979 122.37C309.937 122.659 309.857 122.943 309.777 123.227C309.682 123.568 309.586 123.907 309.556 124.253C309.391 126.082 309.467 127.873 310.851 129.5ZM322.735 137.525C321.585 135.046 320.754 132.707 321.673 130.022C321.948 129.218 322.086 128.367 322.233 127.458C322.303 127.028 322.375 126.585 322.464 126.127C322.619 126.091 322.787 126.023 322.966 125.951C323.572 125.705 324.3 125.41 325.023 126.14C325.937 127.063 326.121 128.19 325.782 129.46C325.609 130.106 325.475 130.765 325.34 131.427V131.428C324.905 133.559 324.465 135.716 322.735 137.525ZM260.924 160.125C259.466 157.95 258.402 155.663 258.97 152.86C259.091 152.26 259.176 151.653 259.261 151.046C259.328 150.565 259.395 150.083 259.481 149.605C259.665 148.579 260.033 147.695 261.349 147.889C262.54 148.065 263.095 148.788 263.071 150.107C263.062 150.625 263.065 151.144 263.068 151.663C263.076 152.898 263.083 154.134 262.923 155.346C262.775 156.464 262.452 157.558 262.129 158.652C261.988 159.134 261.845 159.616 261.718 160.1L260.924 160.125ZM294.181 156.587C293.654 155.099 293.19 153.789 292.608 152.146C292.232 152.522 291.781 152.8 291.346 153.067C290.306 153.707 289.362 154.287 289.774 156.007C289.837 156.271 289.702 156.58 289.567 156.892C289.496 157.053 289.425 157.215 289.381 157.373C289.253 157.833 289.117 158.293 288.982 158.751L288.982 158.752V158.752V158.753V158.753L288.981 158.754V158.754V158.755C288.625 159.962 288.27 161.17 288.036 162.401C287.921 163.001 288.013 163.64 288.1 164.246C288.139 164.509 288.175 164.766 288.194 165.011C290.244 165.388 291.121 164.323 291.676 163.044C292.344 161.502 292.932 159.925 293.494 158.415L293.494 158.414L293.496 158.411V158.411C293.727 157.789 293.954 157.178 294.181 156.587ZM314.915 164.385C314.833 164.364 314.755 164.343 314.683 164.329C313.732 166.348 312.92 168.311 313.469 170.553C313.574 170.983 313.506 171.643 313.236 171.947C312.025 173.312 312.223 174.811 312.42 176.307C312.501 176.927 312.584 177.547 312.564 178.156C312.554 178.488 312.654 178.823 312.767 179.203C312.824 179.393 312.884 179.594 312.935 179.812C314.599 178.998 315.498 177.723 316.009 176.346C317.207 173.118 318.122 169.804 317.668 166.277C317.507 165.022 317.002 164.56 315.546 164.5C315.327 164.491 315.109 164.435 314.915 164.385ZM354.774 192.329C353.791 190.339 353.302 188.692 353.85 186.46L353.918 186.182C354.474 183.921 355.051 181.573 355.035 179.14C355.029 178.258 355.408 177.373 355.793 176.473C355.969 176.063 356.146 175.649 356.288 175.232C356.356 175.226 356.428 175.22 356.503 175.214L356.606 175.205H356.607C356.905 175.18 357.247 175.151 357.588 175.13C359.183 175.033 359.516 175.422 359.603 176.983C359.708 178.875 359.098 180.579 358.487 182.282C358.205 183.072 357.922 183.862 357.71 184.671C357.654 184.888 357.586 185.097 357.519 185.306C357.282 186.047 357.051 186.767 357.332 187.683C357.727 188.966 356.866 190.212 354.774 192.329ZM290.729 213.307C292.766 214.847 293.125 215.971 292.58 217.95C291.832 220.671 291.085 223.401 290.551 226.169C290.262 227.669 289.536 228.781 288.658 229.864C288.562 229.824 288.47 229.796 288.39 229.772C288.247 229.729 288.14 229.696 288.109 229.629C287.209 227.631 287.159 223.233 287.715 221.285C288.188 219.627 288.464 217.88 288.564 216.158C288.63 214.998 289.322 214.45 290.069 213.858C290.289 213.684 290.514 213.506 290.729 213.307ZM288.236 173.1C291.384 173.593 291.387 175.512 290.504 177.728C290.413 177.958 290.319 178.186 290.225 178.413C289.621 179.876 289.032 181.302 289.206 183.025C289.26 183.566 288.832 184.159 288.407 184.747C288.223 185.001 288.04 185.254 287.897 185.502C287.51 186.17 287.115 186.834 286.663 187.596L286.661 187.598L286.661 187.599L286.657 187.606L286.655 187.609C286.44 187.971 286.211 188.356 285.964 188.773C284.451 185.344 284.084 182.441 285.849 179.458C286.366 178.585 286.793 177.459 286.725 176.487C286.622 175.035 287.142 174.056 288.236 173.1ZM317.502 204.838C317.502 204.027 317.448 203.257 317.397 202.532C317.291 201.028 317.199 199.711 317.627 198.594C318.039 197.522 318.283 196.417 318.527 195.318C318.785 194.15 319.042 192.988 319.498 191.877C319.677 191.441 319.96 190.948 320.339 190.718C320.759 190.464 321.423 190.276 321.835 190.435C322.258 190.599 322.818 191.249 322.78 191.632C322.723 192.201 322.677 192.772 322.631 193.342C322.437 195.751 322.242 198.162 321.248 200.447C320.653 201.814 319.658 202.764 318.479 203.889V203.89L318.478 203.891C318.165 204.191 317.837 204.502 317.502 204.838ZM356.75 212.755C355.48 215.724 354.993 218.559 357.312 221.588C360.309 217.896 360.535 213.736 360.757 209.649V209.646C360.787 209.096 360.817 208.546 360.853 208C359.595 207.375 358.94 207.634 358.264 208.48C357.63 209.274 357.426 210.194 357.224 211.106C357.099 211.669 356.975 212.229 356.75 212.755ZM247.404 240.037C248.597 242.053 248.738 244.2 248.129 246.437C247.903 247.266 247.916 248.135 247.928 249.004C247.949 250.4 247.969 251.795 246.999 253.023C245.136 252.418 243.572 249.932 244.295 248.074C244.741 246.927 244.532 246.097 244.226 245.095C243.351 242.232 244.188 240.88 247.404 240.037ZM270.339 264.385C270.295 265.99 270.247 267.727 272.33 268.85C272.526 268.376 272.704 267.923 272.877 267.488C273.237 266.575 273.568 265.737 273.97 264.934C274.779 263.32 274.725 261.629 274.671 259.939C274.644 259.09 274.617 258.243 274.699 257.405C274.839 255.974 273.528 255.315 272.163 255.935C271.798 256.101 271.482 256.374 271.267 256.56C271.194 256.624 271.132 256.677 271.085 256.713C271.085 257.018 271.092 257.291 271.1 257.542C271.113 258.034 271.125 258.442 271.071 258.841C270.991 259.429 270.879 260.017 270.766 260.604C270.562 261.669 270.358 262.734 270.351 263.8C270.35 263.992 270.344 264.188 270.339 264.385ZM300.471 278.66C300.38 278.34 300.275 278.039 300.174 277.75C299.963 277.149 299.773 276.604 299.779 276.062C299.796 274.62 299.953 273.154 300.27 271.748L300.306 271.589C300.653 270.059 300.989 268.575 300.743 266.969C300.555 265.742 301.141 265.363 302.309 265.631C303.818 265.977 304.603 266.998 305.026 268.412C303.804 270.262 303.57 272.374 303.554 274.55C303.538 276.678 302.942 277.533 300.471 278.66ZM273.674 165.506C273.503 165.581 273.336 165.655 273.168 165.711C272.979 166.429 272.763 167.138 272.549 167.841C272.05 169.472 271.561 171.075 271.45 172.704C271.437 172.91 271.416 173.123 271.395 173.342C271.249 174.853 271.078 176.626 272.898 177.786C272.993 177.674 273.089 177.564 273.185 177.453C274.046 176.459 274.9 175.473 275.008 174.105C275.157 172.208 275.883 170.544 276.746 168.901C277.581 167.309 277.343 166.834 275.95 165.65C275.061 164.895 274.348 165.209 273.674 165.506ZM327.148 214.7H327.148C327.357 215.253 327.569 215.814 327.457 216.3C326.849 218.958 326.096 221.592 325.224 224.178C325.03 224.755 324.608 225.256 324.114 225.84C323.866 226.134 323.6 226.449 323.336 226.806C323.16 226.601 322.971 226.42 322.795 226.251C322.449 225.919 322.155 225.637 322.118 225.324C322.086 225.06 322.047 224.797 322.008 224.533V224.533C321.806 223.176 321.604 221.822 322.427 220.433C322.84 219.736 323.032 218.915 323.225 218.089C323.348 217.566 323.471 217.041 323.651 216.545C324.108 215.283 324.611 213.973 326.895 213.956C326.958 214.197 327.053 214.448 327.148 214.7ZM233.344 189.863C235.326 185.581 237.205 181.52 235.612 176.619C233.839 177.162 232.528 178.282 232.508 179.594C232.493 180.531 232.264 181.359 232.037 182.183C231.915 182.625 231.793 183.066 231.705 183.521C231.664 183.734 231.616 183.951 231.567 184.171C231.37 185.06 231.166 185.982 231.377 186.773C231.457 187.07 231.507 187.384 231.56 187.706C231.722 188.702 231.898 189.782 232.958 190.698C233.087 190.418 233.215 190.14 233.344 189.863ZM340.72 200.561C339.036 198.17 339.036 195.695 340.532 187.935C342.908 187.566 344.036 188.533 343.816 191.087C343.629 193.267 343.275 195.461 342.693 197.565C342.491 198.294 341.979 198.936 341.446 199.604C341.199 199.914 340.947 200.229 340.72 200.561ZM300.452 174.514C300.693 173.815 300.936 173.109 301.192 172.402C301.093 172.296 300.998 172.184 300.901 172.072C300.689 171.825 300.474 171.575 300.217 171.383C299.06 170.521 296.88 171.168 296.735 172.591C296.576 174.148 296.017 175.548 295.464 176.93C295.163 177.683 294.864 178.429 294.633 179.195L294.853 179.703C295.197 180.496 295.556 181.323 296.029 182.416C296.343 182.06 296.669 181.735 296.983 181.423C297.638 180.769 298.241 180.169 298.574 179.444C299.3 177.859 299.87 176.203 300.452 174.514ZM334.166 237.944C334.87 236.224 334.398 234.807 333.575 233.195C331.718 233.524 330.845 234.478 330.76 236.197C330.728 236.837 330.68 237.55 330.385 238.09C328.972 240.665 329.722 242.989 331.125 245.697C331.422 245.276 331.746 244.911 332.058 244.56C332.804 243.718 333.478 242.957 333.529 241.704C333.581 240.438 333.695 239.095 334.166 237.944ZM315.448 248.104C315.21 247.455 314.913 246.885 314.632 246.347C314.025 245.182 313.495 244.168 313.819 242.83C313.966 242.223 313.92 241.513 313.768 240.898C313.181 238.51 314.271 236.94 316.165 235.564C317.656 236.8 318.912 237.901 317.669 240.047C317.278 240.722 317.143 241.837 317.416 242.55C318.017 244.121 317.323 245.114 316.54 246.235C316.148 246.797 315.733 247.39 315.448 248.104ZM343.319 216.562C343.358 215.96 343.399 215.327 343.451 214.651C343.45 214.646 343.446 214.635 343.44 214.616C343.402 214.495 343.275 214.095 343.108 213.712C343.076 213.638 343.046 213.562 343.015 213.484L343.014 213.484V213.483L343.014 213.482V213.482L343.013 213.481L343.013 213.48C342.798 212.941 342.562 212.35 341.812 212.59C341.261 212.766 340.775 213.233 340.343 213.656C340.195 213.799 340.148 214.049 340.102 214.295C340.085 214.385 340.068 214.473 340.046 214.556C340.024 214.641 340.002 214.726 339.98 214.811L339.904 215.105L339.904 215.105C339.71 215.849 339.517 216.592 339.348 217.341C339.25 217.775 339.119 218.203 338.987 218.631V218.631V218.631V218.632H338.986V218.633C338.633 219.781 338.28 220.929 338.58 222.179C338.829 223.222 339.6 223.628 340.583 223.213C341.942 222.64 342.812 221.601 343.005 220.156C343.158 219.012 343.234 217.857 343.319 216.562ZM272.784 238.046C272.812 239.102 272.841 240.2 272.575 241.348C272.957 241.305 273.299 241.297 273.592 241.289C274.113 241.275 274.481 241.266 274.645 241.078C274.766 240.941 274.891 240.805 275.017 240.667C275.974 239.62 276.976 238.523 276.493 236.896C276.074 235.484 276.584 234.434 277.4 233.604C277.345 233.373 277.303 233.156 277.264 232.95C277.184 232.53 277.114 232.16 276.952 231.837C276.549 231.035 275.997 230.202 274.938 230.416C273.815 230.644 273.534 231.573 273.547 232.611C273.549 232.73 273.564 232.858 273.579 232.985C273.613 233.276 273.647 233.568 273.526 233.765C272.707 235.121 272.744 236.541 272.784 238.046ZM255.248 182.115C251.55 178.007 251.112 172.974 254.291 169.897C254.423 170.033 254.582 170.163 254.74 170.294V170.294C255.083 170.576 255.426 170.858 255.501 171.199C256.256 174.678 256.738 178.188 255.713 181.71C255.689 181.791 255.601 181.853 255.48 181.939C255.411 181.988 255.332 182.044 255.248 182.115ZM306.043 210.262C304.309 212.469 305.103 214.421 306.378 216.567C308.453 215.76 309.526 214.572 309.234 212.367C309.159 211.8 309.406 211.17 309.639 210.578C309.681 210.471 309.722 210.366 309.761 210.262C310.602 208.026 310.461 207.574 308.192 206.084L307.328 206.697L306.701 207.142L306.098 207.569C306.098 207.979 306.136 208.37 306.17 208.724C306.236 209.401 306.289 209.95 306.043 210.262ZM274.851 131.597C277.315 130.302 278.021 130.525 277.966 133.186C277.959 133.53 277.959 133.879 277.958 134.23C277.958 136.337 277.957 138.524 276.429 140.368C276.124 140.736 276.01 141.262 275.873 141.893C275.803 142.218 275.726 142.571 275.615 142.944C273.346 140.239 273.874 137.545 274.4 134.864C274.614 133.772 274.827 132.683 274.851 131.597ZM347.943 160.141C347.312 163.08 347.302 166.01 348.826 169.018C349.007 168.658 349.171 168.315 349.329 167.987C349.654 167.308 349.951 166.69 350.306 166.107C351.356 164.385 351.518 162.474 351.68 160.57V160.57C351.729 159.994 351.779 159.418 351.852 158.849C351.909 158.407 351.277 157.673 350.788 157.435C350.44 157.266 349.635 157.557 349.321 157.903C348.737 158.546 348.118 159.326 347.943 160.141ZM350.172 250.205L349.037 250.689C348.642 250.858 348.228 251.034 347.829 251.204C346.228 249.882 346.499 248.393 346.765 246.929C346.846 246.484 346.926 246.041 346.953 245.606C347.067 243.789 347.748 242.345 349.723 241.811C351.53 242.416 351.399 243.959 351.194 245.408C351.044 246.475 350.795 247.529 350.531 248.647C350.412 249.151 350.289 249.668 350.172 250.205ZM315.94 263.909L315.655 263.346C312.983 264.742 312.751 266.877 312.527 268.927C312.454 269.599 312.382 270.261 312.225 270.885C311.861 272.333 313.902 273.935 314.764 273.131C315.531 272.417 316.175 271.348 316.405 270.33C316.684 269.095 316.76 267.815 316.821 266.791C316.843 266.418 316.863 266.078 316.89 265.788C316.508 265.032 316.207 264.437 315.94 263.909ZM333.073 269.689C332.327 268.18 332.665 266.684 332.999 265.212C333.246 264.12 333.49 263.04 333.287 261.976C333.456 261.795 333.616 261.612 333.773 261.432C334.114 261.04 334.441 260.664 334.823 260.355C335.7 259.642 336.513 259.847 336.949 260.898C337.96 263.335 336.832 269.146 333.073 269.689ZM294.626 245.102C297.353 245.165 298.032 245.793 297.826 248.244C297.818 248.337 297.811 248.429 297.803 248.523C297.796 248.604 297.79 248.686 297.784 248.768C297.596 251.129 297.405 253.529 295.395 255.448C295.299 255.377 295.189 255.312 295.08 255.248C294.845 255.11 294.613 254.974 294.524 254.774C293.727 252.974 293.789 249.339 294.626 245.102ZM283.161 203.231C283.43 202.081 283.696 200.939 284.102 199.833C283.893 199.75 283.722 199.682 283.573 199.622L283.571 199.621C283.316 199.519 283.129 199.444 282.941 199.373C280.619 198.498 279.876 198.999 279.773 201.462C279.746 202.1 279.716 202.772 279.502 203.361C278.862 205.122 279.44 206.716 280.077 208.299C280.173 208.538 280.39 208.728 280.62 208.929C280.73 209.025 280.842 209.123 280.946 209.231C282.208 207.317 282.687 205.262 283.161 203.231ZM294.32 193.647L294.335 193.625C294.721 193.047 295.097 192.483 295.515 191.858C295.979 192.044 296.554 192.274 297.186 192.527L297.743 192.75C297.668 193.417 297.605 194.078 297.542 194.732V194.732V194.733C297.387 196.349 297.235 197.926 296.931 199.472C296.821 200.028 296.393 200.521 295.935 201.049C295.716 201.301 295.49 201.561 295.289 201.839C294.466 201.45 293.83 201.148 292.938 200.726C292.984 200.476 293.013 200.214 293.042 199.952C293.106 199.365 293.171 198.773 293.433 198.287C294.136 196.982 294.346 195.764 293.636 194.671L293.93 194.231L294.32 193.647ZM270.561 193.564C270.514 192.142 269.898 191.258 268.198 191.193C265.135 194.823 264.983 197.402 267.694 200.181C270.303 198.689 270.649 196.226 270.561 193.564ZM263.884 221.401C264.737 218.946 265.428 216.958 266.207 214.719C266.892 214.952 267.511 215.161 268.242 215.409L268.245 215.41L269.049 215.682C268.953 216.157 268.86 216.623 268.769 217.083C268.559 218.147 268.355 219.177 268.124 220.202C268.03 220.617 267.906 221.026 267.783 221.435C267.626 221.953 267.47 222.471 267.374 223C267.163 224.172 266.467 224.641 265.38 224.706C264.143 224.041 264.047 222.92 263.973 222.069C263.951 221.817 263.931 221.587 263.884 221.401ZM307.704 224.157C307.748 222.964 307.097 222.002 305.414 222.101C305.298 222.299 305.159 222.501 305.015 222.71C304.682 223.192 304.324 223.711 304.181 224.282C304.083 224.674 303.967 225.065 303.849 225.458C303.374 227.048 302.894 228.657 303.662 230.324C303.898 230.835 304.518 231.564 304.892 231.525C305.465 231.466 306.172 230.942 306.483 230.414C307.552 228.599 307.623 226.522 307.693 224.496L307.697 224.367C307.7 224.297 307.702 224.227 307.704 224.157ZM294.296 130.212C294.534 130.196 294.762 130.172 294.982 130.149C295.446 130.101 295.876 130.056 296.298 130.092C297.557 130.201 298.548 131.19 298.233 132.378C298.117 132.813 298.012 133.253 297.906 133.696V133.697L297.906 133.697C297.403 135.807 296.886 137.97 295.199 139.847C293.298 137.564 293.657 135.22 294.014 132.888V132.887C294.151 131.992 294.287 131.1 294.296 130.212ZM306.354 153.098L306.988 154.602C308.584 152.453 308.959 150.118 309.33 147.809C309.476 146.899 309.621 145.992 309.841 145.103C309.529 144.861 309.207 144.611 308.889 144.363L308.532 144.085L308.247 143.864C308.055 143.982 307.858 144.094 307.66 144.208C307.185 144.48 306.705 144.756 306.281 145.1C305.947 145.37 305.685 145.846 305.591 146.274C305.417 147.065 305.298 147.868 305.168 148.745V148.745V148.746C305.114 149.109 305.058 149.484 304.996 149.875C305.391 150.813 305.844 151.887 306.354 153.098ZM282.966 147.167C283.966 150.338 283.661 153.139 280.701 157.329C278.883 155.478 279.137 153.324 279.387 151.216C279.447 150.715 279.505 150.216 279.536 149.724C279.612 148.521 281.474 147.29 282.966 147.167ZM249.576 200.869C249.08 203.223 248.575 205.624 250.333 208.12C252.17 205.844 252.975 203.533 253.127 200.839C253.288 197.989 252.697 197.335 250.004 198.31C249.936 199.158 249.757 200.01 249.576 200.869ZM362.724 247.778C361.251 246.159 360.94 244.494 361.726 242.596C361.998 241.939 362.213 241.254 362.387 240.565C362.685 239.383 363.647 238.438 364.449 238.608C365.139 238.754 366.327 240.3 366.048 241.108C365.849 241.682 365.709 242.285 365.567 242.894C365.147 244.702 364.716 246.552 362.724 247.778ZM251.641 228.094C251.478 228.652 251.316 229.206 251.109 229.742C251.229 229.954 251.348 230.153 251.461 230.345V230.345C251.696 230.741 251.912 231.104 252.095 231.483C252.764 232.871 253.426 233.024 254.369 231.872C254.754 231.402 255.016 230.771 255.155 230.172C255.358 229.3 255.502 228.414 255.65 227.499C255.713 227.115 255.776 226.725 255.845 226.329C255.306 225.469 254.732 224.554 254.125 223.585C252.577 224.889 252.105 226.508 251.641 228.094ZM332.953 156.203C332.771 155.973 332.61 155.793 332.474 155.641C332.239 155.378 332.078 155.199 332.009 154.989C331.228 152.627 331.462 150.292 332.342 148.007C332.705 147.063 333.68 146.649 334.74 146.971C335.849 147.308 335.85 147.916 335.525 149.009C335.344 149.618 335.262 150.254 335.179 150.892C335.039 151.972 334.898 153.057 334.276 154.027C334.027 154.415 333.79 154.812 333.491 155.31C333.333 155.574 333.157 155.867 332.953 156.203ZM329.3 176.819C331.559 175.508 333.175 170.884 332.274 168.209C332.146 168.2 332.017 168.188 331.887 168.177C330.711 168.073 329.483 167.964 329.088 169.536L329.064 169.63C328.463 172.023 327.85 174.465 329.3 176.819ZM238.443 223.907C238.272 223.678 238.083 223.456 237.895 223.234C237.473 222.738 237.05 222.241 236.831 221.667C236.388 220.507 236.135 219.235 236.035 217.992C235.948 216.918 236.655 216.376 237.356 215.839C237.672 215.597 237.986 215.355 238.227 215.067C239.806 215.149 240.296 216.467 240.247 217.41C240.167 218.915 239.858 220.409 239.548 221.902C239.423 222.509 239.298 223.116 239.187 223.724L238.886 223.798C238.738 223.834 238.591 223.87 238.443 223.907ZM309.735 192.815L309.942 192.722C310.025 192.443 310.115 192.163 310.206 191.885C310.789 190.085 311.363 188.314 309.66 186.658C307.957 186.506 306.781 187.452 306.431 188.868C306.082 190.276 306.723 191.55 307.383 192.864C307.519 193.135 307.656 193.407 307.786 193.683C308.578 193.33 309.172 193.066 309.735 192.815Z" fill="#24635C"/>
<path fill-rule="evenodd" clip-rule="evenodd" d="M124.041 391.401L131.425 404.419C131.425 404.419 137.924 412.025 148.02 412.025C158.115 412.025 168.142 412.344 170.441 408.831C172.739 405.317 165.296 400.601 163.102 400.601C160.909 400.601 151.332 395.378 150.5 394.063C149.669 392.747 147.571 383.769 147.571 383.769L156.244 369.853C156.244 369.853 180.493 371.94 184.425 365.442C188.356 358.945 194.691 306.007 194.691 306.007L197.251 299.572L212.22 361.262L219.103 364.547L217.54 376.706L216.195 405.918C216.195 405.918 219.335 412.05 235.033 411.153C250.731 410.254 271.21 411.153 277.292 401.162C283.248 392.747 235.93 385.565 235.93 385.565L236.947 368.057C236.947 368.057 261.495 368.081 268.822 356.408C268.822 355.764 258.946 318.315 258.946 318.315L239.003 250.804L230.154 226.768L233.765 214.341C233.765 214.341 238.468 189.043 237.451 183.309C236.435 177.574 236.301 162.885 235.033 160.333C233.765 157.781 184.836 158.927 184.836 158.927C184.836 158.927 175.758 176.444 175.143 183.309C174.529 190.173 174.529 207.867 175.143 212.712C173.382 218.577 158.347 280.019 158.347 280.019C158.347 280.019 133.163 353.161 130.623 355.941C128.082 358.721 137.426 361.262 137.426 361.262L128.782 377.933L124.573 385.565L124.041 391.401Z" fill="white"/>
<path fill-rule="evenodd" clip-rule="evenodd" d="M275.281 401.882C273.491 404.321 270.979 405.781 268.159 406.439C264.474 407.299 260.708 407.802 257.06 408.444C256.014 406.221 256.29 404.876 257.573 403.633C258.189 403.037 259.122 402.907 259.9 402.577C265.345 400.259 270.649 399.317 276.533 398.126C276.876 399.826 276.029 400.863 275.281 401.882ZM254.623 409.113C254.32 409.244 253.442 409.391 252.802 409.477C247.312 410.213 241.797 410.383 236.156 410.126C235.553 408.406 235.04 406.941 234.43 405.201C241.273 404.628 247.953 404.068 254.623 403.509C254.623 403.509 252.811 404.387 254.623 409.113ZM232.133 402.342C228.958 397.881 224.344 396.024 219.197 395.064C218.857 395.001 218.921 394.996 218.276 394.818C218.51 392.484 218.331 390.228 218.574 387.808C219.331 388.26 219.926 388.566 220.468 388.947C224.111 391.51 228.1 392.77 232.606 392.329C233.513 392.24 234.634 392.25 235.356 392.696C240.091 395.62 245.367 396.257 250.746 396.547C251.271 396.576 251.799 396.56 252.326 396.552C257.716 396.466 258.125 396.261 261.725 391.769C266.006 392.805 270.452 393.61 274.817 396.184C271.532 397.001 268.693 397.712 265.851 398.413C262.027 399.357 258.247 400.618 254.366 401.159C248.382 401.995 242.328 402.337 236.304 402.885C235.518 402.957 234.719 403.119 233.948 403.039C233.313 402.972 232.45 402.787 232.133 402.342ZM222.475 409.491C218.658 408.629 217.096 406.332 217.419 402.407C217.562 400.673 217.758 398.942 217.927 397.229C225.75 397.18 232.25 402.974 233.981 410.151C229.984 410.312 226.192 410.33 222.475 409.491ZM233.981 384.899C233.894 386.327 233.805 387.795 233.695 389.602C231.229 388.472 230.105 387.046 230.454 385.816C230.773 384.69 231.725 384.409 233.981 384.899ZM218.285 380.104C218.396 376.192 218.795 372.266 219.022 368.07C224.076 370.627 228.83 373.297 234.879 373.258C234.54 376.352 234.23 379.188 233.924 381.99C228.181 382.202 224.883 385.144 230.825 390.051C228.903 389.452 226.137 389.326 224.635 388.721C223.592 388.301 222.674 387.578 221.689 387.011C219.009 385.47 218.176 383.936 218.285 380.104ZM236.389 386.462C238.479 387.094 240.59 387.733 242.956 388.448C242.159 390.023 241.46 391.401 240.781 392.743C235.769 391.16 235.002 389.553 236.389 386.462ZM251.033 389.641C250.14 391.215 249.392 392.533 248.51 394.088C246.753 393.804 245.004 393.521 242.956 393.189C243.844 391.508 244.546 390.182 245.325 388.705C247.199 389.013 248.956 389.301 251.033 389.641ZM253.018 390.051C255.204 390.441 257.086 390.777 259.111 391.139C257.366 395.154 254.053 394.596 250.585 394.387C251.501 392.754 252.204 391.501 253.018 390.051ZM211.233 381.978C213.529 382.126 215.437 383.491 216.032 385.548C213.076 385.688 211.21 384.947 210.299 383.251C209.969 382.637 210.494 381.931 211.233 381.978ZM191.275 323.684C189.165 337.177 186.619 350.586 183.699 363.927C183.416 365.222 182.759 365.878 181.752 366.483C177.229 369.199 172.24 369.809 167.096 369.862C159.75 369.938 152.929 367.824 146.318 364.918C142.153 363.087 138.074 361.057 133.981 359.069C133.059 358.622 132.236 357.971 131.22 357.319C131.595 356.278 131.898 355.382 132.237 354.502C137.742 340.211 143.358 325.961 148.735 311.623C156.216 291.672 161.611 271.118 166.24 250.34C168.523 240.094 171.168 229.929 173.659 219.729C173.844 218.971 174.179 217.601 174.533 216.442C174.861 217.374 175.058 218.205 175.164 218.631C178.115 230.519 180.96 242.434 184.038 254.289C185.198 258.756 185.214 263.296 185.65 267.811C186.693 278.615 187.553 289.438 188.653 300.236C189.397 307.547 190.43 314.828 191.316 322.125C191.378 322.636 191.354 323.174 191.275 323.684ZM149.486 378.019C149.104 376.767 147.901 376.104 147.011 376.01C145.964 375.899 144.754 376.235 143.792 376.719C142.896 377.17 142.233 378.071 141.4 378.836C137.892 377.259 134.906 372.851 133.464 370.543C133.464 370.543 134.463 368.559 134.966 367.172C142.341 370.244 142.341 370.244 153.657 371.378C152.281 373.51 150.782 376.012 149.486 378.019ZM148.721 392.899C147.459 393.555 146.279 394.168 144.707 394.986C144.354 394.118 143.76 393.213 143.336 391.19C144.947 390.931 146.258 390.72 147.633 390.5C148.016 391.344 148.325 392.026 148.721 392.899ZM155.452 399.118C151.864 400.012 149.178 399.209 146.477 396.726C147.829 396.03 148.93 395.463 149.858 394.986C151.721 396.362 153.383 397.589 155.452 399.118ZM143.336 380.138C144.142 378.71 144.981 377.853 146.59 377.946C148.793 379.152 147.548 380.39 146.667 381.976C145.54 381.354 144.519 380.791 143.336 380.138ZM147.375 388.315C146.022 388.567 142.863 389.154 142.863 389.154C141.636 385.18 141.943 383.535 142.345 382.86C142.527 382.555 142.884 382.389 143.236 382.431C146.493 382.816 146.711 385.573 147.375 388.315ZM165.773 403.414C165.136 403.414 164.495 403.375 163.86 403.42C159.949 403.702 156.032 403.945 152.129 404.312C146.181 404.871 138.138 403.052 134.239 395.944C133.39 394.397 132.759 392.55 132.665 390.807C132.442 386.638 131.366 382.771 129.425 378.919C130.366 377.226 131.359 375.438 132.462 373.453C133.807 375.099 134.842 376.594 136.111 377.854C137.397 379.132 139.264 380.568 140.849 381.852C140.277 382.497 140.288 384.622 140.546 386.225C141.012 389.124 141.403 392.116 142.462 394.822C144.59 400.255 150.123 403.056 155.68 401.352C156.62 401.064 157.667 400.682 157.667 400.682C158.534 400.977 163.325 402.162 165.773 403.414ZM169.274 405.469C169.682 408.68 168.692 409.905 166.211 410.366C160.203 411.481 154.159 411.142 147.824 410.838C148.663 408.084 150.094 406.699 152.563 406.311C158.315 405.404 163.065 405.072 169.274 405.469ZM136.684 408.459C134.467 407.063 132.326 404.451 130.323 401.306C130.8 399.987 131.302 398.601 131.961 396.78C135.529 402.827 140.76 405.63 147.375 406.58C146.568 408.013 145.901 409.594 145.284 410.687C143.051 410.502 139.846 410.45 136.684 408.459ZM129.039 398.575C124.213 391.944 123.353 387.163 128.038 381.079C130.632 386.944 131.089 392.638 129.039 398.575ZM127.716 368.31C127.607 368.115 127.617 367.86 127.664 367.588C127.755 367.053 128.264 366.675 128.833 366.729C129.099 366.754 129.34 366.808 129.504 366.944C130.494 367.77 131.588 368.659 131.1 370.313C129.61 370.051 128.387 369.51 127.716 368.31ZM268.467 391.279C263.389 390.002 258.219 389.097 253.093 388.011C248.139 386.961 243.194 385.875 238.244 384.81C237.566 384.664 236.688 384.506 236.353 384.096C236.353 384.096 236.194 382.899 236.267 382.167C236.705 377.834 237.227 373.509 237.74 368.982C239.111 368.982 240.231 369.012 241.35 368.977C246.785 368.808 252.174 368.314 257.353 366.494C261.19 365.145 264.684 363.294 267.51 360.226C269.573 357.986 270.06 355.534 269.352 352.704C268.44 349.055 267.605 345.383 266.588 341.763C261.951 325.245 257.353 308.715 252.563 292.242C248.823 279.385 244.982 266.553 240.879 253.809C238.548 246.567 235.678 239.493 232.89 232.408C231.901 229.893 231.72 227.655 232.319 224.911C234.167 216.452 235.552 207.889 237.029 199.351C238.122 193.032 238.638 186.663 238.076 180.249C237.679 175.712 237.209 171.181 236.773 166.646C236.523 164.047 236.274 161.448 235.998 158.572H235.97C235.151 158.572 234.449 159.109 234.174 159.881C234.136 159.988 234.094 160.095 234.049 160.203C234.03 160.249 234.007 160.295 233.985 160.341C233.992 160.339 233.998 160.338 234.005 160.336C234.339 163.377 234.672 166.042 234.917 168.716C235.397 173.948 236.064 179.18 236.199 184.424C236.3 188.339 235.88 192.299 235.348 196.191C234.449 202.783 233.28 209.338 232.213 215.907C232.144 216.328 232.01 217.791 231.792 218.505C231.302 217.893 230.238 216.137 229.955 215.684C227.13 211.158 224.927 206.948 222.17 202.381C221.593 201.425 221.322 200.278 220.942 199.208C220.012 196.583 219.1 193.952 218.112 191.126C219.686 190.805 221.111 190.528 222.53 190.223C223.384 190.039 224.269 189.908 225.059 189.566C225.141 189.53 225.213 189.473 225.279 189.401C225.701 188.939 225.537 188.184 224.994 187.876C224.867 187.803 224.737 187.733 224.605 187.668C224.472 187.602 224.261 187.675 224.09 187.705C221.854 188.09 219.622 188.497 217.382 188.86C216.171 189.056 215.789 189.875 215.847 190.925C215.879 191.516 216.155 192.102 216.363 192.676C223.682 212.831 231.312 232.879 238.229 253.172C243.534 268.736 248.056 284.575 252.709 300.356C256.819 314.291 260.669 328.303 264.544 342.305C265.618 346.182 266.328 350.157 267.293 354.065C267.712 355.763 267.329 357.12 266.24 358.441C263.808 361.389 260.581 363.071 257.099 364.355C252.874 365.911 248.463 366.625 243.995 366.75C236.992 366.946 229.986 366.713 223.178 364.852C220.327 364.073 217.592 362.861 214.822 361.802C213.409 361.262 212.692 360.22 212.385 358.677C208.465 339.009 203.466 319.597 198.401 300.202C191.966 275.559 185.479 250.93 179.09 226.277C177.993 222.045 177.026 217.751 176.432 213.426C175.181 204.332 174.172 195.203 175.59 186.008C176.408 180.701 177.733 175.55 179.963 170.653C180.717 168.995 184.287 161.433 185.013 159.882C185.016 159.882 185.018 159.882 185.02 159.881C184.922 159.609 184.798 159.343 184.658 159.082C184.392 158.584 183.679 158.575 183.384 159.056L183.377 159.068C179.346 165.593 174.514 178.701 173.461 186.228C172.545 192.777 172.663 199.335 173.359 205.888C173.667 208.784 173.618 211.586 172.88 214.463C169.856 226.249 166.734 238.02 164.132 249.902C158.934 273.64 152.237 296.913 143.523 319.594C138.939 331.525 134.263 343.42 129.638 355.335C128.627 357.941 128.626 357.978 130.978 359.578C132.177 360.396 133.462 361.087 134.762 361.867C133.956 363.658 132.992 365.91 132.216 367.636C131.682 365.935 130.967 365.52 130.204 364.986C129.115 364.224 127.922 364.151 126.749 364.862C125.651 365.53 124.912 366.982 125.398 368.271C125.805 369.353 126.593 370.357 127.414 371.197C128.052 371.85 129.003 372.197 129.985 372.78C129.39 374.017 128.886 375.214 128.256 376.34C127.102 378.403 125.89 380.434 124.674 382.461C122.048 386.837 122.099 391.239 124.444 395.707C126.946 400.474 130.179 404.705 133.825 408.635C135.427 410.363 137.384 411.397 139.73 411.771C147.893 413.071 156.092 413.198 164.312 412.545C165.606 412.442 166.913 412.148 168.148 411.741C170.477 410.973 171.516 409.063 171.992 406.817C172.439 404.706 170.901 403.605 169.528 402.561C168.497 401.778 167.314 401.145 166.116 400.649C164.505 399.983 162.794 399.561 161.159 398.947C152.154 395.564 151.29 394.841 148.641 385.788C148.592 385.621 148.473 385.452 148.485 385.291C148.535 384.62 148.463 383.88 148.723 383.292C150.755 378.713 153.933 374.861 156.255 371.043C160.738 371.311 164.738 371.719 168.742 371.748C173.422 371.782 177.932 370.836 182.119 368.553C184.213 367.411 185.38 366.046 185.929 363.474C189.269 347.793 191.972 332.003 194.538 316.185C195.209 312.051 196.049 306.44 196.755 302.312C197.276 303.505 197.554 305.189 197.739 305.921C200.006 314.92 202.349 323.9 204.491 332.928C206.653 342.041 208.635 351.198 210.632 360.35C210.897 361.568 211.341 362.405 212.515 362.932C214.094 363.642 215.603 364.507 217.295 365.384C216.983 370.749 216.672 376.105 216.345 381.735C215.129 381.062 214.341 380.499 213.463 380.172C212.581 379.844 211.614 379.598 210.679 379.582C208.169 379.54 207.023 381.232 207.953 383.568C208.805 385.707 210.557 386.833 212.657 387.465C213.719 387.785 214.818 387.98 215.917 388.235C215.917 389.503 215.959 390.635 215.909 391.763C215.729 395.786 215.516 399.809 215.319 403.831C215.157 407.128 216.734 409.466 219.654 410.648C221.64 411.452 223.85 412.029 225.977 412.09C232.795 412.287 239.627 412.483 246.444 412.213C253.36 411.94 256.113 411.5 261.274 410.654C264.557 410.115 268.513 408.778 271.578 407.393C274.411 406.112 276.762 404.271 278.231 401.473C279.646 398.776 278.576 395.499 275.832 394.184C273.451 393.044 271.006 391.918 268.467 391.279Z" fill="black"/>
<path fill-rule="evenodd" clip-rule="evenodd" d="M207.063 24.4314L209.397 24.2938C216.633 23.8858 220.562 23.9172 221.183 24.388C228.817 34.7084 231.546 44.8894 229.372 54.9314C228.906 57.0851 221.762 58.4175 207.941 58.9284L207.52 58.9437L209.04 73.2586C209.209 73.9207 209.3 74.6255 209.3 75.3563C209.3 79.1963 206.788 82.3096 203.691 82.3096C200.592 82.3096 198.081 79.1963 198.081 75.3563C198.081 74.97 198.106 74.5914 198.155 74.2222L197.423 74.2226L197.389 72.9661C197.014 59.6116 196.353 52.3335 195.407 51.1317C184.554 51.1317 184.554 45.6852 185.148 42.7191C185.743 39.7533 191.986 38.543 193.042 38.543C191.605 24.4163 195.256 25.1102 207.063 24.4314Z" fill="white"/>
<path fill-rule="evenodd" clip-rule="evenodd" d="M230.239 5.50395C227.107 4.28509 224.33 5.00779 221.943 7.33649C221.796 7.48022 221.641 7.61579 221.422 7.80712C221.297 7.91618 221.151 8.0434 220.974 8.2005C220.716 7.4953 220.552 7.04624 220.388 6.59719C219.603 4.45287 218.259 2.74549 216.29 1.59079C212.535 -0.612303 208.748 1.26824 208.178 5.5847C208.134 5.91608 208.087 6.24724 208.041 6.5784C207.918 7.45775 207.795 8.33719 207.719 9.22062C207.57 10.9585 206.689 12.1002 205.063 12.6695C204.255 12.9527 203.441 13.2231 202.628 13.4936L202.628 13.4937C201.124 13.9938 199.62 14.494 198.147 15.0749C197.803 15.2108 197.457 15.3458 197.112 15.4808C194.806 16.3824 192.486 17.2894 190.349 18.5031C187.092 20.3527 184.986 23.27 184.361 27.0279C183.6 31.6118 185.215 35.6587 187.372 39.5328C186.753 39.9567 186.172 40.4583 185.628 41.0352C184.634 42.0907 184.189 43.3549 184.171 44.8156C184.119 48.8297 186.488 51.5455 190.607 52.0574C191.415 52.1583 192.231 52.1973 193.113 52.2399C193.423 52.2547 193.74 52.27 194.068 52.2888C194.204 52.4539 194.345 52.6226 194.489 52.7935C194.503 52.9214 194.515 53.0434 194.528 53.1614C194.58 53.6611 194.625 54.0841 194.655 54.5076C194.833 56.97 195.184 60.7401 195.527 64.4276C195.83 67.6768 196.126 70.8619 196.293 73.0309C196.303 73.1533 196.308 73.2843 196.313 73.4194C196.348 74.2906 196.388 75.3197 197.604 75.1384C198.559 74.9962 198.416 74.1605 198.289 73.414C198.255 73.2153 198.222 73.0228 198.212 72.8514C198.031 69.9647 197.631 65.5612 197.251 61.3789C197.054 59.2121 196.862 57.1046 196.709 55.2981C196.866 55.4694 197.016 55.6323 197.156 55.7848C197.313 55.9548 197.425 55.9077 197.574 55.8458C197.703 55.792 197.859 55.7265 198.096 55.7848C198.156 55.6345 198.221 55.5053 198.277 55.3927C198.379 55.1904 198.452 55.0433 198.418 54.9275C198.323 54.605 198.241 54.2694 198.16 53.9325C197.932 52.9909 197.702 52.0412 197.156 51.3427C196.91 51.0274 196.538 50.8062 196.113 50.6281C196.088 50.4989 196.064 50.3688 196.041 50.2369C195.679 50.2369 195.341 50.2436 195.02 50.2499C195.014 50.2499 195.009 50.2499 195.005 50.2504C194.742 50.1696 194.481 50.0898 194.238 50.001C194.026 49.9238 192.578 49.7924 192.482 50.001C192.461 50.0449 192.462 50.1005 192.477 50.1642C191.409 50.0741 190.335 49.974 189.316 49.6928C187.38 49.1585 186.466 47.6678 186.153 45.7401C185.856 43.9134 186.598 42.5622 188.013 41.5165C189.418 40.4785 190.96 39.806 192.758 39.8231C193.137 39.8266 193.516 39.7755 193.914 39.7181C194.268 39.6669 194.478 39.2892 194.33 38.9635C194.055 38.3584 193.83 38.0591 193.458 37.9286C194.456 37.8236 195.437 37.9228 196.156 38.2615C196.446 38.3974 196.461 38.392 196.672 38.3144C196.789 38.2709 196.966 38.2054 197.284 38.13C197.745 37.6648 197.745 37.3957 197.65 36.9049C197.393 35.5824 197.099 34.268 196.804 32.9531C196.583 31.9635 196.362 30.9744 196.156 29.9816C195.51 26.8583 195.781 26.355 198.697 25.1667C198.778 25.1338 198.859 25.1002 198.941 25.0664C199.543 24.8178 200.165 24.5606 200.789 24.5207C202.898 24.3852 205.017 24.2928 207.129 24.3363C209.282 24.3808 211.435 24.4547 213.588 24.5287C215.899 24.6082 218.211 24.6876 220.522 24.7305C220.641 24.9458 220.818 25.1876 221.057 25.4922C224.19 29.4715 227.239 34.4753 228.406 39.5476C229.573 44.6195 229.732 49.0091 228.676 53.7863C228.413 54.9796 227.823 55.639 226.628 55.8346C225.479 56.0226 224.331 56.2235 223.184 56.4245H223.184C221.126 56.7852 219.067 57.1454 216.999 57.4321C212.705 58.0265 208.4 58.0929 204.106 57.3074C204.092 57.3047 204.078 57.302 204.063 57.2993L204.019 57.2908C203.547 57.2033 202.534 57.0149 202.441 57.2383C202.257 57.6712 202.672 58.703 202.907 59.1161C203.426 60.029 204.036 60.9294 204.774 61.6714C205.224 62.1245 205.776 62.5277 206.262 62.8844C206.883 63.3384 207.398 63.7156 207.469 64.022C207.74 65.1929 208.682 72.279 208.726 73.4642C208.766 74.5328 209.689 74.4669 210.517 74.2937C211.042 74.1842 209.672 65.4894 209.543 64.8973C209.297 63.765 209.031 62.6376 208.747 61.4287L208.746 61.4278C208.623 60.9034 208.496 60.3641 208.365 59.8025C208.743 59.8025 209.085 59.8034 209.404 59.8038C210.029 59.8056 210.562 59.807 211.096 59.8011C216.659 59.7343 222.102 58.7761 227.526 57.6335C229.179 57.2849 230.118 56.4066 230.435 54.7835C230.482 54.5444 230.548 54.3089 230.615 54.0738C230.681 53.8388 230.748 53.6032 230.795 53.3641C232.813 43.0261 229.804 33.9064 223.975 25.4922C223.845 25.3038 223.584 25.0335 223.28 24.7421C225.635 24.6281 227.899 23.908 230.033 22.838C233.978 20.8596 236.139 16.9402 235.538 12.5685C235.086 9.28477 233.432 6.74613 230.239 5.50395Z" fill="black"/>
<path fill-rule="evenodd" clip-rule="evenodd" d="M137.307 110.159L130.868 106.025C130.868 106.025 160.946 75.515 188.129 74.3671C215.313 73.2192 233.534 82.0038 233.534 82.0038L252.756 92.197L270.175 104.489L269.47 110.159L279.033 122.179L287.562 135.194C287.562 135.194 288.279 138.395 288.279 139.902C288.279 141.409 284.016 149.247 254.361 142.768C224.706 136.289 249.822 145.349 249.822 145.349L251.748 148.269C251.748 148.269 250.785 154.556 250.785 155.848C250.785 157.14 232.489 160.515 232.489 160.515C232.489 160.515 181.477 164.703 165.116 160.515C161.025 159.468 165.116 145.349 165.116 145.349L161.882 144.382C161.882 144.382 139.18 152.718 127.795 151.111C116.41 149.502 122.673 133.578 122.673 133.578L140.44 111.032L137.307 110.159Z" fill="white"/>
<path fill-rule="evenodd" clip-rule="evenodd" d="M164.821 158.38C166.433 158.66 166.992 159.309 168.503 159.443C171.669 159.724 174.848 159.847 178.016 160.099C182.728 160.474 187.431 161.18 192.145 161.253C201.35 161.395 210.56 161.269 219.737 160.331C228.579 159.427 237.401 158.436 245.928 155.745C246.269 155.637 249.779 154.265 249.779 154.265C249.779 154.265 249.143 149.219 249.779 149.003C249.005 148.667 247.474 147.649 247.141 147.501C238.584 143.696 233.628 141.57 225.103 137.695C222.804 136.649 217.118 133.909 214.99 133.203C213.166 132.773 210.82 132.418 208.99 132.017C206.619 131.498 204.858 130.163 203.583 128.139C202.218 125.971 201.397 123.598 200.946 121.085C200.679 119.605 200.35 118.136 200.076 116.657C199.339 119.144 198.436 121.589 197.781 124.098C196.847 127.672 195.22 130.905 192.313 133.144C188.706 135.921 184.965 138.608 180.988 140.802C175.587 143.783 169.908 146.262 164.251 149.003L164.821 158.38ZM212.798 113.743C212.896 114.622 213.603 115.966 212.173 116.163C210.814 116.351 210.959 114.868 210.824 113.99C210.406 111.254 210.176 108.488 209.709 105.763C209.465 104.337 209.055 102.879 208.403 101.596C207.433 99.6859 206.092 99.8222 205.015 101.698C205.776 102.905 206.827 103.975 207.18 105.241C208.181 108.838 208.899 112.514 209.725 116.159C209.76 116.316 209.773 116.507 209.751 116.635C209.647 117.248 209.328 117.416 209.038 117.48C208.668 117.562 208.227 117.346 208.06 117.007C207.78 116.439 207.679 115.779 207.537 115.148C206.911 112.371 206.355 109.576 205.648 106.82C205.361 105.7 204.947 104.516 203.749 103.98C203.116 106.462 202.508 108.819 201.919 111.182C201.822 111.571 201.717 111.998 201.778 112.382C202.348 115.996 202.781 119.643 203.593 123.204C204.496 127.171 206.923 129.533 211.155 130.483C217.022 131.8 222.749 133.74 228.533 135.422C232.599 136.604 236.619 137.978 240.734 138.947C246.35 140.269 252.022 141.368 257.697 142.413C262.898 143.372 268.073 144.728 273.422 144.435C276.58 144.263 279.78 144.076 282.857 143.415C286.58 142.614 287.979 139.868 286.445 136.378C285.046 133.192 283.426 130.02 281.393 127.211C277.041 121.198 272.096 115.661 266.553 110.689C265.783 109.998 265.008 109.312 264.144 108.543C256.939 112.065 249.727 115.224 243.597 120.918C250.123 122.537 256.394 123.723 262.511 125.36C263.506 125.627 263.358 127.123 262.329 127.146C262.322 127.146 262.315 127.147 262.307 127.147C261.67 127.155 261.022 126.994 260.39 126.854C254.584 125.571 248.818 124.071 242.968 123.039C235.656 121.749 228.261 120.924 220.91 119.855C220.39 119.779 219.867 119.73 219.344 119.676C218.028 119.54 217.326 119.034 216.982 117.595C216.151 114.117 215.063 110.699 214.005 107.28C213.655 106.148 213.119 105.055 211.651 104.293C212.063 107.645 212.459 110.691 212.798 113.743ZM137.554 116.182C132.746 120.875 127.565 127.693 123.924 133.31C122.619 135.322 121.706 137.671 121.033 139.987C120.098 143.211 121.421 147.109 123.944 148.428C125.771 149.383 127.912 150.235 129.92 150.25C135.369 150.291 140.833 150.004 146.117 148.344C152.257 146.415 158.557 144.912 164.538 142.585C172.809 139.366 180.797 135.431 189.005 132.044C192.725 130.51 194.563 127.76 195.677 124.18C197.172 119.37 198.789 114.597 200.229 109.771C200.954 107.343 201.931 104.879 201.038 102.185C199.856 101.633 198.657 103.878 197.566 106.248C196.035 109.573 194.724 112.998 193.294 116.371C192.979 117.113 192.623 117.856 192.155 118.504C191.993 118.728 191.355 118.82 191.075 118.684C190.815 118.558 190.646 118.055 190.616 117.704C190.592 117.417 190.837 117.11 190.956 116.809C193.204 111.17 194.844 105.236 199.082 100.566C197.621 99.8478 197.131 99.7464 196.225 100.767C195.052 102.089 193.939 103.55 193.175 105.132C191.652 108.281 190.367 111.546 189.025 114.78C188.825 115.263 188.651 115.741 188.296 116.059C187.753 116.545 186.818 116.138 186.86 115.411C186.862 115.369 186.869 115.328 186.881 115.288C188.469 109.897 190.825 104.837 193.575 99.9187C191.736 99.2987 187.344 104.004 186.703 108.132C186.09 112.076 185.464 116.019 184.903 119.971C184.531 122.594 184.559 122.64 181.966 122.802C178.551 123.017 175.107 122.988 171.723 123.432C164.701 124.353 157.71 125.513 150.707 126.587C150.133 126.675 149.555 126.856 148.975 126.844C148.167 126.827 147.588 126.038 147.761 125.248C147.783 125.149 147.808 125.052 147.836 124.957C148.078 124.156 148.899 123.757 149.668 124.088C150.152 124.297 150.6 124.47 151.017 124.415C153.245 124.122 155.444 123.609 157.803 123.15C156.55 119.626 154.238 117.295 151.219 115.679C148.495 114.221 145.671 112.93 141.503 111.779C139.378 113.987 139.739 113.554 137.554 116.182ZM202.648 100.684C203.003 100.401 203.838 100.547 203.944 100.429C205.301 98.1481 208.375 98.1014 210.199 100.51C210.555 101.008 211.156 102.032 211.156 102.032C213.918 102.403 215.161 104.304 215.868 106.493C217.039 110.115 218.094 113.773 219.238 117.544C219.399 117.591 219.703 117.716 220.018 117.761C226.556 118.676 233.099 119.554 239.629 120.519C240.203 120.604 241.176 120.689 241.176 120.689C241.354 120.379 241.821 119.867 242.185 119.506C244.623 117.09 247.267 114.952 250.368 113.408C254.813 111.193 259.21 108.879 263.667 106.689C264.946 106.062 267.156 105.623 268.817 105.042C267.438 103.687 265.589 102.53 264.326 101.54C254.595 93.9128 244.047 87.6445 232.63 82.8817C228.875 81.3156 225.044 79.9285 221.223 78.5275C220.754 78.3556 219.459 77.9557 219.459 77.9557C219.459 77.9557 218.831 78.2403 218.27 78.6424C214.922 81.0415 211.087 82.3909 207.029 83.027C202.169 83.7896 197.468 82.983 192.83 81.4883C190.243 80.6548 187.6 79.8403 185.874 77.6632C185.431 77.1054 184.648 76.1018 184.648 76.1018C184.648 76.1018 183.096 76.2846 182.264 76.3533C176.807 76.8048 171.78 78.7251 166.927 81.0509C154.262 87.1214 143.045 95.364 132.413 104.45C132.018 104.788 131.176 105.604 130.698 106.179C133.905 107.049 137.423 107.548 140.407 108.304C149.022 110.489 156.357 114.055 160.001 122.375C167.405 121.732 175.366 121.185 182.82 120.537C182.925 119.681 183.019 118.884 183.122 118.089C183.444 115.583 183.787 113.08 184.089 110.571C184.685 105.596 186.954 101.746 191.173 98.864C192.711 97.8134 194.593 97.983 195.92 98.8815C195.92 98.8815 196.764 98.1512 198.899 98.5487C200.155 98.8609 200.464 99.7258 200.653 99.8788C200.653 99.8788 202.23 99.8891 202.648 100.684ZM214.314 78.276C212.925 77.5912 211.84 77.0712 210.77 76.5227C210.192 76.2261 209.248 75.9508 208.655 75.4738C208.348 75.2269 207.808 74.9568 207.908 74.4421C207.989 73.7804 208.9 73.7241 209.21 73.7675C211.691 74.1177 214.389 74.452 217.067 75.0429C227.797 78.2493 238.042 82.6708 247.851 88.0554C256.238 92.659 263.807 98.4661 271.269 104.413C272.854 105.677 273.195 107.402 272.385 109.019C271.852 110.082 270.593 111.409 270.593 111.409C270.593 111.409 272.781 113.908 273.793 114.99C276.964 118.379 280.014 121.919 282.755 125.659C284.811 128.462 286.459 131.601 288.016 134.727C290.915 140.545 287.357 144.794 282.407 145.687C276.307 146.787 270.242 146.713 264.172 145.646C260.961 145.082 257.773 144.39 254.57 143.775C253.874 143.642 253.161 143.595 252.208 143.478C252.443 144.589 252.626 153.372 252.808 154.234C253.26 156.37 253.004 155.735 250.921 156.506C240.736 160.283 230.106 161.722 219.371 162.668C207.171 163.744 194.957 163.998 182.74 163.131C176.799 162.71 170.876 162.02 164.946 161.447C164.529 161.407 164.115 161.345 163.706 161.255C162.151 160.908 161.783 153.583 161.853 151.941C161.938 149.933 162.306 147.936 162.59 145.626C161.418 145.937 160.647 146.12 159.89 146.346C156.299 147.418 152.682 148.415 149.128 149.599C143.104 151.607 136.899 152.242 130.601 152.353C127.91 152.4 125.429 151.694 123.136 150.368C119.737 148.404 118.039 143.757 119.032 139.429C119.679 136.611 120.778 133.964 122.528 131.682C125.949 127.225 129.496 122.865 133.009 118.479C133.821 117.466 134.702 116.51 135.678 115.382C134.712 114.748 133.844 114.179 132.979 113.607C131.033 112.321 129.457 110.736 128.608 108.494C127.991 106.864 128.145 105.473 129.556 104.331C134.373 100.435 139.071 96.3797 144.029 92.6729C151.486 87.0972 159.422 82.2769 167.851 78.2592C173.625 75.5067 179.667 74.2185 186.008 73.9044C189.256 73.7431 192.487 73.2371 195.732 72.972C195.91 72.9571 196.091 72.9921 196.275 73.0525C196.891 73.2547 197.137 74.018 196.766 74.5501C196.647 74.7217 196.512 74.8688 196.349 74.9672C194.485 76.0862 192.249 76.7632 189.049 77.5342C199.9 81.884 206.204 82.8826 214.314 78.276Z" fill="black"/>
<path fill-rule="evenodd" clip-rule="evenodd" d="M222.532 40.5392C223.186 39.5285 223.782 39.3589 224.75 40.1341C226.622 41.6333 226.773 41.5369 228.512 39.8089C228.844 39.4796 229.538 39.1396 229.882 39.2732C230.716 39.5971 230.379 40.3189 230.083 40.9133C229.202 42.6804 227.234 43.5466 225.369 42.9406C224.964 42.8091 224.497 42.5638 224.011 42.3086C223.769 42.1814 223.522 42.0518 223.276 41.9326C223.528 42.7079 223.393 43.2464 223.254 43.7984L223.246 43.8297C222.688 46.0646 220.069 47.0273 218.223 45.6492C217.92 45.4218 217.636 44.8503 217.745 44.4618C217.884 43.9665 218.178 43.9154 218.536 43.9468C218.864 43.9754 219.131 44.0412 219.373 44.1011C219.466 44.124 219.555 44.146 219.643 44.1648C220.336 44.3133 221.134 44.2613 221.186 43.4807C221.226 42.893 221.281 42.0743 220.807 41.7549C220.492 41.5428 219.9 41.5119 219.33 41.4822C218.947 41.4623 218.574 41.4429 218.301 41.3696C218.285 41.3651 218.269 41.3601 218.252 41.3548C217.542 41.1219 217.32 40.1449 217.9 39.6729C217.939 39.6411 217.98 39.6137 218.024 39.5913C219.063 39.0606 221.399 39.4056 222.532 40.5392ZM210.637 43.691C209.134 43.6821 207.988 42.9706 207.091 41.8284C206.679 41.304 206.279 40.6127 207.028 40.1542C207.312 39.98 207.903 40.2244 208.353 40.4109C208.391 40.4265 208.428 40.4417 208.463 40.4562C208.624 40.5221 208.748 40.6687 208.875 40.8177C208.967 40.9262 209.06 41.036 209.169 41.1169C210.259 41.9244 211.216 41.9244 212.283 41.1017C212.443 40.9773 212.587 40.8256 212.729 40.6746C212.926 40.4659 213.122 40.2586 213.361 40.1269C213.654 39.9663 214.266 39.9649 214.413 40.0766C214.803 40.3732 214.803 41.0434 214.629 41.3354C213.745 42.8181 212.464 43.7467 210.637 43.691ZM215.214 50.6206C215.952 50.9302 216.782 51.0011 217.551 50.7821C217.758 50.7229 217.958 50.6381 218.145 50.5058C218.597 50.1851 219.186 49.5247 219.117 49.112C218.986 48.312 218.274 48.4863 217.656 48.6375C217.617 48.6471 217.579 48.6565 217.541 48.6656C215.502 49.1542 215.076 48.9604 214.118 47.1413C214.039 46.9923 213.975 46.8317 213.911 46.6717C213.792 46.3753 213.674 46.0809 213.469 45.8668C213.254 45.642 212.751 45.564 212.417 45.6295C212.209 45.6703 211.964 46.0862 211.929 46.358C211.724 47.9856 213.395 49.8576 215.214 50.6206Z" fill="black"/>
<path d="M448.783 217.709L450.083 217.083L448.675 216.77C448.078 216.637 447.584 216.515 447.151 216.407L447.127 216.402C446.374 216.215 445.78 216.067 445.171 216.011C435.659 215.135 426.868 212.018 418.708 207.154C417.327 206.331 416.069 205.945 414.814 206.044C413.563 206.143 412.39 206.719 411.167 207.668C404.78 212.628 397.516 215.718 389.531 217.121L389.531 217.121C388.914 217.23 388.299 217.349 387.69 217.468C387.607 217.484 387.524 217.5 387.442 217.516C387.25 217.553 387.059 217.59 386.867 217.627C386.571 217.662 386.06 217.661 385.498 217.658L385.488 217.658C385.068 217.656 384.626 217.654 384.289 217.674C384.124 217.683 383.954 217.7 383.815 217.734C383.75 217.749 383.652 217.778 383.56 217.836C383.471 217.892 383.286 218.044 383.287 218.316L383.29 218.725L383.691 218.804C384.178 218.9 384.885 219.049 385.701 219.221L385.701 219.221L385.719 219.225C387.971 219.699 391.064 220.351 392.472 220.51C405.259 221.958 418.1 222.624 430.97 222.048C436.827 221.784 442.617 220.676 448.783 217.709ZM437.331 223.439L437.412 223.933L437.331 223.439C433.405 224.081 429.4 224.27 425.374 224.461C423.585 224.545 421.792 224.63 420.008 224.755C417.209 224.548 414.416 224.37 411.63 224.191L411.535 224.185L411.516 224.184C404.98 223.766 398.488 223.351 392.04 222.585C384.357 221.673 377.082 219.258 370.525 214.85C358.86 207.01 348.343 197.851 338.552 187.797L338.193 188.146L338.552 187.797C331.666 180.727 325.583 173.021 320.138 164.797C319.284 163.506 318.459 162.195 317.688 160.858C316.669 159.092 316.093 157.625 316.263 156.211C316.429 154.817 317.339 153.341 319.632 151.613L319.331 151.214L319.632 151.613C342.069 134.702 363.436 116.564 383.177 96.4761C405.011 74.259 422.778 49.341 435.705 20.9864L435.25 20.779L435.705 20.9864C436.047 20.2348 436.319 19.7045 436.57 19.3495C436.822 18.9931 437 18.8893 437.129 18.8621C437.262 18.8339 437.478 18.8587 437.873 19.0792C438.264 19.2974 438.75 19.6614 439.397 20.1862L439.712 19.798L439.397 20.1862C445.901 25.4632 452.927 29.9087 460.383 33.7211C483.547 45.5663 507.799 54.2644 533.351 59.3445L533.448 58.8541L533.351 59.3445C539.44 60.5545 545.492 61.9531 551.552 63.3536L551.582 63.3605L551.694 62.8734L551.582 63.3606L552.117 63.4842C553.581 63.8221 555.045 64.1602 556.509 64.4953L556.621 64.0079L556.509 64.4953C557.518 64.726 558.254 64.9219 558.783 65.1406C559.311 65.3592 559.56 65.5716 559.682 65.7899C559.803 66.0071 559.853 66.3262 559.758 66.8836C559.663 67.4421 559.438 68.1628 559.096 69.132C554.122 83.2056 547.595 96.5695 540.306 109.595C519.964 145.944 494.098 178.09 465.174 207.921L465.174 207.921C464.827 208.28 464.465 208.629 464.097 208.984L464.444 209.344L464.097 208.984L464.087 208.994C463.43 209.627 462.75 210.282 462.148 211.009L462.533 211.328L462.148 211.009C455.732 218.756 446.879 221.88 437.331 223.439Z" fill="white" stroke="black"/>
<path fill-rule="evenodd" clip-rule="evenodd" d="M447.031 216.893C447.464 217 447.963 217.124 448.567 217.258C442.473 220.191 436.751 221.287 430.947 221.548C418.11 222.123 405.295 221.459 392.528 220.013C391.147 219.857 388.073 219.21 385.804 218.732C384.99 218.56 384.279 218.41 383.787 218.313C383.786 218.15 384.636 218.154 385.495 218.158C386.05 218.161 386.61 218.164 386.945 218.121C387.225 218.068 387.506 218.013 387.786 217.959C388.396 217.84 389.006 217.721 389.617 217.614C397.677 216.197 405.019 213.076 411.474 208.063C413.835 206.229 415.8 206.002 418.452 207.583C426.668 212.481 435.53 215.625 445.125 216.509C445.695 216.561 446.257 216.701 447.031 216.893ZM319.617 158.447C319.223 157.715 318.819 156.963 318.389 156.191C320.382 154.625 322.317 153.101 324.214 151.607C328.395 148.314 332.387 145.169 336.397 142.047C356.621 126.296 375.223 108.818 392.806 90.1709C410.525 71.3775 424.498 50.1407 435.861 27.0725C436.29 26.2018 436.727 25.3358 437.173 24.4505C437.38 24.0399 437.59 23.6252 437.802 23.2039C437.951 23.2378 438.099 23.2576 438.239 23.2765C438.518 23.314 438.767 23.3473 438.939 23.4795C453.513 34.6762 470.266 41.7131 487.047 48.7027C501.848 54.8676 517.374 58.5178 532.95 61.9978C535.649 62.6003 538.348 63.2006 541.046 63.8004C545.438 64.777 549.829 65.7536 554.218 66.7407C554.703 66.8503 555.175 67.021 555.744 67.2267C556.041 67.3341 556.364 67.451 556.73 67.5739C556.434 68.3858 556.151 69.1844 555.872 69.9726C555.277 71.6523 554.7 73.2829 554.052 74.8848C544.376 98.8256 531.532 121.033 516.665 142.068C499.629 166.175 480.566 188.599 459.848 209.656C456.158 213.406 452.378 214.238 447.688 213.704C438.309 212.638 429.342 210.274 421.142 205.425C420.532 205.064 419.888 204.759 419.245 204.454C418.714 204.203 418.184 203.952 417.671 203.669C415.626 202.54 413.682 202.767 411.798 204.01C410.499 204.868 409.2 205.731 407.94 206.645C399.644 212.647 390.148 214.833 380.143 215.492C377.967 215.637 376.135 215.056 374.284 213.938C365.457 208.606 357.588 202.041 349.988 195.145C339.366 185.512 329.867 174.889 322.099 162.797C321.215 161.419 320.438 159.974 319.617 158.447ZM411.503 224.684C414.332 224.865 417.167 225.046 420.007 225.257C421.796 225.131 423.596 225.045 425.397 224.96C429.419 224.77 433.453 224.579 437.412 223.933C447.01 222.365 456.005 219.21 462.533 211.328C463.118 210.623 463.78 209.984 464.444 209.344C464.811 208.99 465.179 208.635 465.533 208.269C494.478 178.416 520.373 146.236 540.742 109.839C548.04 96.7982 554.581 83.4075 559.567 69.2987C560.936 65.4246 560.65 64.9294 556.621 64.0079C554.978 63.632 553.336 63.2525 551.694 62.8734C545.625 61.4708 539.556 60.0678 533.448 58.8541C507.945 53.7836 483.737 45.1016 460.611 33.2759C453.182 29.4774 446.186 25.0503 439.712 19.798C437.126 17.6994 436.622 17.7694 435.25 20.779C422.349 49.0754 404.618 73.9459 382.82 96.1256C363.101 116.192 341.753 134.314 319.331 151.214C314.646 154.745 315.202 157.55 317.255 161.108C318.032 162.456 318.862 163.776 319.721 165.073C325.181 173.32 331.284 181.052 338.193 188.146C348.004 198.219 358.547 207.402 370.246 215.265C376.878 219.723 384.231 222.161 391.981 223.082C398.451 223.85 404.963 224.266 411.503 224.684ZM442.69 103.974C443.052 104.013 443.703 102.539 443.703 102.539C451.347 91.6685 458.932 80.7598 464.919 68.6229C459.324 71.4161 453.729 74.209 448.058 77.0405L440.008 81.0584C440.454 84.6985 440.912 88.6982 441.369 92.6761V92.6793L441.369 92.6824C441.817 96.5875 442.262 100.471 442.69 103.974ZM415.018 94.561L415.019 94.5619C422.939 99.5027 430.636 104.306 439.95 106.365L439.362 101.83L439.341 101.663C438.503 95.1986 437.692 88.9481 436.88 82.6775L431.054 84.8569L430.885 84.9202L430.607 85.0244C424.222 87.4126 417.874 89.7868 411.29 92.2492C412.543 93.0165 413.783 93.7906 415.018 94.561ZM466.498 64.1594L453.967 58.8869L453.921 58.8678C448.729 56.6834 443.693 54.5646 438.645 52.4407C437.862 55.598 439.597 75.389 440.009 77.1233C444.055 75.0882 448.26 73.0585 452.571 70.9779C457.116 68.7844 461.779 66.5336 466.498 64.1594ZM434.754 54.3739L420.7 73.4658L409.294 88.9599C419.497 86.3459 428.227 82.7076 437.05 78.7038C436.286 70.6097 435.551 62.8252 434.754 54.3739ZM440.298 110.188C439.162 109.781 438.005 109.413 436.847 109.046C434.296 108.235 431.744 107.424 429.422 106.186C421.8 102.124 414.366 97.7015 406.962 93.249C404.085 91.5188 403.982 90.2846 406 87.5828C407.413 85.6924 408.864 83.8302 410.316 81.9685C412.276 79.4547 414.235 76.9403 416.099 74.3569C421.681 66.6196 427.138 58.7927 432.583 50.9585C434.802 47.767 435.28 47.5136 438.884 49.008C448.54 53.0123 458.187 57.037 467.829 61.0754C471.718 62.7041 472.182 63.8018 469.961 67.4975C464.914 75.8914 459.806 84.2521 454.539 92.5104C452.439 95.8034 450.203 99.0108 447.967 102.219L447.966 102.22C446.589 104.197 445.211 106.174 443.864 108.172C442.991 109.466 442.03 110.311 440.298 110.188ZM391.919 136.72C391.944 136.037 391.969 135.359 391.994 134.684C392.267 127.342 392.523 120.429 392.289 112.972C387.38 118.049 382.358 123.233 377.413 128.338C372.603 133.303 367.865 138.194 363.373 142.842C363.442 142.963 364.529 142.638 365.473 142.356C366.062 142.18 366.595 142.021 366.791 141.997C375.794 140.107 382.731 138.65 391.919 136.72ZM427.861 130.058L416.913 123.705L416.664 123.56C409.734 119.539 402.897 115.572 395.864 111.49V135.793C401.443 134.793 407.049 133.788 412.756 132.766L412.863 132.746C417.772 131.867 422.756 130.973 427.861 130.058ZM391.588 140.118L383.036 141.902L382.939 141.922L381.081 142.31L380.955 142.337C375.109 143.556 369.266 144.775 363.373 146.005C367.839 153.109 384.429 165.348 391.588 166.768V140.118ZM427.861 133.153C427.861 133.153 425.036 133.63 424.624 133.672C419.516 134.599 414.759 135.515 410.024 136.427C405.324 137.333 400.643 138.235 395.659 139.139C394.391 147.147 394.3 162.979 395.559 166.313C400.728 160.933 406.265 155.286 411.786 149.655L411.787 149.654C417.286 144.046 422.77 138.453 427.861 133.153ZM392.717 170.941C392.399 170.833 392.009 170.72 391.573 170.593C390.441 170.263 388.994 169.842 387.657 169.198C377.079 164.101 368.22 156.769 360.373 148.169C360.017 147.778 359.748 147.31 359.479 146.84C359.294 146.518 359.11 146.195 358.896 145.896C357.787 144.347 358.09 143.015 359.428 141.786C359.893 141.358 360.335 140.903 360.775 140.449L360.809 140.415C367.777 133.25 374.743 126.084 381.709 118.918L381.727 118.899L381.745 118.88L381.763 118.861L381.782 118.843L381.8 118.824L381.818 118.805C384.762 115.776 387.707 112.747 390.651 109.719C390.894 109.469 391.126 109.2 391.359 108.932L391.359 108.931C391.905 108.301 392.45 107.67 393.135 107.278C393.88 106.851 394.978 106.918 395.913 106.976L395.943 106.977C396.263 106.997 396.573 107.263 396.877 107.524C396.996 107.626 397.113 107.727 397.231 107.812C407.543 115.354 418.732 121.416 430.162 127.081C435.047 129.503 435.148 129.993 431.387 133.896C420.224 145.476 409.024 157.023 397.824 168.569L397.817 168.576C397.726 168.67 397.636 168.764 397.545 168.86C396.478 169.981 395.357 171.16 392.717 170.941ZM486.9 118.703C491.688 120.766 496.486 122.834 501.419 124.96C500.925 126.155 500.472 127.25 500.03 128.319C499.521 129.55 499.026 130.746 498.499 132.019C491.297 129.4 484.533 126.145 477.62 122.819L477.618 122.818C475.501 121.8 473.37 120.774 471.209 119.759L472.239 117.94C473.074 116.467 473.885 115.035 474.769 113.476C478.855 115.237 482.874 116.969 486.9 118.703ZM467.636 119.502C467.146 120.359 467.341 121.474 468.146 122.05C468.212 122.098 468.276 122.135 468.341 122.167C469.447 122.68 470.552 123.195 471.657 123.71C476.182 125.817 480.708 127.925 485.265 129.962C487.763 131.079 490.288 132.134 492.813 133.189L492.814 133.19C494.468 133.881 496.123 134.572 497.77 135.282C499.512 136.031 500.687 135.833 501.366 133.824C501.798 132.546 502.317 131.298 502.837 130.049L502.837 130.048L502.838 130.047L502.838 130.046C503.26 129.034 503.681 128.021 504.057 126.992C505.145 124.004 504.778 123.106 502.006 121.778C500.282 120.954 498.522 120.198 496.765 119.443L496.329 119.256C494.118 118.306 491.905 117.36 489.692 116.416L489.685 116.413C485.353 114.564 481.022 112.714 476.707 110.825C474.994 110.075 473.403 109.686 472.275 111.525C470.97 113.654 469.733 115.825 468.475 118.031L468.468 118.044C468.192 118.528 467.915 119.014 467.636 119.502ZM447.463 193.455L439.295 188.632C434.369 185.723 429.509 182.853 424.525 179.909C423.175 181.898 421.989 183.647 420.598 185.697C426.246 189.069 431.682 192.314 437.075 195.533L442.846 198.978C443.08 198.753 443.294 198.56 443.489 198.382C443.869 198.038 444.18 197.756 444.44 197.431C445.109 196.594 445.752 195.736 446.467 194.78C446.782 194.359 447.111 193.92 447.463 193.455ZM450.663 194.263C449.438 196.286 448.07 198.165 446.698 199.738C444.896 201.802 441.911 202.281 439.575 200.873L438.297 200.102L436.761 199.176L436.551 199.049L436.55 199.048L436.538 199.041C430.54 195.424 424.518 191.793 418.487 188.177C416.95 187.257 416.644 186.015 417.547 184.571C418.922 182.372 420.39 180.229 421.896 178.119C422.98 176.602 424.561 176.649 426.081 177.199C426.924 177.504 427.713 177.974 428.496 178.442C428.712 178.57 428.927 178.699 429.143 178.824C436.059 182.821 442.976 186.821 449.873 190.853C449.877 190.855 449.88 190.857 449.883 190.858L449.887 190.86L449.893 190.864C451.041 191.546 451.36 193.112 450.663 194.263ZM474.297 164.266C474.911 164.542 475.655 164.484 476.156 164.033C476.258 163.943 476.339 163.845 476.391 163.733C476.574 163.339 476.571 162.625 476.324 162.318C475.855 161.733 475.199 161.259 474.541 160.877C462.823 154.073 451.094 147.286 439.36 140.509C439.271 140.458 439.181 140.405 439.09 140.351C438.501 140.003 437.875 139.633 437.256 139.605C436.628 139.578 435.82 139.988 435.403 140.475C435.195 140.717 435.571 141.64 435.891 142.113C436.09 142.405 436.453 142.591 436.81 142.773C436.932 142.834 437.053 142.896 437.166 142.962C449.01 149.807 460.853 156.652 472.705 163.482C473.208 163.772 473.738 164.014 474.297 164.266ZM519.315 89.2916C518.63 89.09 518.004 88.9076 517.418 88.7365L517.416 88.7355C516.289 88.4065 515.306 88.1194 514.327 87.8231C502.421 84.2121 490.517 80.5987 478.613 76.9827C478.472 76.9399 478.321 76.9062 478.17 76.8725C477.791 76.7879 477.41 76.7023 477.168 76.4725C477.056 76.3656 476.953 76.2491 476.856 76.1262C476.209 75.2939 476.528 73.9832 477.535 73.6711C477.612 73.6465 477.69 73.631 477.769 73.6233C478.616 73.5455 479.524 73.8212 480.371 74.0788L480.432 74.097C493.206 77.9738 505.972 81.8711 518.739 85.7693C518.818 85.7939 518.903 85.8158 518.989 85.8385C519.301 85.9209 519.63 86.0073 519.801 86.2135C519.831 86.2499 519.86 86.2863 519.889 86.3236C520.635 87.2679 520.357 88.6632 519.327 89.2844L519.315 89.2916ZM499.955 97.0576C500.837 96.6503 500.938 95.4785 500.266 94.7886C500.159 94.6789 500.047 94.5856 499.921 94.5141C499.193 94.0964 498.385 93.8015 497.582 93.5084C497.407 93.4452 497.233 93.3815 497.06 93.3168C495.513 92.7393 493.966 92.16 492.419 91.5812L492.416 91.5803C486.553 89.3854 480.689 87.191 474.799 85.0644C474.536 84.9693 474.248 84.8269 473.949 84.679C472.796 84.1092 471.482 83.4598 470.806 85.1391C470.124 86.8319 471.652 87.3207 472.957 87.7376C473.199 87.8149 473.434 87.89 473.645 87.9697C481.291 90.8567 488.96 93.685 496.636 96.4947C497.591 96.8437 498.628 97.0985 499.635 97.1322C499.74 97.1354 499.846 97.1081 499.955 97.0576ZM449.503 161.377C451.265 162.268 450.106 165.045 448.274 164.311C448.126 164.252 447.982 164.185 447.842 164.109C441.816 160.831 435.834 157.465 429.871 154.07C429.718 153.983 429.553 153.897 429.382 153.807C428.257 153.218 426.921 152.518 427.767 150.965C428.606 149.424 429.731 150.171 430.738 150.84C430.963 150.989 431.182 151.135 431.391 151.25C437.285 154.505 443.164 157.785 449.014 161.119C449.17 161.208 449.335 161.292 449.503 161.377Z" fill="black"/>
<path fill-rule="evenodd" clip-rule="evenodd" d="M305.23 107.979C304.228 94.3438 309.284 83.8913 320.261 76.912C325.32 73.6946 331.338 71.4152 338.661 69.9425C341.011 69.4701 343.369 69.109 345.672 68.8694C348.509 68.5747 351.349 68.4558 354.111 68.515C356.868 68.5747 359.627 68.8133 362.314 69.2247C364.991 69.6352 367.671 70.2287 370.278 70.9891C372.875 71.7472 375.473 72.692 378.002 73.7978C380.521 74.8995 383.039 76.1915 385.488 77.6378C386.707 78.3587 387.936 79.1335 389.141 79.9409C389.741 80.3438 390.348 80.7632 390.945 81.1876C391.234 81.3926 391.517 81.6026 391.798 81.8174C391.906 81.9 392.023 81.9713 392.139 82.044C392.338 82.1673 392.563 82.3073 392.768 82.4957C392.857 82.5774 392.94 82.664 393.023 82.7505C393.094 82.825 393.165 82.8999 393.242 82.9686C393.259 82.9834 393.279 82.9982 393.299 83.0139C393.424 83.1099 393.614 83.2552 393.718 83.497C393.973 84.0954 393.825 84.7791 393.342 85.2385C392.88 85.6786 392.22 85.7871 391.654 85.5112C391.652 85.5099 391.459 85.4022 391.311 85.3192L391.178 85.2443C390.566 84.933 390.034 84.5126 389.519 84.1067C389.272 83.9129 389.026 83.7186 388.773 83.5387C378.304 76.1013 366.905 72.1379 354.894 71.7593C342.31 71.3619 331.772 73.7978 322.677 79.2052C313.768 84.5028 308.956 92.3174 308.376 102.43C307.899 110.745 309.987 118.905 314.583 126.681C320.059 135.948 327.548 143.652 337.476 150.237C346.882 156.474 357.579 161.395 370.179 165.278C393.105 172.343 417.116 176.757 443.587 178.771C465.109 180.41 486.464 179.806 504.512 179.001C505.675 178.949 506.832 178.896 507.99 178.843C517.01 178.428 526.339 177.998 535.543 178.377C550.593 178.998 563.553 182.406 575.153 188.798C579.721 191.313 583.4 194.029 586.402 197.1C587.659 198.386 588.696 199.889 589.701 201.343C589.916 201.652 590.132 201.962 590.347 202.269C590.89 203.041 591.092 203.697 590.962 204.274C590.899 204.566 590.71 204.976 590.19 205.275C590.087 205.335 589.983 205.382 589.88 205.42C589.593 205.524 589.315 205.54 589.046 205.465C588.435 205.295 588.112 204.717 587.852 204.251C587.789 204.136 587.726 204.021 587.659 203.918C585.698 200.875 584.509 199.582 583.14 198.401L582.476 197.888C579.671 195.723 576.768 193.484 573.69 191.704C566.797 187.718 559.187 184.958 550.423 183.265C543.01 181.833 535.13 181.24 526.339 181.452C519.469 181.618 512.486 181.891 505.728 182.156C501.322 182.329 496.763 182.507 492.275 182.653C459.54 183.725 432.624 182.066 407.566 177.434C391.602 174.483 374.566 170.86 358.144 164.39C344.794 159.131 334.656 153.159 326.237 145.594C317.333 137.593 311.38 129.291 308.038 120.213C306.478 116.211 305.533 112.095 305.23 107.979Z" fill="#A1483A"/>
<path fill-rule="evenodd" clip-rule="evenodd" d="M544.76 123.166C541.659 124.295 538.334 125.075 534.793 125.5C533.963 125.6 533.187 125.591 532.487 125.473C531.872 125.37 531.311 124.623 531.284 124.084C531.253 123.514 531.746 122.886 532.218 122.632C532.577 122.44 532.958 122.434 533.299 122.429C533.407 122.428 533.514 122.427 533.618 122.418C540.941 121.719 547.363 119.293 552.694 115.207C562.579 107.631 568.696 96.9661 570.876 83.5089C572.218 75.2483 570.675 67.199 566.299 59.5849C562.306 52.637 556.8 46.7908 549.458 41.7126C540.447 35.4774 530.014 31.3283 517.557 29.027C506.77 27.0347 494.878 26.5417 480.137 27.4753C475.789 27.7507 471.364 28.0616 467.088 28.3626C459.585 28.8902 451.826 29.4357 444.184 29.8089C428.48 30.5756 413.459 28.8009 399.537 24.5333C400.27 25.2713 401.034 26.0227 401.784 26.7611C403.349 28.3003 404.828 29.7542 405.973 31.021C406.06 31.1175 406.143 31.218 406.223 31.322C406.819 32.1031 406.541 32.9913 405.959 33.4655C405.276 34.0226 404.329 33.9468 403.756 33.2901C403.699 33.2232 403.641 33.1595 403.581 33.1008C400.093 29.6541 396.579 26.1191 393.181 22.7008L392.626 22.1427C392.574 22.0907 392.527 22.0333 392.484 21.9696C392.083 21.3801 392.154 20.5484 392.656 19.9912C393.268 19.3103 394.101 18.9025 395.276 18.7028C397.745 18.2865 400.212 17.855 402.679 17.4234C404.521 17.1013 406.364 16.7792 408.207 16.463C408.804 16.3607 409.547 16.2328 410.271 16.3118C410.845 16.3746 411.508 16.9829 411.61 17.5405C411.719 18.1318 411.23 18.8935 410.754 19.1299C410.272 19.3686 409.759 19.4493 409.262 19.5278L408.973 19.5745C406.155 20.0576 403.336 20.5349 400.517 21.0127L399.236 21.2303C399.515 21.3303 399.796 21.4281 400.074 21.5174C410.112 24.7321 421.204 26.4444 433.984 26.7521C443.067 26.971 452.275 26.2699 461.182 25.592C463.372 25.4252 465.558 25.2587 467.747 25.1049L469.897 24.9532C480.676 24.1893 491.827 23.3993 502.857 24.0735C516.687 24.9196 528.358 27.5152 538.536 32.0093C550.311 37.209 559.209 44.0381 565.738 52.8873C572.115 61.5323 574.973 70.1531 574.471 79.2418C573.686 93.467 568.027 105.598 557.652 115.296C553.941 118.765 549.629 121.395 544.76 123.166Z" fill="#A1483A"/>
</svg>
