<svg width="531" height="406" viewBox="0 0 531 406" fill="none" xmlns="http://www.w3.org/2000/svg">
<path opacity="0.5" d="M273.747 404.44C398.506 404.44 499.643 399.87 499.643 394.232C499.643 388.594 398.506 384.023 273.747 384.023C148.988 384.023 47.8513 388.594 47.8513 394.232C47.8513 399.87 148.988 404.44 273.747 404.44Z" fill="#C9C9C9"/>
<g opacity="0.5">
<path fill-rule="evenodd" clip-rule="evenodd" d="M365.646 111.918C380.807 111.918 395.974 111.645 411.127 111.993C426.591 112.349 442.026 113.522 457.366 115.635C471.38 117.565 485.22 120.273 498.574 125.088C506.259 127.86 513.648 131.258 519.969 136.525C522.497 138.628 524.882 141.024 526.85 143.649C531.173 149.421 531.177 155.674 527.272 161.752C525.33 164.779 522.793 167.257 519.991 169.472C514.074 174.149 507.497 177.748 500.759 181.065C487.514 187.591 473.769 192.952 460.098 198.486C450.667 202.303 441.201 206.033 431.813 209.953C428.695 211.255 425.731 212.955 422.777 214.615C421.346 215.418 419.981 216.425 418.794 217.557C416.334 219.903 415.848 222.531 417.462 225.503C418.468 227.355 419.75 229.115 421.182 230.663C423.323 232.977 425.667 235.108 427.993 237.242C432.413 241.301 436.952 245.23 441.314 249.352C448.234 255.891 454.381 263.079 459.003 271.461C462.587 277.952 465.194 284.765 465.598 292.266C466.037 300.398 463.643 307.519 457.982 313.461C454.451 317.167 450.237 319.926 445.697 322.214C437.695 326.249 429.182 328.881 420.559 331.176C406.276 334.977 391.74 337.433 377.098 339.351C365.744 340.839 354.356 342.047 342.92 342.393C333.38 342.683 323.819 342.428 314.271 342.212C308.437 342.082 302.597 341.722 296.784 341.198C286.098 340.235 275.42 339.163 264.757 337.971C254.167 336.788 243.656 335.061 233.269 332.643C224.03 330.494 214.937 327.907 206.435 323.579C201.555 321.095 196.936 318.207 193.182 314.163C191.689 312.554 190.338 310.77 189.175 308.908C186.875 305.227 186.489 301.188 187.673 297.055C188.257 295.017 189.142 293.064 189.9 291.076C190.378 289.824 190.967 288.605 191.34 287.323C191.992 285.082 191.511 283.75 189.358 282.923C187.4 282.17 185.271 281.539 183.198 281.473C178.078 281.309 172.937 281.312 167.824 281.595C161.05 281.969 154.299 282.726 147.532 283.225C137.852 283.939 128.174 284.741 118.48 285.183C110.126 285.564 101.744 285.76 93.3862 285.562C80.2452 285.252 67.2561 283.708 54.8141 279.076C48.714 276.805 42.8894 273.974 37.8385 269.84C35.4175 267.858 33.112 265.603 31.2441 263.105C27.2766 257.801 26.5702 251.873 28.8348 245.606C30.4169 241.227 33.0252 237.487 35.977 233.96C41.4819 227.381 48.0107 221.888 54.6533 216.531C62.0901 210.534 69.6828 204.727 77.0383 198.632C81.1036 195.264 84.9025 191.559 88.6572 187.84C90.2054 186.307 91.5204 184.449 92.5969 182.544C95.431 177.529 94.3124 173.661 89.3501 170.773C85.5402 168.556 81.3242 167.492 77.0318 166.785C69.8709 165.606 62.67 164.66 55.5217 163.412C48.6575 162.214 42.0384 160.126 35.7572 157.066C17.0978 147.974 5.76693 133.154 1.5531 112.909C-0.641562 102.364 0.800696 92.0784 3.97193 81.8644C8.40296 67.5943 16.6703 56.1874 28.0902 46.6512C39.6908 36.9641 52.9126 30.5729 66.9777 25.5446C77.6574 21.7269 88.6103 19.2021 99.8664 17.9219C110.371 16.7277 120.861 15.381 131.382 14.3532C139.233 13.586 147.123 13.225 154.996 12.6746C166.423 11.8753 177.866 11.6459 189.317 11.7549C215.479 12.0047 241.266 15.0691 266.493 22.2096C274.247 24.4042 281.868 27.0142 288.992 30.8219C292.32 32.6004 295.536 34.6552 298.553 36.9181C300.673 38.508 302.577 40.4985 304.212 42.595C307.977 47.424 308.744 52.8837 306.902 58.7109C305.698 62.5225 303.785 65.9891 301.289 69.0652C297.908 73.2313 294.332 77.2392 290.813 81.291C288.223 84.2706 285.478 87.1221 283.018 90.2039C281.456 92.1596 280.049 94.3199 279 96.5867C276.974 100.963 278.18 104.389 282.335 106.845C285.575 108.759 289.179 109.664 292.832 110.354C300.851 111.867 308.971 112.35 317.105 112.357C329.971 112.368 342.838 112.183 355.704 112.093C359.018 112.069 362.332 112.089 365.646 112.089V111.918Z" fill="#F1ECE8"/>
</g>
<path fill-rule="evenodd" clip-rule="evenodd" d="M323.714 340.329C329.123 338.033 334.716 335.969 340.03 333.337C350.368 328.218 359.599 321.535 367.072 312.617C370.286 308.781 372.882 304.564 374.517 299.804C375.955 295.62 376.454 291.409 375.132 287.032C373.142 280.44 368.355 277.977 362.543 277.965C356.976 277.954 352.073 280.021 348.16 283.892C345.1 286.919 342.342 290.286 339.709 293.702C337.455 296.626 335.575 299.839 333.518 302.916C326.457 313.474 318.109 322.877 308.5 331.177C305.37 333.881 301.886 336.139 298.225 338.052C296.318 339.049 294.363 339.952 292.383 340.798C291.465 341.19 290.36 341.467 289.306 341.823C287.986 342.27 288.074 344.197 289.432 344.513C290.75 344.82 292.161 344.948 293.346 345.296C296.219 346.139 299.026 347.164 301.762 348.385C307.204 350.815 312.321 353.918 317.246 357.266C323.749 361.685 330.024 366.443 336.514 370.882C344.551 376.379 353.243 380.575 362.554 383.438C366.367 384.61 370.253 385.429 374.258 385.402C379.401 385.368 384 383.889 387.758 380.195C393.083 374.962 393.549 368.053 388.961 362.11C386.758 359.257 384.006 357.115 380.782 355.559C374.869 352.706 368.615 350.934 362.153 350.012C355.098 349.007 347.993 348.352 340.94 347.34C337.695 346.874 334.467 346.308 331.243 345.723C329.659 345.436 328.059 345.249 326.476 344.954C325.01 344.681 323.595 343.999 322.153 343.757C327.074 343.486 331.999 344.177 336.897 344.563C342.153 344.977 347.41 345.393 352.668 345.787C356.086 346.043 359.504 346.289 362.923 346.519C378.975 347.599 394.975 347.213 410.861 344.436C421.006 342.662 431.004 340.32 440.453 336.146C447.426 333.065 453.795 329.009 458.777 323.074C462.322 318.85 464.855 314.139 465.719 308.604C467.24 298.875 461.701 290.288 452.231 287.691C446.668 286.167 441.21 286.487 435.712 288.122C428.985 290.124 423.484 294.162 418.044 298.332C410.687 303.971 403.457 309.779 396.017 315.304C385.515 323.102 373.944 328.974 361.578 333.153C349.674 337.177 337.348 339.337 324.83 340.406C324.401 340.442 323.959 340.348 323.714 340.329Z" fill="#24635C"/>
<path fill-rule="evenodd" clip-rule="evenodd" d="M163.429 261.49C162.794 261.35 161.629 260.723 161.42 260.592C160.09 259.754 158.756 258.917 157.526 257.935C147.807 250.175 139.809 240.801 132.485 230.805C120.371 214.271 112.479 195.923 109.045 175.689C106.943 163.305 107.28 151.06 111.795 139.172C113.993 133.386 117.395 128.501 122.929 125.42C126.02 123.697 129.262 122.876 132.862 123.691C137.74 124.795 140.844 127.793 142.498 132.376C144.309 137.392 143.395 142.323 141.71 147.171C140.808 149.764 139.807 152.323 138.689 155.333C140.103 155.333 141.141 155.336 142.18 155.333C151.983 155.304 158.878 165.643 154.637 174.552C153.661 176.602 152.547 178.585 151.506 180.604C150.831 181.913 150.172 183.23 149.368 184.817C150.495 185.111 151.406 185.363 152.325 185.587C157.462 186.84 160.432 190.547 160.209 195.884C160.116 198.12 159.793 200.482 158.952 202.528C154.612 213.083 154.392 223.866 156.735 234.844C158.053 241.019 159.323 247.209 160.855 253.332C161.54 256.066 162.773 258.636 163.811 261.248C163.915 261.513 163.733 261.557 163.429 261.49Z" fill="#24635C"/>
<path fill-rule="evenodd" clip-rule="evenodd" d="M253.33 267.98C253.28 267.129 255.83 265.518 256.261 265.109C257.389 264.037 258.48 262.927 259.52 261.771C261.615 259.443 263.5 256.927 265.105 254.239C270.834 244.635 275.117 234.486 277.53 223.55C278.181 220.601 279.155 217.701 280.239 214.876C280.853 213.279 281.798 211.713 282.932 210.427C286.549 206.325 292.245 206.843 295.118 211.484C297.605 215.498 297.625 219.836 296.452 224.248C295.168 229.076 292.861 233.436 290.035 237.519C283.52 246.934 275.343 254.742 266.261 261.663C264.248 263.197 262.276 264.802 260.073 266.074C258.907 266.747 257.787 267.501 256.532 268.007C255.872 268.274 254.203 268.704 253.549 268.309C253.406 268.221 253.338 268.109 253.33 267.98Z" fill="white"/>
<path fill-rule="evenodd" clip-rule="evenodd" d="M216.197 353.037C215.294 352.395 211.765 354.091 211.017 354.283C209.061 354.786 207.087 355.221 205.098 355.568C201.091 356.269 197.022 356.61 192.955 356.522C178.429 356.208 164.297 353.928 150.582 349.049C146.883 347.733 143.016 346.806 139.157 346.053C136.974 345.627 134.598 345.588 132.401 345.95C125.392 347.102 122.049 353.725 125.19 360.082C127.907 365.582 132.675 368.593 138.345 370.341C144.55 372.256 150.943 372.721 157.387 372.426C172.245 371.746 186.473 368.131 200.346 362.909C203.421 361.751 206.545 360.687 209.461 359.141C211.005 358.323 212.606 357.61 214.026 356.578C214.774 356.035 216.395 354.497 216.409 353.504C216.411 353.286 216.334 353.135 216.197 353.037Z" fill="#231F20"/>
<path fill-rule="evenodd" clip-rule="evenodd" d="M352.13 269.746C352.389 268.587 356.406 267.405 357.138 267.021C359.052 266.018 360.931 264.949 362.761 263.798C366.447 261.481 369.925 258.834 373.095 255.847C384.416 245.177 394.019 233.225 401.433 219.506C403.432 215.805 405.843 212.294 408.372 208.927C409.803 207.023 411.664 205.286 413.669 203.999C420.064 199.888 427.453 202.758 429.501 210.07C431.272 216.394 429.634 222.209 426.377 227.669C422.814 233.642 418.064 238.599 412.732 242.986C400.435 253.103 386.544 260.433 371.784 266.229C368.513 267.514 365.27 268.908 361.846 269.77C360.035 270.227 358.253 270.808 356.387 271.006C355.404 271.111 353.016 271.049 352.296 270.27C352.138 270.098 352.091 269.922 352.13 269.746Z" fill="#231F20"/>
<path fill-rule="evenodd" clip-rule="evenodd" d="M398.424 96.7245C398.204 104.417 395.365 112.408 388.807 118.868C386.744 120.901 384.409 122.527 381.486 123.17C378.378 123.852 375.898 122.835 374.668 119.958C374.025 118.451 373.638 116.742 373.573 115.107C373.478 112.753 373.708 110.376 373.935 108.022C374.249 104.754 373.305 101.988 370.956 99.6893C369.965 98.7204 368.983 97.7434 368.017 96.7516C367.05 95.7605 366.056 94.7894 365.164 93.7341C357.836 85.0596 357.958 76.3656 365.558 66.9299C368.666 63.0711 373.141 61.8343 378.178 62.9478C382.546 63.9134 385.938 66.3017 388.814 69.5676C394.882 76.458 398.466 86.0943 398.424 96.7245Z" fill="#C97600"/>
<path fill-rule="evenodd" clip-rule="evenodd" d="M47.5116 306.791C44.1888 302.139 42.1196 296.265 42.7032 289.817C42.8869 287.788 43.3962 285.892 44.6562 284.345C45.997 282.699 47.7645 282.314 49.702 283.53C50.7159 284.167 51.6849 285.027 52.4506 285.971C53.553 287.33 54.4936 288.831 55.4263 290.319C56.7207 292.382 58.457 293.646 60.729 294.073C61.686 294.253 62.6434 294.44 63.5979 294.644C64.5527 294.846 65.5132 295.026 66.4572 295.296C74.215 297.518 78.0374 302.725 78.232 311.355C78.3111 314.884 76.4952 317.403 73.3309 318.752C70.5863 319.922 67.7231 319.859 64.7404 319.068C58.447 317.401 52.2414 313.114 47.5116 306.791Z" fill="#24635C"/>
<path fill-rule="evenodd" clip-rule="evenodd" d="M480.138 332.11C479.399 332.712 478.335 331.967 478.626 331.056C480.281 325.838 481.949 320.867 483.257 315.802C486.111 304.754 484.964 293.847 481.606 283.049C479.907 277.585 478.326 272.062 477.14 266.468C476.519 263.531 476.497 260.34 476.849 257.34C477.67 250.301 483.074 248.134 488.696 252.42C492.332 255.188 494.638 258.966 496.28 263.177C499.326 270.979 500.086 279.083 499.417 287.386C498.505 298.694 495.164 309.292 490.138 319.365C487.692 324.266 484.43 328.604 480.159 332.092L480.138 332.11Z" fill="white"/>
<path fill-rule="evenodd" clip-rule="evenodd" d="M110.35 220.222C110.03 220.306 109.658 220.172 109.212 220.035C108.414 219.791 107.613 219.547 106.834 219.243C95.2685 214.742 85.9847 207.336 78.8763 197.124C75.5222 192.306 72.745 187.189 70.4591 181.785C69.4321 179.358 68.9217 176.853 69.2241 174.24C69.3466 173.18 69.6185 172.063 70.1237 171.138C71.7406 168.18 75.2433 167.648 77.5718 170.126C78.686 171.312 79.4393 172.903 80.1344 174.413C82.4529 179.449 84.5567 184.588 86.9512 189.586C90.1003 196.161 94.1147 202.296 98.7803 207.882C100.605 210.067 102.528 212.169 104.531 214.19C105.539 215.207 106.568 216.204 107.615 217.181C108.23 217.754 108.867 218.308 109.552 218.797C109.97 219.096 111.666 219.873 110.35 220.222Z" fill="#A1483A"/>
<mask id="mask0_967_26121" style="mask-type:alpha" maskUnits="userSpaceOnUse" x="63" y="94" width="23" height="26">
<path fill-rule="evenodd" clip-rule="evenodd" d="M63.0557 105.337C63.2386 101.276 65.4549 97.584 69.5615 95.147C70.6679 94.4901 72.2136 94.176 73.506 94.2916C81.1977 94.9785 89.2435 104.875 83.9332 114.19C80.1208 120.876 72.6297 121.842 67.329 116.275C64.6934 113.507 63.0948 109.698 63.0557 105.337Z" fill="white"/>
</mask>
<g mask="url(#mask0_967_26121)">
<path fill-rule="evenodd" clip-rule="evenodd" d="M12.8191 97.4532C11.6171 98.3299 11.7474 100.055 13.33 100.878C13.4903 100.873 13.6777 100.856 13.8834 100.838C14.4092 100.791 15.055 100.733 15.6754 100.833C17.4652 101.123 18.5291 100.365 19.4231 98.8912C19.8979 98.1083 19.8645 97.5375 19.4192 96.8842C18.94 96.1808 17.8683 95.7112 17.3583 96.2099C16.6494 96.9039 15.8875 96.894 15.1057 96.8838C14.8681 96.8807 14.6286 96.8776 14.3882 96.8942C13.85 96.9315 13.2531 97.1366 12.8191 97.4532ZM44.7576 98.5826C44.672 98.5649 44.5808 98.5546 44.4896 98.5444C44.2873 98.5217 44.0855 98.4991 43.9466 98.3937L43.9206 98.374C43.5559 98.0974 43.1113 97.7603 43.0247 97.3767C42.9657 97.1147 43.4253 96.6147 43.7659 96.414C44.1764 96.1725 44.7007 96.0848 45.1877 96.0213C45.8563 95.9344 46.4319 96.1356 46.6252 96.871C46.785 97.4792 46.3367 98.1143 45.5791 98.385C45.3993 98.4491 45.2105 98.4876 45.0198 98.5266C44.9326 98.5444 44.8449 98.5622 44.7576 98.5826ZM58.1663 99.7539C57.0282 99.7874 56.0191 99.4625 55.2619 98.581C54.7106 97.939 54.8805 97.2999 55.751 97.0137C56.6607 96.7148 57.6111 96.4941 58.5603 96.3768C59.642 96.2426 60.6373 97.1357 60.682 98.1366C60.7224 99.0324 60.0374 99.641 58.8497 99.7509C58.695 99.7655 58.5386 99.7616 58.3822 99.7576C58.3101 99.7558 58.2384 99.7539 58.1663 99.7539ZM58.3618 109.284C58.3692 109.65 58.3431 109.983 58.2871 110.28C58.4105 110.453 58.5126 110.625 58.5964 110.766C58.6516 110.858 58.6985 110.938 58.7385 110.995C58.7767 112.317 57.5364 114.034 56.6687 114.254C55.8976 114.45 55.0736 113.884 55.2356 113.052C55.3044 112.697 55.3975 112.344 55.5096 111.994C54.673 111.673 54.2213 110.811 54.4826 109.772C54.5341 109.569 54.6182 109.374 54.7025 109.179L54.7026 109.179L54.7027 109.178L54.7029 109.178C54.7537 109.06 54.8047 108.943 54.8484 108.823C54.8575 108.798 54.8667 108.773 54.8759 108.748C55.0423 108.296 55.2044 107.856 54.7845 107.403C54.6056 107.21 54.5156 106.904 54.4553 106.634C54.222 105.591 54.7176 104.694 55.6138 104.49C56.1851 104.36 56.6669 104.644 56.9817 105.227C57.9048 105.244 58.6272 105.852 58.632 106.639C58.6351 107.126 58.3475 107.657 57.9409 108.055C58.0834 108.472 58.2172 108.861 58.3058 109.12L58.3062 109.122L58.3618 109.284ZM52.9886 126.811C52.8949 126.789 52.7935 126.769 52.688 126.748C52.4398 126.7 52.1683 126.648 51.9169 126.545C50.8843 126.125 50.6463 124.866 51.6293 124.489C52.3363 124.219 52.9563 123.795 53.575 123.372C53.9735 123.101 54.3715 122.829 54.7918 122.598C54.2663 122.308 53.9006 121.746 53.9058 121.017C53.9106 120.362 54.093 119.671 54.3528 119.064C54.4501 118.837 54.5743 118.645 54.7176 118.488C54.5906 118.252 54.5276 117.967 54.5469 117.657C54.6051 116.72 55.497 115.902 56.3658 115.989C57.0151 116.053 57.4626 116.794 57.4031 117.708C57.3822 118.033 57.2567 118.334 57.0625 118.577C57.1003 118.619 57.1372 118.663 57.1728 118.708C57.4365 119.044 57.5925 119.464 57.7171 119.799L57.7176 119.8C57.7654 119.929 57.8088 120.045 57.8514 120.14C57.8014 120.948 57.642 121.564 57.2745 122.022C58.0304 122.165 58.4079 122.741 58.2458 123.727C58.0247 125.07 57.2606 126.031 55.9196 126.366C55.2852 126.525 54.6307 126.604 53.9488 126.687C53.6348 126.725 53.315 126.764 52.9886 126.811ZM52.6176 132.668H52.5973C52.155 132.667 51.7129 132.665 51.3134 132.535C50.9086 132.402 50.4526 132.17 50.1383 131.867C50.0881 132.736 49.378 133.405 48.5353 133.347C47.6447 133.285 46.8927 132.308 46.9145 131.24C46.931 130.421 47.6447 129.693 48.4271 129.697C48.9452 129.7 49.4801 130.108 49.8115 130.658C49.9395 130.328 50.2184 130.028 50.5324 129.784C51.7031 128.87 53.0472 128.476 54.5159 128.599C55.6572 128.695 56.3796 129.549 56.3622 130.654C56.3461 131.665 55.8869 132.334 55.0416 132.593C55.1044 132.738 55.1509 132.896 55.1813 133.061C55.217 133.253 55.2292 133.449 55.2416 133.646C55.2471 133.735 55.2527 133.823 55.2604 133.911C55.3234 134.866 54.9898 135.674 54.0714 135.96C53.6144 136.102 52.9424 135.945 52.511 135.686C51.8763 135.304 51.6817 134.613 51.9845 133.881C52.0162 133.804 52.047 133.726 52.0781 133.646C52.2173 133.291 52.3608 132.926 52.6105 132.675L52.6176 132.668ZM32.521 115.405C32.6197 116.806 33.9474 118.074 35.3488 118.273C35.6106 119.652 36.5051 120.758 37.6185 121.14C38.3579 121.394 38.9787 121.197 39.5156 120.73C39.6996 120.57 39.8254 120.398 39.9033 120.215C40.4811 119.835 40.9425 119.238 40.9591 118.695C40.983 117.902 40.416 117.359 39.5463 117.341C39.5374 117.341 39.5286 117.341 39.5197 117.341H39.4998C39.4754 117.194 39.4501 117.047 39.4213 116.901C39.1835 115.697 38.246 114.98 37.252 115.112C36.9545 114.626 36.532 114.191 36.0528 113.931C35.1761 113.456 33.4224 113.635 32.8694 114.33C32.647 114.61 32.4967 115.052 32.521 115.405ZM37.3098 122.345C37.709 122.635 38.1116 122.928 38.4737 123.258C38.8442 123.506 39.1488 123.87 39.3303 124.282C39.492 124.558 39.6202 124.861 39.7033 125.204C39.94 126.178 39.9661 127.131 39.0807 127.849C38.483 128.334 37.7992 128.386 37.1832 127.975C36.5975 127.583 36.2862 127.072 36.2227 126.477C35.5413 125.956 34.977 125.114 35.0114 124.463C35.0137 124.419 35.0195 124.374 35.0286 124.329C34.3865 123.846 34.1613 123.15 34.4729 122.538C34.7865 121.924 36.0967 121.428 36.7306 121.916C36.9193 122.061 37.1143 122.203 37.3098 122.345ZM66.7117 111.445C67.0758 111.249 67.3703 111.009 67.5584 110.685C68.0927 110.808 68.6318 110.911 69.1731 110.978C70.1349 111.098 70.7961 110.4 70.7561 109.434C70.7148 108.437 69.7092 107.391 68.6944 107.621C68.1309 107.748 67.5788 107.994 67.0545 108.294C66.5019 107.803 65.7113 107.449 64.9732 107.429C63.9766 107.401 62.4927 108.353 62.3133 109.223C62.2411 109.573 62.3067 110.035 62.4888 110.34C63.285 111.671 65.3455 112.179 66.7117 111.445ZM64.6556 123.702C64.7147 123.601 64.766 123.512 64.8111 123.452C64.8277 121.763 63.3976 120.309 61.7207 119.934C60.5248 119.666 59.6008 120.337 59.7702 121.481C59.901 122.363 60.2207 123.201 60.7971 123.876C60.7576 124.002 60.7329 124.132 60.7246 124.264C60.6725 125.097 61.2111 125.74 61.9905 125.777C62.6365 125.808 63.2346 125.381 63.474 124.784C63.623 124.734 63.769 124.667 63.9115 124.585C64.2568 124.388 64.4884 123.99 64.6552 123.702H64.6556ZM50.494 115.925C51.3068 115.452 51.6018 114.691 51.6743 113.532C51.6309 113.437 51.5873 113.319 51.539 113.189C51.4142 112.854 51.2583 112.435 50.9958 112.1C50.1296 110.996 48.7242 111.176 48.1756 112.457C47.9158 113.063 47.7329 113.755 47.7281 114.41C47.7177 115.881 49.2177 116.669 50.494 115.925ZM31.0001 120.332C29.9993 120.151 28.7838 118.802 28.8337 117.855C28.878 117.016 30.1456 116.234 31.3389 116.311C32.4252 116.381 33.3811 117.481 33.3327 118.589C33.3612 118.614 33.3884 118.64 33.414 118.667C33.9457 119.233 34.1911 121.198 33.8158 121.885C33.3979 122.651 32.4813 123.162 31.6846 122.897C31.2614 122.756 30.5981 122.235 30.6402 121.988C30.7352 121.436 30.8509 120.879 31.0001 120.332ZM42.1199 131.503L42.12 131.503C42.1487 131.631 42.1758 131.752 42.1978 131.864C41.9144 132.602 41.9097 133.282 42.5002 133.531C42.6439 133.938 42.9272 134.293 43.3609 134.582C43.9765 134.994 44.6607 134.941 45.258 134.457C46.1438 133.739 46.1173 132.786 45.8809 131.811C45.7241 131.165 45.406 130.655 45.0057 130.218C44.9339 129.936 44.8263 129.685 44.6827 129.493C44.2855 128.963 43.8028 128.56 43.1129 128.679C43.044 128.628 42.9755 128.576 42.9078 128.524C42.2744 128.036 40.9642 128.532 40.6506 129.146C40.277 129.879 40.6749 130.734 41.638 131.198C41.7808 131.268 41.9328 131.318 42.0885 131.362C42.0991 131.41 42.1096 131.457 42.1199 131.503ZM64.5783 102.826C64.5809 102.887 64.5805 102.947 64.5774 103.005C64.6309 102.998 64.6847 102.991 64.7382 102.984C65.8194 102.851 66.8147 103.744 66.8598 104.745C66.9002 105.64 66.2147 106.249 65.0275 106.359C64.8728 106.373 64.7164 106.369 64.5601 106.366C64.4879 106.364 64.4158 106.362 64.3442 106.362C63.206 106.396 62.1968 106.071 61.4396 105.189C61.086 104.777 61.0287 104.366 61.2633 104.049C60.9609 103.978 60.6594 103.9 60.3606 103.819C59.6668 103.63 59.321 102.728 59.8362 102.36C60.646 101.782 61.5648 101.227 62.5166 101.012C63.5318 100.783 64.5375 101.829 64.5783 102.826ZM63.9058 119.459C64.736 119.335 65.3229 118.465 65.3498 117.593C65.3741 116.811 64.2673 115.168 63.537 114.904C62.8767 114.665 61.8923 115.009 61.9114 115.656C61.9457 116.821 62.219 118 62.5635 119.12C62.6373 119.359 63.4649 119.525 63.9058 119.459ZM49.2024 103.985C49.2519 104.204 49.4183 104.408 49.6198 104.594C49.376 105.197 49.1792 105.818 49.0579 106.444C48.8958 107.276 49.7199 107.842 50.491 107.646C51.3464 107.429 52.5635 105.758 52.5619 104.445C52.794 104.159 52.8911 103.815 52.8029 103.479C52.6091 102.743 52.0335 102.542 51.365 102.629C50.8784 102.693 50.3541 102.78 49.9435 103.022C49.6025 103.223 49.1429 103.723 49.2024 103.985ZM47.8941 129.352C48.8125 129.066 49.1457 128.258 49.0831 127.304C49.0752 127.214 49.0695 127.124 49.0638 127.034C49.0514 126.839 49.0391 126.644 49.0036 126.453C48.8777 125.768 48.4719 125.195 47.7821 125.251C47.3073 125.29 46.8003 125.699 46.4332 126.068C46.3336 126.168 46.2509 126.286 46.1786 126.414C46.2009 126.121 46.1345 125.805 46.0134 125.469C45.8547 125.032 45.778 124.564 45.7014 124.097C45.6691 123.9 45.6369 123.704 45.5986 123.509C45.2988 121.989 43.8839 121.246 42.6476 122.005C42.1027 122.339 41.7109 122.779 41.5365 123.292C41.08 123.564 40.7481 124.077 40.7372 124.632C40.7155 125.7 41.4675 126.678 42.358 126.739L42.372 126.74L42.3847 126.741C42.7734 127.211 43.2593 127.564 43.7962 127.748C44.5356 128.002 45.1563 127.805 45.6928 127.338C45.7463 127.292 45.7948 127.244 45.8388 127.196C45.8283 127.221 45.8178 127.247 45.8072 127.273C45.504 128.005 45.6991 128.696 46.3337 129.078C46.7651 129.337 47.4371 129.494 47.8941 129.352ZM50.514 102.062C51.4289 102.03 52.4602 100.951 52.4545 100.031C52.4493 99.208 51.6604 98.5815 50.6773 98.6206C49.7633 98.6571 48.9392 99.6137 48.9809 100.591C49.0165 101.435 49.6995 102.09 50.514 102.062ZM33.3691 110.733C34.2384 110.751 34.8053 111.294 34.7814 112.087C34.754 112.999 33.4703 114.065 32.489 113.991C31.767 113.937 31.2713 113.355 31.2974 112.594C31.3321 111.618 32.3395 110.712 33.3691 110.733ZM57.8748 127.526C57.8566 128.261 58.553 128.806 59.5508 128.837C60.603 128.87 61.3645 128.209 61.3636 127.264C61.3632 126.486 60.8823 125.954 60.1516 125.923C59.0178 125.876 57.8961 126.666 57.8748 127.526ZM88.8856 119.617C88.8082 119.628 88.7048 119.657 88.5841 119.69C88.2348 119.786 87.7413 119.922 87.3221 119.801C86.5897 119.59 86.0167 119.719 85.3872 119.982C85.1283 120.09 84.8516 120.172 84.5744 120.218C83.282 120.432 82.1326 119.842 81.7924 118.807C81.4823 117.864 82.0279 116.838 83.1652 116.172C84.385 115.457 85.73 115.265 87.0984 115.292C88.1166 115.313 88.9416 115.832 89.5089 116.69C90.0624 117.527 89.9116 118.643 88.8856 119.617ZM83.2091 108.283C81.7737 108.675 81.2837 110.334 82.4706 111.665C82.6222 111.718 82.8024 111.768 83.001 111.824C83.5097 111.967 84.1344 112.142 84.6791 112.457C86.2491 113.363 87.5128 113.032 88.8721 111.971C89.5937 111.408 89.7653 110.862 89.5806 110.093C89.3825 109.266 88.5471 108.447 87.8938 108.732C86.9846 109.129 86.276 108.849 85.5488 108.562C85.3277 108.475 85.1048 108.387 84.8737 108.317C84.3581 108.161 83.7269 108.141 83.2091 108.283ZM78.182 130.665C77.1155 129.204 76.4739 127.716 77.1233 126.003C77.3284 125.463 77.7611 124.909 78.2424 124.594C79.2719 123.921 80.2724 124.466 80.3315 125.754C80.3775 126.747 80.7976 127.456 81.4423 128.133C82.448 129.189 82.5783 129.847 82.0196 130.646C81.4345 131.485 80.1907 131.758 79.109 131.251C78.8623 131.135 78.6351 130.977 78.4301 130.834H78.4296C78.3432 130.774 78.2606 130.716 78.182 130.665ZM78.8679 135.382L78.8684 135.383L78.8688 135.384C78.9249 135.476 78.9792 135.565 79.0261 135.65C79.2793 135.858 79.5217 136.067 79.7598 136.272L79.7602 136.272V136.272C80.2824 136.722 80.7833 137.153 81.3293 137.516C82.4801 138.282 83.7052 138.2 84.8455 137.458C85.9672 136.73 85.8959 135.782 84.8498 134.939C83.9914 134.247 82.9775 134.007 81.961 133.767C81.232 133.594 80.5018 133.421 79.8263 133.082C78.8862 132.609 78.1151 133.633 78.5004 134.679C78.5938 134.932 78.7367 135.167 78.8675 135.382L78.8679 135.382ZM76.2806 146.756C76.2337 146.671 76.1794 146.582 76.1224 146.489C75.9917 146.274 75.8483 146.039 75.7549 145.785C75.3696 144.739 76.1407 143.715 77.0808 144.188C77.7567 144.528 78.487 144.701 79.2159 144.873C80.2324 145.114 81.2464 145.354 82.1043 146.045C83.1504 146.888 83.2217 147.837 82.1 148.565C80.9597 149.306 79.735 149.388 78.5838 148.622C78.0378 148.26 77.5369 147.828 77.0147 147.378L77.0143 147.378L77.0134 147.377C76.7758 147.172 76.5334 146.964 76.2806 146.756ZM92.2688 128.365C93.1237 129.133 94.3266 129.023 95.5999 127.815L95.702 127.629L95.7041 127.625L95.7098 127.615C95.8762 127.31 96.1329 126.842 96.3901 126.375C96.4778 126.216 96.5621 126.054 96.6459 125.891C96.8388 125.519 97.0313 125.148 97.2706 124.809C97.9214 123.887 97.9566 123.018 97.2915 122.555C96.5373 122.03 95.5404 122.267 94.9261 123.143C94.7675 123.369 94.6025 123.641 94.5799 123.904C94.5282 124.52 94.0933 124.697 93.6467 124.878C93.6224 124.888 93.5977 124.898 93.5733 124.908C93.4565 124.956 93.3361 124.997 93.2158 125.038H93.2154L93.2149 125.039H93.2145H93.2136V125.039C93.0121 125.108 92.8109 125.178 92.6254 125.277C91.3487 125.962 91.1901 127.395 92.2688 128.365ZM74.433 139.306V139.306C74.1363 138.978 73.8396 138.65 73.6671 138.267C73.4334 137.747 73.2692 137.04 73.4356 136.533C73.6758 135.802 74.4534 135.713 75.1746 135.837C76.6381 136.087 77.8353 136.814 78.7328 137.983C79.4305 138.891 79.2867 140 78.4583 140.732C77.5178 141.562 76.5056 141.534 75.5955 140.639C75.4004 140.447 75.2184 140.241 75.0368 140.036H75.0364C74.9547 139.943 74.8731 139.851 74.7901 139.759L74.8118 139.74C74.6928 139.593 74.5638 139.45 74.4343 139.307L74.4339 139.307V139.306H74.4334L74.433 139.306ZM76.3349 115.752C75.4022 115.483 74.5281 115.638 73.9473 116.308C73.33 116.894 72.9234 117.613 72.7379 118.344L72.7375 118.342C72.7323 118.244 72.7258 118.122 72.6993 118.004C72.4803 117.052 71.1345 116.129 69.929 116.095C68.9324 116.067 67.4485 117.019 67.2691 117.889C67.1969 118.239 67.2626 118.701 67.4446 119.006C67.746 119.51 68.2283 119.895 68.7856 120.141C68.7252 120.455 68.7461 120.816 68.8599 121.199C68.8868 121.289 68.9207 121.377 68.9589 121.464C68.488 121.551 68.0766 121.844 68.0892 122.264C68.0953 122.469 68.1088 122.675 68.1283 122.881C67.6248 123.348 67.402 123.974 67.5193 124.752C67.6305 125.484 68.1292 125.954 68.8899 126.069C69.1444 126.108 69.376 126.104 69.5893 126.066C69.7687 126.086 69.9451 126.088 70.0836 126.067C70.8838 125.948 71.4581 125.135 71.5224 124.296C72.0107 123.26 71.8869 122.146 71.7657 121.053V121.053V121.052C71.7388 120.812 71.7123 120.573 71.6923 120.336C71.6862 120.263 71.6706 120.192 71.6458 120.122L71.6675 120.111C72.1132 119.871 72.4538 119.565 72.6241 119.122C72.6067 119.596 72.6853 120.057 72.8643 120.47C73.1745 121.187 73.7379 121.514 74.4447 121.596C75.2202 121.685 75.6833 121.254 76.0412 120.574C76.258 120.162 76.5521 119.791 76.8453 119.42C76.9696 119.263 77.0934 119.107 77.2115 118.947C78.1329 117.701 77.7289 116.155 76.3349 115.752ZM97.2824 135.925C97.9718 136.168 98.616 136.156 99.2394 135.599C99.2594 135.577 99.2841 135.552 99.3115 135.524C99.3806 135.454 99.4662 135.368 99.5348 135.269C100.091 134.466 99.8667 132.849 99.08 131.935C98.4292 131.18 96.7263 130.724 95.9626 131.178C95.655 131.361 95.357 131.72 95.255 132.059C94.8075 133.545 95.8197 135.411 97.2824 135.925ZM89.1827 142.179H89.1823C88.8573 142.249 88.4073 142.346 88.0285 142.223C87.1292 141.933 86.5058 141.212 86.4346 140.212C86.3499 139.026 86.8095 137.958 87.5328 137.073C88.2652 136.176 89.383 136.407 89.9903 137.471C90.843 138.964 90.7309 141 89.4725 142.125C89.3973 142.133 89.2978 142.154 89.1827 142.179ZM101.422 118.315C101.28 119.468 101.72 120.432 102.511 121.251C102.561 121.305 102.608 121.36 102.656 121.415C102.758 121.533 102.86 121.65 102.974 121.754C103.855 122.558 104.766 122.654 105.401 122.021C106.111 121.314 106.101 119.977 105.273 119.268C104.547 118.645 103.743 118.091 102.91 117.62C102.111 117.169 101.525 117.474 101.422 118.315ZM87.955 125.734C87.0497 126.461 86.2886 126.755 85.3911 126.474C83.9819 126.032 83.5535 124.392 84.6487 123.408C85.1357 122.971 85.7695 122.64 86.3933 122.423C87.7096 121.967 88.7891 122.883 88.5563 124.268C88.4855 124.687 88.2809 125.085 88.1171 125.403C88.0536 125.526 87.9963 125.637 87.955 125.734ZM69.3742 111.764C68.5958 112.402 68.4424 114.403 69.1127 115.184C69.8495 116.044 71.0402 116.233 71.8239 115.615C72.7084 114.917 72.8934 113.438 72.2032 112.576C71.4564 111.642 70.0246 111.231 69.3742 111.764ZM70.9546 129.58C70.7279 128.102 69.4138 126.881 67.8985 126.542C66.7026 126.275 65.7781 126.945 65.948 128.09C66.1157 129.221 66.5948 130.28 67.5284 131.016C67.6079 131.079 67.6896 131.136 67.7721 131.187C67.1335 131.496 66.7534 131.953 67.0436 132.542C67.2791 133.021 67.9007 133.499 68.4263 133.608C69.508 133.832 71.2357 132.431 71.4486 131.317C71.5759 130.652 71.5441 130.01 70.9546 129.58ZM102.353 127.93C102.912 128.721 103.873 128.74 104.56 128.06C105.269 127.358 105.365 125.91 104.512 125.314C103.712 124.756 102.683 124.45 101.71 124.241C101.091 124.108 100.658 124.971 100.985 125.611C101.394 126.409 101.836 127.199 102.353 127.93ZM94.1646 138.577C93.5025 139.145 92.4638 139.297 91.8131 138.767C91.4677 138.485 91.0324 137.762 91.1597 137.546C91.7553 136.537 92.4425 135.541 93.281 134.731C93.7458 134.281 94.6628 134.777 94.9317 135.426C95.2276 136.143 94.7597 138.068 94.1646 138.577ZM91.5081 120.895C92.2557 121.388 94.3605 121.147 95.311 120.229C95.3266 120.161 95.3531 120.074 95.3844 119.971L95.3848 119.97V119.969C95.4769 119.667 95.6081 119.236 95.609 118.806C95.6103 118.182 95.139 117.611 94.5199 117.774C93.4504 118.056 92.3704 118.453 91.4308 119.025C90.7071 119.467 90.8443 120.457 91.5081 120.895ZM76.0308 133.095C75.3674 133.784 74.5459 134.082 73.7162 133.596C73.3031 133.354 72.9664 132.752 72.8678 132.258C72.7223 131.532 73.102 130.922 73.847 130.653C73.9252 130.625 74.0042 130.595 74.0837 130.564C74.4395 130.428 74.8066 130.288 75.1598 130.304C75.6793 130.327 76.3231 130.426 76.6715 130.751C77.1776 131.223 77.0278 131.909 76.6064 132.463C76.4882 132.619 76.3514 132.76 76.215 132.901H76.2145C76.1529 132.966 76.0907 133.03 76.0308 133.095ZM74.5433 125.206C74.019 124.625 72.9999 124.588 72.3834 125.127C71.5798 125.831 71.3639 127.044 71.9186 127.744C72.4681 128.439 73.512 128.486 74.1884 127.847C74.9169 127.16 75.0968 125.82 74.5433 125.206ZM98.4592 117.216C97.7828 117.84 96.2906 117.805 95.6511 117.15C95.0816 116.567 95.1055 115.621 95.7059 115.026C96.4001 114.337 97.662 114.302 98.305 114.953C98.9953 115.652 99.0643 116.658 98.4592 117.216ZM77.6442 112.274C78.2463 111.758 78.2658 110.973 77.6933 110.319C77.0147 109.544 75.6672 109.409 74.923 110.042C74.3422 110.535 74.2458 111.293 74.6924 111.863C75.2988 112.639 76.9513 112.869 77.6442 112.274ZM81.9484 141.864C81.2994 141.106 81.2329 140.224 81.7881 139.743C82.4384 139.179 83.7781 139.476 84.5067 140.346C84.9763 140.906 84.9072 141.62 84.3316 142.145C83.6339 142.782 82.6326 142.664 81.9484 141.864ZM94.1928 110.328H94.1932V110.329C94.2467 110.403 94.301 110.477 94.3453 110.552C94.42 110.603 94.4925 110.656 94.5647 110.709H94.5651C94.7215 110.823 94.8766 110.936 95.0443 111.026C95.755 111.403 96.5265 111.307 96.8684 110.779C97.2815 110.141 97.0421 109.58 96.5274 109.144C96.1529 108.827 95.735 108.499 95.2797 108.358C94.9018 108.241 94.2232 108.238 94.069 108.459C93.8444 108.78 93.8944 109.334 93.9352 109.789L93.9382 109.825C93.9539 109.999 94.0733 110.163 94.1928 110.328ZM88.7283 132.781C88.0806 133.298 87.091 133.211 86.5766 132.59C86.0784 131.989 86.1913 131.158 86.8412 130.635C87.5732 130.047 88.7783 130.156 89.2996 130.856C89.6897 131.38 89.4433 132.209 88.7283 132.781ZM58.7745 139.276C58.9678 139.277 59.1607 139.277 59.3505 139.289V139.318C59.4748 139.318 59.5995 139.32 59.7241 139.322C59.9974 139.326 60.2706 139.33 60.5426 139.315C61.8176 139.245 62.52 138.516 62.5396 137.262C62.557 136.156 61.8345 135.303 60.6933 135.207C59.225 135.083 57.8805 135.478 56.71 136.391C56.1331 136.841 55.6748 137.476 56.0532 138.146C56.3156 138.61 56.9494 138.965 57.4912 139.143C57.8905 139.274 58.3327 139.275 58.7745 139.276ZM48.2976 138.112C48.3261 138.239 48.3531 138.36 48.3751 138.471C48.074 139.257 48.0879 139.976 48.7978 140.182C49.3108 140.33 50.0823 140.193 50.5172 139.878C51.4117 139.229 51.5394 137.009 50.8604 136.101C50.4307 135.528 49.9012 135.103 49.1171 135.327C48.4194 135.525 48.0215 136.21 48.1127 137.096C48.1494 137.451 48.228 137.802 48.2976 138.112ZM64.0522 134.134C64.034 134.87 64.7299 135.414 65.7282 135.445C66.7799 135.478 67.5414 134.817 67.541 133.873C67.5401 133.094 67.0592 132.562 66.329 132.531C65.1952 132.484 64.0731 133.274 64.0522 134.134ZM22.1498 106.034C22.0816 106.072 21.9948 106.136 21.8935 106.21C21.6011 106.423 21.1883 106.725 20.7536 106.761C19.9938 106.824 19.5038 107.148 19.009 107.617C18.8048 107.81 18.575 107.986 18.333 108.126C17.2001 108.786 15.9164 108.642 15.2304 107.795C14.6062 107.023 14.7521 105.871 15.5788 104.844C16.465 103.743 17.6545 103.085 18.9438 102.626C19.903 102.283 20.8583 102.476 21.6928 103.076C22.5078 103.663 22.7632 104.759 22.1498 106.034ZM16.065 120.163C14.5494 119.174 13.4216 118.011 13.4208 116.179C13.4203 115.602 13.6288 114.93 13.9664 114.466C14.6897 113.47 15.8187 113.625 16.3313 114.808C16.7267 115.721 17.3713 116.234 18.2145 116.638C19.5295 117.268 19.8844 117.836 19.6464 118.782C19.3966 119.774 18.3309 120.47 17.1402 120.381C16.8695 120.361 16.6023 120.294 16.3607 120.233C16.2568 120.207 16.1576 120.182 16.065 120.163ZM18.3835 124.331C18.4685 124.397 18.55 124.461 18.6236 124.523C18.934 124.627 19.2348 124.737 19.5302 124.843L19.5304 124.844C20.1781 125.079 20.7999 125.304 21.4395 125.45C22.7871 125.757 23.9026 125.246 24.7063 124.147C25.4961 123.069 25.0929 122.207 23.8162 121.791C22.7683 121.449 21.7357 121.584 20.6999 121.72C19.9571 121.818 19.2126 121.915 18.4598 121.838C17.4133 121.729 17.0562 122.961 17.7874 123.802C17.9656 124.006 18.184 124.176 18.3835 124.331ZM31.337 111.315C30.5755 112.896 29.4899 113.426 28.4178 113.011C27.065 112.487 26.7049 111.092 27.6549 109.998C27.7928 109.84 27.956 109.704 28.1195 109.568C28.2182 109.486 28.317 109.403 28.4104 109.316C28.4295 109.298 28.4487 109.28 28.4679 109.262C28.8212 108.935 29.1653 108.615 28.9951 108.021C28.9226 107.767 28.9808 107.455 29.0485 107.187C29.3122 106.15 30.1598 105.574 31.0512 105.797C31.837 105.994 32.1129 106.819 31.8314 107.911C31.7281 108.313 31.68 108.728 31.6319 109.144C31.6109 109.326 31.5899 109.507 31.5642 109.688C31.4975 110.161 31.4318 110.634 31.3845 110.974L31.384 110.977L31.383 110.984L31.3829 110.985L31.3825 110.988L31.337 111.315ZM15.6275 129.571C15.7996 129.659 15.9718 129.747 16.1359 129.843C16.1311 129.851 16.1268 129.86 16.1224 129.869C16.2334 129.925 16.3436 129.983 16.4539 130.041L16.4543 130.041C16.6961 130.168 16.938 130.295 17.1876 130.404C18.3558 130.919 19.3123 130.586 19.8962 129.476C20.4114 128.497 20.1521 127.41 19.1777 126.808C17.9235 126.034 16.546 125.779 15.0894 126.065C14.3713 126.205 13.6758 126.565 13.7106 127.333C13.7353 127.866 14.1393 128.469 14.5429 128.872C14.84 129.169 15.2337 129.37 15.6275 129.571ZM7.00936 108.243C7.31432 107.41 8.07671 106.956 9.04502 106.876C10.4908 106.757 11.4174 108.06 10.9977 109.552C10.944 109.743 10.8837 109.934 10.8233 110.125C10.6809 110.576 10.5384 111.027 10.4816 111.488C10.3882 112.251 10.1085 112.819 9.35172 113.01C8.66231 113.185 8.01937 113.079 7.47461 112.519C6.51195 111.528 6.26824 109.787 7.00936 108.243ZM4.46729 115.108C4.54566 115.179 4.62446 115.25 4.7007 115.324C4.66052 115.382 4.62498 115.437 4.5914 115.49C4.52298 115.597 4.46264 115.691 4.38749 115.771C3.64203 116.566 3.46392 117.472 3.99825 118.419C4.36186 119.064 4.99523 119.326 5.74677 119.164C6.86148 118.925 7.26896 118.062 7.4979 117.086C7.81754 115.724 7.22987 114.577 6.65496 113.454C6.54462 113.239 6.4348 113.024 6.33193 112.809C5.98657 112.088 4.59384 111.938 4.03648 112.345C3.37183 112.83 3.34055 113.772 3.99 114.622C4.12601 114.8 4.29561 114.953 4.46729 115.108ZM30.4354 127.022C30.5345 126.957 30.6201 126.902 30.6879 126.868C31.4655 125.369 30.8474 123.426 29.5202 122.333C28.5745 121.554 27.4472 121.735 27.0814 122.833C26.7195 123.918 26.6687 125.079 27.1687 126.158C27.5905 127.067 28.4298 127.52 29.3734 127.472C29.7706 127.453 30.1564 127.202 30.4354 127.022ZM35.4682 102.725C34.4378 102.241 33.6845 101.494 33.4073 100.366C33.2058 99.5443 33.6458 99.0508 34.552 99.1889C35.4982 99.3336 36.4461 99.5664 37.3462 99.8901C38.3718 100.259 38.8558 101.506 38.4435 102.419C38.0747 103.236 37.188 103.469 36.0794 103.031C35.9351 102.974 35.7974 102.9 35.6598 102.826C35.5961 102.792 35.5325 102.758 35.4682 102.725ZM21.3171 113.685C22.2558 113.629 22.8632 113.084 23.4514 112.082C23.4556 111.978 23.4697 111.853 23.4853 111.715C23.5255 111.36 23.5757 110.916 23.4931 110.499C23.2194 109.122 21.8844 108.648 20.8162 109.542C20.3101 109.966 19.8344 110.5 19.5342 111.082C18.86 112.39 19.8418 113.771 21.3171 113.685ZM2.09078 108.91C1.1872 108.417 0.61985 106.492 1.12203 105.619C1.54038 104.891 3.02434 104.766 4.05477 105.374C5.0057 105.934 5.35801 107.383 4.7785 108.35C4.26503 109.206 3.08516 109.452 2.09078 108.91ZM6.80731 123.798C6.77521 123.925 6.7448 124.045 6.71408 124.154C6.08983 124.719 5.77792 125.367 6.3179 125.871C6.70844 126.235 7.45911 126.461 7.98953 126.376C9.07991 126.202 10.1977 124.28 10.0013 123.163C9.87749 122.457 9.59729 121.839 8.7971 121.683C8.08423 121.545 7.42001 121.977 7.10158 122.808C6.97378 123.141 6.8855 123.49 6.80731 123.798ZM39.8005 108.363C39.3991 109.242 38.4942 109.566 37.691 109.025C36.9485 108.525 36.2543 107.943 35.5893 107.342C35.0558 106.86 35.1548 105.9 35.7804 105.804C36.7644 105.655 37.8343 105.575 38.7805 105.814C39.7896 106.067 40.214 107.455 39.8005 108.363ZM28.3742 104.325C27.8112 105.521 25.9289 106.493 25.0548 106.298C24.2785 106.124 23.7994 105.247 24.3194 104.577C24.9944 103.709 25.8628 102.954 26.7629 102.311C27.2829 101.939 27.9272 102.305 28.1474 102.889C28.2988 103.291 28.3293 103.739 28.3507 104.055C28.3581 104.163 28.3644 104.256 28.3742 104.325ZM12.9305 124.487C13.8788 124.647 14.5413 124.078 14.9167 123.197C14.95 123.114 14.9856 123.031 15.0211 122.948C15.0984 122.769 15.1757 122.589 15.2307 122.403C15.4275 121.735 15.3241 121.041 14.6834 120.779C14.2424 120.599 13.6052 120.735 13.1117 120.898C12.7754 121.008 12.4823 121.269 12.1979 121.523C12.1344 121.58 12.0713 121.636 12.0083 121.69C11.407 122.206 11.2689 122.91 11.6625 123.538C11.9301 123.964 12.4587 124.408 12.9305 124.487Z" fill="#231F20"/>
</g>
<path fill-rule="evenodd" clip-rule="evenodd" d="M299.812 322.544C299.995 318.484 302.211 314.792 306.318 312.354C307.424 311.698 308.97 311.384 310.262 311.499C317.954 312.186 326 322.083 320.69 331.397C316.877 338.084 309.386 339.05 304.085 333.483C301.45 330.715 299.851 326.906 299.812 322.544Z" fill="#A1483A"/>
<path fill-rule="evenodd" clip-rule="evenodd" d="M54.5697 256.025C57.2554 255.957 59.7911 257.232 61.5857 259.799C62.0692 260.49 62.3468 261.484 62.3294 262.332C62.2273 267.381 56.0682 273.085 49.684 270.051C45.1009 267.872 44.1225 263.031 47.5516 259.317C49.2566 257.47 51.6955 256.252 54.5697 256.025Z" fill="#C97600"/>
<path fill-rule="evenodd" clip-rule="evenodd" d="M98.0305 184.626C97.083 182.516 95.9883 180.462 95.2151 178.287C92.4531 170.519 90.6494 162.57 90.8779 154.212C91.0373 148.376 90.7067 142.499 92.1663 136.789C92.7962 134.322 93.7489 131.919 94.7859 129.594C95.2885 128.468 96.2229 127.476 97.1408 126.625C98.4732 125.389 100.189 125.249 101.435 126.03C102.704 126.824 103.341 128.389 102.863 130.197C102.385 132.005 101.746 133.778 101.058 135.517C98.9441 140.868 97.4245 146.385 96.7386 152.105C95.5626 161.91 95.8367 171.662 98.1365 181.304C98.3198 182.071 98.4415 182.855 98.547 183.637C98.5827 183.9 98.4801 184.183 98.4415 184.456C98.3046 184.513 98.1673 184.569 98.0305 184.626Z" fill="#C97600"/>
<path fill-rule="evenodd" clip-rule="evenodd" d="M449.898 221.986C450.845 219.876 451.94 217.821 452.713 215.647C455.476 207.879 457.279 199.93 457.053 191.572C456.892 185.736 457.222 179.859 455.763 174.148C455.133 171.682 454.181 169.279 453.143 166.954C452.639 165.828 451.705 164.836 450.788 163.985C449.455 162.749 447.739 162.609 446.493 163.39C445.224 164.184 444.587 165.749 445.065 167.557C445.543 169.365 446.183 171.138 446.87 172.877C448.986 178.228 450.506 183.745 451.188 189.465C452.365 199.27 452.092 209.021 449.794 218.664C449.607 219.431 449.485 220.215 449.381 220.997C449.346 221.26 449.446 221.543 449.485 221.816C449.624 221.873 449.759 221.929 449.898 221.986Z" fill="#A1483A"/>
<path fill-rule="evenodd" clip-rule="evenodd" d="M31.2072 296.271C28.8724 293.804 26.174 291.402 24.2687 288.86C17.462 279.778 13.0178 270.485 13.5804 260.713C13.973 253.89 13.1587 247.019 16.7558 240.343C18.3079 237.46 20.6559 234.65 23.2107 231.932C24.4492 230.615 26.7524 229.456 29.0147 228.461C32.2982 227.016 36.5264 226.852 39.5977 227.765C42.7243 228.694 44.2936 230.523 43.1157 232.637C41.9377 234.75 40.3619 236.824 38.6675 238.857C33.4577 245.112 29.713 251.563 28.0226 258.25C25.1252 269.713 25.8011 281.114 31.4681 292.387C31.92 293.284 32.2191 294.2 32.48 295.114C32.567 295.422 32.3153 295.752 32.2191 296.072C31.8818 296.138 31.5445 296.205 31.2072 296.271Z" fill="#A1483A"/>
<path fill-rule="evenodd" clip-rule="evenodd" d="M396.715 212.461C396.55 212.077 396.808 211.263 396.88 210.932C397.196 209.498 397.481 208.044 398.06 206.689C399.799 202.609 401.634 198.551 403.758 194.669C404.767 192.825 406.402 191.264 407.979 189.829C409.287 188.638 410.742 188.772 411.699 189.7C412.688 190.66 412.848 192.043 411.594 193.432C408.729 196.605 406.211 200.075 403.794 203.603C402.587 205.366 401.404 207.146 400.209 208.918C399.366 210.168 398.897 212.053 397.337 212.608C396.979 212.735 396.796 212.649 396.715 212.461Z" fill="white"/>
<path fill-rule="evenodd" clip-rule="evenodd" d="M163.447 288.411C162.677 288.674 161.179 287.583 160.702 287.229C156.794 284.335 153.872 280.52 151.134 276.571C150.658 275.885 150.3 274.896 150.386 274.101C150.48 273.234 150.957 272.084 151.633 271.698C152.293 271.323 153.493 271.568 154.309 271.898C154.966 272.166 155.534 272.891 155.922 273.544C158.368 277.669 160.765 281.824 163.145 285.987C163.401 286.434 164.134 287.717 163.711 288.229C163.639 288.317 163.549 288.375 163.447 288.411Z" fill="#C97600"/>
<path fill-rule="evenodd" clip-rule="evenodd" d="M126.187 337.464C126.174 337.468 126.16 337.473 126.146 337.477C125.066 337.791 123.049 336.861 122.101 336.412C119.796 335.321 117.596 334.013 115.376 332.754C114.871 332.469 114.438 332.043 114.022 331.632C112.644 330.274 112.162 328.787 112.975 328.086C114.231 327.005 115.444 327.764 116.448 328.536C119.558 330.926 122.605 333.393 125.657 335.852C125.952 336.089 126.977 337.188 126.187 337.464Z" fill="white"/>
<path fill-rule="evenodd" clip-rule="evenodd" d="M403.292 136.406C405.121 137.018 425.588 116.3 425.588 116.3L452.292 122.29L476.189 121.021C476.189 121.021 499.156 113.212 511.724 100.839C524.292 88.4657 530.378 71.6891 526.616 50.2059C522.854 28.7228 501.268 10.9031 485.494 6.20101C469.716 1.4986 446.392 -2.56405 425.588 9.0751C404.789 20.7144 393.276 37.6917 391.162 53.3233C389.048 68.9544 391.844 86.3102 410.707 105.422C410.707 105.422 403.292 135.013 403.292 136.406Z" fill="white"/>
<path fill-rule="evenodd" clip-rule="evenodd" d="M116.803 256.628L119.407 229.681C119.407 229.681 145.736 200.154 124.654 171.789C103.571 143.425 60.5322 171.049 58.1503 175.873C55.7684 180.698 21.4548 214.876 64.8043 243.444C73.9465 249.469 102.833 241.442 102.833 241.442C106.637 244.886 116.803 256.628 116.803 256.628Z" fill="white"/>
<path fill-rule="evenodd" clip-rule="evenodd" d="M176.845 96.3304L178.221 79.4343C178.221 79.4343 200.289 65.2715 202.571 45.8636C204.853 26.4552 176.845 4.11194 147.234 9.47349C117.623 14.8346 101.815 27.1646 98.0988 51.1973C94.3828 75.23 131.565 90.9315 156.154 85.8797C163.061 84.3245 165.363 83.586 165.363 83.586C168.29 85.8797 176.845 96.3304 176.845 96.3304Z" fill="white"/>
<path fill-rule="evenodd" clip-rule="evenodd" d="M405.246 132.631C406.638 131.416 407.408 130.754 408.168 130.081C413.327 125.515 418.477 120.936 423.646 116.383C425.345 114.886 427.013 113.971 429.524 115.061C443.621 121.178 458.295 122.691 473.352 119.786C489.56 116.66 503.383 109.2 513.966 96.3411C531.142 75.4757 530.777 47.0324 513.184 26.5167C506.481 18.7042 498.309 12.8813 488.856 8.88161C477.218 3.95795 465.103 2.0599 452.492 3.27687C434.011 5.06006 418.082 12.1888 405.766 26.2473C384.35 50.6923 388.847 83.982 411.018 103.199C412.715 104.67 413.222 106.075 412.498 108.295C410.331 114.947 408.378 121.669 406.359 128.369C406.01 129.525 405.745 130.707 405.246 132.631ZM459.29 124.32C449.142 123.995 439.363 122.216 430.019 118.379C427.912 117.516 426.492 117.689 424.806 119.248C418.312 125.247 411.692 131.106 405.121 137.018C404.694 137.402 404.341 137.945 403.844 138.151C403.263 138.393 402.419 138.604 401.953 138.348C401.516 138.107 401.229 137.242 401.226 136.65C401.221 135.872 401.53 135.084 401.757 134.316C403.993 126.725 406.237 119.137 408.484 111.549C408.746 110.67 409.038 109.799 409.319 108.925C409.905 107.108 409.482 105.786 407.973 104.406C401.799 98.7564 397.016 92.0543 393.691 84.3582C384.471 63.0136 389.188 38.9058 406.005 21.7251C416.531 10.9698 429.372 4.41625 444.064 1.58031C464.455 -2.35502 483.626 1.00401 501.133 12.2809C514.908 21.156 524.361 33.4678 528.01 49.6028C532.272 68.4138 527.333 85.1162 514.926 99.5901C504.126 112.185 490.134 119.44 473.956 122.522C469.13 123.442 464.182 123.738 459.29 124.32Z" fill="#24635C"/>
<path fill-rule="evenodd" clip-rule="evenodd" d="M176.114 89.7418C176.03 91.1062 175.942 92.5229 175.862 94.0155C172.771 90.6797 170.458 87.4163 168.172 84.1287C167.266 82.8276 165.644 82.2272 164.107 82.6252C162.746 82.9775 161.396 83.3211 160.033 83.6096C146.188 86.5445 132.682 85.7512 119.7 79.7506C115.293 77.7141 111.344 74.9829 107.959 71.4794C99.034 62.2437 97.1339 50.0093 102.845 38.5229C105.704 32.7713 109.824 28.0435 114.881 24.1486C125.248 16.1627 137.045 12.0306 150.073 10.9432C160.704 10.0557 170.865 11.491 180.592 15.8573C185.24 17.9434 189.384 20.7758 192.93 24.4505C201.665 33.5011 203.639 45.4097 198.227 56.7853C194.193 65.262 187.626 71.3834 179.611 75.9717C177.441 77.2145 176.545 78.5934 176.513 81.02C176.476 83.8394 176.303 86.657 176.114 89.7418ZM179.263 83.3155C179.32 82.0782 179.377 80.831 179.437 79.5699C180.022 79.1959 180.582 78.8427 181.123 78.5013C182.248 77.7927 183.293 77.1337 184.315 76.4413C190.669 72.1367 195.998 66.8568 199.742 60.0986C207.255 46.5379 204.847 31.5414 193.476 20.9847C189.569 17.3565 185.105 14.5771 180.188 12.564C170.133 8.44751 159.687 7.10995 148.871 8.1634C138.203 9.20209 128.222 12.2556 119.05 17.8078C111.467 22.397 105.152 28.2733 100.891 36.1519C93.8245 49.2213 95.9288 63.5196 106.439 73.9873C110.136 77.6689 114.41 80.5113 119.16 82.6395C131.365 88.1088 144.096 89.1657 157.18 87.0193C159.106 86.7035 161.018 86.2973 162.9 85.8976C163.748 85.7169 164.591 85.5379 165.427 85.3694C165.996 86.1279 166.549 86.8685 167.093 87.5966C168.335 89.2587 169.525 90.8521 170.73 92.4356C170.987 92.774 171.243 93.1141 171.5 93.4543C172.553 94.8548 173.608 96.2567 174.777 97.5547C175.309 98.146 176.421 98.7615 177.034 98.5795C177.664 98.3936 178.237 97.2988 178.423 96.506C178.688 95.3753 178.743 94.1902 178.797 93.0142C178.807 92.8148 178.816 92.6154 178.826 92.4165C178.982 89.4038 179.121 86.3902 179.263 83.3155ZM94.9966 88.2404C95.8189 87.6366 96.6786 87.0058 97.5965 86.3394C97.6365 86.9558 97.6787 87.5093 97.7173 88.0215C97.7938 89.0254 97.8576 89.8695 97.868 90.7144C97.8928 92.8048 97.9037 94.8957 97.9145 96.9865C97.9271 99.3806 97.9397 101.775 97.9732 104.169C97.9762 104.405 97.9619 104.657 97.9471 104.912C97.8841 106.001 97.8168 107.16 99.1213 107.577C100.421 107.992 101.217 106.959 101.922 106.046C102.025 105.912 102.126 105.781 102.227 105.657C105.788 101.272 109.298 96.844 112.807 92.4165C113.117 92.025 113.428 91.6332 113.738 91.2418C113.793 91.1727 113.851 91.1019 113.909 91.0298C114.518 90.2826 115.255 89.3773 114.272 88.5988C113.313 87.8382 112.761 88.6557 112.277 89.3725C112.164 89.5393 112.056 89.7001 111.946 89.8347C109.847 92.4191 107.772 95.0234 105.698 97.6277C104.638 98.9583 103.577 100.289 102.514 101.617C102.166 102.051 101.799 102.47 101.338 102.993C101.09 103.276 100.814 103.589 100.5 103.952C100.462 103.559 100.429 103.251 100.401 102.996C100.354 102.564 100.323 102.285 100.318 102.005C100.287 100.427 100.26 98.8493 100.233 97.271C100.184 94.3657 100.135 91.4607 100.059 88.5562C100.054 88.3746 100.052 88.19 100.05 88.0041C100.035 86.4932 100.02 84.8833 98.385 84.1417C97.107 83.5618 96.166 84.3428 95.2494 85.1039C94.9953 85.3146 94.7433 85.524 94.4861 85.7026C92.2819 87.2321 90.0807 88.7665 87.88 90.3004C85.0485 92.274 82.2165 94.2475 79.3785 96.2115C78.8337 96.589 78.2538 96.9148 77.6743 97.2411C77.4115 97.3888 77.1486 97.5365 76.8889 97.6894C76.7781 97.5982 76.7216 97.5517 76.6647 97.5052C76.6078 97.4583 76.5509 97.4118 76.4392 97.3197C76.7759 96.3097 77.1121 95.2988 77.4484 94.2883C78.2221 91.9616 78.9962 89.6349 79.7803 87.3125C80.3577 85.6035 80.9463 83.8984 81.5349 82.1934C82.773 78.6086 84.0107 75.0238 85.141 71.4047C86.2392 67.8885 85.1957 66.5827 81.5397 66.2873C80.19 66.1782 78.8398 66.0748 77.4896 65.9714C74.1238 65.7138 70.758 65.4562 67.4017 65.1096C62.9454 64.6491 58.5227 63.9275 53.7089 62.6026C54.0599 62.4084 54.3505 62.2346 54.6051 62.0826C55.0634 61.8084 55.4053 61.6038 55.7732 61.4761C57.189 60.9852 58.6039 60.4909 60.0188 59.9961C64.8156 58.3192 69.6133 56.6424 74.4548 55.105C76.1021 54.5819 77.815 54.2722 79.5292 53.9616C80.5558 53.7761 81.5823 53.5902 82.5958 53.3586C82.6522 53.346 82.7065 53.3265 82.76 53.3026C83.4833 52.9716 83.5532 51.9524 82.9589 51.4203C82.8382 51.3125 82.7139 51.2396 82.5836 51.2261C81.5931 51.1292 80.554 51.2934 79.5622 51.4915C70.7032 53.2618 62.2391 56.2927 53.917 59.7541C52.9839 60.142 52.0464 60.629 51.2714 61.268C50.0424 62.2811 50.2371 63.6803 51.6433 64.4423C52.2054 64.7473 52.8531 64.928 53.4839 65.0631C53.9943 65.1721 54.5039 65.2868 55.0139 65.4019C56.5882 65.756 58.1638 66.1105 59.7577 66.2981C64.4264 66.8477 69.1015 67.3398 73.7763 67.832C75.8289 68.0479 77.8815 68.2643 79.9332 68.485C80.6374 68.561 81.3394 68.6518 82.1344 68.7547C82.5397 68.8073 82.9694 68.8629 83.4355 68.9211C83.2587 69.5389 83.1006 70.1188 82.9494 70.6718C82.6453 71.7839 82.3712 72.7874 82.0375 73.7705C80.6218 77.9439 79.1917 82.1126 77.762 86.2812C76.7407 89.2596 75.719 92.2379 74.7024 95.2184C74.6477 95.3783 74.5912 95.539 74.5343 95.6998C74.248 96.5125 73.9574 97.3371 73.8836 98.1733C73.8184 98.9205 73.9692 100.017 74.4544 100.391C74.9396 100.766 76.0491 100.65 76.7281 100.366C78.0027 99.8341 79.2021 99.0873 80.3637 98.3223C83.6236 96.175 86.8691 94.0047 90.0781 91.7826C91.682 90.6723 93.2559 89.5176 94.9966 88.2404Z" fill="#A1483A"/>
<path fill-rule="evenodd" clip-rule="evenodd" d="M136.604 156.946C135.921 157.554 134.79 157.278 134.593 156.382C134.572 156.29 134.57 156.206 134.59 156.127C134.81 155.265 135.225 154.413 135.723 153.667C138.082 150.124 140.471 146.601 142.861 143.077L142.862 143.076L142.872 143.061C143.439 142.224 144.007 141.387 144.574 140.55C144.656 140.43 144.734 140.303 144.813 140.176C145.042 139.803 145.275 139.425 145.604 139.197C146.009 138.914 146.887 138.668 147.075 138.869C147.46 139.281 147.733 140.033 147.657 140.592C147.584 141.139 147.22 141.665 146.876 142.163C146.822 142.242 146.768 142.32 146.715 142.397C143.64 146.961 140.563 151.526 137.437 156.055C137.216 156.375 136.935 156.652 136.604 156.946ZM116.035 251.72C115.986 252.31 115.932 252.95 115.877 253.666C114.808 252.315 113.794 251.025 112.815 249.78L112.802 249.763L112.798 249.758C110.64 247.012 108.65 244.48 106.609 241.991C104.101 238.932 103.923 239.004 100.479 240.382L100.28 240.461C88.1875 245.296 76.0087 246.392 63.8989 240.604C51.3378 234.603 43.9875 222.043 44.9046 208.156C45.9815 191.85 54.1885 179.585 67.1883 170.356C77.2607 163.208 88.5829 159.76 100.98 161.107C125.152 163.733 138.062 185.467 130.521 208.502C128.204 215.581 124.456 221.875 119.216 227.199C117.724 228.714 117.118 230.433 117.022 232.44C116.908 234.816 116.798 237.192 116.688 239.569C116.549 242.578 116.41 245.587 116.262 248.596C116.213 249.573 116.132 250.548 116.035 251.719V251.72ZM81.2451 247.297C88.8183 247.205 96.0048 245.491 103.444 242.269C104.462 243.618 105.467 244.95 106.463 246.271L106.465 246.272L106.508 246.33L106.514 246.338C108.812 249.383 111.063 252.365 113.316 255.346C113.485 255.57 113.65 255.8 113.815 256.03C114.254 256.645 114.694 257.261 115.233 257.77C116.514 258.978 117.868 258.618 118.33 256.891C118.683 255.575 118.796 254.176 118.869 252.807C119.194 246.733 119.496 240.658 119.74 234.581C119.846 231.956 120.68 229.831 122.514 227.797C129.366 220.194 133.746 211.308 135.088 201.106C136.549 189.995 134.161 179.814 126.758 171.191C118.554 161.635 107.688 157.828 95.4514 158.049C71.9565 158.47 50.3378 175.111 43.7356 197.674C41.0101 206.986 41.2464 216.299 45.1917 225.305C51.1797 238.974 65.2847 247.49 81.2451 247.297ZM154.024 178.272C154.041 178.275 154.059 178.276 154.076 178.278C154.094 178.281 154.112 178.283 154.13 178.285C154.13 178.333 154.129 178.381 154.129 178.429C155.385 178.46 156.642 178.494 157.899 178.527L157.903 178.527C160.873 178.606 163.843 178.685 166.813 178.739L167.038 178.743C169.134 178.782 171.238 178.821 173.319 178.658C173.454 178.648 173.583 178.586 173.709 178.49C174.439 177.942 174.361 176.841 173.627 176.281C173.537 176.213 173.446 176.147 173.353 176.082C173.245 176.008 173.073 176.021 172.901 176.035C172.825 176.041 172.749 176.046 172.678 176.045C171.303 176.006 169.928 175.966 168.553 175.927H168.552C163.756 175.787 158.959 175.648 154.163 175.567C153.514 175.557 152.469 175.975 152.289 176.447C151.879 177.524 152.841 177.978 153.79 178.235C153.866 178.255 153.945 178.264 154.024 178.272ZM145.514 165.402C145.506 166.372 146.564 167 147.475 166.664C148.038 166.456 148.512 166.275 148.967 166.054C153.825 163.7 158.683 161.345 163.507 158.922C163.693 158.828 163.905 158.739 164.123 158.647C165.214 158.186 166.473 157.654 165.623 156.15C164.94 154.941 163.775 155.568 162.776 156.105C162.598 156.201 162.424 156.294 162.26 156.374C157.296 158.773 152.346 161.202 147.413 163.663C146.719 164.009 145.939 164.477 145.583 165.106C145.536 165.19 145.515 165.289 145.514 165.402Z" fill="#A1483A"/>
<path fill-rule="evenodd" clip-rule="evenodd" d="M243.09 153.747L231.358 190.906L220.935 224.203L208.471 265.528L201.833 288.95L199.896 296.824L200.732 299.076L219.76 306.965L219.439 332.195V351.045V362.71L202.543 390.709L201.363 394.296L204.795 404.44L211.482 404.102L226.845 393.85L235.982 380.955V373.647L236.641 358.597L241.073 309.367L246.335 308.389L254.552 260.688L264.779 203.156L267.741 187.482L269.232 188.352V201.219L267.741 308.926L278.491 310.618L279.677 338.138L281.56 363.469L281.142 375.05L282.092 392.816L287.349 393.634L312.755 394.679L340.388 391.391L343.253 380.225L341.055 376.525L331.055 371.9L313.128 367.628L298.185 363.929L298.847 341.157L299.212 305.143L310.113 297.19L307.495 265.528L303.358 216.061L298.185 153.747C298.185 153.747 278.085 153.348 267.741 153.348C257.397 153.348 243.09 153.747 243.09 153.747Z" fill="white"/>
<path fill-rule="evenodd" clip-rule="evenodd" d="M307.862 367.661C306.866 369.163 305.951 370.544 304.851 372.205C306.955 372.467 308.617 372.674 310.423 372.899C311.195 371.555 311.93 370.277 312.769 368.817C310.901 368.377 309.416 368.027 307.862 367.661ZM321.26 370.967C318.869 370.365 316.919 369.875 314.872 369.36C314.105 370.733 313.456 371.897 312.699 373.25C315.078 373.645 317.077 373.977 319.096 374.312C319.807 373.213 320.421 372.263 321.26 370.967ZM332.039 373.612C328.902 372.858 326.118 372.189 323.273 371.505C322.604 372.597 322.021 373.548 321.29 374.742C324.335 375.279 327.057 375.76 329.788 376.243C330.508 375.402 331.138 374.665 332.039 373.612ZM305.78 367.195C303.59 366.597 301.792 366.029 299.957 365.63C298.265 365.261 296.973 366.191 296.697 367.786C296.347 369.815 297.295 371.348 299.076 371.577C300.207 371.722 301.345 371.812 302.565 371.934C303.602 370.407 304.602 368.932 305.78 367.195ZM212.328 377.86C215.854 377.455 217.953 378.84 219.092 381.765C221.446 379.798 222.187 377.422 221.414 374.633C220.742 372.21 218.911 371.439 216.637 372.508C214.49 373.518 213.403 375.383 212.328 377.86ZM213.775 388.797C214.655 387.744 215.581 386.8 216.312 385.725C217.518 383.95 217.196 381.42 215.75 380.352C214.448 379.388 211.259 379.557 210.243 380.892C208.686 382.939 207.472 385.246 206.035 387.385C209.263 385.453 211.467 387.032 213.775 388.797ZM297.263 387.696C294.988 382.423 287.979 378.872 282.072 379.73C282.136 380.823 282.162 381.947 282.275 383.062C282.511 385.371 282.872 385.942 285.211 386.291C289.093 386.871 293.01 387.214 297.263 387.696ZM204.865 401.251C205.681 403.834 205.781 403.473 208.034 403.284C212.187 402.935 215.865 401.379 219.143 398.894C225.595 394.004 230.836 388.078 234.653 380.895C235.513 379.278 235.337 377.85 235.002 375.772C234.404 376.673 234.039 377.167 233.732 377.695C232.407 379.969 231.173 382.299 229.771 384.524C226.067 390.4 221.205 395.148 215.289 398.784C212.131 400.726 208.534 401.564 204.865 401.251ZM223.795 375.643C224.908 374.076 225.627 372.895 226.513 371.856C227.934 370.189 228.371 368.19 228.479 366.143C228.577 364.284 228.119 362.467 226.219 361.565C224.452 360.727 222.931 361.689 221.733 362.773C219.538 364.759 217.889 367.2 216.448 370.17C220.638 369.477 222.77 371.42 223.795 375.643ZM204.236 399.268C208.534 399.268 211.338 398.886 213.213 398.101C213.614 397.933 214.413 396.588 214.439 396.112C214.597 393.17 213.385 390.864 210.944 389.202C208.709 387.681 206.848 388.976 205.023 390.062C202.934 391.305 202.191 393.317 202.845 395.501C203.515 397.74 203.728 398.044 204.236 399.268ZM334.86 373.874C332.303 374.312 328.444 382.072 329.214 386.646C332.39 386.374 335.464 385.658 338.508 384.683C341.975 383.573 342.799 379.09 339.964 376.81C338.576 375.693 337.143 374.545 334.86 373.874ZM216.72 395.458C216.995 395.417 217.133 395.126 217.249 395.043C224.941 389.523 230.279 381.173 234.105 372.754C234.105 372.754 233.786 371.488 233.116 370.687C231.938 369.544 231.319 369.26 230.887 369.544C229.748 370.295 228.249 372.518 227.531 373.938C227.348 374.299 227.037 374.595 226.792 374.926C222.921 380.146 219.051 385.368 215.231 390.522C215.701 392.037 216.219 393.844 216.72 395.458ZM340.301 386.51C321.135 391.052 302.088 390.489 282.869 388.095C282.869 388.611 282.804 389.258 282.88 389.888C283.182 392.409 283.288 392.608 285.907 392.799C290.836 393.16 295.772 393.539 300.711 393.634C310.28 393.816 319.829 393.353 329.331 392.155C332.666 391.735 335.982 391.174 339.391 390.665C339.724 389.146 340.013 387.824 340.301 386.51ZM268.829 300.693C268.829 302.442 268.901 304.068 268.814 305.687C268.657 308.635 268.617 308.633 271.552 309.057C271.715 309.08 271.879 309.105 272.043 309.117C278.931 309.591 285.705 309.108 292.3 306.876C297.657 305.065 302.657 302.618 306.988 298.941C307.595 298.426 308.421 297.772 308.496 297.108C308.704 295.288 308.637 293.424 308.279 291.18C302.428 295.478 296.232 297.993 289.55 299.417C282.821 300.851 276.032 301.184 268.829 300.693ZM200.806 297.808C202.639 298.921 204.182 300.037 205.869 300.855C217.165 306.333 229.2 308.112 241.634 307.804C242.931 307.772 244.226 307.673 245.583 307.603C245.89 306.044 246.183 304.682 246.422 303.311C246.668 301.899 246.86 300.478 247.107 298.853C231.239 300.216 216.826 296.366 202.912 288.971C202.238 291.799 201.561 294.639 200.806 297.808ZM281.954 377.293C292.181 378.419 294.635 379.847 299.978 387.742C308.826 388.018 317.776 388.068 326.542 386.959C326.664 383.883 327.416 381.059 328.832 378.007C327.147 377.709 325.159 377.413 323.537 377.166C315.634 375.965 307.728 374.778 299.82 373.601C299.253 373.517 298.65 373.454 298.094 373.555C293.988 374.296 289.89 373.993 285.79 373.528C284.523 373.385 283.256 373.236 281.954 373.086V377.293ZM236.231 349.605C237.395 337.45 238.567 325.206 239.762 312.72C233.205 314.253 226.927 313.311 220.597 312.796V351.676C221.155 351.736 221.155 351.736 221.372 351.706C226.256 351.027 231.138 350.329 236.231 349.605ZM279.229 314.573C279.953 329.121 280.807 343.399 282.169 357.732C287.382 357.192 292.253 356.686 297.289 356.165C297.578 341.58 297.862 327.187 298.146 312.775C294.822 313.419 291.866 314.227 288.861 314.509C285.779 314.798 282.648 314.573 279.229 314.573ZM209.358 290.036C218.323 294.002 227.663 296.616 237.496 297.151C240.122 297.295 242.772 297.083 245.407 296.948C246.385 296.898 247.312 296.972 247.475 296.674C247.475 296.674 247.731 295.695 247.914 294.643C248.989 288.482 250.023 282.315 251.071 276.151C254.157 257.979 257.165 239.794 260.354 221.641C262.588 208.919 265.065 196.24 267.443 183.543C267.746 181.926 268.163 180.329 268.417 178.705C268.496 178.198 268.791 177.001 268.791 177.001C268.791 177.001 269.582 176.737 270.177 176.598C271.537 176.279 272.895 175.876 274.276 175.745C276.001 175.582 276.566 176.322 276.157 177.957C275.998 178.592 275.723 179.199 275.476 179.809C275.042 180.876 274.584 181.934 274.145 182.999C272.894 186.027 271.205 188.962 270.524 192.113C269.857 195.198 270.183 198.504 270.134 201.714C269.948 214.062 269.842 226.412 269.597 238.759C269.343 251.515 268.876 264.266 268.672 277.023C268.566 283.688 268.823 290.359 268.924 297.027C268.93 297.43 269.011 297.832 269.052 298.197C277.366 301.555 298.667 296.4 308.286 288.639C307.973 284.03 307.7 279.271 307.315 274.521C306.604 265.743 305.823 256.971 305.079 248.196C304.508 241.471 303.903 234.748 303.396 228.018C302.921 221.699 302.684 215.36 302.113 209.051C301.141 198.315 299.976 187.597 298.917 176.869C298.304 170.645 297.418 161.345 296.836 155.118C296.805 154.791 296.712 154.415 296.831 154.142C296.975 153.815 297.3 153.374 297.578 153.35C297.885 153.323 298.364 153.642 298.523 153.94C298.742 154.352 298.765 154.882 298.815 155.367C300.277 169.447 302.171 186.589 303.466 200.684C304.286 209.615 304.593 218.592 305.307 227.534C306.44 241.728 307.793 255.905 308.911 270.1C309.597 278.796 309.985 287.515 310.591 296.217C310.701 297.795 310.269 298.923 309.005 299.81C306.649 301.465 304.36 303.223 301.935 304.771C301.415 305.104 300.324 305.911 300.324 305.911C300.324 305.911 300.264 306.802 300.26 307.489C300.244 311.192 300.132 314.896 300.056 318.6C299.764 332.838 299.47 347.078 299.179 361.316C299.168 361.882 299.178 362.449 299.178 363.203C300.484 363.625 301.7 364.098 302.957 364.411C312.156 366.7 321.359 368.973 330.574 371.197C331.691 371.466 332.822 371.669 333.947 371.836C335.059 372.002 335.651 372.114 336.991 372.599C338.47 373.133 339.733 374.148 340.984 375.1C343.567 377.064 344.309 379.851 343.168 383.175C342.418 385.36 341.935 387.621 341.623 389.909C341.379 391.693 340.546 392.456 338.921 392.728C324.548 395.125 310.097 396.149 295.532 395.323C292.074 395.127 288.61 394.994 285.16 394.7C282.059 394.436 281.403 393.949 281.091 390.82C280.555 385.438 280.168 380.035 279.922 374.633C279.764 371.141 279.767 367.639 280.068 364.157C280.554 358.546 279.652 353.027 279.308 347.471C278.602 336.052 277.873 324.635 277.148 313.217C277.112 312.654 277.029 312.092 276.941 311.277C275.588 311.219 274.286 311.245 273.008 311.087C271.381 310.887 269.761 310.588 268.16 310.236C267.036 309.988 266.674 309.218 266.68 308.032C266.734 296.097 266.617 284.159 266.775 272.224C266.927 260.702 267.345 249.183 267.647 237.662C267.671 236.757 267.714 235.852 267.73 234.947C267.958 221.447 268.183 207.948 268.405 194.449C268.423 193.382 268.408 192.316 268.014 191.161C267.815 192.009 267.577 192.851 267.423 193.707C263.673 214.684 259.863 235.652 256.209 256.646C253.275 273.507 250.532 290.402 247.705 307.281C247.327 309.535 247.33 309.53 245.102 309.625C244.128 309.666 243.155 309.73 242.072 309.79C241.781 312.562 241.486 315.17 241.24 317.783C240.275 328.027 239.279 338.267 238.387 348.518C237.759 355.73 237.216 362.952 236.774 370.179C236.65 372.213 236.955 374.284 237.177 376.326C237.417 378.528 237.07 380.551 235.998 382.514C231.853 390.099 226.202 396.335 219.141 401.294C215.84 403.612 212.137 404.921 208.092 405.253C204.918 405.513 203.958 404.939 202.909 401.961C202.281 400.178 201.608 398.405 201.092 396.589C200.34 393.934 200.781 391.603 202.401 389.169C206.414 383.14 210.128 376.91 213.884 370.715C215.331 368.329 216.6 365.833 217.879 363.35C218.213 362.703 218.391 361.986 218.396 361.258C218.516 346.439 218.625 331.619 218.675 316.799C218.685 313.76 218.45 310.721 218.32 307.48C217.509 307.244 216.671 306.976 215.82 306.755C210.514 305.376 205.53 303.304 200.948 300.243C199.139 299.035 198.696 297.652 199.253 295.633C203.345 280.803 207.027 265.851 211.531 251.148C220.01 223.458 228.957 195.91 237.705 168.301C239.096 163.91 240.464 159.512 241.841 155.118C241.94 154.803 241.953 154.427 242.141 154.185C242.163 154.156 242.186 154.129 242.209 154.102C242.689 153.55 243.63 153.654 243.893 154.335C243.926 154.42 243.942 154.503 243.936 154.585C243.858 155.555 243.562 156.52 243.263 157.458C239.547 169.14 235.772 180.803 232.097 192.498C224.623 216.279 217.145 240.059 209.792 263.878C207.513 271.259 205.632 278.763 203.437 286.686C205.516 287.876 207.351 289.149 209.358 290.036Z" fill="black"/>
<path fill-rule="evenodd" clip-rule="evenodd" d="M283.392 28.4511C292.078 34.8262 293.834 43.7047 288.661 55.0869C285.516 62.0053 278.586 65.1279 267.869 64.4541L267.543 64.4328L268.36 72.5851C269.295 73.7806 269.865 75.3675 269.865 77.1086C269.865 80.8272 267.266 83.8421 264.061 83.8421C260.855 83.8421 258.256 80.8272 258.256 77.1086C258.256 76.7194 258.285 76.3376 258.34 75.9661L257.55 75.9101L257.347 73.4617C256.92 68.4399 256.501 64.3477 256.09 61.1852C254.759 63.0588 252.483 64.2934 249.898 64.2934C245.795 64.2934 242.469 61.1817 242.469 57.3428C242.469 54.6702 244.081 52.35 246.445 51.1871C244.406 49.7223 243.612 47.7596 243.945 46.2026C244.561 43.3303 247.269 44.041 250.291 41.7164L250.926 40.9162C257.591 32.4947 258.38 30.4763 267.015 28.4511C272.951 27.0593 278.41 27.0593 283.392 28.4511Z" fill="white"/>
<path fill-rule="evenodd" clip-rule="evenodd" d="M244.961 55.8986C244.42 57.2314 244.304 58.6811 244.517 60.0912C244.843 62.2541 245.303 62.9305 246.935 63.8002C250.327 65.6078 254.355 64.2659 255.709 60.8662C256.583 58.6702 256.446 55.1375 253.655 53.237C253.353 53.0054 252.924 52.8517 252.532 52.7926C249.351 52.316 246.377 52.4085 244.961 55.8986ZM288.769 35.2396C287.395 33.0367 285.751 31.892 283.653 30.5232C280.074 28.1877 276.034 28.0984 271.924 29.0193C268.718 29.7375 265.973 31.3377 263.472 33.2469C261.513 34.7422 259.639 36.3326 257.764 37.9225L257.764 37.9234C257.258 38.3526 256.751 38.7823 256.244 39.2097C255.728 39.6433 255.208 40.1984 254.691 40.7489C253.634 41.877 252.595 42.9848 251.66 42.9848C250.694 42.9848 248.72 43.4939 246.925 44.1264C246.862 44.1859 246.8 44.2459 246.74 44.3067C244.593 46.4597 245.094 48.9623 248.05 49.9667C248.405 50.0875 248.767 50.1913 249.135 50.2817C250.457 50.6066 251.851 50.7604 253.227 50.912C253.495 50.9411 253.761 50.9706 254.026 51.001C256.358 51.2691 256.761 51.4537 256.986 53.472C257.002 53.6136 257.018 53.7557 257.033 53.8977C258.265 56.0055 258.543 58.7667 257.812 61.0773C258.235 65.0605 258.646 69.0453 259.053 73.0298C259.142 73.8895 259.143 74.7701 259.043 75.6263C259.009 75.9091 258.54 76.3322 258.242 76.3539C257.922 76.377 257.387 76.0685 257.27 75.7879C257.119 75.4273 257.096 75.0203 257.072 74.6145C257.063 74.4629 257.054 74.3113 257.039 74.1628C256.769 71.5545 256.605 69.7951 256.442 68.0471C256.326 66.8085 256.211 65.5752 256.059 64.0496C254.546 65.7047 252.542 66.5683 249.991 66.4554C246.904 66.3185 244.344 65.3519 243.146 62.4279C243.106 62.3328 243.042 62.2463 242.968 62.1468C242.93 62.0964 242.89 62.0421 242.849 61.9818C242.355 61.8792 241.858 61.7776 241.357 61.6759L241.357 61.6755C240.227 61.4453 239.084 61.212 237.946 60.9578C234.85 60.2663 232.389 58.6515 230.427 56.3722C224.484 49.4645 221.515 41.5091 221.62 32.7526C221.724 24.2274 225.097 16.8968 232.778 11.754C235.512 9.92268 238.418 8.18923 241.497 6.94437C248.662 4.04791 256.092 1.79512 263.861 0.729979C269.611 -0.0587453 275.201 0.775028 280.603 2.68697C281.62 3.04645 282.636 3.54199 283.473 4.17871C291.642 10.3978 295.633 18.1789 293.672 28.1071C293.352 29.7279 292.962 31.3451 292.455 32.9229C292.234 33.6118 291.891 34.2669 291.496 35.022C291.461 35.0897 291.425 35.1579 291.389 35.2274C292.234 37.393 292.723 39.6806 292.815 42.0994C292.938 45.3397 292.863 48.5514 291.99 51.7304C290.003 58.976 284.228 62.3797 277.081 64.1881C275.461 64.5982 273.731 64.6326 271.937 64.6686C271.096 64.6856 270.24 64.7025 269.376 64.7585C269.39 64.908 269.402 65.0731 269.416 65.249V65.2494C269.448 65.6691 269.484 66.1504 269.55 66.6274C269.822 68.5896 270.103 70.551 270.384 72.512C270.505 73.3517 270.625 74.1919 270.745 75.0316C270.762 75.1563 270.773 75.2814 270.779 75.4069C270.81 76.1089 270.816 76.9061 269.823 76.8913C269.444 76.8857 268.844 76.1015 268.749 75.6063C268.362 73.5893 267.986 70.7834 267.775 68.7434C267.659 68.2391 267.597 67.8733 267.548 67.5918C267.437 66.938 267.403 66.7373 266.953 66.299C266.73 66.0813 266.122 65.4171 265.951 65.1617C265.55 64.5587 265.241 64.1321 264.974 63.7637C264.43 63.0122 264.06 62.5018 263.431 61.2237C263.408 61.1294 263.401 61.0317 263.405 60.9318C263.434 60.2154 264.139 59.7046 264.898 59.841C265.131 59.8827 265.337 59.9513 265.484 60.0786C269.451 63.5165 274.016 63.3306 278.618 61.7841C285.243 59.5569 289.724 55.5246 290.524 48.6383C291.051 44.113 290.99 39.6715 289.22 35.4924C288.998 35.4164 288.831 35.34 288.769 35.2396ZM250.556 51.0215C250.214 50.9341 249.858 50.8494 249.47 50.7704C248.879 50.6496 248.237 50.8364 247.619 51.0154C246.875 51.2308 246.167 51.4363 245.629 51.0831C244.593 50.4029 243.82 49.4558 243.496 48.1243C243.517 48.299 243.55 48.4693 243.599 48.6313C244.036 50.0944 244.744 51.4285 245.899 52.0119C247.809 51.1657 248.947 51.1062 250.194 51.041H250.194C250.314 51.0349 250.434 51.0284 250.556 51.0215Z" fill="black"/>
<path fill-rule="evenodd" clip-rule="evenodd" d="M187.14 120.5L186.189 111.189V108.831L189.887 101.55L211.053 87.7143L236.946 79.0271C236.946 79.0271 251.633 75.45 257.706 74.847C263.779 74.2441 270.413 75.45 270.413 75.45L288.831 76.3126L299.813 83.3419L307.559 97.4721L313.964 117.193L338.816 100.243L342.119 103.061L350.044 93.85L355.416 90.8655L356.46 93.0419L352.348 98.8544L359.289 94.3422L368.713 91.5046L370.381 93.0419L362.018 100.243L362.989 104.407L364.631 104.614V108.831L360.927 113.055L350.891 117.193L345.353 122.103L330.031 137.769L316.793 146.166L310.686 145.201L301.516 135.278L307.559 152.449L295.937 158.677L290.07 159.28L288.831 157.276L265.326 160.262L250.611 162.212L237.851 159.28L245.078 173.525V175.351H243.226L238.679 171.241L235.842 184.477L234.046 186.787L231.793 185.14L229.161 188.029L228.261 186.787L229.161 177.892L223.015 182.16L222.161 181.371L223.015 179.252L228.261 174.477L205.861 155.517L195.847 139.094L187.14 120.5ZM237.97 152.157V103.318L225.52 108.06L209.648 116.25L209.762 116.448L209.84 116.582C209.891 116.669 209.967 116.799 210.064 116.966C210.259 117.3 210.543 117.783 210.896 118.381C211.602 119.577 212.587 121.233 213.704 123.071C215.936 126.746 218.695 131.156 220.798 134.079C222.9 137.003 226.349 141.226 229.267 144.714C230.727 146.459 232.056 148.022 233.02 149.148C233.502 149.712 233.893 150.166 234.163 150.479C234.298 150.636 234.403 150.757 234.475 150.84L234.583 150.965L234.584 150.966L234.622 151.01L237.97 152.157ZM209.95 116.339L209.762 116.448C209.762 116.448 209.762 116.447 209.95 116.339ZM210.439 116.747C210.363 116.617 210.301 116.509 210.253 116.427L225.697 108.457L237.535 103.948V151.549L234.873 150.637L234.803 150.556C234.732 150.473 234.627 150.352 234.492 150.196C234.222 149.883 233.832 149.429 233.35 148.866C232.387 147.74 231.059 146.179 229.601 144.436C226.681 140.947 223.242 136.735 221.151 133.826C219.059 130.917 216.307 126.52 214.075 122.846C212.96 121.01 211.975 119.355 211.27 118.16C210.917 117.562 210.634 117.08 210.439 116.747Z" fill="white"/>
<path fill-rule="evenodd" clip-rule="evenodd" d="M356.525 104.621C358.004 104.038 359.521 103.44 361.656 103.299C361.703 102.751 361.197 101.268 360.287 101.503C360.089 101.554 359.864 101.61 359.618 101.672C357.768 102.133 354.765 102.88 353.708 103.947C353.309 104.35 352.854 105.206 354.242 105.43C355.043 105.204 355.779 104.915 356.525 104.621ZM367.087 94.5833C367.479 94.3105 367.83 93.9769 368.277 93.5494C368.59 93.251 368.356 92.7284 367.925 92.7553C365.79 92.8887 364.162 93.5299 362.629 94.3305C359.19 96.1268 355.809 98.0409 352.463 100.007C352.287 100.11 352.115 100.203 351.949 100.282C350.69 100.876 349.534 99.2685 350.455 98.2237C351.266 97.3037 352.072 96.3888 352.876 95.4765C353.517 94.7502 354.155 94.0251 354.794 93.3005C355.052 93.0086 355.212 92.6337 355.2 92.2449C355.198 92.1802 355.189 92.1237 355.168 92.082C353.126 92.2479 351.231 93.5659 349.861 94.9791C347.909 96.9913 346.018 99.0839 344.31 101.303C341.939 104.382 341.987 104.483 343.667 107.998L343.731 108.133C343.86 108.403 343.988 108.672 344.115 108.942C344.518 109.794 344.92 110.646 345.358 111.479C346.035 112.767 346.732 114.043 347.404 115.272C347.677 115.772 347.946 116.263 348.207 116.744C349.016 116.441 349.807 116.156 350.582 115.878C352.32 115.251 353.98 114.654 355.59 113.945C357.543 113.086 359.501 112.13 361.229 110.898C363.098 109.566 363.508 108.013 362.772 105.978C362.641 105.616 362.269 105.398 361.89 105.456C361.488 105.517 361.076 105.571 360.665 105.625C359.617 105.763 358.571 105.9 357.688 106.156C356.375 106.536 355.011 107.151 353.821 108.032C353.485 108.226 353.221 109.561 354.129 109.42C355.177 109.377 356.215 109.242 357.249 109.108C358.273 108.975 359.291 108.843 360.309 108.801C360.825 108.78 361.235 109.244 361.129 109.75C360.996 110.392 360.441 110.641 359.841 110.697C357.798 110.888 355.733 111.061 353.689 110.972C352.26 110.908 351.753 110.076 351.821 108.59C351.846 108.054 352.774 106.747 352.774 106.747C350.76 106.46 350.812 104.257 352.173 103.177C353.452 102.162 354.898 101.607 356.421 101.079C359.725 99.9349 362.19 98.1334 364.821 96.2111C365.556 95.6742 366.304 95.1277 367.087 94.5833ZM340.78 124.672C342.157 123.28 343.534 121.888 344.915 120.501C345.35 120.066 345.724 119.57 346.079 119.099C346.238 118.888 346.394 118.682 346.549 118.488C343.738 112.794 341.013 107.274 338.302 101.782C338.189 101.814 338.093 101.835 338.011 101.853C337.869 101.885 337.767 101.907 337.687 101.961C334.665 104.015 331.645 106.071 328.624 108.128C324.474 110.953 320.325 113.777 316.171 116.596C314.672 117.614 313.685 118.943 313.253 120.722C313.039 121.599 312.74 122.485 312.299 123.265C312.268 123.32 312.23 123.371 312.184 123.419C311.643 123.993 310.614 123.721 310.465 122.945C310.448 122.854 310.446 122.767 310.467 122.686C310.797 121.355 311.237 120.037 311.787 118.779C311.844 118.648 311.899 118.518 311.954 118.391C312.201 117.816 312.433 117.276 312.718 116.796C312.718 116.796 312.119 115.589 311.971 115.142C311.559 113.903 311.193 112.648 310.827 111.392C310.313 109.631 309.8 107.87 309.161 106.155C308.859 105.344 308.56 104.532 308.26 103.719C306.676 99.418 305.087 95.1064 303.09 91.0007C297.417 79.3397 285.441 74.2562 271.333 76.0463C271.399 76.4523 271.458 76.8396 271.516 77.2137C271.634 77.9738 271.743 78.6798 271.881 79.3806C273.294 86.5932 274.711 93.8049 276.128 101.017C277.211 106.529 278.295 112.041 279.376 117.554C279.516 118.269 279.656 118.985 279.796 119.701C281.891 130.418 283.987 141.137 287.473 151.518C288.041 153.209 288.768 154.847 289.496 156.487C289.833 157.245 290.169 158.003 290.49 158.767C296.585 157.768 301.51 155.149 306.025 151.559C305.882 151.21 305.746 150.885 305.617 150.577C305.355 149.95 305.12 149.39 304.909 148.82C304.211 146.939 303.482 145.067 302.753 143.195C301.086 138.914 299.419 134.632 298.123 130.242C295.811 122.411 293.755 114.504 291.7 106.598C290.949 103.709 290.198 100.821 289.434 97.9366C289.249 97.2333 289.208 96.4639 289.265 95.738C289.288 95.4448 289.712 95.0747 290.035 94.9517C290.244 94.8718 290.692 95.102 290.868 95.3245C291.099 95.616 291.218 96.0104 291.33 96.3823C291.336 96.4018 291.342 96.4214 291.347 96.4405C292.191 99.2303 293.031 102.021 293.871 104.811C295.126 108.98 296.381 113.149 297.648 117.314C299.693 124.036 301.797 130.74 305.12 136.976C305.779 138.214 306.456 139.449 307.215 140.627C309.306 143.872 313.274 145.317 316.941 144.14C321.366 142.719 325.09 140.046 328.392 136.923C332.609 132.933 336.695 128.802 340.78 124.672ZM263.561 158.306C263.567 158.591 263.573 158.887 263.574 159.198C271.533 159.008 279.219 158.618 286.775 156.66C286.751 156.487 286.736 156.345 286.724 156.223C286.703 156.01 286.687 155.858 286.638 155.719C282.877 145.008 280.402 133.97 278.301 122.837C277.669 119.49 277.039 116.142 276.408 112.794C275.127 105.994 273.846 99.1925 272.556 92.393L272.542 92.3213C272.433 91.7471 272.323 91.1662 272.148 90.5285C268.452 92.1597 264.795 92.1741 260.923 91.7987C261.003 92.3183 261.06 92.8214 261.116 93.3144C261.178 93.8609 261.238 94.3952 261.328 94.9261C261.581 96.4261 261.862 97.9227 262.144 99.4197C262.749 102.637 263.354 105.855 263.675 109.101C265.241 124.944 264.834 140.802 263.58 156.65C263.537 157.185 263.549 157.723 263.561 158.306ZM211.107 116.451C217.495 128.773 226.415 139.237 235.919 149.436C236.832 139.792 236.722 130.171 236.612 120.551C236.553 115.345 236.493 110.139 236.596 104.93C231.061 105.88 213.725 113.724 211.107 116.451ZM240.433 158.566C240.272 158.882 240.105 159.21 239.922 159.551C246.8 161.003 253.327 161.005 260.012 160.03C260.168 131.905 259.527 104.013 256.161 75.7538C253.537 76.3652 250.941 76.9627 248.365 77.5557C242.689 78.8619 237.11 80.1459 231.549 81.5066C218.543 84.69 206.862 90.7905 195.771 98.1225C193.077 99.9045 190.567 101.932 188.614 104.562C186.918 106.845 186.196 109.372 186.369 112.232C186.582 115.757 187.536 119.09 188.926 122.274C190.42 125.695 192.01 129.073 193.6 132.452C194.262 133.859 194.924 135.266 195.579 136.676C202.491 151.55 213.394 162.995 226.424 172.607C226.543 172.695 226.688 172.746 226.884 172.816C226.993 172.855 227.119 172.899 227.264 172.959C227.405 172.709 227.552 172.463 227.697 172.218C228.008 171.695 228.316 171.178 228.563 170.632C229.612 168.32 230.649 166.001 231.686 163.683C232.741 161.325 233.796 158.968 234.863 156.615C235.584 155.024 236.263 153.371 236.263 153.371C236.263 153.371 235.187 152.188 234.044 150.934C224.155 140.092 215.087 128.641 208.065 115.683C207.635 114.888 207.213 114.075 206.928 113.224C206.838 112.956 207.121 112.37 207.391 112.228C207.66 112.087 208.256 112.19 208.479 112.415C208.835 112.774 209.119 113.205 209.398 113.629C209.511 113.801 209.624 113.973 209.74 114.137C210.849 113.57 211.939 112.993 213.021 112.419C215.42 111.147 217.779 109.896 220.22 108.837C223.801 107.283 227.445 105.875 231.09 104.467C232.607 103.88 234.124 103.294 235.637 102.697C235.714 102.667 235.79 102.636 235.867 102.604C236.174 102.479 236.482 102.353 236.802 102.284C238.035 102.017 238.5 102.333 238.635 103.557C238.679 103.961 238.67 104.37 238.662 104.779C238.658 104.95 238.655 105.121 238.655 105.292C238.657 106.515 238.661 107.737 238.664 108.96C238.671 111.789 238.679 114.617 238.671 117.445C238.664 119.695 238.663 121.945 238.661 124.195C238.658 131.12 238.655 138.046 238.486 144.968C238.459 146.111 238.185 148.754 238.163 148.969L238.162 148.983C238.188 148.773 239.882 150.323 240.374 150.836C241.996 152.52 242.854 154.623 241.464 156.716C241.085 157.286 240.773 157.9 240.433 158.566ZM228.713 177.1C229 176.804 229.437 176.712 229.811 176.894C230.1 177.034 230.254 177.356 230.211 177.675C230.118 178.378 229.924 179.337 229.716 180.365C229.333 182.252 228.904 184.372 228.964 185.567L228.988 185.84C229.028 186.299 229.657 186.395 229.832 185.969C230.139 185.221 230.437 184.387 230.534 183.881C230.818 182.415 230.981 181.316 231.122 180.371C231.34 178.898 231.504 177.798 231.981 176.26C232.03 176.103 232.071 175.94 232.112 175.777C232.216 175.369 232.32 174.96 232.541 174.632C232.764 174.302 233.397 173.934 233.674 174.04C234.006 174.166 234.366 174.79 234.34 175.173C234.292 175.883 234.082 176.587 233.874 177.281C233.844 177.381 233.814 177.481 233.785 177.581C233.443 178.744 233.379 179.509 233.285 180.647C233.231 181.292 233.168 182.058 233.038 183.084C232.988 183.475 232.946 183.692 232.902 183.916C232.845 184.211 232.786 184.517 232.705 185.244C232.591 186.285 234.045 186.046 234.174 185.61C234.215 185.469 234.256 185.331 234.296 185.195C234.565 184.283 234.808 183.461 234.974 182.624C235.366 180.646 235.733 178.663 236.1 176.679C236.395 175.086 236.69 173.493 236.998 171.903C237.028 171.747 237.066 171.593 237.11 171.44C237.423 170.346 238.788 169.998 239.613 170.78C239.82 170.977 240.007 171.191 240.191 171.402C240.393 171.635 240.594 171.864 240.815 172.063C241.339 172.533 241.652 172.973 241.968 173.417C242.151 173.673 242.335 173.931 242.562 174.198C242.862 174.551 243.312 174.743 243.775 174.711L243.79 174.71C244.006 174.695 244.152 174.479 244.08 174.274C242.455 169.634 239.919 164.392 236.254 161.027C236.271 161.043 235.833 162.207 235.813 162.251C235.323 163.317 234.883 164.306 234.455 165.267C233.087 168.34 231.839 171.143 229.447 175.356C229.073 176.016 228.654 176.238 227.925 176.45C227.865 176.467 227.733 176.438 227.595 176.406C227.416 176.366 227.227 176.324 227.169 176.377C226.875 176.641 226.54 176.925 226.187 177.222C225.007 178.216 223.635 179.374 222.986 180.555C222.957 181.106 223.506 181.137 223.698 181.038C224.973 180.38 227.519 178.332 228.713 177.1ZM368.293 90.5381C369.073 90.4251 369.854 90.3117 370.535 91.1801C371.314 92.1745 371.205 93.6094 370.328 94.5178C369.589 95.2819 368.732 95.9526 367.883 96.5943C366.949 97.2997 365.872 97.9879 364.791 98.6777C363.97 99.2025 363.147 99.7281 362.384 100.263C363.073 100.993 363.718 102.546 363.408 103.542C363.861 103.68 364.618 104.375 364.885 104.993C365.881 107.304 365.23 110.368 362.952 112.157C361.158 113.566 359.139 114.981 356.993 115.589C351.582 117.12 347.619 120.312 343.993 124.515C338.864 130.459 333.28 136.04 326.967 140.762C324.407 142.677 321.59 144.333 318.696 145.692C314.218 147.795 310.164 146.62 306.645 143.299C306.596 143.252 306.545 143.207 306.491 143.158C305.989 142.708 305.211 142.01 302.669 137.891C302.96 138.68 303.816 140.582 304.655 142.444C305.438 144.182 306.205 145.886 306.482 146.62C306.738 147.295 307.002 147.966 307.267 148.638C307.548 149.351 307.829 150.064 308.099 150.781C308.412 151.613 308.395 152.361 307.6 152.997C302.747 156.879 297.414 159.733 291.215 160.773C289.557 161.051 288.533 160.282 287.911 158.733C287.03 158.888 286.157 159.058 285.289 159.228C283.382 159.6 281.5 159.967 279.599 160.157C276.669 160.449 275.199 160.544 273.507 160.653C272.258 160.733 270.889 160.822 268.723 161.003C268.545 161.018 268.208 161.013 267.783 161.007C266.405 160.987 264.106 160.954 263.302 161.538C261.954 162.613 261.023 162.635 260.301 162.652C260.079 162.657 259.877 162.662 259.689 162.697C254.584 163.633 249.482 163.275 244.382 162.627C243.514 162.517 242.644 162.425 241.669 162.322C241.181 162.27 240.667 162.216 240.113 162.155C240.271 162.429 240.412 162.671 240.541 162.892C240.787 163.316 240.99 163.664 241.186 164.015C241.551 164.67 241.92 165.323 242.289 165.976C243.302 167.767 244.315 169.558 245.248 171.39C245.651 172.178 245.888 173.127 245.931 174.024C246.026 176.017 243.909 177.325 242.221 176.264C241.781 175.987 241.394 175.62 241.009 175.256C240.913 175.164 240.816 175.072 240.718 174.982C240.402 174.689 240.099 174.384 239.698 173.981C239.494 173.776 239.266 173.546 238.997 173.279C238.851 173.938 238.711 174.561 238.576 175.16C238.288 176.441 238.025 177.61 237.784 178.785C237.512 180.107 237.26 181.433 237.007 182.759C236.86 183.531 236.713 184.303 236.562 185.074C236.509 185.342 236.448 185.608 236.366 185.869C235.459 188.776 233.004 189.167 231.695 186.878C231.497 187.108 231.262 187.474 231.014 187.862C230.647 188.434 230.252 189.052 229.901 189.34C228.765 190.274 227.6 189.865 227.289 188.427C227.023 187.192 227.056 185.868 227.11 184.592C227.149 183.674 227.662 181.063 227.98 179.919C228.038 179.782 228.083 179.644 228.111 179.505C228.074 179.599 228.029 179.742 227.98 179.919C227.566 180.89 226.486 181.761 226.095 181.979C225.894 182.091 225.695 182.211 225.497 182.331C225.056 182.599 224.616 182.866 224.141 183.041C223.129 183.412 222.014 183.749 221.145 182.766C220.225 181.724 220.801 180.641 221.479 179.842C222.403 178.753 223.41 177.735 224.5 176.635C224.974 176.156 225.464 175.662 225.97 175.139C225.741 174.938 225.503 174.722 225.255 174.5C224.685 173.987 224.07 173.434 223.433 172.906C222.064 171.775 220.685 170.656 219.307 169.537C218.631 168.989 217.955 168.44 217.28 167.89C208.645 160.852 201.598 152.46 196.396 142.617C193.117 136.408 190.153 130.027 187.218 123.644C185.592 120.109 184.53 116.366 184.289 112.423C184.084 109.062 184.893 106.05 186.914 103.341C188.974 100.579 191.581 98.4218 194.404 96.5274C206.51 88.4038 219.423 82.0414 233.708 78.7501C237.13 77.9616 240.562 77.2157 243.993 76.4699C246.774 75.8656 249.554 75.2613 252.33 74.6343C253.38 74.3971 254.41 74.0747 255.584 73.7075C255.792 73.6424 256.005 73.5758 256.224 73.508C257.298 73.1746 258.464 73.7858 258.738 74.8772C258.811 75.169 258.867 75.4809 258.912 75.8014C259.439 79.5671 259.967 83.332 260.498 87.0966C260.566 87.5814 260.643 88.0654 260.726 88.5845C260.767 88.8413 260.809 89.1067 260.852 89.3851C264.608 90.3382 268.089 90.0515 271.657 88.2452C271.517 87.5949 271.377 86.952 271.239 86.3151C270.918 84.8316 270.602 83.3772 270.301 81.9197C270.213 81.4923 270.123 81.0648 270.033 80.637C269.68 78.9609 269.328 77.284 269.058 75.5944C268.764 73.7523 269.139 73.4784 270.965 73.6165C271.576 73.6631 272.193 73.6196 272.811 73.5761C273.182 73.55 273.552 73.5239 273.922 73.5172C279.337 73.4177 284.646 74.0418 289.747 75.9663C295.784 78.2434 300.358 82.2985 303.692 87.7491C307.123 93.3583 309.358 99.4988 311.306 105.746C311.973 107.887 312.606 110.04 313.256 112.25C313.556 113.271 313.86 114.304 314.173 115.355C315.183 114.639 316.163 113.936 317.126 113.246C319.235 111.733 321.26 110.281 323.323 108.887C327.278 106.212 331.277 103.603 335.276 100.994C335.57 100.802 335.865 100.61 336.159 100.418C339.095 98.5022 339.116 98.5183 341.952 100.695L341.973 100.711C342.353 100.245 342.724 99.769 343.094 99.2928C343.934 98.2138 344.775 97.1334 345.729 96.1642C347.284 94.5842 348.995 93.1428 350.749 91.7818C351.506 91.1932 352.51 90.8691 353.451 90.5846C353.501 90.5698 353.551 90.5541 353.602 90.5389C354.737 90.1932 355.992 89.8104 356.894 90.9699C357.737 92.052 357.156 93.1667 356.594 94.2098C356.519 94.3492 356.054 95.2041 355.627 95.4139C356.391 95.0408 357.522 94.47 358.315 94.0699C358.494 93.9795 358.655 93.8978 358.792 93.8292L358.867 93.7914C361.724 92.3531 364.581 90.9147 367.836 90.5972C367.988 90.5824 368.141 90.5602 368.293 90.5381ZM277.882 84.9354C278.446 85.4811 278.416 86.4724 277.807 86.9598C277.658 87.0797 277.512 87.1683 277.357 87.2122C276.628 87.4207 275.96 86.5749 276.144 85.5992C276.18 85.405 276.277 85.2261 276.403 85.0523C276.762 84.5557 277.431 84.498 277.864 84.9176L277.882 84.9354ZM281.562 102.319C281.964 102.935 281.745 103.721 280.994 104.072C280.87 104.13 280.74 104.17 280.606 104.18C279.592 104.26 279.311 103.512 279.179 102.859C279.044 102.186 279.456 101.695 280.312 101.587C280.753 101.531 281.24 101.828 281.562 102.319ZM290.452 153.656C290.549 152.334 292.536 151.932 293.246 153.083C293.407 153.344 293.494 153.637 293.489 153.937C293.478 154.739 293.085 155.346 292.158 155.442C291.334 155.527 290.393 154.639 290.451 153.674L290.452 153.667C290.452 153.663 290.452 153.659 290.452 153.656ZM284.946 126.192C285.866 125.641 285.901 124.43 285.101 123.741C284.858 123.531 284.621 123.379 284.361 123.327C283.467 123.147 283.004 123.931 283.07 124.718C283.137 125.528 283.479 126.418 284.537 126.336C284.675 126.326 284.809 126.274 284.946 126.192ZM287.594 145.558C287.14 144.824 287.507 142.898 288.786 143.352C290.157 143.839 290.632 146.028 288.882 146.313C288.414 146.39 287.924 146.09 287.594 145.558ZM287.136 135.68C288.101 135.042 288.066 133.722 287.1 133.086C286.979 133.006 286.855 132.943 286.723 132.902C285.935 132.655 285.22 133.482 285.236 134.414C285.252 135.359 285.967 136.112 286.802 135.844C286.919 135.806 287.029 135.751 287.136 135.68ZM282.953 114.737C283.678 114.169 283.678 113.062 282.963 112.482C282.705 112.273 282.463 112.116 282.199 112.047C281.399 111.839 280.906 112.443 280.892 113.294C280.877 114.271 281.668 115.241 282.45 115.013C282.626 114.962 282.787 114.866 282.953 114.737ZM279.185 93.3778C279.725 94.026 279.815 95.0868 278.877 95.4357C278.766 95.4769 278.659 95.4995 278.553 95.4982C277.685 95.4843 277.301 94.7054 277.446 93.9339C277.523 93.5286 277.857 92.9452 278.306 92.8948C278.456 92.8778 278.605 92.9326 278.738 93.0047C278.906 93.0972 279.058 93.2262 279.185 93.3778Z" fill="black"/>
<path fill-rule="evenodd" clip-rule="evenodd" d="M285.451 46.3707C285.041 45.1296 284.957 43.7942 285.203 42.5101C285.431 41.3224 285.868 40.3606 286.639 39.5274C288.104 37.9439 290.021 38.1133 291.204 39.8958C292.633 42.0465 292.269 45.9437 290.462 47.8334C288.881 49.4889 286.898 49.2943 285.818 47.2482C285.668 46.965 285.549 46.6657 285.451 46.3707ZM293.918 44.2182C294.025 43.2972 293.959 42.3641 293.755 41.4592C293.617 40.8436 293.428 40.1382 293.121 39.4883C291.419 35.8822 287.339 35.4482 284.917 38.6303C282.721 41.5148 282.505 44.7712 284.031 47.9824C285.694 51.4799 289.646 51.8174 292.124 48.8195C293.169 47.5554 293.697 46.1066 293.918 44.2182ZM277.205 43.7571C277.386 44.2806 277.461 44.8357 277.409 45.3875C277.236 47.2085 276.805 48.4701 275.861 49.5387C273.812 51.8585 270.697 51.3985 269.227 48.2893C268.472 46.692 268.423 44.8305 269.048 43.1785C270.476 39.4025 274.195 38.628 276.063 41.2866C276.62 42.0803 276.954 43.0308 277.205 43.7571ZM269.339 39.4043C267.561 41.0468 266.799 43.1476 266.796 45.5456C266.792 47.5934 267.373 49.4397 268.746 50.9762C270.862 53.3455 274.148 53.551 276.573 51.5053C279.852 48.7403 280.227 42.9339 277.332 39.7657C275.107 37.3304 271.773 37.1553 269.339 39.4043ZM280.758 50.3113C280.906 50.2496 280.992 50.0906 280.966 49.9325C280.838 49.119 280.71 48.3128 280.584 47.5124C280.158 44.8239 279.743 42.1991 279.337 39.573C279.33 39.5262 279.322 39.4793 279.315 39.4322C279.236 38.9347 279.155 38.4198 279.233 37.94C279.282 37.6438 279.678 37.2302 279.958 37.1954C280.239 37.1602 280.72 37.4613 280.846 37.7376C281.018 38.1103 281.078 38.5366 281.137 38.9598C281.155 39.0886 281.173 39.217 281.194 39.3436C281.281 39.8682 281.368 40.3929 281.456 40.9175L281.456 40.918C281.898 43.579 282.341 46.24 282.767 48.9038C283.171 51.4316 282.407 52.4482 279.886 52.6584C279.799 52.6654 279.71 52.651 279.621 52.6215C279.01 52.423 278.78 51.6406 279.175 51.1345C279.212 51.0867 279.254 51.0433 279.3 51.0055C279.579 50.7795 279.929 50.6414 280.352 50.4745C280.481 50.4238 280.616 50.3705 280.758 50.3113ZM276.756 56.1155C277.825 56.5434 279.02 56.6207 280.114 56.2597C280.282 56.2045 280.441 56.1402 280.592 56.0607C280.694 56.0069 280.785 55.93 280.868 55.8392C281.313 55.3513 281.117 54.5277 280.486 54.3331C280.381 54.3009 280.283 54.2914 280.197 54.3183C278.927 54.7123 277.767 54.7049 276.548 54.1393C276.469 54.1028 276.369 54.1124 276.257 54.148C275.715 54.3187 275.448 54.9621 275.699 55.4712C275.755 55.5846 275.824 55.6754 275.914 55.7254C276.186 55.8739 276.47 56.0012 276.756 56.1155ZM274.403 44.1081C274.769 43.897 275.237 43.9913 275.5 44.321C275.766 44.6546 276.06 45.0365 276.179 45.467C276.49 46.5921 275.816 47.6095 274.948 47.5635C273.94 47.51 273.718 46.7042 273.595 45.9236C273.477 45.182 273.776 44.4709 274.403 44.1081ZM286.949 42.8098C286.355 42.5795 285.86 42.7308 285.748 43.8464C285.714 44.1948 285.831 44.9588 286.055 45.2282C286.285 45.5044 286.571 45.8085 286.862 45.8133C287.815 45.8281 288.179 44.9319 288.009 44.1121C287.906 43.6108 287.415 42.9905 286.949 42.8098Z" fill="black"/>
<path d="M436.192 79.2213C438.516 77.5368 440.012 76.597 441.338 75.499C448.708 69.2736 455.948 62.9084 463.407 56.7852C471.665 49.9921 480.071 43.3481 488.498 36.7411C491.281 34.5636 493.923 34.7032 495.709 36.6946C497.314 38.4904 497.125 40.6867 494.811 43.0224C493.041 44.7044 491.177 46.2979 489.226 47.796C482.425 53.3237 475.544 58.7674 468.793 64.3601C460.017 71.6372 451.341 79.0257 442.605 86.3493C441.667 87.135 440.667 87.8537 439.613 88.499C435.554 90.9277 432.632 90.3602 430.039 86.5076C428.853 84.8114 427.923 82.97 427.277 81.0358C425.512 75.3779 423.847 69.683 422.401 63.9415C421.403 60.0982 422.301 58.0045 424.535 57.4275C426.769 56.8506 428.713 58.1534 430.289 61.7545C431.655 64.8627 432.652 68.1197 433.739 71.33C434.487 73.6378 435.195 76.0573 436.192 79.2213Z" fill="black"/>
<path d="M150.547 54.3836C148.978 55.4977 147.966 56.1623 147.018 56.8918C141.963 60.8008 136.942 64.7942 131.865 68.7095C129.544 70.5011 128.274 70.7161 127.228 69.7063C126.182 68.6966 126.468 66.8463 128.546 65.146C133.428 61.0613 138.476 57.0938 143.441 53.0611C144.368 52.3054 145.24 51.4846 146.363 50.4943C144.675 48.7224 143.197 47.1393 141.677 45.5953C138.406 42.2988 135.101 39.0415 131.845 35.7386C129.509 33.3738 129.055 31.9143 130.199 30.8915C131.342 29.8687 133.093 30.1879 135.54 32.2661C139.85 35.9144 144.006 39.719 148.155 43.5302C149.094 44.5337 149.95 45.603 150.714 46.7288C152.192 45.7386 153.015 45.2435 153.775 44.6767C157.429 41.9406 161.062 39.1848 164.716 36.4486C165.504 35.8557 166.327 35.3021 167.163 34.7745C169.681 33.1979 171.187 33.126 172.142 34.5006C173.021 35.745 172.574 37.1067 170.483 38.6833C166.675 41.6083 162.812 44.4422 158.956 47.3543C157.805 48.2273 156.773 49.2371 155.469 50.3837C156.515 51.628 157.324 52.6443 158.189 53.641C162.136 58.0971 166.11 62.5402 170.043 67.0028C170.701 67.7188 171.278 68.4959 171.766 69.3221C172.111 69.8312 172.251 70.4389 172.161 71.0359C172.07 71.633 171.754 72.1802 171.271 72.5794C170.788 73.0668 170.125 73.3638 169.416 73.4097C168.707 73.4558 168.006 73.2472 167.456 72.8268C166.561 72.1754 165.751 71.4276 165.044 70.5989C160.734 65.9604 156.441 61.3044 152.164 56.6312C151.583 55.909 151.043 55.1588 150.547 54.3836Z" fill="black"/>
<path d="M88.82 208.682C87.2509 209.797 86.2399 210.461 85.2915 211.191C80.236 215.1 75.2154 219.093 70.1389 223.008C67.817 224.8 66.5478 225.015 65.5019 224.005C64.4558 222.995 64.7418 221.145 66.8198 219.445C71.701 215.36 76.7494 211.393 81.7143 207.36C82.6417 206.604 83.5134 205.783 84.636 204.793C82.9485 203.021 81.4703 201.438 79.95 199.894C76.6797 196.598 73.3745 193.34 70.118 190.037C67.782 187.673 67.3288 186.213 68.4724 185.19C69.6159 184.168 71.3662 184.487 73.8139 186.565C78.1231 190.213 82.2791 194.018 86.4281 197.829C87.3674 198.833 88.2231 199.902 88.9872 201.028C90.4655 200.037 91.2884 199.542 92.0484 198.976C95.7024 196.239 99.3353 193.484 102.989 190.747C103.777 190.155 104.6 189.601 105.437 189.073C107.954 187.497 109.46 187.425 110.416 188.799C111.294 190.044 110.848 191.406 108.756 192.982C104.949 195.907 101.086 198.741 97.2294 201.653C96.0788 202.526 95.0469 203.536 93.7429 204.683C94.7889 205.927 95.5978 206.943 96.4624 207.94C100.409 212.396 104.384 216.839 108.317 221.302C108.974 222.018 109.551 222.795 110.039 223.621C110.385 224.13 110.525 224.738 110.434 225.335C110.343 225.932 110.028 226.479 109.544 226.878C109.061 227.366 108.398 227.663 107.689 227.709C106.981 227.755 106.28 227.546 105.73 227.126C104.835 226.474 104.025 225.726 103.317 224.898C99.0075 220.259 94.7145 215.603 90.4377 210.93C89.8566 210.208 89.3166 209.458 88.82 208.682Z" fill="black"/>
</svg>
