<svg width="509" height="455" viewBox="0 0 509 455" fill="none" xmlns="http://www.w3.org/2000/svg">
<path opacity="0.5" d="M268.647 432.892C400.965 432.892 508.231 426.408 508.231 418.409C508.231 410.411 400.965 403.927 268.647 403.927C136.328 403.927 29.063 410.411 29.063 418.409C29.063 426.408 136.328 432.892 268.647 432.892Z" fill="#C9C9C9"/>
<g opacity="0.5">
<path fill-rule="evenodd" clip-rule="evenodd" d="M255.971 370.236C240.791 370.704 225.645 370.235 210.533 368.756C195.927 367.326 181.464 365.167 167.467 360.811C139.841 352.214 113.249 341.263 88.3526 326.89C57.1799 308.895 34.0151 283.757 18.2238 252.336C11.5446 239.045 6.02002 225.359 2.52574 210.957C0.252508 201.587 -0.561539 192.128 0.672711 182.559C0.94486 180.449 1.35989 178.318 2.04657 176.303C5.02676 167.554 9.32326 159.48 15.5332 152.38C20.4871 146.715 26.4519 142.389 33.5989 139.687C45.6356 135.136 58.0881 131.915 68.8342 124.817C82.1781 116.004 92.4992 104.07 104.603 93.9139C117.291 83.2692 130.31 73.0983 144.15 63.8493C170.369 46.3279 198.32 32.0229 228.989 22.9317C244.396 18.3648 259.994 14.602 275.977 12.4493C285.742 11.1341 295.57 10.5432 305.428 10.1907C333.409 9.18995 360.86 12.0674 387.599 20.2506C405.247 25.6504 421.972 32.9187 437.038 43.3953C450.445 52.7171 461.87 63.8401 470.232 77.6599C474.085 84.0264 477.006 90.7493 478.227 98.0845C480.445 111.444 476.737 123.133 467.576 133.321C461.836 139.7 454.868 144.548 447.172 148.501C438.979 152.71 430.227 155.583 421.455 158.403C410.899 161.797 400.376 165.277 390.268 169.798C384.587 172.339 379.029 175.115 374.141 178.915C372.099 180.504 370.169 182.333 368.595 184.346C365.955 187.724 366.009 191.271 368.7 194.595C370.152 196.387 371.885 198.124 373.855 199.347C378.882 202.466 384.004 205.481 389.287 208.179C399.644 213.467 410.204 218.389 420.557 223.691C429.565 228.304 438.25 233.444 445.86 240.066C453.759 246.938 460.276 254.819 464.539 264.265C468.341 272.688 469.781 281.42 467.882 290.523C466.719 296.089 464.245 301.113 460.98 305.809C456.031 312.935 449.704 318.808 442.786 324.139C433.633 331.195 423.416 336.508 412.745 341.103C390.688 350.603 367.716 357.277 344.032 361.816C330.501 364.409 316.897 366.557 303.188 368.036C291.091 369.341 278.944 370.052 266.769 370.228C263.171 370.281 259.571 370.236 255.971 370.236Z" fill="#F1ECE8"/>
</g>
<path fill-rule="evenodd" clip-rule="evenodd" d="M62.8875 252.467C57.3195 250.764 51.8091 248.83 46.1654 247.436C41.9804 246.403 37.6273 246.091 33.3032 247.045C26.8887 248.46 22.1879 253.502 21.5064 259.969C20.881 265.908 23.5161 269.357 28.646 270.898C31.2852 271.691 34.0199 271.566 36.7079 270.802C40.2669 269.792 43.1568 267.712 45.9461 265.384C51.3324 260.89 56.3239 255.853 62.8875 252.467ZM39.6495 229.079C39.6905 223.676 39.8179 218.51 39.736 213.347C39.6884 210.333 39.5841 207.272 39.0143 204.324C37.9054 198.586 35.1644 193.682 30.2826 190.206C25.6924 186.937 20.1297 186.828 15.6661 189.799C10.8461 193.006 8.4851 198.714 9.68447 204.071C10.0959 205.909 10.8027 207.595 12.0642 208.968C13.7362 210.787 15.3806 212.688 17.3126 214.206C24.3488 219.735 32.0792 224.241 39.6495 229.079ZM70.6837 248.654C73.8334 246.726 76.6315 245.011 79.4303 243.298C84.9975 239.891 89.1411 235.204 91.7265 229.247C95.0202 221.658 93.9568 214.525 88.8089 208.067C85.9169 204.44 81.6739 203.429 77.3179 205.026C75.1609 205.816 73.3729 207.134 71.851 208.832C68.7302 212.312 67.2633 216.49 66.847 221.051C66.6513 223.193 66.6145 225.371 66.7539 227.518C67.2174 234.642 69.2524 241.477 70.6837 248.654ZM121.629 333.092C121.648 332.91 121.667 332.727 121.686 332.544C117.451 330.729 113.242 328.848 108.974 327.114C102.521 324.491 95.8317 322.708 88.8656 322.216C83.0038 321.802 77.231 322.346 71.8406 324.98C68.4616 326.63 65.6619 328.992 64.0043 332.459C59.8561 341.133 65.7447 351.403 75.4613 352.665C81.148 353.403 86.4275 352.036 91.4062 349.532C95.8925 347.276 100.179 344.614 104.54 342.109C108.211 340.002 111.823 337.788 115.54 335.768C117.482 334.713 119.594 333.974 121.629 333.092ZM104.791 293.099C99.1453 291.291 94.8001 287.605 89.9741 284.74C85.8105 282.268 81.6333 279.776 77.2712 277.691C72.4605 275.393 67.31 274.368 61.9362 275.4C53.866 276.951 47.6356 285.371 50.305 294.372C52.5386 301.906 60.1188 308.457 67.9837 309.175C76.3563 309.938 84.1256 308.157 91.0123 303.169C95.5143 299.908 99.9894 296.61 104.791 293.099ZM114.539 288.112C120.017 286.233 125.302 284.457 130.559 282.604C133.749 281.48 136.666 279.807 139.319 277.729C147.312 271.467 152.504 263.45 153.817 253.319C154.815 245.614 151.219 238.666 142.788 237.165C140.285 236.719 137.84 237.024 135.443 237.739C129.04 239.648 124.467 243.753 121.302 249.516C118.014 255.503 116.612 262.003 116.163 268.745C115.851 273.43 115.669 278.124 115.338 282.807C115.216 284.527 114.831 286.227 114.539 288.112ZM133.701 373.805C132.75 373.629 131.917 373.482 131.087 373.318C127.186 372.547 123.274 371.829 119.39 370.985C114.803 369.988 110.265 368.758 105.661 367.858C100.486 366.845 95.2536 366.524 90.0105 367.569C86.3555 368.296 82.955 369.62 80.0858 372.062C76.37 375.225 74.5224 379.275 75.0289 384.171C75.9574 393.142 83.1611 399.383 90.1632 401.143C94.8746 402.328 99.4656 401.611 103.865 399.458C107.853 397.505 111.362 394.857 114.621 391.908C120.901 386.225 127.051 380.396 133.247 374.62C133.405 374.473 133.472 374.225 133.701 373.805ZM141.631 372.727C142.205 372.967 142.483 373.123 142.78 373.202C150.664 375.295 158.529 377.465 166.443 379.435C171.531 380.701 176.759 380.917 181.872 379.76C188.272 378.312 193.953 375.308 199.022 371.099C201.832 368.765 203.394 365.835 203.889 362.339C204.541 357.729 203.583 353.491 199.665 350.58C194.976 347.097 189.693 345.419 183.724 346.011C175.879 346.789 168.873 349.651 162.453 354.049C156.318 358.252 150.679 363.067 145.414 368.306C144.08 369.634 142.953 371.169 141.631 372.727ZM132.333 331.063C138.688 331.126 144.72 331.245 150.751 331.228C156.1 331.214 161.395 330.669 166.517 328.958C175.923 325.814 183.566 320.407 188.599 311.621C190.542 308.229 191.858 304.683 191.697 300.697C191.501 295.809 188.839 292.186 184.225 290.681C178.815 288.917 173.511 289.634 168.36 291.716C160.951 294.712 155.036 299.785 149.716 305.646C142.797 313.269 138.484 322.67 132.333 331.063ZM139.122 371.337C139.618 370.841 139.912 370.588 140.157 370.295C146.506 362.686 154.089 356.462 162.284 350.993C169.32 346.298 177.072 343.44 185.637 343.287C190.566 343.199 195.36 343.851 199.593 346.723C205.204 350.53 207.582 355.776 207.005 362.526C206.357 370.103 201.876 374.894 195.629 378.303C192.706 379.897 189.547 381.139 186.38 382.196C179.505 384.49 172.482 384.034 165.577 382.413C157.875 380.604 150.264 378.413 142.611 376.394C141.855 376.194 141.087 376.037 140.122 375.812C140.155 376.509 140.129 377.041 140.211 377.556C141.338 384.651 142.485 391.743 143.614 398.837C143.881 400.521 143.593 401.257 142.677 401.42C141.668 401.599 141.019 400.944 140.739 399.197C139.883 393.838 139.104 388.465 138.245 383.106C137.872 380.771 137.379 378.456 136.87 375.762C135.915 376.536 135.218 377.037 134.595 377.616C129.568 382.294 124.631 387.075 119.507 391.644C116.294 394.508 112.929 397.238 109.41 399.713C104.679 403.041 99.4284 405.009 93.4768 404.707C83.447 404.196 74.2642 396.44 72.1845 386.624C70.4553 378.461 74.6887 370.671 82.8189 367.039C88.3636 364.562 94.1865 364.005 100.166 364.51C105.68 364.975 111.025 366.326 116.403 367.536C122.165 368.832 127.96 369.99 133.746 371.179C134.351 371.303 134.996 371.233 135.918 371.263C133.146 359.032 130.071 347.083 126.528 335.039C122.69 336.139 119.108 337.444 115.767 339.286C111.852 341.445 108.093 343.887 104.19 346.071C99.7325 348.564 95.2789 351.093 90.6626 353.266C85.8167 355.546 80.6369 356.368 75.2449 355.673C65.0148 354.355 58.0031 344.64 60.2632 334.719C61.3747 329.842 64.4599 326.361 68.5891 323.756C73.3257 320.767 78.6441 319.798 84.1335 319.517C89.4498 319.245 94.6532 320.061 99.7747 321.36C106.455 323.055 112.874 325.487 119.069 328.52C120.922 329.428 122.863 330.157 125.316 331.202C121.352 317.96 116.53 305.653 110.013 293.613C106.964 295.562 104.038 297.313 101.242 299.252C98.0268 301.482 94.9917 303.972 91.765 306.184C84.1657 311.394 75.6371 313.037 66.6352 311.927C57.4031 310.788 48.8079 302.34 47.0489 293.173C45.1359 283.203 52.2192 273.657 62.6173 272.213C68.3532 271.417 73.7159 272.823 78.9325 275.048C85.2883 277.758 90.9138 281.708 96.663 285.452C99.2661 287.147 101.793 289.012 104.856 289.851C105.74 290.093 106.649 290.241 107.545 290.432C107.651 290.286 107.756 290.139 107.861 289.992C107.395 289.204 106.949 288.402 106.459 287.628C99.9493 277.349 91.3777 269.071 81.4827 262.108C78.0255 259.676 74.4127 257.466 70.927 255.073C69.967 254.414 69.0906 254.353 68.0081 254.558C63.6422 255.387 59.9189 257.463 56.554 260.271C53.1196 263.136 49.7033 266.024 46.2623 268.881C43.2644 271.371 39.9176 273.173 36.0475 273.897C32.7578 274.512 29.4997 274.402 26.3971 273.089C20.7764 270.711 17.9991 265.709 18.776 259.584C19.7842 251.635 25.4234 245.64 33.3363 244.121C38.3837 243.153 43.3819 243.724 48.2906 244.919C51.932 245.807 55.4802 247.074 59.2598 247.884C58.7467 247.487 58.2596 247.049 57.7168 246.698C50.2681 241.884 43.1841 236.581 36.1778 231.145C32.4789 228.276 28.3051 226.011 24.3137 223.525C20.244 220.99 16.2094 218.42 12.7946 215.001C10.213 212.417 8.14902 209.515 7.14141 205.956C5.26243 199.321 7.44194 193.777 12.1074 189.175C16.5916 184.751 22.0721 183.677 28.0589 185.651C30.9161 186.594 33.3045 188.349 35.3424 190.548C39.5018 195.038 41.987 200.353 42.4715 206.43C42.8005 210.552 42.5981 214.715 42.6768 218.858C42.7343 221.887 42.7364 224.924 42.9917 227.939C43.139 229.683 43.4969 232.176 43.4969 232.176C43.4969 232.176 46.5581 235.694 48.3146 236.838C54.2641 240.713 60.1469 244.689 66.0683 248.608C66.444 248.856 67.1379 249.665 67.838 249.959C67.2049 246.97 66.4221 243.552 65.8167 240.838C64.3721 234.354 63.1482 227.85 63.8206 221.154C64.397 215.416 66.2992 210.242 70.579 206.213C74.7723 202.265 79.6298 200.626 85.3248 202.554C87.9213 203.433 89.9133 205.155 91.4795 207.322C96.92 214.846 97.7024 222.893 93.8306 231.307C90.9519 237.563 86.519 242.493 80.5981 246.066C78.4095 247.386 76.2318 248.726 74.0941 250.126C73.334 250.624 72.7075 251.327 71.7757 252.154C72.8428 252.855 73.6149 253.374 74.3999 253.875C83.3046 259.557 91.8461 265.693 99.0919 273.467C102.808 277.454 106.151 281.724 109.062 286.33C109.523 287.059 109.999 287.778 110.591 288.69C111.902 286.746 112.048 284.724 112.22 282.802C112.583 278.751 112.683 274.677 112.938 270.615C113.364 263.807 114.332 257.123 117.215 250.83C121.015 242.536 126.843 236.604 135.979 234.463C143.469 232.708 150.679 235.558 154.248 241.706C156.414 245.437 157.05 249.527 156.441 253.743C154.974 263.913 150.004 272.165 142.284 278.819C137.536 282.911 131.906 285.32 126 287.236C122.053 288.516 118.191 290.056 114.289 291.472C113.766 291.662 113.229 291.814 112.469 292.056C119.252 304.456 124.047 317.209 128.272 330.669C129.25 329.651 130.165 328.931 130.787 328.012C133.018 324.708 135.21 321.376 137.307 317.985C140.63 312.613 144.146 307.392 148.474 302.76C153.427 297.46 158.965 292.908 165.619 289.904C171.834 287.098 178.272 286.011 184.962 288.145C191.017 290.076 194.549 294.876 194.649 301.228C194.729 306.308 192.844 310.75 190.144 314.895C183.212 325.537 173.058 331.146 160.822 333.374C155.056 334.424 149.217 334.206 143.387 334.055C140.436 333.978 137.479 333.996 134.529 334.097C132.956 334.15 131.392 334.472 129.685 334.69C132.841 346.947 135.937 358.966 139.122 371.337Z" fill="#C97600"/>
<path fill-rule="evenodd" clip-rule="evenodd" d="M334.214 378.186C330.656 366.091 326.554 354.303 321.423 342.897C316.316 331.544 309.812 320.964 303.379 310.349C291.827 291.287 280.336 272.191 270.053 252.399C266.149 244.882 262.446 237.279 260.38 228.998C260.234 228.416 259.985 227.859 259.651 226.911C259.032 227.784 258.59 228.252 258.326 228.805C256.439 232.742 255.924 236.969 256.5 241.201C257.169 246.122 258.016 251.059 259.314 255.846C262.731 268.46 268.657 280.006 274.967 291.369C284.729 308.945 296.655 325.038 308.881 340.918C317.894 352.624 326.905 364.318 333.688 377.533C333.813 377.776 334.036 377.969 334.214 378.186ZM336.971 374.099C337.078 374.075 337.186 374.051 337.294 374.027C337.294 373.59 337.366 373.139 337.283 372.719C335.725 364.888 334.464 356.981 332.508 349.251C328.955 335.209 323.869 321.645 318.805 308.091C311.666 288.982 304.1 270.054 294.585 251.968C290.229 243.688 285.14 235.934 278.765 229.062C276.1 226.19 273.133 223.782 269.16 223.016C266.819 222.565 264.56 222.67 262.708 224.226C264.442 232.287 267.429 239.672 271.045 246.819C278.602 261.757 286.936 276.262 295.509 290.631C299.891 297.977 304.158 305.398 308.758 312.606C320.514 331.027 329.331 350.788 336.071 371.526C336.352 372.39 336.67 373.242 336.971 374.099ZM383.792 145.208C383.455 145.814 383.252 146.12 383.103 146.451C374.422 165.699 369.002 185.912 365.642 206.689C363.66 218.941 361.968 231.246 360.417 243.561C358.96 255.133 357.718 266.737 356.643 278.35C355.655 289.029 355.087 299.746 354.206 310.436C353.024 324.783 351.717 339.119 350.471 353.459C350.245 356.058 349.507 361.368 349.303 363.967C349.872 363.086 350.731 359.49 350.87 358.575C352.983 344.725 355.247 330.895 357.116 317.011C358.671 305.455 359.672 293.824 361.068 282.245C363.05 265.804 367.27 249.932 373.953 234.779C378.012 225.578 382.423 216.53 386.74 207.445C391.639 197.137 394.637 186.329 395.414 174.935C395.859 168.424 395.778 161.947 393.375 155.726C391.575 151.067 388.616 147.471 383.792 145.208ZM345.631 362.478C345.801 362.482 345.972 362.484 346.141 362.487C346.246 361.711 346.382 360.938 346.45 360.158C347.263 350.786 348.07 341.413 348.869 332.04C349.749 321.729 350.605 311.415 351.496 301.104C352.84 285.546 353.978 269.966 355.623 254.441C357.446 237.234 359.682 220.07 362.771 203.031C366.152 184.382 370.79 166.104 378.464 148.699C379.062 147.344 379.544 145.936 380.074 144.57C379.695 144.389 379.537 144.261 379.368 144.243C378.901 144.197 378.429 144.17 377.961 144.183C372.28 144.346 367.43 146.677 362.976 149.997C355.971 155.219 351.384 162.238 348.157 170.225C342.351 184.59 339.818 199.68 338.56 215.015C337.358 229.669 337.425 244.354 338.001 259.036C338.746 278.034 340.398 296.967 342.057 315.902C343.289 329.959 344.241 344.04 345.316 358.11C345.427 359.566 345.527 361.022 345.631 362.478ZM342.426 384.267C342.426 378.538 342.738 372.788 342.368 367.082C341.266 350.091 339.926 333.115 338.625 316.138C337.533 301.88 336.163 287.641 335.281 273.371C334.224 256.271 333.689 239.141 334.645 222.014C335.619 204.579 337.945 187.373 344.195 170.917C347.482 162.26 352.075 154.481 359.349 148.515C363.323 145.256 367.667 142.714 372.692 141.473C382.837 138.966 390.351 143.261 394.941 151.064C397.525 155.456 398.601 160.325 398.87 165.346C399.702 180.915 396.21 195.578 389.534 209.585C384.964 219.173 380.307 228.731 376.125 238.489C370.015 252.741 366.241 267.677 364.421 283.08C363.206 293.354 362.25 303.659 361.015 313.929C358.039 338.686 354.549 363.355 347.307 387.313C345.816 392.248 344.068 397.105 342.477 402.01C342.138 403.058 341.539 403.773 340.454 403.425C339.372 403.077 337.792 403.035 337.74 401.408C337.373 389.683 331.272 380.16 325.738 370.485C320.262 360.911 313.339 352.317 306.626 343.595C293.539 326.591 280.801 309.351 270.528 290.428C264.279 278.915 258.607 267.165 255.302 254.415C253.547 247.648 252.257 240.824 253.291 233.774C253.706 230.949 254.507 228.277 256.063 225.857C259.775 220.084 265.772 218.033 272.232 220.333C276.068 221.698 279.029 224.27 281.715 227.221C287.637 233.725 292.547 240.932 296.706 248.675C304.416 263.028 310.821 277.969 316.746 293.124C323.591 310.636 330.212 328.234 335.33 346.346C338.764 358.502 340.878 370.914 341.948 383.502C341.971 383.773 342.056 384.04 342.112 384.308C342.217 384.295 342.321 384.281 342.426 384.267Z" fill="#24635C"/>
<path fill-rule="evenodd" clip-rule="evenodd" d="M199.192 195.006C199.155 194.554 199.541 195.732 199.604 196.485C200.213 203.696 201.114 216.393 201.822 223.594C202.537 230.869 204.201 245.707 205.102 252.962C206.209 261.882 206.474 258.075 207.696 266.98C208.94 276.035 210.276 285.077 211.58 294.123C212.742 302.19 213.883 310.259 215.091 318.319C216.776 329.556 218.519 340.783 220.221 352.017C220.522 354.007 220.94 357.272 221.171 359.271C221.43 361.517 224.504 361.788 222.256 362.003C221.883 362.038 221.51 362.076 221.171 362.11L222.782 383.802C224.054 383.802 225.02 383.822 225.985 383.798C231.49 384.355 235.209 384.559 240.015 385.604C243.34 386.328 246.998 387.225 249.775 389.214C253.379 391.794 255.274 395.259 255.336 399.701C255.391 403.622 254.683 407.438 253.721 411.21C253.293 412.883 252.913 413.121 251.113 413.088C241.314 412.905 231.493 412.982 221.758 411.692C213.795 410.636 207.131 408.289 199.192 407.054C198.91 407.01 198.653 406.811 198.339 406.663C198.339 404.348 198.21 402.068 198.362 399.807C199.155 387.951 199.552 375.282 200.4 363.43C200.47 362.439 195.79 360.336 194.453 360.106C193.921 359.692 193.815 358.604 193.712 357.796C193.027 352.432 192.439 347.055 191.737 341.693C190.295 330.666 188.896 319.633 187.305 308.626C185.073 293.173 183.324 283.403 181.251 267.93C179.832 257.339 180.99 243.827 178.831 233.389C178.415 231.375 178.059 229.349 177.65 227.334C177.534 226.758 177.329 226.2 177.164 225.634C177.004 225.638 174.319 223.589 174.16 223.594C173.287 227.491 171.67 233.451 170.727 237.331C168.066 248.282 165.265 259.199 162.677 270.167C157.85 290.625 155.626 307.128 149.887 327.353C144.148 347.578 142.891 352.223 140.137 362.003C139.231 365.218 138.499 368.477 137.831 371.749C137.352 374.095 138.441 373.201 136.279 372.717C133.829 372.167 130.278 371.529 127.773 370.934C126.001 377.068 124.275 383.045 122.493 389.214C123.041 389.4 123.495 390.036 124.133 390.224C129.156 391.704 133.924 393.732 138.239 396.725C139.243 397.42 140.219 398.167 141.134 398.974C145.709 403.011 146.968 407.91 144.903 413.653C144.561 414.606 144.086 415.512 143.689 416.447C143.503 416.884 143.263 417.298 142.988 417.685C139.947 421.979 140.658 420.291 137.831 420.213C135.315 420.144 131.353 419.906 128.883 419.427C124.775 418.629 123.356 417.656 119.41 416.251C115.884 414.995 114.484 415.64 112.689 414.172C108.169 410.475 104.299 406.155 100.525 401.74C99.9828 401.105 99.5623 400.367 99.0826 399.679C97.8228 397.87 97.5891 396.075 98.3849 393.886C101.325 385.796 104.071 377.637 106.883 369.501C107.131 368.783 107.324 368.046 107.589 367.165C105.436 366.461 106.135 364.911 106.461 363.43C112.399 336.495 117.329 311.449 125.416 285.074C133.502 258.699 136.434 241.794 141.903 222.449C144.325 213.881 145.615 205.143 147.717 196.485C147.896 195.748 147.885 196.403 148.209 195.724L199.192 195.006Z" fill="white"/>
<path fill-rule="evenodd" clip-rule="evenodd" d="M126.589 371.053C125.836 374.005 125.136 376.748 124.368 379.762L118.83 378.165C114.938 377.042 111.119 375.941 107.184 374.806C107.392 374.112 107.579 373.487 107.766 372.862L107.989 372.118C111.532 371.915 115.036 371.715 118.591 371.511C121.217 371.361 123.871 371.209 126.589 371.053ZM134.386 414.228C133.813 414.165 133.232 414.101 132.638 414.036C133.521 406.049 136.242 402.199 141.679 400.946C145.408 403.866 146.124 409.702 142.976 415.135C142.479 415.084 141.969 415.031 141.45 414.979C140.31 414.862 139.129 414.74 137.948 414.615C136.774 414.49 135.6 414.361 134.386 414.228ZM100.717 398.644C99.575 397.054 99.6186 396.844 100.252 394.894C100.492 395.147 100.726 395.39 100.956 395.629C101.436 396.125 101.893 396.6 102.33 397.092C106.908 402.245 112.19 406.608 117.6 410.837C121.261 413.408 126.339 415.344 131.352 415.841C133.801 416.084 136.249 416.354 138.696 416.624C139.427 416.705 140.158 416.785 140.889 416.865C140.987 416.876 141.114 416.87 141.26 416.864C141.52 416.852 141.84 416.838 142.163 416.907C141.168 418.472 139.828 419.192 139.483 419.268C137.138 419.245 131.43 418.614 129.148 418.125C124.181 417.345 123.532 417.107 120.536 416.007C119.912 415.778 119.187 415.512 118.299 415.196C117.176 414.795 115.974 414.352 115.036 413.628C109.507 409.366 104.785 404.307 100.717 398.644ZM210.888 376.356C207.401 376.426 203.92 376.496 200.4 376.567L200.41 376.458C200.554 374.821 200.567 374.683 200.745 373.284C200.745 373.284 201.787 372.644 202.729 372.212C206.247 370.594 209.739 368.92 213.231 367.246C214.951 366.422 216.671 365.597 218.394 364.78C218.653 364.657 218.932 364.575 219.279 364.472C219.462 364.418 219.664 364.359 219.893 364.284C220.262 368.347 220.254 372.258 220.181 376.168C217.058 376.231 213.971 376.293 210.888 376.356ZM236.356 403.213C237.263 397.738 241.391 391.314 245.471 388.919C251.056 391.506 254.663 395.545 253.035 403.568C247.514 403.701 241.947 403.783 236.356 403.213ZM251.788 411.137C234.004 411.49 216.594 409.815 199.066 406.107C199.114 405.088 199.161 404.1 199.208 403.094C199.244 402.314 199.281 401.523 199.32 400.699C217.192 403.642 234.872 405.841 253.058 405.468C252.833 406.474 252.623 407.409 252.419 408.322C252.208 409.266 252.001 410.186 251.788 411.137ZM134.715 395.963C136.362 396.787 138.576 398.21 140.137 399.261C136.724 400.445 133.998 402.809 132.787 405.662C131.641 408.363 131.123 410.569 130.553 413.723C126.49 413.508 122.167 411.445 119.065 409.534C113.718 405.479 108.571 401.195 104.07 396.185C103.009 395.004 101.947 393.822 100.854 392.606L102.669 387.515C103.953 383.915 105.236 380.316 106.556 376.611C112.319 378.271 117.972 379.9 123.798 381.579C123.574 382.272 123.359 382.949 123.147 383.615C122.59 385.37 122.059 387.04 121.457 388.684C121.269 389.198 120.774 389.626 120.318 390.02C120.26 390.069 120.203 390.118 120.148 390.167C119.615 390.633 119.064 391.08 118.513 391.526C117.999 391.942 117.485 392.358 116.986 392.79C116.59 393.134 116.178 393.539 115.98 394.004C115.947 394.081 115.931 394.165 115.926 394.255C115.897 394.857 116.494 395.345 117.075 395.187C117.159 395.164 117.234 395.131 117.297 395.081C118.254 394.334 119.145 393.496 120.019 392.649C120.73 391.9 121.377 391.477 121.87 391.155C121.985 391.08 122.091 391.011 122.188 390.944C122.284 390.878 123.541 391.086 125.222 391.796C124.659 392.344 124.103 392.827 123.57 393.291C122.66 394.083 121.817 394.815 121.128 395.709C120.44 396.6 121.65 397.721 122.5 396.982L122.559 396.931C122.949 396.591 123.342 396.255 123.735 395.918C124.557 395.214 125.378 394.51 126.176 393.781C126.637 393.36 126.881 393.143 127.505 392.717C127.505 392.717 128.56 392.919 129.52 393.328C130.547 393.764 131.345 394.128 132.677 394.903C130.923 396.286 129.666 397.302 128.22 398.487C126.724 399.712 126.302 400.601 126.976 400.986C127.86 401.368 128.357 400.948 129.06 400.355C129.213 400.226 129.376 400.088 129.554 399.949C130.076 399.543 130.533 399.227 130.971 398.925C131.565 398.515 132.123 398.13 132.756 397.578C133.032 397.336 133.266 397.131 133.465 396.956C134.259 396.258 134.505 396.042 134.715 395.963ZM235.264 386.442C235.264 386.442 236.325 386.475 236.877 386.614C239.192 386.993 240.78 387.267 243.3 387.78C238.522 392.264 235.718 397.235 234.161 403.112C222.563 402.138 211.087 401.03 199.451 398.63C199.933 391.994 200.405 385.51 200.889 378.863C207.612 378.026 214.172 377.845 220.97 378.46C220.989 379.028 221.012 379.588 221.036 380.143C221.097 381.596 221.157 383.01 221.127 384.422C221.118 384.844 220.804 385.276 220.508 385.683C220.435 385.784 220.363 385.883 220.296 385.98C219.757 386.771 219.206 387.555 218.655 388.338C218.156 389.049 217.656 389.76 217.164 390.477C216.909 390.849 216.636 391.257 216.556 391.684C216.498 391.987 216.659 392.485 216.894 392.646C217.114 392.797 217.64 392.734 217.886 392.56C218.171 392.357 218.381 392.041 218.587 391.732C218.637 391.657 218.686 391.583 218.737 391.51C218.957 391.194 219.18 390.881 219.403 390.567C220.019 389.701 220.636 388.835 221.177 387.924C221.633 387.156 222.296 386.15 222.669 385.746C222.854 385.545 223.647 385.632 224.647 385.742C225.244 385.807 225.915 385.881 226.573 385.906C226.291 386.352 226.007 386.792 225.726 387.229C225.06 388.263 224.405 389.28 223.795 390.324C223.708 390.472 223.593 390.63 223.474 390.793C223.015 391.422 222.5 392.128 223.329 392.682C224.296 393.328 224.69 392.561 225.053 391.852C225.164 391.636 225.273 391.425 225.393 391.261C225.869 390.616 226.302 389.94 226.734 389.263C227.08 388.72 227.427 388.177 227.796 387.651C227.957 387.422 228.103 387.191 228.24 386.975C228.525 386.526 228.772 386.136 229.041 385.933C229.34 385.706 230.595 385.87 232.934 386.257C232.665 386.684 232.396 387.105 232.128 387.523C231.539 388.446 230.958 389.356 230.395 390.279C229.516 391.72 229.423 392.694 230.136 392.851C231.078 393.057 231.394 392.419 231.701 391.799C231.802 391.597 231.901 391.396 232.02 391.228C232.754 390.198 233.436 389.131 234.119 388.065C234.257 387.848 234.396 387.632 234.534 387.416C234.612 387.295 234.676 387.177 234.735 387.068C234.883 386.794 235.005 386.568 235.264 386.442ZM167.234 253.026C168.721 247.771 170.207 242.518 171.478 237.257C172.123 234.59 172.706 231.908 173.289 229.227C173.555 228.004 173.821 226.781 174.093 225.56C174.198 225.557 174.224 225.556 174.277 225.555C174.303 225.554 174.336 225.553 174.39 225.552C174.441 225.73 174.497 225.906 174.552 226.083C174.673 226.471 174.794 226.858 174.874 227.253C175.064 228.195 175.242 229.138 175.42 230.082C175.624 231.159 175.828 232.237 176.049 233.311C177.405 239.907 178.041 246.485 178.681 253.106C179.054 256.97 179.429 260.848 179.95 264.753C182.012 280.236 184.18 295.651 186.402 311.113C187.688 320.068 188.849 329.041 190.009 338.013C190.276 340.075 190.543 342.138 190.811 344.2C191.509 349.565 194.095 362.465 194.625 362.88C195.294 362.996 199.043 362.889 199.043 362.88C199.043 362.871 199.128 364.75 199.093 365.243C198.656 371.387 198.427 377.531 198.199 383.676C197.987 389.391 197.774 395.108 197.393 400.825C197.291 402.369 197.318 403.923 197.346 405.49C197.359 406.219 197.372 406.95 197.372 407.684C197.474 407.733 197.569 407.787 197.662 407.839C197.853 407.946 198.031 408.046 198.22 408.076C200.452 408.425 202.684 408.784 204.915 409.143C210.579 410.053 216.243 410.963 221.927 411.722C230.066 412.807 238.266 412.925 246.462 413.044C248.019 413.066 249.577 413.089 251.134 413.118C252.925 413.152 253.304 412.914 253.728 411.239C254.686 407.465 255.39 403.647 255.336 399.724C255.274 395.279 253.388 391.811 249.803 389.23C247.04 387.24 243.401 386.342 240.092 385.619C236.263 384.781 233.128 384.483 229.22 384.112C228.246 384.019 227.224 383.923 226.132 383.812C225.494 383.827 224.854 383.823 224.125 383.819C223.758 383.817 223.369 383.815 222.946 383.815L222.202 362.382C222.883 362.317 222.823 361.822 222.68 360.639C222.664 360.508 222.647 360.368 222.63 360.22C222.5 359.095 222.187 357.568 221.884 356.093C221.649 354.947 221.42 353.833 221.289 352.962C220.596 348.362 219.896 343.763 219.196 339.164C218.186 332.525 217.176 325.886 216.186 319.244C215.276 313.143 214.405 307.036 213.534 300.929C213.254 298.964 212.973 296.999 212.692 295.034C212.066 290.671 211.25 286.308 210.433 281.945C209.556 277.256 208.677 272.567 208.037 267.874C206.82 258.964 205.656 250.046 204.555 241.121C203.658 233.861 202.802 226.594 202.09 219.314C201.627 214.586 201.255 209.849 200.883 205.111C200.688 202.63 200.493 200.148 200.285 197.667C200.221 196.914 200.098 196.151 199.874 195.433C199.795 195.179 199.305 194.874 199.043 194.908C198.775 194.944 198.426 195.33 198.347 195.624C198.256 195.969 198.293 196.353 198.329 196.729C198.337 196.813 198.345 196.896 198.352 196.979C198.438 198.046 198.528 199.113 198.618 200.18C198.715 201.316 198.811 202.451 198.901 203.587C199.063 205.611 199.204 207.637 199.346 209.664C199.651 214.026 199.956 218.388 200.457 222.727C202.011 236.203 203.698 249.664 205.49 263.11C206.527 270.886 207.848 278.657 209.17 286.424C210.223 292.615 211.275 298.804 212.183 304.99C213.716 315.438 215.298 325.879 216.881 336.32C217.799 342.379 218.718 348.437 219.627 354.497C219.765 355.419 219.959 356.344 220.155 357.28C220.402 358.458 220.652 359.654 220.801 360.883C214.986 361.121 209.016 361.039 203.187 360.958C200.887 360.926 198.608 360.895 196.37 360.883C196.331 360.706 196.239 360.454 196.111 360.104C195.758 359.14 195.131 357.434 194.625 354.497C194.528 353.935 194.429 353.362 194.327 352.777C193.411 347.492 192.326 341.228 191.293 333.336C189.88 322.53 188.457 311.725 186.908 300.938C186.158 295.713 185.297 289.469 184.529 283.894C183.9 279.33 183.332 275.213 182.938 272.469C182.255 267.724 181.769 263.332 180.852 255.044C180.591 252.685 180.295 250.01 179.95 246.921C179.874 246.248 179.863 240.285 179.95 239.627C180.278 237.131 180.656 235.172 181.04 233.188C181.387 231.387 181.739 229.566 182.061 227.304C182.194 226.368 182.349 225.434 182.505 224.501C182.686 223.405 182.869 222.309 183.016 221.208C183.272 219.285 182.807 218.811 180.952 219.02C179.136 219.224 177.32 219.445 175.516 219.736C173.271 220.098 173.263 220.135 172.789 222.313L172.779 222.36C172.405 224.076 172.04 225.794 171.675 227.512C170.853 231.384 170.031 235.255 169.11 239.104C167.851 244.367 166.354 249.619 164.856 254.872C163.276 260.413 161.696 265.954 160.395 271.513C158.477 279.706 156.906 287.884 155.337 296.045C153.1 307.687 150.869 319.294 147.651 330.858C147.162 332.616 146.671 334.369 146.182 336.119C143.094 347.154 140.039 358.076 137.544 369.324C137.457 369.718 137.288 370.093 137.146 370.409C137.087 370.539 137.033 370.659 136.991 370.766C127.743 368.833 118.709 366.945 109.591 365.04L108.111 364.731C108.223 364.232 108.346 363.733 108.468 363.231C108.719 362.201 108.973 361.162 109.149 360.096C110.968 349.023 115.954 324.478 121.268 303.435C122.219 299.665 123.16 295.92 124.097 292.193C129.023 272.585 133.826 253.47 139.405 233.965C141.696 225.953 143.628 217.838 145.56 209.724C146.416 206.127 147.272 202.53 148.16 198.942C148.165 198.921 148.17 198.901 148.175 198.88C148.262 198.53 148.358 198.148 148.282 197.82C148.209 197.505 147.926 197.071 147.664 197.012C147.384 196.95 146.844 197.183 146.726 197.433C146.404 198.112 146.204 198.859 146.026 199.596C145.421 202.105 144.93 204.267 144.474 206.278C143.356 211.211 142.444 215.231 140.549 221.208C135.801 236.182 132.401 249.99 129.004 263.781C127.357 270.469 125.711 277.153 123.913 283.964C116.799 310.908 111.566 336.061 106.418 363.431C106.378 363.645 106.328 363.86 106.279 364.073C105.984 365.352 105.704 366.564 107.54 367.168C107.453 367.462 107.373 367.739 107.296 368.005C107.143 368.538 107.002 369.026 106.838 369.505C106.133 371.556 105.433 373.608 104.732 375.661C102.651 381.755 100.571 387.85 98.3826 393.905C97.5907 396.095 97.8233 397.891 99.0771 399.701C99.2313 399.924 99.3793 400.152 99.5272 400.38C99.8373 400.857 100.147 401.334 100.513 401.764C104.267 406.181 108.117 410.504 112.615 414.203C114.401 415.672 115.209 416.063 118.717 417.32C122.644 418.726 125.331 419.334 129.419 420.132C131.877 420.612 135.819 420.851 138.322 420.92C138.683 420.93 138.996 420.949 139.273 420.966C141.155 421.084 141.4 421.099 144.037 417.354C144.311 416.966 144.55 416.552 144.735 416.115C144.881 415.769 145.038 415.426 145.195 415.084C145.462 414.502 145.728 413.92 145.943 413.319C147.997 407.573 146.745 402.671 142.193 398.632C141.283 397.824 140.311 397.077 139.313 396.381C135.02 393.387 130.275 391.357 125.278 389.877C124.837 389.746 124.402 389.592 123.996 389.447C123.817 389.384 123.643 389.322 123.476 389.265C124.824 384.574 126.139 379.994 127.466 375.371L128.729 370.974C129.485 371.155 130.235 371.336 130.981 371.517C132.695 371.931 134.388 372.34 136.087 372.723C138.237 373.208 138.911 372.576 139.388 370.229C140.053 366.955 140.781 363.694 141.682 360.477C143.019 355.702 144.253 350.952 145.486 346.203C146.781 341.218 148.075 336.235 149.488 331.226C152.868 319.248 155.185 307.211 157.508 295.137C159.111 286.81 160.717 278.466 162.677 270.111C164.015 264.407 165.625 258.716 167.234 253.026ZM211.668 386.875C211.638 385.04 210.287 383.691 208.534 383.747C206.557 383.811 204.756 385.729 204.721 387.806C204.69 389.607 206.039 391.049 207.762 391.054C209.822 391.06 211.703 389.048 211.668 386.875ZM207.771 392.957C205.004 392.956 202.836 390.694 202.855 387.827C202.877 384.581 205.597 381.839 208.744 381.889C211.452 381.933 213.492 384.048 213.545 386.866C213.606 390.052 210.851 392.958 207.771 392.957ZM110.842 385.855C109.04 385.833 107.39 387.45 107.328 389.301C107.276 390.828 108.421 392.104 109.914 392.181C111.761 392.278 113.522 390.52 113.509 388.593C113.499 386.999 112.404 385.875 110.842 385.855ZM115.346 388.564C115.372 391.467 112.964 394.052 110.151 394.141C107.613 394.221 105.399 391.953 105.448 389.324C105.5 386.499 108.092 383.866 110.823 383.865C113.361 383.864 115.322 385.902 115.346 388.564Z" fill="black"/>
<path fill-rule="evenodd" clip-rule="evenodd" d="M135.61 41.26C146.784 42.5725 154.477 48.8394 159.567 58.5132L159.943 59.241C161.132 61.5585 161.855 63.2251 161.469 66.7017C161.413 67.1996 161.275 67.6679 161.304 67.8418C161.361 68.1816 162.348 69.2069 162.559 69.4908L162.746 69.739C163.515 70.7462 164.515 71.8901 164.781 71.8392L164.974 71.8038C165.585 71.6956 166.491 71.5686 167.607 71.465C171.635 71.0908 175.522 71.5951 178.96 73.8783L179.3 74.1079C180.146 74.6676 181.67 75.5466 181.747 75.9254C181.774 76.0607 181.756 76.2086 181.701 76.3373C188.043 81.688 190.603 88.0942 189.379 95.5545C188.243 102.48 181.741 106.966 169.872 109.014L169.511 109.075L170.267 117.233C170.544 117.963 170.698 118.765 170.698 119.607C170.698 122.991 168.219 125.734 165.161 125.734C162.103 125.734 159.623 122.991 159.623 119.607C159.623 118.689 159.806 117.818 160.133 117.037L160.08 115.497C159.737 105.971 159.194 100.732 158.453 99.7783C148.887 99.7783 148.887 94.9153 149.411 92.267C149.935 89.6191 152.243 90.2741 154.816 88.1309L155.054 87.806C154.966 87.5973 154.895 87.3459 154.839 87.0518C154.21 83.6972 155.339 80.7374 156.996 77.8715C158.085 75.9887 158.929 75.4723 159.36 75.0966C158.444 74.3949 157.884 73.2812 157.099 72.2286C156.422 73.0541 155.57 74.8675 155.07 75.4404C152.67 78.1892 151.688 79.5698 149.155 82.192C146.705 84.7288 142.728 87.4238 139.444 88.7871C138.005 89.3847 136.455 89.7535 134.922 90.076C134.183 90.2318 133.344 90.1511 132.593 89.9839C130.251 89.4626 129.457 87.4352 130.306 85.1715C130.696 84.1324 131.381 83.1399 132.254 82.4118L132.528 82.1817C133.083 81.7121 133.416 81.4113 134.085 80.89C133.101 80.89 131.351 80.6681 130.557 80.4623C126.446 79.3971 125.235 76.3352 128.335 73.4022C129.862 71.957 131.735 71.1193 132.595 70.4314C132.354 70.6234 131.304 70.6589 131.013 70.6876C130.565 70.7314 130.119 70.8351 129.669 70.884C127.931 71.0746 126.222 70.9431 124.497 70.7574L123.849 70.6857C122.438 70.5288 120.95 70.416 119.662 69.7742C117.142 68.5178 116.52 66.0445 118.387 63.9327C119.393 62.7958 119.93 62.5438 121.243 61.7065C121.89 61.2942 123.884 60.4596 124.913 60.0342L124.688 59.8754C123.94 59.3533 123.569 59.17 123.185 58.796C121.408 57.0662 121.616 55.0904 123.8 53.8655C124.771 53.3207 126.494 52.8457 127.927 52.6643C127.04 52.1846 126.655 51.8629 125.771 51.0279C123.412 48.5625 123.561 45.7166 126.245 43.6083C129 41.4444 132.282 40.8689 135.61 41.26Z" fill="white"/>
<path fill-rule="evenodd" clip-rule="evenodd" d="M157.186 69.9946C157.48 70.4417 157.669 70.7982 157.846 71.1291C158.065 71.5405 158.263 71.9123 158.614 72.3694C158.668 72.4398 158.717 72.5072 158.763 72.5706C159.222 73.1982 159.401 73.4429 161.152 72.4916C161.44 72.2204 161.935 71.6495 161.935 71.6495C161.683 71.3349 161.473 71.0051 161.255 70.6626C160.787 69.9265 160.281 69.1314 159.236 68.3006C158.884 68.5411 158.605 68.7984 158.312 69.068C157.991 69.3642 157.654 69.6751 157.186 69.9946ZM155.261 85.4757C155.999 85.0294 156.282 84.844 156.556 84.6017C158.757 82.657 160.212 80.2273 161.027 77.428L161.037 77.3959C161.276 76.5771 161.77 74.8829 161.126 74.4635C160.389 73.869 158.96 75.2736 158.328 75.9221C156.247 78.0587 155.224 80.6795 155.054 83.6313L155.053 83.6463C155.026 84.1211 154.996 84.6361 155.261 85.4757ZM134.33 53.575C134.082 53.5254 133.841 53.4764 133.606 53.4284C132.049 53.1111 130.731 52.8425 129.239 52.7822C128.046 52.7337 126.832 52.8918 125.694 53.2509C124.765 53.5438 123.193 54.1087 122.86 55.1294C122.38 56.5998 124.841 57.719 125.816 58.0852C127.683 58.7862 130.181 59.2896 132.159 59.0889C132.064 59.0988 131.721 58.2177 131.812 57.5109C131.873 57.0382 132.037 56.5817 132.242 56.1524C132.721 55.1436 133.478 54.2999 134.33 53.575ZM176.042 73.3912C172.107 71.1654 169.536 70.8528 165.175 71.961C164.435 72.149 162.772 72.6371 162.603 73.2489C162.357 74.1374 163.309 74.5205 164.105 74.841C164.241 74.8955 164.371 74.9482 164.491 75.0012C168.876 75.969 173.497 76.2186 178.168 74.551C177.767 74.2915 177.127 73.9619 176.648 73.7151L176.647 73.715C176.356 73.5652 176.125 73.4459 176.042 73.3912ZM152.415 72.247C152.336 72.2987 152.281 72.3349 152.261 72.3457L152.209 72.3735C151.66 72.6658 151.109 72.9592 150.588 73.2977C146.424 76.0068 142.022 78.14 137.135 79.2596C136.61 79.4231 135.949 79.6079 135.397 79.7621L135.397 79.7623C134.818 79.9239 134.36 80.0521 134.303 80.0874C133.664 80.4895 132.757 81.3759 131.826 82.3941C130.861 83.4487 129.771 84.9598 130.647 86.452C131.507 87.9145 132.69 87.7955 134.506 87.4109C138.265 86.2385 138.969 85.8195 140.947 84.6029C145.704 81.6783 149.619 77.5518 152.925 73.1133C152.944 73.0882 152.993 73.032 153.061 72.9551C153.42 72.5471 154.292 71.5549 153.812 71.5254C153.508 71.5254 152.749 72.0266 152.415 72.247ZM132.715 60.6713C131.417 61.0013 128.343 60.4691 125.844 59.9365C124.889 60.0205 122.854 60.868 120.767 62.1063C120.043 62.5356 119.349 63.1123 118.832 63.7715C117.714 65.1985 117.992 66.5207 119.637 67.2706C120.725 67.7665 122.5 68.3172 123.691 68.4422C129.024 69.088 132.931 67.7865 137.275 66.3392C138.688 65.8685 140.147 65.3823 141.717 64.9427C137.786 64.5847 132.715 60.6713 132.715 60.6713ZM156.593 62.9017C156.542 62.8203 156.492 62.7413 156.445 62.6649C153.747 59.76 151.889 58.6415 148.538 56.6243C148.05 56.3311 147.532 56.0188 146.974 55.6793C143.764 54.4931 140.393 53.5422 136.999 54.3847C135.525 54.7505 133.916 55.4625 133.637 57.2298C133.366 58.9434 134.45 60.009 135.773 60.7316L135.927 60.816C137.595 61.7274 139.839 62.9535 141.629 63.3611C144.093 63.9227 146.679 64.2578 149.248 64.5908C150.814 64.7938 152.374 64.996 153.896 65.2482C154.714 65.3838 155.453 65.5558 156.215 65.7334C156.435 65.7844 156.656 65.836 156.882 65.8872C156.882 65.8872 158.132 65.9235 158.085 65.614C157.608 64.5185 157.04 63.6135 156.593 62.9017ZM157.385 67.4606C157.137 67.2493 156.503 67.1425 156.041 67.0645C155.911 67.0426 155.795 67.023 155.704 67.0041C155.422 66.9444 155.004 66.8754 154.633 66.8142C154.457 66.7853 154.293 66.7581 154.157 66.7344C147.64 65.5892 141.416 66.5077 135.26 68.7283C133.904 69.2177 132.722 69.9942 131.522 70.7822C131.074 71.0759 130.625 71.3712 130.163 71.6539C129.69 71.9432 129.311 72.3029 128.89 72.7032C128.627 72.9526 128.348 73.2179 128.019 73.4917C126.223 75.7092 127.226 76.962 129.382 77.676C130.318 77.9858 131.34 78.1187 132.331 78.1621C136.06 78.3249 139.658 77.5242 142.932 75.8535C146.043 74.266 149.043 72.4604 152.042 70.6561C152.845 70.173 153.648 69.69 154.452 69.2113C154.635 69.1028 154.904 68.9602 155.209 68.7984C155.973 68.394 156.962 67.8699 157.385 67.4606ZM158.639 63.4143C158.756 63.7529 159.191 64.2954 159.233 64.1941C159.422 63.747 159.135 62.4469 158.96 61.9001C158.769 60.6404 157.815 59.0083 157.122 57.8232C156.974 57.5697 156.838 57.3366 156.724 57.132C153.987 52.2279 150.277 48.2089 145.423 45.3358C141.34 42.9192 136.948 41.5272 132.131 41.8115C130.089 41.9317 128.166 42.4548 126.526 43.7203C124.403 45.3575 124.286 47.4338 126.339 49.1108C127.313 49.9056 128.494 50.6735 129.692 50.9243C129.927 50.9734 130.161 51.0227 130.396 51.0721L130.397 51.0722C133.868 51.8016 137.367 52.5369 140.888 52.7735C147.213 53.1985 150.992 55.7322 156.554 60.3709C157.541 61.6817 158.405 62.9739 158.639 63.4143ZM180.207 75.5008C180.174 75.5292 180.06 75.57 179.985 75.5968C179.962 75.6049 179.943 75.6117 179.931 75.6166C178.304 76.2496 176.879 76.515 175.208 76.8263C175.048 76.856 174.886 76.8862 174.721 76.9171C172.727 77.2912 169.762 77.4225 167.759 77.1296C165.949 76.8651 164.761 76.5911 163.02 76.0325C162.943 76.2505 162.87 76.4533 162.801 76.6463V76.6471C162.664 77.0296 162.541 77.3736 162.427 77.7209C161.236 81.3558 159.183 84.4025 156.196 86.8046C154.849 87.8876 153.975 87.6188 153.653 85.9057C153.023 82.5514 154.152 79.5915 155.809 76.7255C156.744 75.1093 157.498 74.5 157.965 74.1222C158.042 74.0598 158.112 74.0038 158.173 73.9506C157.529 73.4572 157.061 72.7602 156.567 72.024C156.359 71.7131 156.146 71.3952 155.912 71.0827C155.559 71.5132 155.158 72.2126 154.785 72.8645C154.442 73.4624 154.123 74.0203 153.884 74.2943C153.051 75.2473 152.39 76.0358 151.775 76.7687C150.616 78.1497 149.623 79.3329 147.968 81.0463C145.518 83.5831 141.541 86.2777 138.258 87.6409C136.818 88.2386 135.268 88.6078 133.736 88.9303C132.996 89.086 132.157 89.005 131.407 88.8378C129.064 88.3169 128.27 86.2891 129.119 84.0258C129.509 82.9866 130.195 81.9937 131.067 81.2656C131.317 81.0577 131.519 80.885 131.707 80.7237C132.074 80.4104 132.389 80.1413 132.898 79.744C131.914 79.744 130.164 79.5221 129.37 79.3163C125.259 78.2511 124.048 75.1892 127.148 72.2563C128.123 71.3335 129.239 70.6585 130.142 70.1119C130.654 69.8024 131.097 69.5341 131.409 69.2854C131.211 69.4429 130.468 69.4951 130.048 69.5246C129.955 69.5311 129.879 69.5365 129.827 69.5417C129.593 69.5645 129.36 69.6036 129.127 69.6426C128.912 69.6786 128.698 69.7145 128.483 69.7379C126.527 69.9524 124.609 69.7593 122.663 69.5397C122.54 69.526 122.417 69.5128 122.294 69.4994L122.292 69.4993C120.994 69.3591 119.651 69.2141 118.476 68.6282C115.955 67.3719 115.333 64.8985 117.201 62.7867C118.061 61.8133 118.579 61.4886 119.534 60.8899C119.695 60.7893 119.868 60.681 120.056 60.5605C120.703 60.1482 122.697 59.3136 123.726 58.8883C123.374 58.636 123.098 58.4545 122.867 58.3027C122.506 58.0649 122.255 57.9001 121.998 57.65C120.221 55.9202 120.429 53.9444 122.613 52.7195C123.584 52.1747 125.308 51.6997 126.74 51.5183C125.853 51.0386 125.468 50.7169 124.585 49.8819C122.225 47.4165 122.374 44.5706 125.059 42.4623C127.813 40.2985 131.096 39.7229 134.423 40.114C145.71 41.4397 153.446 47.8206 158.533 57.6615C159.853 60.2152 160.692 61.8662 160.282 65.5557C160.257 65.776 160.217 65.9905 160.181 66.1763C160.137 66.4104 160.101 66.5988 160.118 66.6958C160.158 66.9401 160.68 67.5387 161.048 67.9614C161.193 68.1266 161.313 68.265 161.372 68.3448C162.157 69.4013 163.306 70.7483 163.595 70.6932C164.2 70.5781 165.18 70.4341 166.42 70.319C170.523 69.9378 174.479 70.4681 177.964 72.861C178.169 73.0018 178.434 73.1702 178.717 73.3496C179.536 73.869 180.5 74.4802 180.56 74.7794C180.606 75.0049 180.526 75.2654 180.355 75.4133L180.207 75.5008ZM180.307 75.9779C180.497 75.5794 181.118 75.4443 181.466 75.717C182.188 76.2842 183.358 77.287 183.997 77.9021C186.243 80.0638 187.928 82.625 189.359 85.393C191.686 89.8908 191.334 94.2483 188.901 98.5373C187.13 101.66 184.633 104.113 181.616 106.03C178.556 107.975 175.22 109.261 171.674 110.006C171.406 110.063 171.14 110.129 170.824 110.206L170.823 110.207H170.823C170.657 110.248 170.477 110.292 170.276 110.34C170.381 110.926 170.484 111.505 170.586 112.08L170.599 112.154C170.861 113.629 171.118 115.073 171.374 116.517C171.524 117.364 171.674 118.212 171.814 119.062C171.826 119.137 171.841 119.215 171.855 119.295C171.977 119.955 172.118 120.721 171.295 120.886C170.467 121.087 170.271 119.991 170.091 118.983L170.071 118.874C169.913 117.998 169.849 117.515 169.798 117.13C169.726 116.587 169.68 116.237 169.433 115.25C169.391 115.083 169.352 114.926 169.315 114.779C168.783 112.635 168.771 112.589 167.719 111.929C167.55 111.855 167.162 111.582 166.76 111.3C166.545 111.149 166.325 110.995 166.134 110.867C165.879 110.697 165.646 110.498 165.453 110.261C165.291 110.062 165.243 109.934 165.263 109.579C165.31 108.74 166.056 108.681 166.736 108.627C166.876 108.617 167.013 108.606 167.141 108.588C167.608 108.525 168.077 108.49 168.548 108.454H168.548C169.009 108.419 169.471 108.384 169.929 108.323C176.631 107.43 182.271 104.577 186.318 99.0634C189.418 94.8396 190.053 90.3296 187.398 85.5496C185.812 82.6949 183.716 79.4159 181.14 77.3799C181.085 77.337 181.033 77.2957 180.981 77.2558C180.402 76.8043 180.045 76.5247 180.307 75.9779ZM159.56 120.699C159.803 121.388 160.825 121.367 160.987 120.655C161.054 120.363 161.016 120.068 160.978 119.776C160.965 119.682 160.953 119.587 160.945 119.494C160.567 115.426 160.197 111.356 159.869 107.284C159.738 105.661 159.668 104.033 159.598 102.405C159.585 102.098 159.572 101.792 159.559 101.485C159.462 99.2955 159.306 99.1449 157.183 99.2686C157.053 99.2761 156.922 99.2852 156.791 99.2947C156.274 99.331 155.754 99.3678 155.249 99.3038C155.162 99.2923 155.074 99.2812 154.985 99.2706C154.079 99.1571 153.15 99.0405 152.317 98.7109C148.894 97.3547 148.317 93.7127 151.169 91.366C151.8 90.847 152.556 90.477 153.309 90.1082C153.592 89.9699 153.874 89.8315 154.15 89.6857C154.366 89.571 154.593 89.4746 154.821 89.3782C155.192 89.2208 155.562 89.0639 155.877 88.8303C156.008 88.7331 156.101 88.5425 156.155 88.3335C156.266 87.8979 155.982 87.4259 155.533 87.4085C155.458 87.4058 155.39 87.4152 155.332 87.437C155.193 87.4896 155.053 87.5417 154.913 87.5939C152.579 88.4667 150.233 89.3434 148.747 91.5909C146.886 94.4064 147.732 97.9931 150.605 99.765C152.069 100.668 153.691 101.024 155.401 101.039C155.915 101.043 156.43 101.042 156.963 101.041C157.219 101.04 157.479 101.04 157.746 101.04C157.771 101.334 157.794 101.595 157.815 101.835C157.853 102.26 157.885 102.619 157.913 102.979C158.02 104.367 158.126 105.756 158.232 107.145C158.541 111.188 158.85 115.23 159.196 119.27C159.236 119.74 159.385 120.201 159.56 120.699Z" fill="black"/>
<path fill-rule="evenodd" clip-rule="evenodd" d="M95.8018 161.856L94.9368 153.385V151.239L98.3034 144.614L117.574 132.025L141.148 124.121C141.148 124.121 154.52 120.866 160.049 120.317C165.579 119.769 171.619 120.866 171.619 120.866L188.387 121.651L198.386 128.047L205.438 140.904L211.27 158.848L233.897 143.425L236.904 145.989L244.12 137.608L249.01 134.892L249.961 136.873L246.217 142.161L252.537 138.056L261.117 135.474L262.636 136.873L255.021 143.425L255.905 147.214L257.4 147.402V151.239L254.028 155.082L244.89 158.848L239.849 163.315L225.898 177.57L213.846 185.21L208.286 184.331L199.937 175.303L205.438 190.926L194.857 196.593L189.516 197.142L188.387 195.318L166.987 198.036L153.59 199.81L141.972 197.142L148.552 210.103V211.765H146.866L142.726 208.025L140.143 220.069L138.508 222.17L136.456 220.672L134.06 223.3L133.241 222.17L134.06 214.077L128.465 217.961L127.687 217.242L128.465 215.314L133.241 210.969L112.847 193.718L103.73 178.775L95.8018 161.856ZM142.08 190.66V146.222L130.745 150.537L116.295 157.989L116.399 158.169L116.469 158.291C116.516 158.371 116.585 158.489 116.674 158.641C116.851 158.944 117.109 159.384 117.431 159.928C118.074 161.017 118.971 162.523 119.987 164.196C122.019 167.539 124.532 171.552 126.446 174.212C128.36 176.872 131.5 180.715 134.157 183.889C135.487 185.476 136.697 186.899 137.574 187.923C138.013 188.436 138.369 188.849 138.615 189.134C138.738 189.277 138.834 189.387 138.898 189.462L138.997 189.576L138.998 189.577L139.032 189.617L142.08 190.66ZM116.57 158.07L116.399 158.169C116.399 158.169 116.399 158.169 116.57 158.07ZM117.015 158.441C116.946 158.323 116.889 158.225 116.845 158.15L130.907 150.899L141.685 146.796V190.107L139.261 189.277L139.197 189.204C139.133 189.129 139.037 189.019 138.915 188.876C138.669 188.591 138.313 188.179 137.875 187.666C136.998 186.642 135.789 185.222 134.461 183.635C131.803 180.461 128.672 176.628 126.768 173.982C124.863 171.335 122.358 167.334 120.325 163.991C119.31 162.32 118.414 160.815 117.772 159.727C117.45 159.184 117.192 158.744 117.015 158.441Z" fill="white"/>
<path fill-rule="evenodd" clip-rule="evenodd" d="M250.02 147.408C251.366 146.878 252.748 146.334 254.691 146.206C254.734 145.707 254.274 144.358 253.445 144.571C253.265 144.618 253.06 144.669 252.836 144.725C251.151 145.144 248.417 145.824 247.455 146.795C247.092 147.162 246.678 147.94 247.941 148.145C248.67 147.939 249.34 147.675 250.02 147.408ZM259.636 138.275C259.993 138.027 260.312 137.723 260.72 137.334C261.004 137.063 260.792 136.587 260.399 136.612C258.455 136.733 256.973 137.317 255.577 138.045C252.446 139.68 249.368 141.421 246.322 143.211C246.161 143.304 246.005 143.389 245.854 143.46C244.707 144.001 243.654 142.538 244.493 141.588C245.231 140.75 245.965 139.918 246.698 139.088C247.281 138.427 247.862 137.767 248.444 137.108C248.678 136.842 248.824 136.501 248.813 136.147C248.811 136.089 248.804 136.037 248.784 135.999C246.925 136.15 245.2 137.349 243.952 138.635C242.176 140.466 240.454 142.37 238.899 144.389C236.74 147.191 236.784 147.283 238.313 150.481L238.372 150.604C238.489 150.849 238.605 151.095 238.721 151.34C239.087 152.115 239.454 152.89 239.853 153.648C240.469 154.82 241.104 155.982 241.716 157.1C241.964 157.554 242.209 158.001 242.447 158.439C243.183 158.163 243.903 157.904 244.608 157.651C246.192 157.081 247.703 156.537 249.169 155.892C250.947 155.11 252.729 154.241 254.303 153.12C256.004 151.908 256.377 150.495 255.707 148.643C255.588 148.313 255.249 148.115 254.904 148.168C254.538 148.224 254.163 148.273 253.789 148.322C252.835 148.447 251.883 148.572 251.078 148.805C249.883 149.151 248.641 149.711 247.558 150.512C247.252 150.689 247.012 151.903 247.838 151.775C248.792 151.736 249.738 151.613 250.679 151.491C251.611 151.37 252.538 151.25 253.464 151.212C253.935 151.193 254.308 151.614 254.212 152.075C254.09 152.659 253.585 152.886 253.039 152.937C251.178 153.111 249.298 153.268 247.438 153.187C246.137 153.129 245.675 152.372 245.737 151.02C245.759 150.532 246.604 149.343 246.604 149.343C244.771 149.082 244.818 147.077 246.058 146.094C247.222 145.171 248.539 144.666 249.925 144.186C252.933 143.144 255.178 141.505 257.573 139.756C258.242 139.268 258.923 138.77 259.636 138.275ZM235.685 165.652C236.938 164.386 238.192 163.119 239.449 161.858C239.845 161.461 240.186 161.01 240.509 160.581C240.654 160.389 240.796 160.202 240.937 160.026C238.378 154.845 235.896 149.822 233.428 144.825C233.326 144.854 233.238 144.873 233.163 144.89C233.034 144.918 232.942 144.939 232.869 144.988C230.117 146.857 227.367 148.728 224.617 150.599C220.839 153.169 217.061 155.739 213.279 158.304C211.915 159.23 211.016 160.44 210.622 162.059C210.428 162.857 210.155 163.663 209.754 164.372C209.725 164.422 209.691 164.469 209.65 164.512C209.157 165.035 208.219 164.787 208.084 164.081C208.068 163.999 208.067 163.919 208.086 163.846C208.386 162.634 208.787 161.435 209.287 160.29C209.339 160.171 209.39 160.053 209.44 159.937C209.665 159.415 209.876 158.923 210.135 158.486C210.135 158.486 209.59 157.388 209.455 156.982C209.08 155.854 208.747 154.712 208.414 153.569C207.946 151.967 207.479 150.364 206.897 148.804C206.622 148.066 206.349 147.327 206.077 146.587C204.634 142.674 203.188 138.751 201.369 135.015C196.204 124.405 185.3 119.78 172.456 121.408C172.516 121.778 172.57 122.13 172.623 122.471C172.73 123.162 172.829 123.805 172.955 124.442C174.241 131.005 175.532 137.567 176.822 144.129C177.808 149.144 178.795 154.16 179.779 159.176C179.907 159.827 180.034 160.478 180.161 161.129C182.069 170.881 183.977 180.634 187.151 190.079C187.668 191.618 188.33 193.109 188.993 194.601C189.299 195.29 189.605 195.98 189.898 196.675C195.447 195.766 199.931 193.383 204.042 190.117C203.911 189.799 203.788 189.504 203.671 189.223C203.431 188.653 203.217 188.143 203.025 187.625C202.39 185.913 201.727 184.21 201.063 182.507C199.545 178.611 198.027 174.715 196.847 170.72C194.742 163.595 192.871 156.401 190.999 149.207C190.315 146.579 189.632 143.95 188.936 141.326C188.767 140.686 188.73 139.986 188.783 139.326C188.803 139.059 189.189 138.722 189.483 138.61C189.674 138.538 190.082 138.747 190.242 138.95C190.452 139.215 190.56 139.574 190.662 139.912C190.668 139.93 190.673 139.948 190.678 139.965C191.447 142.503 192.211 145.043 192.976 147.581C194.119 151.374 195.261 155.167 196.415 158.957C198.277 165.074 200.192 171.173 203.217 176.848C203.818 177.974 204.434 179.098 205.125 180.17C207.029 183.122 210.642 184.438 213.98 183.366C218.009 182.073 221.399 179.641 224.405 176.799C228.246 173.169 231.965 169.411 235.685 165.652ZM165.38 196.256C165.386 196.515 165.391 196.784 165.392 197.067C172.638 196.894 179.636 196.54 186.515 194.758C186.494 194.601 186.48 194.472 186.469 194.361C186.449 194.166 186.436 194.029 186.391 193.902C182.966 184.156 180.713 174.113 178.8 163.983C178.225 160.938 177.651 157.891 177.077 154.845C175.91 148.657 174.744 142.469 173.569 136.282L173.557 136.217C173.458 135.694 173.357 135.166 173.198 134.586C169.833 136.07 166.503 136.083 162.978 135.741C163.051 136.214 163.103 136.672 163.154 137.121C163.21 137.618 163.265 138.104 163.347 138.587C163.577 139.952 163.833 141.314 164.09 142.676C164.641 145.603 165.192 148.531 165.484 151.485C166.909 165.9 166.539 180.329 165.397 194.749C165.358 195.236 165.369 195.726 165.38 196.256ZM117.623 158.172C123.438 169.384 131.56 178.905 140.213 188.185C141.044 179.41 140.944 170.656 140.844 161.903C140.79 157.166 140.736 152.429 140.83 147.689C135.79 148.554 120.007 155.691 117.623 158.172ZM144.323 196.492C144.177 196.78 144.025 197.079 143.858 197.389C150.12 198.71 156.062 198.711 162.149 197.825C162.291 172.234 161.707 146.855 158.643 121.142C156.254 121.699 153.89 122.242 151.544 122.782C146.377 123.97 141.297 125.139 136.235 126.377C124.393 129.273 113.758 134.824 103.66 141.495C101.207 143.117 98.9224 144.962 97.1437 147.355C95.6 149.432 94.9427 151.731 95.1001 154.334C95.2939 157.541 96.1621 160.573 97.4281 163.47C98.7879 166.583 100.235 169.657 101.683 172.732C102.286 174.012 102.889 175.292 103.485 176.574C109.779 190.108 119.705 200.523 131.569 209.268C131.677 209.348 131.809 209.395 131.987 209.458C132.086 209.494 132.201 209.534 132.333 209.589C132.462 209.36 132.595 209.137 132.728 208.914C133.011 208.438 133.291 207.968 133.516 207.471C134.471 205.367 135.415 203.258 136.36 201.148C137.32 199.003 138.28 196.858 139.252 194.717C139.908 193.269 140.527 191.766 140.527 191.766C140.527 191.766 139.547 190.689 138.506 189.548C129.503 179.683 121.247 169.264 114.853 157.473C114.461 156.75 114.077 156.011 113.818 155.236C113.736 154.992 113.994 154.459 114.24 154.33C114.485 154.201 115.027 154.295 115.23 154.5C115.554 154.827 115.812 155.219 116.067 155.605C116.17 155.762 116.272 155.917 116.378 156.067C117.388 155.551 118.381 155.026 119.365 154.504C121.55 153.346 123.697 152.208 125.92 151.244C129.18 149.83 132.498 148.549 135.816 147.268C137.198 146.734 138.579 146.201 139.956 145.658C140.026 145.631 140.096 145.602 140.166 145.573C140.445 145.46 140.726 145.345 141.017 145.282C142.14 145.039 142.563 145.327 142.685 146.441C142.726 146.807 142.718 147.18 142.71 147.552C142.707 147.708 142.704 147.863 142.704 148.019C142.706 149.131 142.709 150.244 142.712 151.357C142.719 153.93 142.726 156.503 142.718 159.077C142.712 161.124 142.711 163.171 142.71 165.218C142.707 171.52 142.704 177.822 142.55 184.119C142.525 185.159 142.277 187.565 142.256 187.76L142.255 187.773C142.278 187.582 143.821 188.992 144.27 189.459C145.746 190.992 146.527 192.905 145.261 194.809C144.917 195.328 144.633 195.886 144.323 196.492ZM133.653 213.356C133.913 213.087 134.311 213.003 134.652 213.169C134.915 213.296 135.055 213.589 135.016 213.88C134.931 214.519 134.755 215.392 134.565 216.327C134.217 218.044 133.827 219.973 133.88 221.06L133.903 221.309C133.939 221.726 134.512 221.813 134.672 221.426C134.95 220.745 135.222 219.987 135.311 219.526C135.569 218.192 135.718 217.192 135.845 216.332C136.044 214.992 136.193 213.991 136.628 212.592C136.672 212.449 136.71 212.301 136.747 212.152C136.842 211.781 136.936 211.409 137.138 211.11C137.341 210.811 137.917 210.476 138.169 210.572C138.471 210.686 138.799 211.255 138.775 211.603C138.732 212.249 138.54 212.889 138.351 213.521C138.324 213.612 138.297 213.703 138.27 213.794C137.959 214.852 137.901 215.548 137.815 216.584C137.766 217.171 137.708 217.867 137.59 218.801C137.545 219.156 137.507 219.354 137.467 219.558C137.414 219.827 137.36 220.105 137.287 220.766C137.183 221.713 138.507 221.496 138.624 221.1C138.661 220.972 138.699 220.846 138.735 220.722C138.981 219.892 139.201 219.144 139.352 218.383C139.71 216.582 140.044 214.778 140.378 212.973C140.646 211.524 140.915 210.074 141.195 208.627C141.222 208.486 141.258 208.345 141.297 208.206C141.582 207.211 142.825 206.894 143.577 207.606C143.765 207.785 143.935 207.979 144.102 208.172C144.287 208.384 144.469 208.592 144.671 208.773C145.148 209.201 145.433 209.601 145.721 210.005C145.887 210.238 146.054 210.473 146.261 210.716C146.534 211.037 146.944 211.212 147.365 211.183L147.379 211.182C147.576 211.168 147.709 210.972 147.644 210.785C146.164 206.563 143.855 201.793 140.518 198.731C140.534 198.746 140.135 199.806 140.117 199.846C139.67 200.816 139.27 201.715 138.88 202.59C137.635 205.386 136.498 207.936 134.321 211.769C133.98 212.37 133.598 212.572 132.935 212.765C132.881 212.78 132.76 212.753 132.634 212.725C132.472 212.689 132.3 212.65 132.246 212.698C131.979 212.939 131.673 213.197 131.352 213.467C130.278 214.372 129.029 215.425 128.438 216.499C128.412 217.001 128.911 217.029 129.086 216.939C130.247 216.341 132.565 214.478 133.653 213.356ZM260.734 134.594C261.444 134.492 262.155 134.388 262.775 135.179C263.484 136.083 263.386 137.389 262.587 138.215C261.914 138.911 261.134 139.521 260.361 140.105C259.51 140.747 258.529 141.373 257.546 142.001C256.798 142.478 256.048 142.956 255.354 143.443C255.982 144.107 256.569 145.52 256.287 146.426C256.699 146.552 257.388 147.184 257.631 147.747C258.538 149.85 257.946 152.637 255.871 154.265C254.238 155.547 252.4 156.835 250.446 157.388C245.519 158.781 241.911 161.685 238.61 165.51C233.941 170.918 228.856 175.996 223.108 180.293C220.778 182.035 218.213 183.542 215.578 184.779C211.501 186.692 207.81 185.623 204.606 182.601C204.561 182.558 204.515 182.517 204.466 182.473C204.009 182.063 203.3 181.428 200.987 177.68C201.251 178.399 202.031 180.129 202.794 181.823C203.507 183.404 204.205 184.955 204.458 185.623C204.691 186.237 204.931 186.848 205.172 187.459C205.428 188.108 205.684 188.756 205.93 189.409C206.215 190.166 206.199 190.847 205.476 191.426C201.057 194.958 196.202 197.554 190.558 198.501C189.048 198.754 188.116 198.053 187.55 196.644C186.747 196.785 185.953 196.94 185.162 197.094C183.426 197.433 181.712 197.767 179.982 197.94C177.315 198.206 175.976 198.292 174.435 198.391C173.298 198.464 172.052 198.545 170.08 198.71C169.918 198.723 169.611 198.719 169.224 198.714C167.97 198.695 165.877 198.665 165.144 199.197C163.917 200.174 163.07 200.195 162.412 200.21C162.21 200.215 162.026 200.219 161.855 200.251C157.207 201.103 152.562 200.777 147.918 200.187C147.128 200.087 146.336 200.003 145.448 199.91C145.004 199.863 144.536 199.814 144.032 199.758C144.176 200.007 144.304 200.227 144.421 200.428C144.646 200.814 144.83 201.131 145.008 201.451C145.341 202.046 145.677 202.64 146.013 203.234C146.935 204.864 147.857 206.494 148.707 208.16C149.073 208.877 149.29 209.741 149.329 210.557C149.415 212.371 147.488 213.561 145.951 212.595C145.55 212.343 145.198 212.01 144.848 211.678C144.76 211.595 144.671 211.511 144.583 211.429C144.295 211.163 144.019 210.885 143.654 210.518C143.468 210.332 143.26 210.122 143.016 209.879C142.883 210.479 142.755 211.046 142.632 211.591C142.37 212.757 142.131 213.821 141.911 214.889C141.664 216.092 141.434 217.299 141.203 218.505C141.07 219.207 140.936 219.91 140.798 220.612C140.751 220.855 140.695 221.098 140.62 221.335C139.794 223.98 137.559 224.336 136.367 222.253C136.187 222.462 135.973 222.796 135.747 223.148C135.414 223.669 135.053 224.231 134.734 224.493C133.7 225.343 132.639 224.971 132.356 223.663C132.114 222.539 132.144 221.334 132.193 220.173C132.228 219.338 132.696 216.962 132.985 215.921C133.038 215.797 133.079 215.671 133.104 215.544C133.07 215.63 133.03 215.76 132.985 215.921C132.608 216.805 131.624 217.598 131.269 217.795C131.085 217.897 130.905 218.007 130.724 218.116C130.323 218.36 129.922 218.603 129.49 218.762C128.568 219.1 127.553 219.406 126.762 218.512C125.924 217.564 126.449 216.578 127.066 215.851C127.907 214.86 128.825 213.934 129.817 212.933C130.248 212.498 130.695 212.048 131.155 211.572C130.947 211.389 130.729 211.193 130.504 210.991C129.985 210.524 129.425 210.02 128.845 209.54C127.599 208.511 126.344 207.493 125.088 206.475C124.473 205.976 123.857 205.477 123.243 204.977C115.381 198.572 108.965 190.936 104.229 181.98C101.243 176.331 98.5447 170.525 95.8729 164.718C94.3929 161.5 93.4259 158.095 93.2064 154.508C93.0197 151.45 93.7557 148.709 95.5961 146.243C97.4716 143.731 99.8451 141.768 102.415 140.044C113.437 132.652 125.194 126.863 138.2 123.869C141.316 123.151 144.44 122.473 147.565 121.794C150.096 121.244 152.628 120.694 155.155 120.124C156.11 119.908 157.049 119.615 158.117 119.28C158.307 119.221 158.501 119.161 158.7 119.099C159.678 118.796 160.739 119.352 160.989 120.345C161.056 120.61 161.107 120.894 161.147 121.186C161.627 124.612 162.108 128.038 162.591 131.463C162.654 131.904 162.724 132.345 162.799 132.817C162.836 133.05 162.874 133.292 162.914 133.545C166.333 134.413 169.502 134.152 172.751 132.508C172.623 131.916 172.496 131.331 172.371 130.752C172.078 129.402 171.791 128.079 171.516 126.753C171.436 126.364 171.354 125.975 171.272 125.586C170.951 124.06 170.631 122.535 170.385 120.997C170.117 119.321 170.459 119.072 172.121 119.198C172.677 119.24 173.239 119.2 173.802 119.161C174.139 119.137 174.477 119.113 174.813 119.107C179.744 119.017 184.577 119.585 189.222 121.336C194.718 123.408 198.882 127.097 201.918 132.057C205.041 137.161 207.076 142.748 208.849 148.432C209.457 150.38 210.034 152.339 210.625 154.35C210.899 155.279 211.175 156.219 211.46 157.175C212.379 156.524 213.272 155.884 214.149 155.256C216.069 153.88 217.912 152.559 219.791 151.29C223.391 148.856 227.032 146.482 230.674 144.109C230.941 143.933 231.21 143.759 231.478 143.584C234.151 141.841 234.17 141.856 236.752 143.836L236.771 143.851C237.117 143.427 237.454 142.994 237.792 142.56C238.556 141.578 239.322 140.595 240.191 139.714C241.606 138.276 243.164 136.964 244.761 135.726C245.451 135.19 246.364 134.896 247.221 134.637C247.266 134.623 247.312 134.609 247.358 134.595C248.392 134.281 249.535 133.932 250.356 134.987C251.123 135.972 250.594 136.986 250.082 137.935C250.014 138.062 249.591 138.84 249.202 139.031C249.897 138.691 250.927 138.172 251.649 137.808C251.812 137.726 251.959 137.651 252.083 137.589L252.152 137.555C254.753 136.246 257.354 134.937 260.318 134.648C260.456 134.635 260.595 134.615 260.734 134.594ZM178.419 129.497C178.932 129.993 178.905 130.895 178.351 131.339C178.214 131.448 178.082 131.528 177.94 131.568C177.277 131.758 176.669 130.988 176.836 130.101C176.869 129.924 176.958 129.761 177.072 129.603C177.399 129.151 178.008 129.099 178.402 129.48L178.419 129.497ZM181.769 145.314C182.135 145.874 181.936 146.589 181.252 146.909C181.139 146.961 181.021 146.998 180.899 147.007C179.975 147.079 179.719 146.399 179.6 145.805C179.476 145.193 179.852 144.746 180.631 144.647C181.033 144.597 181.476 144.867 181.769 145.314ZM189.863 192.025C189.952 190.822 191.761 190.456 192.407 191.503C192.553 191.741 192.632 192.007 192.629 192.28C192.618 193.011 192.26 193.562 191.417 193.65C190.666 193.727 189.81 192.919 189.862 192.041L189.863 192.035C189.863 192.031 189.863 192.028 189.863 192.025ZM184.85 167.036C185.688 166.535 185.719 165.432 184.991 164.806C184.77 164.615 184.554 164.476 184.317 164.429C183.504 164.265 183.082 164.978 183.142 165.694C183.203 166.432 183.515 167.241 184.478 167.167C184.603 167.157 184.725 167.11 184.85 167.036ZM187.261 184.656C186.848 183.989 187.181 182.236 188.346 182.649C189.595 183.092 190.027 185.084 188.434 185.343C188.008 185.413 187.561 185.14 187.261 184.656ZM186.844 175.668C187.723 175.088 187.69 173.887 186.811 173.308C186.701 173.235 186.589 173.178 186.468 173.141C185.751 172.917 185.099 173.669 185.114 174.516C185.129 175.376 185.779 176.061 186.54 175.818C186.647 175.784 186.747 175.733 186.844 175.668ZM183.035 156.613C183.696 156.096 183.696 155.089 183.045 154.561C182.81 154.371 182.59 154.228 182.349 154.165C181.621 153.976 181.172 154.526 181.159 155.299C181.145 156.188 181.866 157.071 182.578 156.864C182.737 156.817 182.885 156.73 183.035 156.613ZM179.605 137.178C180.097 137.768 180.178 138.733 179.325 139.051C179.223 139.088 179.126 139.109 179.03 139.108C178.239 139.095 177.89 138.386 178.022 137.684C178.092 137.315 178.395 136.785 178.805 136.739C178.941 136.723 179.077 136.773 179.198 136.839C179.351 136.923 179.489 137.04 179.605 137.178Z" fill="black"/>
<path fill-rule="evenodd" clip-rule="evenodd" d="M178.477 93.4987L178.477 93.4997C178.601 94.0139 178.727 94.5349 178.853 95.0664C178.566 95.0945 178.295 95.1159 178.038 95.1362C177.422 95.1848 176.879 95.2277 176.352 95.3431C176.098 95.3988 175.768 95.819 175.761 96.0799C175.755 96.3257 176.09 96.742 176.342 96.8024C177.101 96.9835 177.892 97.0787 178.674 97.1159C180.5 97.2029 181.034 96.5981 180.653 94.8206C180.293 93.1456 179.872 91.4831 179.452 89.8215L179.347 89.4069C179.32 89.3018 179.297 89.1889 179.272 89.0733C179.129 88.3865 178.966 87.6072 178.046 87.8255C177.138 88.0403 177.346 88.7793 177.528 89.424C177.567 89.5611 177.604 89.6939 177.629 89.8164C177.88 91.0361 178.173 92.2469 178.477 93.4987ZM171.186 99.7158C171.696 101.392 174.377 103.24 176.698 103.276C178.254 103.232 179.713 102.113 180.965 100.668C181.148 100.458 181.214 99.828 181.082 99.728C180.794 99.5118 180.268 99.3375 179.974 99.4632C179.638 99.6068 179.35 99.8605 179.061 100.115C178.913 100.246 178.765 100.376 178.61 100.492C176.702 101.926 175.362 101.835 173.679 100.132C173.508 99.9587 173.361 99.7587 173.215 99.5595C173.018 99.2916 172.822 99.025 172.57 98.8264C172.291 98.6074 171.701 98.4695 171.45 98.6225C171.217 98.7652 171.086 99.3881 171.186 99.7158ZM169.354 94.4497C168.937 93.0888 169.624 91.36 170.726 90.9948C171.57 90.7149 172.384 91.2894 172.735 92.4126C173.177 93.8296 172.459 95.4222 171.239 95.7311C170.384 95.9475 169.662 95.4571 169.354 94.4497ZM184.602 95.5348C185.599 95.634 186.474 94.6664 186.537 93.3936C186.598 92.2003 185.746 91.0995 184.757 91.0916C183.842 91.0841 183.187 91.9596 183.134 93.2596C183.083 94.553 183.655 95.4399 184.602 95.5348Z" fill="black"/>
<path d="M400.376 129.391C400.549 128.711 400.722 128.024 400.901 127.344C401.519 124.934 402.204 122.495 402.858 120.136C404.328 114.82 405.847 109.319 406.964 103.853C407.676 100.393 408.378 96.9335 409.07 93.4737C411.891 79.4734 414.811 64.9947 418.435 50.8847C419.559 46.5027 420.288 42.0799 420.905 38.5282C421.127 37.2018 421.325 36.0139 421.523 35.028C421.633 26.2807 418.719 24.0722 414.305 23.3862C405.89 22.1175 398.29 20.9296 391.078 19.7591C381.414 18.1832 371.755 16.6031 362.104 15.0195C348.36 12.7648 334.147 10.4353 320.163 8.18646C307.97 6.22021 295.554 4.28279 283.545 2.42032L269.413 0.183125C266.367 -0.2984 263.236 0.175969 260.509 1.53216C257.783 2.88835 255.614 5.04996 254.342 7.67913C253.807 8.9309 253.406 10.2288 253.144 11.554L253.014 12.0959C249.001 28.8177 245.39 43.9655 241.759 59.3265C238.864 71.6027 235.715 85.0611 231.881 101.691C230.714 106.707 232.43 110.72 236.974 113.626C237.79 114.132 238.642 114.584 239.524 114.982C244.618 117.288 250.125 118.187 255.453 119.047C275.142 122.212 295.128 125.603 314.458 128.889L334.265 132.245C339.649 133.152 345.03 134.067 350.41 134.99C362.579 137.066 375.162 139.211 387.559 141.206C394.968 142.388 397.24 139.914 398.864 134.927C399.432 133.11 399.907 131.219 400.376 129.391Z" fill="white" fill-opacity="0.6662"/>
<path d="M399.948 129.391C400.121 128.711 400.294 128.024 400.473 127.344C401.09 124.934 401.775 122.495 402.43 120.136C403.899 114.82 405.418 109.319 406.536 103.853C407.248 100.393 407.949 96.9335 408.641 93.4737C411.463 79.4734 414.383 64.9947 418.007 50.8847C419.131 46.5027 419.859 42.0799 420.477 38.5282C420.699 37.2018 420.896 36.0139 421.094 35.028C421.205 26.2807 418.291 24.0722 413.876 23.3862C405.461 22.1175 397.861 20.9296 390.65 19.7591C380.985 18.1832 371.327 16.6031 361.675 15.0195C347.932 12.7648 333.719 10.4353 319.735 8.18646C307.541 6.22021 295.125 4.28279 283.117 2.42032L268.984 0.183125C265.939 -0.2984 262.808 0.175969 260.081 1.53216C257.354 2.88835 255.185 5.04996 253.913 7.67913C253.379 8.9309 252.978 10.2288 252.716 11.554L252.586 12.0959C248.573 28.8177 244.961 43.9655 241.331 59.3265C238.435 71.6027 235.286 85.0611 231.452 101.691C230.285 106.707 232.002 110.72 236.546 113.626C237.362 114.132 238.214 114.584 239.096 114.982C244.189 117.288 249.697 118.187 255.025 119.047C274.714 122.212 294.699 125.603 314.03 128.889L333.836 132.245C339.22 133.152 344.602 134.067 349.982 134.99C362.15 137.066 374.733 139.211 387.131 141.206C394.539 142.388 396.812 139.914 398.435 134.927C399.003 133.11 399.479 131.219 399.948 129.391ZM393.379 128.036C392.582 131.697 390.409 134.448 386.34 136.956C385.211 137.632 383.89 137.976 382.55 137.942C381.7 137.931 380.853 137.85 380.018 137.7C375.955 137.037 371.899 136.351 367.843 135.665L360.144 134.373L330.749 129.466L274.658 120.119L270.336 119.398C264.477 118.43 258.42 117.426 252.5 116.233C248.093 115.324 243.761 114.127 239.534 112.652C235.441 111.245 233.768 108.466 233.922 103.357V103.265C234.039 102.688 234.169 102.048 234.317 101.327C234.675 99.5455 235.12 97.2908 235.626 95.1227L238.429 82.8639C242.806 63.7088 247.338 43.902 251.876 24.4356C253.111 19.1249 254.753 13.8663 256.321 8.94187C257.494 5.26307 260.31 2.96815 264.249 2.4838C266.194 2.20605 268.172 2.1963 270.12 2.45494C286.981 5.01513 299.873 7.03334 311.925 8.99959C333.386 12.5054 355.192 16.1265 376.283 19.6323L389.032 21.7544C395.262 22.7805 401.701 23.8474 408.005 25.0582C412.993 26.0154 414.796 28.4371 413.994 33.1308C413.117 38.3493 411.956 43.6079 410.833 48.6995L410.586 49.8528C408.569 59.0248 406.542 68.1988 404.504 77.3746C400.837 93.9639 397.04 111.135 393.366 128.036H393.379Z" fill="black"/>
<path d="M267.404 17.6523C266.873 19.2329 266.404 20.9061 265.965 22.7753C260.571 45.8126 255.191 68.8497 249.825 91.8873C248.85 96.0811 247.719 100.956 246.688 105.733C246.441 106.886 246.428 107.463 246.651 107.775C246.873 108.087 247.324 108.219 248.281 108.352C252.811 109.121 257.34 109.89 261.87 110.659C270.863 112.194 280.171 113.775 289.338 115.275C310.406 118.684 331.833 122.094 352.556 125.393L371.938 128.48C374.983 128.964 375.212 128.832 376.015 126.091C376.095 125.832 376.157 125.566 376.219 125.301L376.311 124.891C377.58 119.757 378.848 114.623 380.116 109.488C383.062 97.5695 386.114 85.2587 389.017 73.0979C391.555 62.4771 393.958 51.6258 396.225 41.1376L396.762 38.6513C397.084 37.2033 397.207 36.2054 396.843 35.7091C396.478 35.213 395.478 34.9765 393.853 34.7112L387.244 33.6496L381.58 32.7439L354.403 28.3423C332.945 24.8808 311.485 21.4196 290.023 17.958C285.656 17.2543 281.327 16.6255 277.145 16.0195L271.919 15.2582C271.481 15.2582 271.098 15.2582 270.752 15.2582C268.393 15.2064 268.078 15.6736 267.404 17.6523ZM395.75 37.5553L373.464 125.549L373.038 125.595H372.97C368.968 125.595 251.728 107.515 249.473 106.558L249.029 106.367L269.004 16.5333L395.75 37.5553Z" fill="black"/>
<path d="M391.761 100.035C393.152 100.144 394.041 100.208 394.333 100.001C394.625 99.7938 394.78 98.9885 395.01 97.7747V97.6197C395.979 92.5237 396.964 87.428 397.967 82.332C398.501 79.6213 399.031 76.9124 399.557 74.2053C399.961 72.1117 400.358 70.024 400.799 67.7981L401.383 64.7211C401.321 64.5946 401.253 64.4509 401.191 64.3068C401.047 63.8704 400.787 63.4745 400.433 63.1568C399.739 62.7102 398.923 62.4551 398.078 62.4204C397.758 62.4193 397.44 62.4716 397.14 62.5758C396.153 62.9208 395.407 63.8239 394.972 65.1869C394.811 65.7103 394.625 66.3373 394.494 66.9584C392.32 77.1999 390.156 87.4434 388.002 97.6886C387.916 98.0671 387.87 98.4523 387.865 98.839C387.865 99.5177 387.978 99.9375 388.195 100.11C388.412 100.283 388.89 100.34 389.661 100.254C389.854 100.254 390.052 100.202 390.282 100.173C390.767 100.071 391.264 100.025 391.761 100.035ZM390.953 97.027C390.953 96.6878 390.953 96.3541 390.953 96.0149C390.944 95.2451 391 94.4758 391.121 93.7142C392.618 85.7312 394.227 77.1903 396.401 66.0324C396.492 65.669 396.654 65.324 396.88 65.0144C396.96 64.8878 397.041 64.7613 397.116 64.6292L397.457 63.9906L398.078 64.4334C398.203 64.5312 398.327 64.6059 398.426 64.6749C398.712 64.8532 399.048 65.0834 398.992 65.4974C397.184 76.1205 395.382 86.5883 393.63 96.6014C393.541 96.924 393.333 97.2071 393.04 97.4012C392.974 97.4483 392.912 97.5004 392.854 97.5562L392.624 97.7864L390.91 97.5219L390.953 97.027Z" fill="black"/>
<path d="M304.444 42.7738C300.537 42.324 296.507 41.9204 292.119 41.5283L291.823 41.4995C288.742 41.2283 285.575 40.9228 282.457 40.8652C279.339 40.8076 279.209 40.8652 278.698 43.7484C277.73 49.2785 276.991 53.8106 276.375 58.0201C275.53 63.7865 274.717 69.5531 273.91 75.3194C273.289 79.725 272.673 84.1286 272.061 88.5301C271.936 89.2918 271.765 90.0465 271.549 90.7904C271.482 91.0211 271.426 91.2288 271.383 91.4075L271.328 91.6265L271.131 91.7537C270.193 92.2922 269.079 92.497 267.994 92.3303C267.113 92.2782 266.435 92.2378 265.831 92.6934C266.996 93.5354 268.345 93.7198 269.756 93.9101L270.736 94.0544C282.032 95.9111 293.469 97.6986 303.162 99.1981C316.559 101.274 331.293 103.534 349.534 106.308C351.111 106.55 352.738 106.7 354.315 106.844L355.166 106.919C355.629 107.011 356.112 106.932 356.515 106.7C356.585 106.631 356.636 106.549 356.668 106.46C356.698 106.37 356.707 106.274 356.694 106.181C356.489 105.64 356.076 105.19 355.536 104.918C354.951 104.646 354.329 104.452 353.687 104.342C353.299 104.249 352.886 104.157 352.455 104.036L352.011 103.915V103.482C352.011 103.217 352.011 102.981 352.011 102.75C351.97 102.279 351.989 101.805 352.066 101.337C352.436 99.665 352.824 97.9986 353.212 96.3263C353.564 94.8271 353.915 93.3221 354.254 91.8168C354.377 91.2402 354.507 90.6635 354.642 90.0869C355.11 88.0341 355.591 85.9123 355.875 83.819C356.22 81.2876 355.449 80.3592 352.701 79.8806C346.539 78.8656 341.861 78.1508 337.486 77.5738C335.151 77.2684 334.658 77.5738 334.005 79.7134C333.32 81.9506 332.711 84.361 332.07 87.3076C331.607 89.4527 331.188 91.6498 330.775 93.7719C330.474 95.3173 330.159 96.8683 329.857 98.4196C329.457 100.403 328.157 100.651 327.146 100.513C326.855 100.487 326.573 100.407 326.316 100.277C326.058 100.147 325.831 99.9705 325.648 99.7573C325.46 99.4535 325.337 99.1178 325.287 98.7696C325.238 98.421 325.262 98.0669 325.359 97.7274L325.574 96.5742C325.765 95.5364 325.963 94.4637 326.129 93.4027L327.004 87.7574C327.996 81.3624 329.025 74.7427 329.956 68.2267C330.134 66.9812 330.03 66.1739 329.623 65.6836C329.216 65.1934 328.471 64.9342 327.22 64.7957C321.261 64.1498 316.029 63.6942 311.198 63.4059C308.08 63.2157 307.574 63.625 307.026 66.7505C306.194 71.4846 305.387 76.6108 304.487 82.8965C304.191 84.9781 303.939 87.1057 303.698 89.1644C303.483 90.9923 303.261 92.8837 303.002 94.7462C302.884 95.2266 302.621 95.6647 302.244 96.0092C302.127 96.136 302.01 96.2687 301.911 96.3955L301.449 97.0298L300.925 96.4531C300.802 96.3146 300.66 96.1823 300.518 96.0438C300.079 95.6918 299.746 95.2385 299.551 94.7291C299.413 94.0358 299.428 93.3236 299.594 92.6358L299.65 92.3187C300.093 89.4931 300.545 86.6655 301.005 83.8362C301.751 79.1943 302.521 74.3968 303.236 69.6683C304.536 61.134 305.756 52.6111 306.779 45.4032C306.933 44.325 306.89 43.7367 306.638 43.4371C306.385 43.1371 305.664 42.9122 304.444 42.7738ZM347.377 103.765L346.964 103.24C346.964 103.194 346.884 103.142 346.841 103.09C346.619 102.825 346.286 102.433 346.674 102.052C347.063 101.672 347.29 101.476 347.611 101.233L348.301 100.657L349.46 101.925L347.377 103.765ZM349.287 98.9729C349.287 99.0421 349.287 99.1114 349.287 99.1806C349.273 99.4413 349.208 99.6973 349.096 99.9362C349.011 100.067 348.892 100.176 348.75 100.253C348.607 100.33 348.447 100.371 348.283 100.374H348.147L347.697 100.484L346.939 99.29L349.558 97.6122L349.287 98.9729ZM348.406 97.5255L348.307 97.7449L348.067 97.8371L347.845 97.9177L347.685 98.039L347.648 97.9986L347.161 98.1947C345.306 99.7389 343.366 101.192 341.35 102.548L339.354 103.944L340.426 101.839C341.362 100.005 343.199 98.5927 346.471 97.2259C346.705 97.0184 346.939 96.8165 347.161 96.603L347.648 96.159L347.753 96.28C348.09 95.8797 348.472 95.5143 348.893 95.1905L349.373 94.8038L350.489 96.0554L348.406 97.5255ZM348.406 94.8789C344.961 97.122 341.399 99.446 337.868 101.689C337.614 101.837 337.317 101.909 337.018 101.897C336.815 101.897 336.605 101.897 336.402 101.856C336.246 101.835 336.09 101.821 335.933 101.816H335.514L334.898 100.328L350.526 91.2518L351.604 92.7856L348.406 94.8789ZM335.594 79.3558L339.458 79.9324L335.391 83.3518L335.594 79.3558ZM334.781 86.2754C335.28 83.8362 337.862 81.8701 342.539 80.4398L345.873 79.4076L334.436 87.792L334.781 86.2754ZM335.095 88.4321C337.942 86.408 341.325 84.0323 344.795 81.7662C345.36 81.4767 346.001 81.3467 346.643 81.3912C346.878 81.3935 347.113 81.3839 347.346 81.3627L347.857 81.3048L348.338 82.7868L334.652 92.307L334.306 91.7304C333.468 90.4791 333.727 89.3604 335.052 88.4321H335.095ZM333.641 93.57C338.152 90.6234 342.767 87.671 347.235 84.8108L350.181 82.9311L351.031 84.263L333.351 97.2087V96.0208C333.351 95.6228 333.351 95.2711 333.302 94.9886C333.203 94.3252 333.16 93.8525 333.586 93.5583L333.641 93.57ZM331.903 99.3363C332.02 99.169 332.125 98.9904 332.23 98.8117C332.473 98.3142 332.831 97.8732 333.277 97.52C338.207 94.187 343.26 90.8425 348.141 87.6076L349.638 86.6158C350.008 86.3734 350.39 86.166 350.828 85.9295L351.493 85.5661L352.109 85.226L352.381 85.8372C353.459 88.2418 351.697 89.3316 350.649 89.9833L343.063 94.6656L338.306 97.6064L334.837 99.7631L332.926 100.957L331.583 99.7573L331.903 99.3363ZM305.011 96.603L309.029 64.83L327.608 67.1369L327.682 67.5692C328.07 69.9679 323.245 96.1302 321.883 99.025L321.717 99.3825H321.298C316.14 99.2327 310.988 98.2694 305.535 97.2488L304.974 97.145L305.011 96.603ZM281.594 43.1543C282.426 42.4971 283.868 42.8314 286.136 43.4656L287.368 43.8002L281.274 47.8945L281.15 46.9199C280.824 45.0689 280.725 43.7943 281.52 43.1717L281.594 43.1543ZM280.38 52.0403C281.077 49.2089 287.923 44.5845 291.645 44.4289L293.721 44.3422L280.01 53.5281L280.38 52.0403ZM281.175 53.4359L285.033 50.9676C287.929 49.1109 290.924 47.1907 293.925 45.3686C295.157 44.6247 296.766 44.5208 298.029 44.5153H299.644L298.448 45.5301C293.284 49.9011 287.689 53.378 281.76 57.063L279.326 58.5796L279.166 57.7089C278.729 55.3156 280.01 54.1682 281.175 53.4243V53.4359ZM296.95 92.9587C296.901 94.1579 296.624 94.8789 296.063 95.2652C295.707 95.509 295.272 95.6333 294.831 95.617C294.386 95.6065 293.944 95.5504 293.512 95.4497L292.224 95.1905L297.018 91.7016L296.95 92.9587ZM297.37 88.6916C296.92 91.886 292.76 94.7349 288.816 94.7349C288.532 94.7337 288.248 94.7183 287.966 94.6886L286.314 94.5042L297.548 87.4231L297.37 88.6916ZM298.269 85.0587C298.205 85.3624 298.076 85.6507 297.888 85.9056C297.701 86.1605 297.459 86.3766 297.178 86.5407C293.136 89.274 289.556 91.6553 286.228 93.8237C285.672 94.2025 285 94.4044 284.312 94.4003C283.258 94.3273 282.22 94.1137 281.231 93.7661L279.9 93.3855L297.265 82.7522L297.616 83.179C297.852 83.4344 298.031 83.7312 298.143 84.0518C298.255 84.3724 298.298 84.7107 298.269 85.0471V85.0587ZM297.511 81.4837L297.425 81.5355C295.25 82.925 293.062 84.3034 290.881 85.6874C287.399 87.8901 283.794 90.1678 280.269 92.4397C279.392 93.0262 278.339 93.3372 277.262 93.3279C276.072 93.2776 274.898 93.0556 273.78 92.6704L272.474 92.284L298.695 77.7007L298.923 78.41C299.502 80.2033 298.306 80.9647 297.511 81.4491V81.4837ZM274.914 90.3005L273.811 88.6744L298.46 74.0852L299.607 75.7747L274.914 90.3005ZM298.947 72.8974L295.638 74.8696C289.217 78.7137 282.794 82.5389 276.368 86.3446C276.251 86.4168 276.114 86.4549 275.974 86.4543C275.875 86.4604 275.777 86.4604 275.678 86.4543L275.253 86.3967L274.748 86.3504L274.68 85.6699C274.557 84.5167 274.427 83.3634 276.171 82.4004C281.717 79.373 287.325 76.1727 292.729 73.0818L297.043 70.608C297.579 70.3025 298.097 69.9508 298.695 69.5414C299.003 69.3337 299.311 69.103 299.705 68.8609L300.518 68.3247L300.666 69.2473C300.838 69.9482 300.762 70.6822 300.448 71.3388C300.135 71.9952 299.601 72.5383 298.929 72.8857L298.947 72.8974ZM299.699 67.4598C295.182 70.2103 290.603 73.03 286.142 75.7633L277.841 80.8724C277.524 81.0438 277.178 81.1645 276.818 81.23C276.652 81.2646 276.467 81.3106 276.27 81.3682L275.537 81.5759L275.469 80.8666C275.216 78.1217 275.629 75.9708 278.482 74.3852C283.11 71.8192 287.726 69.0975 292.236 66.4622C294.389 65.2013 296.544 63.9421 298.701 62.685C299.111 62.4575 299.542 62.2643 299.989 62.1084C300.21 62.0219 300.451 61.9355 300.703 61.8317L301.443 61.5317L301.56 62.2756C301.924 64.4786 301.739 66.1969 299.681 67.4482L299.699 67.4598ZM301.467 59.1792C300.987 59.5193 300.512 59.8653 300.038 60.217C298.855 61.0819 297.628 61.976 296.341 62.7775C291.528 65.8105 286.598 68.8493 281.834 71.7845L279.875 72.9896C279.463 73.2311 279.035 73.4469 278.593 73.6355L277.73 74.0335L276.985 74.391L276.843 73.6238C276.51 71.8538 276.368 70.0317 278.5 68.8033C283.363 66.0066 288.292 63.1348 293.056 60.3555L300.95 55.7424C301.18 55.6211 301.444 55.567 301.708 55.5868H302.01L302.447 55.5463L302.632 55.9152C303.532 57.6742 302.016 58.7582 301.449 59.1676L301.467 59.1792ZM304.499 50.0625C304.234 50.5007 304.019 50.9333 303.834 51.3138C303.566 52.0391 303.098 52.6856 302.478 53.1877C296.402 57.1436 290.351 60.9955 283.948 65.0666L277.743 69.0108L277.626 68.0594C277.373 65.9778 277.36 64.421 279.474 63.3367C287.336 59.4149 294.84 54.8961 301.911 49.826C302.185 49.6552 302.493 49.5377 302.817 49.4801C303.045 49.4225 303.347 49.3419 303.754 49.2206L305.264 48.7594L304.499 50.0625ZM304.807 46.7008C296.644 52.6489 288.097 58.122 279.215 63.0888L278.359 63.5732L278.273 62.6504C278.088 60.638 278.729 59.3809 280.479 58.3256C284.866 55.6615 289.309 52.934 293.604 50.2874L300.352 46.1413L300.592 45.9915C301.511 45.4149 302.774 44.6191 304.746 45.755L305.498 46.1934L304.807 46.7008Z" fill="black"/>
</svg>
