<svg width="354" height="63" viewBox="0 0 354 63" fill="none" xmlns="http://www.w3.org/2000/svg">
<path d="M54.5569 11.0596V2.44805H57.5542C58.2124 2.44805 58.7794 2.52735 59.2551 2.68594C59.7309 2.84453 60.0957 3.09431 60.3494 3.43528C60.6032 3.76833 60.73 4.20445 60.73 4.74366C60.73 5.02913 60.6706 5.29477 60.5516 5.54059C60.4406 5.77847 60.2741 5.98861 60.052 6.17099C59.83 6.35337 59.5485 6.50006 59.2075 6.61108C59.7943 6.74588 60.2344 6.97187 60.5278 7.28906C60.8212 7.60624 60.9679 8.01858 60.9679 8.52607C60.9679 9.04149 60.8371 9.48951 60.5754 9.87013C60.3217 10.2428 59.9609 10.5362 59.493 10.7503C59.0252 10.9565 58.4741 11.0596 57.8397 11.0596H54.5569ZM56.1983 9.79877H57.804C58.3432 9.79877 58.7357 9.67982 58.9816 9.44194C59.2274 9.19612 59.3503 8.87894 59.3503 8.49039C59.3503 8.10184 59.2234 7.80448 58.9697 7.59831C58.7238 7.39214 58.3313 7.28906 57.7921 7.28906H56.1983V9.79877ZM56.1983 6.17099H57.4591C57.808 6.17099 58.1014 6.13134 58.3393 6.05204C58.5851 5.96482 58.7714 5.83002 58.8983 5.64763C59.0252 5.46525 59.0886 5.22737 59.0886 4.93397C59.0886 4.48992 58.9617 4.1767 58.708 3.99432C58.4622 3.80401 58.0776 3.70885 57.5542 3.70885H56.1983V6.17099ZM53.6767 11.0596V10.3697C53.6767 10.2587 53.7044 10.1754 53.7599 10.1199C53.8234 10.0644 53.9106 10.0248 54.0216 10.001L54.6996 9.85824L54.8542 11.0596H53.6767ZM54.8542 2.44805L54.6996 3.64938L54.0216 3.50665C53.9106 3.48286 53.8234 3.44321 53.7599 3.38771C53.7044 3.3322 53.6767 3.24894 53.6767 3.13792V2.44805H54.8542ZM64.025 11.0596V2.44805H69.4726V3.73264H65.6783V6.11152H68.5567V7.34853H65.6783V9.77498H69.4726V11.0596H64.025ZM68.3069 10.0485L68.4853 9.07321C68.5171 8.9622 68.5607 8.87894 68.6162 8.82343C68.6717 8.75999 68.751 8.72827 68.8541 8.72827H69.4726V9.77498L68.3069 10.0485ZM68.3069 3.45907L69.4726 3.73264V4.77935H68.8541C68.751 4.77935 68.6717 4.75159 68.6162 4.69609C68.5607 4.63265 68.5171 4.54542 68.4853 4.43441L68.3069 3.45907ZM64.3223 2.44805L64.1796 3.64938L63.4897 3.50665C63.3866 3.48286 63.3034 3.44321 63.2399 3.38771C63.1765 3.3322 63.1448 3.24894 63.1448 3.13792V2.44805H64.3223ZM63.1448 11.0596V10.3697C63.1448 10.2587 63.1725 10.1754 63.228 10.1199C63.2915 10.0644 63.3787 10.0248 63.4897 10.001L64.1677 9.85824L64.3223 11.0596H63.1448ZM74.2268 11.0596V3.78022H71.6457V2.44805H78.4374V3.78022H75.8682V11.0596H74.2268ZM73.3347 11.0596V10.3697C73.3347 10.2587 73.3664 10.1754 73.4299 10.1199C73.4933 10.0644 73.5766 10.0248 73.6796 10.001L74.3695 9.85824L74.5122 11.0596H73.3347ZM75.5827 11.0596L75.7255 9.85824L76.4153 10.001C76.5264 10.0248 76.6096 10.0644 76.6651 10.1199C76.7286 10.1754 76.7603 10.2587 76.7603 10.3697V11.0596H75.5827ZM77.2836 3.49475L78.4374 3.78022V4.82692H77.8308C77.7198 4.82692 77.6365 4.79917 77.581 4.74366C77.5255 4.68023 77.4858 4.593 77.4621 4.48199L77.2836 3.49475ZM72.7995 3.49475L72.621 4.48199C72.6052 4.593 72.5655 4.68023 72.5021 4.74366C72.4466 4.79917 72.3673 4.82692 72.2642 4.82692H71.6457V3.78022L72.7995 3.49475ZM82.9166 11.0596V3.78022H80.3356V2.44805H87.1272V3.78022H84.5581V11.0596H82.9166ZM82.0246 11.0596V10.3697C82.0246 10.2587 82.0563 10.1754 82.1197 10.1199C82.1832 10.0644 82.2664 10.0248 82.3695 10.001L83.0594 9.85824L83.2021 11.0596H82.0246ZM84.2726 11.0596L84.4153 9.85824L85.1052 10.001C85.2162 10.0248 85.2995 10.0644 85.355 10.1199C85.4184 10.1754 85.4501 10.2587 85.4501 10.3697V11.0596H84.2726ZM85.9735 3.49475L87.1272 3.78022V4.82692H86.5206C86.4096 4.82692 86.3264 4.79917 86.2708 4.74366C86.2153 4.68023 86.1757 4.593 86.1519 4.48199L85.9735 3.49475ZM81.4893 3.49475L81.3109 4.48199C81.295 4.593 81.2554 4.68023 81.192 4.74366C81.1364 4.79917 81.0572 4.82692 80.9541 4.82692H80.3356V3.78022L81.4893 3.49475ZM90.0364 11.0596V2.44805H95.4841V3.73264H91.6898V6.11152H94.5682V7.34853H91.6898V9.77498H95.4841V11.0596H90.0364ZM94.3184 10.0485L94.4968 9.07321C94.5285 8.9622 94.5722 8.87894 94.6277 8.82343C94.6832 8.75999 94.7625 8.72827 94.8655 8.72827H95.4841V9.77498L94.3184 10.0485ZM94.3184 3.45907L95.4841 3.73264V4.77935H94.8655C94.7625 4.77935 94.6832 4.75159 94.6277 4.69609C94.5722 4.63265 94.5285 4.54542 94.4968 4.43441L94.3184 3.45907ZM90.3338 2.44805L90.1911 3.64938L89.5012 3.50665C89.3981 3.48286 89.3148 3.44321 89.2514 3.38771C89.188 3.3322 89.1563 3.24894 89.1563 3.13792V2.44805H90.3338ZM89.1563 11.0596V10.3697C89.1563 10.2587 89.184 10.1754 89.2395 10.1199C89.303 10.0644 89.3902 10.0248 89.5012 10.001L90.1792 9.85824L90.3338 11.0596H89.1563ZM98.6682 11.0596V2.44805H101.321C102.003 2.44805 102.589 2.53924 103.081 2.72162C103.581 2.89607 103.965 3.16568 104.235 3.53044C104.512 3.8952 104.651 4.36304 104.651 4.93397C104.651 5.33045 104.576 5.69125 104.425 6.01636C104.274 6.33354 104.056 6.60711 103.771 6.83707C103.493 7.06703 103.156 7.24941 102.76 7.38421C102.974 7.4873 103.156 7.65382 103.307 7.88378L105.424 11.0596H103.949C103.664 11.0596 103.462 10.9525 103.343 10.7384L101.57 7.99082C101.499 7.88774 101.424 7.81637 101.344 7.77673C101.265 7.72915 101.146 7.70536 100.988 7.70536H100.322V11.0596H98.6682ZM100.322 6.55161H101.297C101.868 6.55161 102.3 6.4168 102.593 6.1472C102.895 5.87759 103.045 5.51283 103.045 5.05292C103.045 4.61679 102.903 4.28375 102.617 4.05379C102.34 3.82383 101.907 3.70885 101.321 3.70885H100.322V6.55161ZM104.342 11.0596L103.723 9.70361L104.532 9.87013L104.342 11.0596ZM97.788 11.0596V10.3697C97.788 10.2587 97.8158 10.1754 97.8713 10.1199C97.9347 10.0644 98.022 10.0248 98.133 10.001L98.8109 9.85824L98.9656 11.0596H97.788ZM98.9656 2.44805L98.8109 3.64938L98.133 3.50665C98.022 3.48286 97.9347 3.44321 97.8713 3.38771C97.8158 3.3322 97.788 3.24894 97.788 3.13792V2.44805H98.9656ZM100.036 11.0596L100.179 9.85824L100.869 10.001C100.972 10.0248 101.055 10.0644 101.118 10.1199C101.182 10.1754 101.214 10.2587 101.214 10.3697V11.0596H100.036ZM104.342 11.0596L104.496 9.85824L105.174 10.001C105.285 10.0248 105.369 10.0644 105.424 10.1199C105.488 10.1754 105.519 10.2587 105.519 10.3697V11.0596H104.342ZM112.842 11.0596V2.44805H115.494C116.176 2.44805 116.763 2.53924 117.255 2.72162C117.754 2.89607 118.139 3.16568 118.409 3.53044C118.686 3.8952 118.825 4.36304 118.825 4.93397C118.825 5.33045 118.75 5.69125 118.599 6.01636C118.448 6.33354 118.23 6.60711 117.945 6.83707C117.667 7.06703 117.33 7.24941 116.934 7.38421C117.148 7.4873 117.33 7.65382 117.481 7.88378L119.598 11.0596H118.123C117.838 11.0596 117.635 10.9525 117.517 10.7384L115.744 7.99082C115.673 7.88774 115.598 7.81637 115.518 7.77673C115.439 7.72915 115.32 7.70536 115.161 7.70536H114.495V11.0596H112.842ZM114.495 6.55161H115.471C116.042 6.55161 116.474 6.4168 116.767 6.1472C117.068 5.87759 117.219 5.51283 117.219 5.05292C117.219 4.61679 117.076 4.28375 116.791 4.05379C116.513 3.82383 116.081 3.70885 115.494 3.70885H114.495V6.55161ZM118.516 11.0596L117.897 9.70361L118.706 9.87013L118.516 11.0596ZM111.962 11.0596V10.3697C111.962 10.2587 111.99 10.1754 112.045 10.1199C112.109 10.0644 112.196 10.0248 112.307 10.001L112.985 9.85824L113.139 11.0596H111.962ZM113.139 2.44805L112.985 3.64938L112.307 3.50665C112.196 3.48286 112.109 3.44321 112.045 3.38771C111.99 3.3322 111.962 3.24894 111.962 3.13792V2.44805H113.139ZM114.21 11.0596L114.353 9.85824L115.042 10.001C115.146 10.0248 115.229 10.0644 115.292 10.1199C115.356 10.1754 115.387 10.2587 115.387 10.3697V11.0596H114.21ZM118.516 11.0596L118.67 9.85824L119.348 10.001C119.459 10.0248 119.543 10.0644 119.598 10.1199C119.661 10.1754 119.693 10.2587 119.693 10.3697V11.0596H118.516ZM122.542 11.0596V2.44805H127.99V3.73264H124.196V6.11152H127.074V7.34853H124.196V9.77498H127.99V11.0596H122.542ZM126.824 10.0485L127.003 9.07321C127.035 8.9622 127.078 8.87894 127.134 8.82343C127.189 8.75999 127.268 8.72827 127.372 8.72827H127.99V9.77498L126.824 10.0485ZM126.824 3.45907L127.99 3.73264V4.77935H127.372C127.268 4.77935 127.189 4.75159 127.134 4.69609C127.078 4.63265 127.035 4.54542 127.003 4.43441L126.824 3.45907ZM122.84 2.44805L122.697 3.64938L122.007 3.50665C121.904 3.48286 121.821 3.44321 121.757 3.38771C121.694 3.3322 121.662 3.24894 121.662 3.13792V2.44805H122.84ZM121.662 11.0596V10.3697C121.662 10.2587 121.69 10.1754 121.746 10.1199C121.809 10.0644 121.896 10.0248 122.007 10.001L122.685 9.85824L122.84 11.0596H121.662ZM133.137 11.1547C132.812 11.1547 132.494 11.1349 132.185 11.0953C131.884 11.0556 131.594 11.0041 131.317 10.9406C131.047 10.8693 130.79 10.79 130.544 10.7027V9.5252L131.305 9.44194C131.646 9.60053 131.967 9.70758 132.268 9.76308C132.578 9.81066 132.895 9.83445 133.22 9.83445C133.513 9.83445 133.763 9.78687 133.969 9.69172C134.176 9.59656 134.334 9.4578 134.445 9.27542C134.564 9.08511 134.624 8.86308 134.624 8.60933C134.624 8.37144 134.564 8.18113 134.445 8.0384C134.334 7.88774 134.18 7.76483 133.981 7.66968C133.791 7.57452 133.581 7.49523 133.351 7.43179C133.121 7.36042 132.883 7.28509 132.637 7.2058C132.296 7.08685 131.971 6.94016 131.662 6.7657C131.361 6.58332 131.119 6.34147 130.936 6.04015C130.754 5.73882 130.663 5.34631 130.663 4.86261C130.663 4.39476 130.782 3.97053 131.02 3.58991C131.257 3.20929 131.587 2.90797 132.007 2.68594C132.435 2.46391 132.935 2.3529 133.506 2.3529C133.91 2.3529 134.33 2.41237 134.766 2.53131C135.21 2.65026 135.603 2.81678 135.944 3.03087V3.98242L135.087 3.97053C134.842 3.8833 134.588 3.81194 134.326 3.75643C134.072 3.70092 133.803 3.67317 133.517 3.67317C133.097 3.67317 132.772 3.77229 132.542 3.97053C132.312 4.16084 132.197 4.41459 132.197 4.73177C132.197 5.0093 132.296 5.22737 132.494 5.38596C132.701 5.54455 132.954 5.67539 133.256 5.77847C133.565 5.87363 133.874 5.97671 134.183 6.08773C134.548 6.2146 134.881 6.36923 135.183 6.55161C135.484 6.72606 135.722 6.95998 135.896 7.25337C136.071 7.53884 136.158 7.91549 136.158 8.38334C136.158 8.91462 136.035 9.39039 135.789 9.81066C135.551 10.2309 135.206 10.56 134.754 10.7979C134.302 11.0358 133.763 11.1547 133.137 11.1547ZM134.79 3.70885L135.944 3.98242V5.02913H135.325C135.222 5.02913 135.143 5.00137 135.087 4.94587C135.032 4.88243 134.992 4.79521 134.969 4.68419L134.79 3.70885ZM131.698 9.79877L130.544 9.5252V8.47849H131.162C131.265 8.47849 131.345 8.51021 131.4 8.57365C131.464 8.62916 131.503 8.71242 131.519 8.82343L131.698 9.79877ZM142.932 11.1547C142.203 11.1547 141.568 11.0041 141.029 10.7027C140.498 10.4014 140.085 9.98511 139.792 9.45383C139.499 8.91462 139.352 8.30008 139.352 7.6102V2.44805H140.993V7.59831C140.993 8.02651 141.069 8.40316 141.219 8.72827C141.37 9.05339 141.588 9.30713 141.873 9.48951C142.167 9.67189 142.52 9.76308 142.932 9.76308C143.352 9.76308 143.705 9.67586 143.991 9.50141C144.276 9.31903 144.494 9.06925 144.645 8.75206C144.796 8.42695 144.871 8.04633 144.871 7.6102V2.44805H146.512V7.6102C146.512 8.31594 146.362 8.93841 146.06 9.47762C145.759 10.0089 145.339 10.4212 144.799 10.7146C144.268 11.008 143.646 11.1547 142.932 11.1547ZM139.637 2.44805L139.483 3.64938L138.805 3.50665C138.694 3.48286 138.606 3.44321 138.543 3.38771C138.488 3.3322 138.46 3.24894 138.46 3.13792V2.44805H139.637ZM141.885 2.44805V3.13792C141.885 3.24894 141.854 3.3322 141.79 3.38771C141.727 3.44321 141.644 3.48286 141.54 3.50665L140.851 3.64938L140.708 2.44805H141.885ZM145.156 2.44805L145.002 3.64938L144.324 3.50665C144.213 3.48286 144.125 3.44321 144.062 3.38771C144.007 3.3322 143.979 3.24894 143.979 3.13792V2.44805H145.156ZM147.404 2.44805V3.13792C147.404 3.24894 147.373 3.3322 147.309 3.38771C147.254 3.44321 147.17 3.48286 147.059 3.50665L146.381 3.64938L146.227 2.44805H147.404ZM150.389 11.0596V2.44805H152.042V9.7274H155.646V11.0596H150.389ZM154.493 10.001L154.671 9.02563C154.695 8.91462 154.735 8.83136 154.79 8.77585C154.846 8.71242 154.929 8.6807 155.04 8.6807H155.646V9.7274L154.493 10.001ZM149.509 11.0596V10.3697C149.509 10.2587 149.537 10.1754 149.592 10.1199C149.656 10.0644 149.743 10.0248 149.854 10.001L150.532 9.85824L150.687 11.0596H149.509ZM150.687 2.44805L150.532 3.64938L149.854 3.50665C149.743 3.48286 149.656 3.44321 149.592 3.38771C149.537 3.3322 149.509 3.24894 149.509 3.13792V2.44805H150.687ZM152.946 2.44805V3.13792C152.946 3.24894 152.915 3.3322 152.851 3.38771C152.788 3.44321 152.705 3.48286 152.602 3.50665L151.912 3.64938L151.769 2.44805H152.946ZM159.023 11.0596V3.78022H156.442V2.44805H163.234V3.78022H160.664V11.0596H159.023ZM158.131 11.0596V10.3697C158.131 10.2587 158.163 10.1754 158.226 10.1199C158.289 10.0644 158.373 10.0248 158.476 10.001L159.166 9.85824L159.308 11.0596H158.131ZM160.379 11.0596L160.522 9.85824L161.211 10.001C161.322 10.0248 161.406 10.0644 161.461 10.1199C161.525 10.1754 161.556 10.2587 161.556 10.3697V11.0596H160.379ZM162.08 3.49475L163.234 3.78022V4.82692H162.627C162.516 4.82692 162.433 4.79917 162.377 4.74366C162.322 4.68023 162.282 4.593 162.258 4.48199L162.08 3.49475ZM157.596 3.49475L157.417 4.48199C157.401 4.593 157.362 4.68023 157.298 4.74366C157.243 4.79917 157.163 4.82692 157.06 4.82692H156.442V3.78022L157.596 3.49475ZM168.105 11.1547C167.78 11.1547 167.463 11.1349 167.154 11.0953C166.852 11.0556 166.563 11.0041 166.285 10.9406C166.016 10.8693 165.758 10.79 165.512 10.7027V9.5252L166.274 9.44194C166.615 9.60053 166.936 9.70758 167.237 9.76308C167.546 9.81066 167.863 9.83445 168.189 9.83445C168.482 9.83445 168.732 9.78687 168.938 9.69172C169.144 9.59656 169.303 9.4578 169.414 9.27542C169.533 9.08511 169.592 8.86308 169.592 8.60933C169.592 8.37144 169.533 8.18113 169.414 8.0384C169.303 7.88774 169.148 7.76483 168.95 7.66968C168.759 7.57452 168.549 7.49523 168.319 7.43179C168.089 7.36042 167.852 7.28509 167.606 7.2058C167.265 7.08685 166.94 6.94016 166.63 6.7657C166.329 6.58332 166.087 6.34147 165.905 6.04015C165.722 5.73882 165.631 5.34631 165.631 4.86261C165.631 4.39476 165.75 3.97053 165.988 3.58991C166.226 3.20929 166.555 2.90797 166.975 2.68594C167.404 2.46391 167.903 2.3529 168.474 2.3529C168.878 2.3529 169.299 2.41237 169.735 2.53131C170.179 2.65026 170.571 2.81678 170.912 3.03087V3.98242L170.056 3.97053C169.81 3.8833 169.556 3.81194 169.295 3.75643C169.041 3.70092 168.771 3.67317 168.486 3.67317C168.066 3.67317 167.741 3.77229 167.511 3.97053C167.281 4.16084 167.166 4.41459 167.166 4.73177C167.166 5.0093 167.265 5.22737 167.463 5.38596C167.669 5.54455 167.923 5.67539 168.224 5.77847C168.533 5.87363 168.843 5.97671 169.152 6.08773C169.517 6.2146 169.85 6.36923 170.151 6.55161C170.452 6.72606 170.69 6.95998 170.865 7.25337C171.039 7.53884 171.126 7.91549 171.126 8.38334C171.126 8.91462 171.004 9.39039 170.758 9.81066C170.52 10.2309 170.175 10.56 169.723 10.7979C169.271 11.0358 168.732 11.1547 168.105 11.1547ZM169.759 3.70885L170.912 3.98242V5.02913H170.294C170.191 5.02913 170.111 5.00137 170.056 4.94587C170 4.88243 169.961 4.79521 169.937 4.68419L169.759 3.70885ZM166.666 9.79877L165.512 9.5252V8.47849H166.131C166.234 8.47849 166.313 8.51021 166.369 8.57365C166.432 8.62916 166.472 8.71242 166.488 8.82343L166.666 9.79877ZM180.411 11.0596V3.78022H177.83V2.44805H184.622V3.78022H182.053V11.0596H180.411ZM179.519 11.0596V10.3697C179.519 10.2587 179.551 10.1754 179.614 10.1199C179.678 10.0644 179.761 10.0248 179.864 10.001L180.554 9.85824L180.697 11.0596H179.519ZM181.767 11.0596L181.91 9.85824L182.6 10.001C182.711 10.0248 182.794 10.0644 182.85 10.1199C182.913 10.1754 182.945 10.2587 182.945 10.3697V11.0596H181.767ZM183.468 3.49475L184.622 3.78022V4.82692H184.015C183.904 4.82692 183.821 4.79917 183.766 4.74366C183.71 4.68023 183.67 4.593 183.647 4.48199L183.468 3.49475ZM178.984 3.49475L178.806 4.48199C178.79 4.593 178.75 4.68023 178.687 4.74366C178.631 4.79917 178.552 4.82692 178.449 4.82692H177.83V3.78022L178.984 3.49475ZM187.531 11.0596V2.44805H189.185V6.15909H193.169V2.44805H194.822V11.0596H193.169V7.30095H189.185V11.0596H187.531ZM186.651 11.0596V10.3697C186.651 10.2587 186.679 10.1754 186.734 10.1199C186.798 10.0644 186.885 10.0248 186.996 10.001L187.674 9.85824L187.829 11.0596H186.651ZM188.899 11.0596L189.054 9.85824L189.732 10.001C189.843 10.0248 189.926 10.0644 189.981 10.1199C190.045 10.1754 190.077 10.2587 190.077 10.3697V11.0596H188.899ZM187.829 2.44805L187.674 3.64938L186.996 3.50665C186.885 3.48286 186.798 3.44321 186.734 3.38771C186.679 3.3322 186.651 3.24894 186.651 3.13792V2.44805H187.829ZM190.077 2.44805V3.13792C190.077 3.24894 190.045 3.3322 189.981 3.38771C189.926 3.44321 189.843 3.48286 189.732 3.50665L189.054 3.64938L188.899 2.44805H190.077ZM192.277 11.0596V10.3697C192.277 10.2587 192.305 10.1754 192.36 10.1199C192.424 10.0644 192.511 10.0248 192.622 10.001L193.3 9.85824L193.455 11.0596H192.277ZM194.537 11.0596L194.692 9.85824L195.37 10.001C195.481 10.0248 195.564 10.0644 195.619 10.1199C195.683 10.1754 195.715 10.2587 195.715 10.3697V11.0596H194.537ZM193.455 2.44805L193.3 3.64938L192.622 3.50665C192.511 3.48286 192.424 3.44321 192.36 3.38771C192.305 3.3322 192.277 3.24894 192.277 3.13792V2.44805H193.455ZM195.715 2.44805V3.13792C195.715 3.24894 195.683 3.3322 195.619 3.38771C195.564 3.44321 195.481 3.48286 195.37 3.50665L194.692 3.64938L194.537 2.44805H195.715ZM198.765 11.0596V2.44805H201.417C202.099 2.44805 202.686 2.53924 203.178 2.72162C203.677 2.89607 204.062 3.16568 204.331 3.53044C204.609 3.8952 204.748 4.36304 204.748 4.93397C204.748 5.33045 204.672 5.69125 204.522 6.01636C204.371 6.33354 204.153 6.60711 203.868 6.83707C203.59 7.06703 203.253 7.24941 202.857 7.38421C203.071 7.4873 203.253 7.65382 203.404 7.88378L205.521 11.0596H204.046C203.76 11.0596 203.558 10.9525 203.439 10.7384L201.667 7.99082C201.596 7.88774 201.52 7.81637 201.441 7.77673C201.362 7.72915 201.243 7.70536 201.084 7.70536H200.418V11.0596H198.765ZM200.418 6.55161H201.394C201.964 6.55161 202.397 6.4168 202.69 6.1472C202.991 5.87759 203.142 5.51283 203.142 5.05292C203.142 4.61679 202.999 4.28375 202.714 4.05379C202.436 3.82383 202.004 3.70885 201.417 3.70885H200.418V6.55161ZM204.438 11.0596L203.82 9.70361L204.629 9.87013L204.438 11.0596ZM197.885 11.0596V10.3697C197.885 10.2587 197.912 10.1754 197.968 10.1199C198.031 10.0644 198.119 10.0248 198.23 10.001L198.908 9.85824L199.062 11.0596H197.885ZM199.062 2.44805L198.908 3.64938L198.23 3.50665C198.119 3.48286 198.031 3.44321 197.968 3.38771C197.912 3.3322 197.885 3.24894 197.885 3.13792V2.44805H199.062ZM200.133 11.0596L200.275 9.85824L200.965 10.001C201.068 10.0248 201.152 10.0644 201.215 10.1199C201.279 10.1754 201.31 10.2587 201.31 10.3697V11.0596H200.133ZM204.438 11.0596L204.593 9.85824L205.271 10.001C205.382 10.0248 205.465 10.0644 205.521 10.1199C205.584 10.1754 205.616 10.2587 205.616 10.3697V11.0596H204.438ZM211.612 11.1547C210.962 11.1547 210.367 11.0437 209.828 10.8217C209.297 10.5997 208.837 10.2904 208.448 9.89392C208.076 9.50537 207.778 9.04149 207.556 8.50228C207.342 7.96307 207.235 7.38025 207.235 6.75381C207.235 6.11944 207.342 5.53662 207.556 5.00534C207.778 4.46613 208.076 3.99828 208.448 3.6018C208.837 3.21325 209.297 2.90797 209.828 2.68594C210.367 2.46391 210.962 2.3529 211.612 2.3529C212.271 2.3529 212.869 2.46391 213.408 2.68594C213.956 2.90797 214.415 3.21722 214.788 3.6137C215.177 4.00225 215.474 4.46613 215.68 5.00534C215.886 5.54455 215.989 6.12737 215.989 6.75381C215.989 7.38025 215.886 7.96307 215.68 8.50228C215.474 9.04149 215.177 9.50537 214.788 9.89392C214.415 10.2904 213.956 10.5997 213.408 10.8217C212.861 11.0437 212.263 11.1547 211.612 11.1547ZM211.612 9.77498C212.183 9.77498 212.667 9.65207 213.063 9.40625C213.468 9.16044 213.773 8.81154 213.979 8.35955C214.193 7.90756 214.3 7.37232 214.3 6.75381C214.3 6.14323 214.193 5.61195 213.979 5.15997C213.773 4.70798 213.468 4.35908 213.063 4.11326C212.667 3.85952 212.183 3.73264 211.612 3.73264C211.057 3.73264 210.578 3.85952 210.173 4.11326C209.769 4.35908 209.459 4.70798 209.245 5.15997C209.031 5.61195 208.924 6.14323 208.924 6.75381C208.924 7.36439 209.031 7.89963 209.245 8.35955C209.459 8.81154 209.769 9.16044 210.173 9.40625C210.578 9.65207 211.057 9.77498 211.612 9.77498ZM222.511 11.1547C221.782 11.1547 221.148 11.0041 220.608 10.7027C220.077 10.4014 219.665 9.98511 219.371 9.45383C219.078 8.91462 218.931 8.30008 218.931 7.6102V2.44805H220.573V7.59831C220.573 8.02651 220.648 8.40316 220.799 8.72827C220.949 9.05339 221.167 9.30713 221.453 9.48951C221.746 9.67189 222.099 9.76308 222.511 9.76308C222.932 9.76308 223.285 9.67586 223.57 9.50141C223.855 9.31903 224.074 9.06925 224.224 8.75206C224.375 8.42695 224.45 8.04633 224.45 7.6102V2.44805H226.092V7.6102C226.092 8.31594 225.941 8.93841 225.64 9.47762C225.338 10.0089 224.918 10.4212 224.379 10.7146C223.848 11.008 223.225 11.1547 222.511 11.1547ZM219.217 2.44805L219.062 3.64938L218.384 3.50665C218.273 3.48286 218.186 3.44321 218.122 3.38771C218.067 3.3322 218.039 3.24894 218.039 3.13792V2.44805H219.217ZM221.465 2.44805V3.13792C221.465 3.24894 221.433 3.3322 221.37 3.38771C221.306 3.44321 221.223 3.48286 221.12 3.50665L220.43 3.64938L220.287 2.44805H221.465ZM224.736 2.44805L224.581 3.64938L223.903 3.50665C223.792 3.48286 223.705 3.44321 223.641 3.38771C223.586 3.3322 223.558 3.24894 223.558 3.13792V2.44805H224.736ZM226.984 2.44805V3.13792C226.984 3.24894 226.952 3.3322 226.889 3.38771C226.833 3.44321 226.75 3.48286 226.639 3.50665L225.961 3.64938L225.806 2.44805H226.984ZM233.43 11.1547C232.795 11.1547 232.209 11.0477 231.669 10.8336C231.13 10.6195 230.662 10.3142 230.266 9.91771C229.885 9.52123 229.584 9.05339 229.362 8.51418C229.14 7.97497 229.029 7.38421 229.029 6.74192C229.029 6.10755 229.136 5.52076 229.35 4.98155C229.564 4.43441 229.865 3.96656 230.254 3.57802C230.643 3.18947 231.11 2.88814 231.658 2.67404C232.213 2.45994 232.835 2.3529 233.525 2.3529C233.937 2.3529 234.31 2.38065 234.643 2.43616C234.984 2.49166 235.313 2.57096 235.63 2.67404C235.947 2.7692 236.269 2.88418 236.594 3.01898V4.07758L235.69 4.12516C235.396 3.99035 235.059 3.89123 234.679 3.8278C234.306 3.76436 233.917 3.73264 233.513 3.73264C232.926 3.73264 232.423 3.85952 232.002 4.11326C231.59 4.36701 231.273 4.71987 231.051 5.17186C230.829 5.62385 230.718 6.15116 230.718 6.75381C230.718 7.38025 230.833 7.92739 231.063 8.39523C231.293 8.86308 231.618 9.22784 232.038 9.48951C232.466 9.74326 232.966 9.87013 233.537 9.87013C233.862 9.87013 234.155 9.83842 234.417 9.77498C234.687 9.70361 234.936 9.61242 235.166 9.50141V7.95514H234.108C234.005 7.95514 233.921 7.92739 233.858 7.87188C233.802 7.80844 233.775 7.73311 233.775 7.64589V6.74192H236.653V10.227C236.225 10.5362 235.741 10.7701 235.202 10.9287C234.671 11.0794 234.08 11.1547 233.43 11.1547ZM235.44 3.80401L236.594 4.07758V5.12428H235.987C235.876 5.12428 235.793 5.09653 235.737 5.04102C235.682 4.97759 235.642 4.89036 235.618 4.77935L235.44 3.80401ZM240.226 11.0596V2.44805H241.88V6.15909H245.864V2.44805H247.518V11.0596H245.864V7.30095H241.88V11.0596H240.226ZM239.346 11.0596V10.3697C239.346 10.2587 239.374 10.1754 239.43 10.1199C239.493 10.0644 239.58 10.0248 239.691 10.001L240.369 9.85824L240.524 11.0596H239.346ZM241.594 11.0596L241.749 9.85824L242.427 10.001C242.538 10.0248 242.621 10.0644 242.677 10.1199C242.74 10.1754 242.772 10.2587 242.772 10.3697V11.0596H241.594ZM240.524 2.44805L240.369 3.64938L239.691 3.50665C239.58 3.48286 239.493 3.44321 239.43 3.38771C239.374 3.3322 239.346 3.24894 239.346 3.13792V2.44805H240.524ZM242.772 2.44805V3.13792C242.772 3.24894 242.74 3.3322 242.677 3.38771C242.621 3.44321 242.538 3.48286 242.427 3.50665L241.749 3.64938L241.594 2.44805H242.772ZM244.972 11.0596V10.3697C244.972 10.2587 245 10.1754 245.056 10.1199C245.119 10.0644 245.206 10.0248 245.317 10.001L245.995 9.85824L246.15 11.0596H244.972ZM247.232 11.0596L247.387 9.85824L248.065 10.001C248.176 10.0248 248.259 10.0644 248.315 10.1199C248.378 10.1754 248.41 10.2587 248.41 10.3697V11.0596H247.232ZM246.15 2.44805L245.995 3.64938L245.317 3.50665C245.206 3.48286 245.119 3.44321 245.056 3.38771C245 3.3322 244.972 3.24894 244.972 3.13792V2.44805H246.15ZM248.41 2.44805V3.13792C248.41 3.24894 248.378 3.3322 248.315 3.38771C248.259 3.44321 248.176 3.48286 248.065 3.50665L247.387 3.64938L247.232 2.44805H248.41ZM259.204 11.1547C258.546 11.1547 257.956 11.0437 257.432 10.8217C256.917 10.5997 256.481 10.2944 256.124 9.90582C255.759 9.50934 255.478 9.04149 255.279 8.50228C255.089 7.96307 254.994 7.39214 254.994 6.78949C254.994 6.13134 255.101 5.53266 255.315 4.99344C255.537 4.4463 255.842 3.97846 256.231 3.58991C256.627 3.20136 257.099 2.90004 257.646 2.68594C258.193 2.46391 258.784 2.3529 259.419 2.3529C259.775 2.3529 260.116 2.38461 260.441 2.44805C260.767 2.51149 261.072 2.59475 261.357 2.69783C261.643 2.80092 261.908 2.90797 262.154 3.01898V4.07758L261.345 4.12516C261.116 3.99828 260.83 3.90313 260.489 3.83969C260.148 3.76832 259.819 3.73264 259.502 3.73264C258.915 3.73264 258.408 3.85952 257.979 4.11326C257.559 4.36701 257.238 4.71987 257.016 5.17186C256.794 5.62385 256.683 6.15513 256.683 6.7657C256.683 7.34456 256.786 7.86395 256.992 8.32387C257.198 8.77585 257.504 9.13268 257.908 9.39436C258.312 9.65604 258.804 9.78687 259.383 9.78687C259.708 9.78687 260.013 9.7393 260.299 9.64414C260.592 9.54106 260.87 9.37057 261.131 9.13268C261.171 9.10097 261.215 9.07718 261.262 9.06132C261.31 9.03753 261.357 9.02563 261.405 9.02563C261.492 9.02563 261.567 9.05735 261.631 9.12079L262.285 9.81066C261.952 10.2309 261.528 10.56 261.012 10.7979C260.497 11.0358 259.894 11.1547 259.204 11.1547ZM261.001 3.80401L262.154 4.07758V5.12428H261.536C261.433 5.12428 261.353 5.09653 261.298 5.04102C261.242 4.97759 261.203 4.89036 261.179 4.77935L261.001 3.80401ZM268.862 11.1547C268.212 11.1547 267.617 11.0437 267.078 10.8217C266.547 10.5997 266.087 10.2904 265.698 9.89392C265.326 9.50537 265.028 9.04149 264.806 8.50228C264.592 7.96307 264.485 7.38025 264.485 6.75381C264.485 6.11944 264.592 5.53662 264.806 5.00534C265.028 4.46613 265.326 3.99828 265.698 3.6018C266.087 3.21325 266.547 2.90797 267.078 2.68594C267.617 2.46391 268.212 2.3529 268.862 2.3529C269.52 2.3529 270.119 2.46391 270.658 2.68594C271.206 2.90797 271.665 3.21722 272.038 3.6137C272.427 4.00225 272.724 4.46613 272.93 5.00534C273.136 5.54455 273.239 6.12737 273.239 6.75381C273.239 7.38025 273.136 7.96307 272.93 8.50228C272.724 9.04149 272.427 9.50537 272.038 9.89392C271.665 10.2904 271.206 10.5997 270.658 10.8217C270.111 11.0437 269.513 11.1547 268.862 11.1547ZM268.862 9.77498C269.433 9.77498 269.917 9.65207 270.313 9.40625C270.718 9.16044 271.023 8.81154 271.229 8.35955C271.443 7.90756 271.55 7.37232 271.55 6.75381C271.55 6.14323 271.443 5.61195 271.229 5.15997C271.023 4.70798 270.718 4.35908 270.313 4.11326C269.917 3.85952 269.433 3.73264 268.862 3.73264C268.307 3.73264 267.828 3.85952 267.423 4.11326C267.019 4.35908 266.709 4.70798 266.495 5.15997C266.281 5.61195 266.174 6.14323 266.174 6.75381C266.174 7.36439 266.281 7.89963 266.495 8.35955C266.709 8.81154 267.019 9.16044 267.423 9.40625C267.828 9.65207 268.307 9.77498 268.862 9.77498ZM276.229 11.0596V2.44805H277.097C277.232 2.44805 277.335 2.46391 277.406 2.49563C277.486 2.52735 277.565 2.59871 277.644 2.70973L282.116 8.44281C282.101 8.30801 282.089 8.1732 282.081 8.0384C282.073 7.9036 282.069 7.78069 282.069 7.66968V2.44805H283.52V11.0596H282.676C282.549 11.0596 282.442 11.0397 282.354 11.0001C282.267 10.9605 282.18 10.8851 282.093 10.7741L277.644 5.07671C277.66 5.21151 277.668 5.32649 277.668 5.42164C277.676 5.5168 277.68 5.63971 277.68 5.79037V11.0596H276.229ZM275.349 11.0596V10.3697C275.349 10.2587 275.376 10.1754 275.432 10.1199C275.495 10.0644 275.582 10.0248 275.694 10.001L276.371 9.85824L276.526 11.0596H275.349ZM277.442 11.0596L277.597 9.85824L278.286 10.001C278.39 10.0248 278.473 10.0644 278.536 10.1199C278.6 10.1754 278.631 10.2587 278.631 10.3697V11.0596H277.442ZM276.526 2.44805L276.371 3.64938L275.694 3.50665C275.582 3.48286 275.495 3.44321 275.432 3.38771C275.376 3.3322 275.349 3.24894 275.349 3.13792V2.44805H276.526ZM282.307 2.44805L282.152 3.64938L281.474 3.50665C281.363 3.48286 281.276 3.44321 281.212 3.38771C281.157 3.3322 281.129 3.24894 281.129 3.13792V2.44805H282.307ZM284.412 2.44805V3.13792C284.412 3.24894 284.38 3.3322 284.317 3.38771C284.261 3.44321 284.178 3.48286 284.067 3.50665L283.389 3.64938L283.235 2.44805H284.412ZM289.091 11.0596V3.78022H286.509V2.44805H293.301V3.78022H290.732V11.0596H289.091ZM288.198 11.0596V10.3697C288.198 10.2587 288.23 10.1754 288.294 10.1199C288.357 10.0644 288.44 10.0248 288.543 10.001L289.233 9.85824L289.376 11.0596H288.198ZM290.447 11.0596L290.589 9.85824L291.279 10.001C291.39 10.0248 291.473 10.0644 291.529 10.1199C291.592 10.1754 291.624 10.2587 291.624 10.3697V11.0596H290.447ZM292.147 3.49475L293.301 3.78022V4.82692H292.695C292.584 4.82692 292.5 4.79917 292.445 4.74366C292.389 4.68023 292.35 4.593 292.326 4.48199L292.147 3.49475ZM287.663 3.49475L287.485 4.48199C287.469 4.593 287.429 4.68023 287.366 4.74366C287.31 4.79917 287.231 4.82692 287.128 4.82692H286.509V3.78022L287.663 3.49475ZM296.21 11.0596V2.44805H301.658V3.73264H297.864V6.11152H300.742V7.34853H297.864V9.77498H301.658V11.0596H296.21ZM300.492 10.0485L300.671 9.07321C300.702 8.9622 300.746 8.87894 300.802 8.82343C300.857 8.75999 300.936 8.72827 301.039 8.72827H301.658V9.77498L300.492 10.0485ZM300.492 3.45907L301.658 3.73264V4.77935H301.039C300.936 4.77935 300.857 4.75159 300.802 4.69609C300.746 4.63265 300.702 4.54542 300.671 4.43441L300.492 3.45907ZM296.508 2.44805L296.365 3.64938L295.675 3.50665C295.572 3.48286 295.489 3.44321 295.425 3.38771C295.362 3.3322 295.33 3.24894 295.33 3.13792V2.44805H296.508ZM295.33 11.0596V10.3697C295.33 10.2587 295.358 10.1754 295.413 10.1199C295.477 10.0644 295.564 10.0248 295.675 10.001L296.353 9.85824L296.508 11.0596H295.33ZM304.842 11.0596V2.44805H305.71C305.845 2.44805 305.948 2.46391 306.02 2.49563C306.099 2.52735 306.178 2.59871 306.258 2.70973L310.73 8.44281C310.714 8.30801 310.702 8.1732 310.694 8.0384C310.686 7.9036 310.682 7.78069 310.682 7.66968V2.44805H312.133V11.0596H311.289C311.162 11.0596 311.055 11.0397 310.968 11.0001C310.881 10.9605 310.793 10.8851 310.706 10.7741L306.258 5.07671C306.273 5.21151 306.281 5.32649 306.281 5.42164C306.289 5.5168 306.293 5.63971 306.293 5.79037V11.0596H304.842ZM303.962 11.0596V10.3697C303.962 10.2587 303.99 10.1754 304.045 10.1199C304.109 10.0644 304.196 10.0248 304.307 10.001L304.985 9.85824L305.139 11.0596H303.962ZM306.055 11.0596L306.21 9.85824L306.9 10.001C307.003 10.0248 307.086 10.0644 307.15 10.1199C307.213 10.1754 307.245 10.2587 307.245 10.3697V11.0596H306.055ZM305.139 2.44805L304.985 3.64938L304.307 3.50665C304.196 3.48286 304.109 3.44321 304.045 3.38771C303.99 3.3322 303.962 3.24894 303.962 3.13792V2.44805H305.139ZM310.92 2.44805L310.766 3.64938L310.088 3.50665C309.977 3.48286 309.889 3.44321 309.826 3.38771C309.77 3.3322 309.743 3.24894 309.743 3.13792V2.44805H310.92ZM313.025 2.44805V3.13792C313.025 3.24894 312.994 3.3322 312.93 3.38771C312.875 3.44321 312.792 3.48286 312.681 3.50665L312.003 3.64938L311.848 2.44805H313.025ZM317.704 11.0596V3.78022H315.123V2.44805H321.915V3.78022H319.345V11.0596H317.704ZM316.812 11.0596V10.3697C316.812 10.2587 316.844 10.1754 316.907 10.1199C316.97 10.0644 317.054 10.0248 317.157 10.001L317.847 9.85824L317.989 11.0596H316.812ZM319.06 11.0596L319.203 9.85824L319.893 10.001C320.004 10.0248 320.087 10.0644 320.142 10.1199C320.206 10.1754 320.237 10.2587 320.237 10.3697V11.0596H319.06ZM320.761 3.49475L321.915 3.78022V4.82692H321.308C321.197 4.82692 321.114 4.79917 321.058 4.74366C321.003 4.68023 320.963 4.593 320.939 4.48199L320.761 3.49475ZM316.277 3.49475L316.098 4.48199C316.082 4.593 316.043 4.68023 315.979 4.74366C315.924 4.79917 315.844 4.82692 315.741 4.82692H315.123V3.78022L316.277 3.49475Z" fill="#333333"/>
<path d="M14.1795 51.8841C12.2527 51.8841 10.5042 51.5629 8.93412 50.9207C7.38786 50.2546 6.05569 49.303 4.93762 48.066C3.86712 46.8528 3.05831 45.4492 2.51117 43.8554C1.98781 42.2616 1.72614 40.5963 1.72614 38.8598C1.72614 36.8853 2.04729 35.0893 2.68958 33.4716C3.33188 31.854 4.21206 30.4742 5.33013 29.3324C6.49578 28.1667 7.86363 27.2628 9.43369 26.6205C11.0275 25.9782 12.7522 25.657 14.6077 25.657C15.6069 25.657 16.5584 25.7403 17.4624 25.9068C18.3901 26.0733 19.2941 26.3112 20.1743 26.6205C21.0545 26.9059 21.9228 27.2271 22.7792 27.5839V30.3672L20.2813 30.0817C19.5677 29.7725 18.7351 29.5108 17.7835 29.2967C16.8558 29.0826 15.8804 28.9756 14.8575 28.9756C13.002 28.9756 11.3844 29.3919 10.0046 30.2245C8.62487 31.0333 7.56627 32.1751 6.82882 33.65C6.09137 35.1249 5.72265 36.8496 5.72265 38.8241C5.72265 40.6796 6.05569 42.3448 6.72177 43.8197C7.38786 45.2708 8.38698 46.4246 9.71915 47.281C11.0751 48.1374 12.7284 48.5656 14.6791 48.5656C15.7734 48.5656 16.7963 48.399 17.7478 48.066C18.6994 47.733 19.6272 47.162 20.5311 46.3532C20.6501 46.2581 20.7571 46.1867 20.8523 46.1391C20.9712 46.0915 21.0902 46.0678 21.2091 46.0678C21.4232 46.0678 21.6016 46.151 21.7444 46.3175L23.2787 47.9946C22.3272 49.1365 21.0902 50.0762 19.5677 50.8136C18.069 51.5273 16.2729 51.8841 14.1795 51.8841ZM19.6747 29.4751L22.7792 30.3672V33.5787H21.0664C20.8285 33.5787 20.6382 33.5192 20.4954 33.4003C20.3527 33.2813 20.2576 33.1029 20.21 32.865L19.6747 29.4751ZM34.5526 33.1505C36.3606 33.1505 37.9068 33.543 39.1914 34.328C40.4998 35.0893 41.4989 36.1716 42.1888 37.5752C42.9025 38.9787 43.2593 40.6201 43.2593 42.4994C43.2593 44.355 42.9025 45.9964 42.1888 47.4237C41.4989 48.8272 40.4998 49.9215 39.1914 50.7066C37.9068 51.4678 36.3606 51.8484 34.5526 51.8484C32.7685 51.8484 31.2103 51.4678 29.8781 50.7066C28.5698 49.9215 27.5468 48.8272 26.8094 47.4237C26.0957 45.9964 25.7389 44.355 25.7389 42.4994C25.7389 40.6201 26.0957 38.9787 26.8094 37.5752C27.5468 36.1716 28.5698 35.0893 29.8781 34.328C31.2103 33.543 32.7685 33.1505 34.5526 33.1505ZM34.5526 49.1008C36.2416 49.1008 37.5024 48.5299 38.335 47.388C39.1676 46.2462 39.5839 44.6285 39.5839 42.5351C39.5839 41.1078 39.3936 39.9065 39.013 38.9311C38.6562 37.9558 38.0972 37.2183 37.3359 36.7188C36.5985 36.1954 35.6707 35.9338 34.5526 35.9338C33.387 35.9338 32.4235 36.1954 31.6623 36.7188C30.9011 37.2421 30.342 38.0034 29.9852 39.0025C29.6284 39.9778 29.4499 41.1554 29.4499 42.5351C29.4499 44.5572 29.8663 46.1629 30.6989 47.3523C31.5315 48.518 32.8161 49.1008 34.5526 49.1008ZM47.9948 51.5986V33.4359H50.1358C50.6354 33.4359 50.9446 33.6738 51.0636 34.1496L51.3134 35.9694C52.0984 35.113 52.9667 34.4351 53.9182 33.9355C54.8698 33.4122 55.976 33.1505 57.2368 33.1505C58.5689 33.1505 59.6751 33.4359 60.5553 34.0069C61.4593 34.5778 62.1491 35.3866 62.6249 36.4333C63.1007 37.48 63.3386 38.6814 63.3386 40.0373V51.5986H59.7346V40.0373C59.7346 38.7527 59.4372 37.7536 58.8425 37.0399C58.2716 36.3263 57.3795 35.9694 56.1663 35.9694C55.2861 35.9694 54.4535 36.1835 53.6685 36.6117C52.9072 37.0161 52.2054 37.5871 51.5631 38.3245V51.5986H47.9948ZM45.39 51.5986V49.9572C45.39 49.7193 45.4494 49.529 45.5684 49.3863C45.6873 49.2435 45.8657 49.1484 46.1036 49.1008L48.5658 48.5656L48.994 51.5986H45.39ZM50.5283 51.5986L50.9565 48.5656L53.4544 49.1008C53.6685 49.1484 53.835 49.2435 53.9539 49.3863C54.0729 49.529 54.1323 49.7193 54.1323 49.9572V51.5986H50.5283ZM62.3038 51.5986L62.732 48.5656L65.2298 49.1008C65.4439 49.1484 65.6104 49.2435 65.7293 49.3863C65.8483 49.529 65.9078 49.7193 65.9078 49.9572V51.5986H62.3038ZM48.994 33.4359L48.5658 36.469L46.1036 35.9338C45.8657 35.8862 45.6873 35.791 45.5684 35.6483C45.4494 35.5056 45.39 35.3152 45.39 35.0774V33.4359H48.994ZM74.3348 51.8841C72.8599 51.8841 71.7181 51.4678 70.9092 50.6352C70.1004 49.8026 69.696 48.625 69.696 47.1026V36.2906H67.6264C67.4123 36.2906 67.2339 36.2311 67.0911 36.1122C66.9484 35.9932 66.877 35.8029 66.877 35.5412V34.1139L69.8387 33.6857L70.6595 28.3333C70.7308 27.8813 70.9925 27.6553 71.4445 27.6553H73.2643V33.7214H78.3313V36.2906H73.2643V46.8885C73.2643 47.5783 73.4308 48.1017 73.7639 48.4585C74.1207 48.8154 74.5846 48.9938 75.1555 48.9938C75.4172 48.9938 75.6789 48.9343 75.9406 48.8154C76.226 48.6726 76.4877 48.5418 76.7256 48.4228C76.9635 48.2801 77.1538 48.2087 77.2965 48.2087C77.463 48.2087 77.6177 48.3158 77.7604 48.5299L78.8309 50.2427C78.2362 50.7422 77.5463 51.1466 76.7613 51.4559C75.9762 51.7414 75.1674 51.8841 74.3348 51.8841ZM89.5051 51.8484C87.7448 51.8484 86.1985 51.4559 84.8663 50.6709C83.558 49.8621 82.5351 48.7321 81.7976 47.281C81.0839 45.8299 80.7271 44.1171 80.7271 42.1426C80.7271 40.4536 81.072 38.9311 81.7619 37.5752C82.4756 36.1954 83.4747 35.113 84.7593 34.328C86.0677 33.543 87.5902 33.1505 89.3267 33.1505C90.8492 33.1505 92.1814 33.4835 93.3232 34.1496C94.4651 34.8157 95.3572 35.7553 95.9995 36.9686C96.6418 38.1818 96.9629 39.6329 96.9629 41.3219C96.9629 41.869 96.9034 42.2378 96.7845 42.4281C96.6656 42.6184 96.4277 42.7135 96.0708 42.7135H84.2954C84.2954 42.7849 84.2954 42.8563 84.2954 42.9276C84.2954 42.999 84.2954 43.0704 84.2954 43.1417C84.4382 45.0448 84.9853 46.5078 85.9368 47.5308C86.8884 48.5537 88.173 49.0651 89.7906 49.0651C90.5043 49.0651 91.206 48.9224 91.8959 48.6369C92.6096 48.3515 93.24 48.0779 93.7871 47.8162C94.3581 47.5308 94.7744 47.388 95.036 47.388C95.3215 47.388 95.5475 47.4832 95.714 47.6735L96.7131 48.9938C96.1898 49.6599 95.5237 50.207 94.7149 50.6352C93.9061 51.0634 93.0497 51.3726 92.1457 51.5629C91.2417 51.7533 90.3615 51.8484 89.5051 51.8484ZM84.4025 40.5012H93.7514C93.7514 39.1214 93.3708 37.9915 92.6096 37.1113C91.8483 36.2073 90.7778 35.7553 89.3981 35.7553C87.9232 35.7553 86.7694 36.1716 85.9368 37.0042C85.1042 37.8369 84.5928 39.0025 84.4025 40.5012ZM101.659 51.5986V33.4359H103.8C104.299 33.4359 104.609 33.6738 104.728 34.1496L104.977 35.9694C105.762 35.113 106.631 34.4351 107.582 33.9355C108.534 33.4122 109.64 33.1505 110.901 33.1505C112.233 33.1505 113.339 33.4359 114.219 34.0069C115.123 34.5778 115.813 35.3866 116.289 36.4333C116.765 37.48 117.003 38.6814 117.003 40.0373V51.5986H113.399V40.0373C113.399 38.7527 113.101 37.7536 112.507 37.0399C111.936 36.3263 111.044 35.9694 109.83 35.9694C108.95 35.9694 108.118 36.1835 107.332 36.6117C106.571 37.0161 105.869 37.5871 105.227 38.3245V51.5986H101.659ZM99.054 51.5986V49.9572C99.054 49.7193 99.1135 49.529 99.2324 49.3863C99.3514 49.2435 99.5298 49.1484 99.7677 49.1008L102.23 48.5656L102.658 51.5986H99.054ZM104.192 51.5986L104.621 48.5656L107.118 49.1008C107.332 49.1484 107.499 49.2435 107.618 49.3863C107.737 49.529 107.796 49.7193 107.796 49.9572V51.5986H104.192ZM115.968 51.5986L116.396 48.5656L118.894 49.1008C119.108 49.1484 119.274 49.2435 119.393 49.3863C119.512 49.529 119.572 49.7193 119.572 49.9572V51.5986H115.968ZM102.658 33.4359L102.23 36.469L99.7677 35.9338C99.5298 35.8862 99.3514 35.791 99.2324 35.6483C99.1135 35.5056 99.054 35.3152 99.054 35.0774V33.4359H102.658ZM127.999 51.8841C126.524 51.8841 125.382 51.4678 124.573 50.6352C123.764 49.8026 123.36 48.625 123.36 47.1026V36.2906H121.29C121.076 36.2906 120.898 36.2311 120.755 36.1122C120.612 35.9932 120.541 35.8029 120.541 35.5412V34.1139L123.503 33.6857L124.323 28.3333C124.395 27.8813 124.657 27.6553 125.109 27.6553H126.928V33.7214H131.995V36.2906H126.928V46.8885C126.928 47.5783 127.095 48.1017 127.428 48.4585C127.785 48.8154 128.249 48.9938 128.82 48.9938C129.081 48.9938 129.343 48.9343 129.605 48.8154C129.89 48.6726 130.152 48.5418 130.39 48.4228C130.627 48.2801 130.818 48.2087 130.961 48.2087C131.127 48.2087 131.282 48.3158 131.424 48.5299L132.495 50.2427C131.9 50.7422 131.21 51.1466 130.425 51.4559C129.64 51.7414 128.831 51.8841 127.999 51.8841Z" fill="#24635C"/>
<path d="M209.58 51.5986V25.9425H212.47C212.827 25.9425 213.089 25.9782 213.255 26.0495C213.446 26.0971 213.624 26.2755 213.791 26.5848L222.283 41.9285C222.473 42.2616 222.628 42.5946 222.747 42.9276C222.89 43.2369 223.033 43.5699 223.175 43.9268C223.294 43.6175 223.425 43.2845 223.568 42.9276C223.711 42.5708 223.877 42.214 224.067 41.8571L232.381 26.5848C232.572 26.2755 232.75 26.0971 232.917 26.0495C233.107 25.9782 233.369 25.9425 233.702 25.9425H236.628V51.5986H233.202V33.4359C233.202 33.1743 233.202 32.9007 233.202 32.6152C233.226 32.306 233.25 31.9848 233.274 31.6518L224.817 47.2096C224.507 47.8043 224.044 48.1017 223.425 48.1017H222.89C222.295 48.1017 221.831 47.8043 221.498 47.2096L212.863 31.6161C212.91 31.9491 212.934 32.2703 212.934 32.5795C212.958 32.8888 212.97 33.1743 212.97 33.4359V51.5986H209.58ZM206.975 51.5986V49.9572C206.975 49.7193 207.035 49.529 207.154 49.3863C207.272 49.2435 207.451 49.1484 207.689 49.1008L210.151 48.5656L210.579 51.5986H206.975ZM212.292 51.5986L212.684 48.5656L215.182 49.1008C215.42 49.1484 215.599 49.2435 215.717 49.3863C215.836 49.529 215.896 49.7193 215.896 49.9572V51.5986H212.292ZM210.579 25.9425L210.151 28.9756L207.689 28.4403C207.451 28.3927 207.272 28.2976 207.154 28.1548C207.035 28.0121 206.975 27.8218 206.975 27.5839V25.9425H210.579ZM230.312 51.5986V49.9572C230.312 49.7193 230.371 49.529 230.49 49.3863C230.609 49.2435 230.788 49.1484 231.026 49.1008L233.488 48.5656L233.916 51.5986H230.312ZM235.629 51.5986L236.021 48.5656L238.519 49.1008C238.757 49.1484 238.935 49.2435 239.054 49.3863C239.173 49.529 239.233 49.7193 239.233 49.9572V51.5986H235.629ZM239.233 25.9425V27.5839C239.233 27.8218 239.173 28.0121 239.054 28.1548C238.935 28.2976 238.757 28.3927 238.519 28.4403L236.021 28.9756L235.629 25.9425H239.233ZM246.684 51.8841C245.709 51.8841 244.828 51.7057 244.043 51.3489C243.258 50.9682 242.64 50.4211 242.188 49.7074C241.736 48.97 241.51 48.0779 241.51 47.0312C241.51 46.3175 241.7 45.6277 242.081 44.9616C242.485 44.2955 243.116 43.7008 243.972 43.1774C244.852 42.6779 245.994 42.2616 247.398 41.9285C248.801 41.5717 250.538 41.3695 252.607 41.3219V40.0373C252.607 38.6814 252.31 37.6703 251.715 37.0042C251.144 36.3144 250.312 35.9694 249.218 35.9694C248.575 35.9694 247.921 36.1241 247.255 36.4333C246.613 36.7426 246.018 37.0518 245.471 37.3611C244.924 37.6465 244.472 37.7893 244.115 37.7893C243.853 37.7893 243.639 37.7298 243.473 37.6109C243.306 37.4681 243.163 37.3135 243.044 37.147L242.402 36.0051C243.425 35.0298 244.531 34.3042 245.721 33.8285C246.91 33.3527 248.218 33.1148 249.646 33.1148C251.025 33.1148 252.191 33.4003 253.143 33.9712C254.094 34.5421 254.82 35.3509 255.319 36.3976C255.843 37.4443 256.104 38.6576 256.104 40.0373V51.5986H254.499C254.166 51.5986 253.892 51.5511 253.678 51.4559C253.488 51.337 253.345 51.111 253.25 50.7779L252.893 49.2079C251.941 50.0643 250.99 50.7303 250.038 51.2061C249.11 51.6581 247.992 51.8841 246.684 51.8841ZM247.754 49.3863C248.754 49.3863 249.634 49.196 250.395 48.8154C251.156 48.4109 251.894 47.84 252.607 47.1026V43.5699C251.418 43.5937 250.347 43.677 249.396 43.8197C248.468 43.9625 247.671 44.1647 247.005 44.4263C246.339 44.688 245.828 45.021 245.471 45.4255C245.138 45.8061 244.971 46.2819 244.971 46.8528C244.971 47.7568 245.233 48.4109 245.756 48.8154C246.28 49.196 246.946 49.3863 247.754 49.3863ZM255.07 51.5986L255.498 48.5656L257.996 49.1008C258.21 49.1484 258.376 49.2435 258.495 49.3863C258.638 49.529 258.709 49.7193 258.709 49.9572V51.5986H255.07ZM267.105 51.8841C265.63 51.8841 264.489 51.4678 263.68 50.6352C262.871 49.8026 262.467 48.625 262.467 47.1026V36.2906H260.397C260.183 36.2906 260.004 36.2311 259.862 36.1122C259.719 35.9932 259.648 35.8029 259.648 35.5412V34.1139L262.609 33.6857L263.43 28.3333C263.501 27.8813 263.763 27.6553 264.215 27.6553H266.035V33.7214H271.102V36.2906H266.035V46.8885C266.035 47.5783 266.201 48.1017 266.534 48.4585C266.891 48.8154 267.355 48.9938 267.926 48.9938C268.188 48.9938 268.449 48.9343 268.711 48.8154C268.997 48.6726 269.258 48.5418 269.496 48.4228C269.734 48.2801 269.924 48.2087 270.067 48.2087C270.234 48.2087 270.388 48.3158 270.531 48.5299L271.601 50.2427C271.007 50.7422 270.317 51.1466 269.532 51.4559C268.747 51.7414 267.938 51.8841 267.105 51.8841ZM281.277 51.8841C279.968 51.8841 278.862 51.5867 277.958 50.992C277.054 50.3973 276.364 49.5885 275.888 48.5656C275.413 47.5427 275.175 46.3532 275.175 44.9973V33.4359H278.743V44.9973C278.743 46.3056 279.04 47.3167 279.635 48.0303C280.23 48.7202 281.134 49.0651 282.347 49.0651C283.227 49.0651 284.048 48.8629 284.809 48.4585C285.594 48.0541 286.308 47.4832 286.95 46.7457V33.4359H290.518V51.5986H288.377C287.854 51.5986 287.545 51.3607 287.45 50.885L287.164 49.1008C286.403 49.9334 285.547 50.6114 284.595 51.1348C283.644 51.6343 282.537 51.8841 281.277 51.8841ZM289.519 51.5986L289.948 48.5656L292.41 49.1008C292.648 49.1484 292.826 49.2435 292.945 49.3863C293.064 49.529 293.123 49.7193 293.123 49.9572V51.5986H289.519ZM276.21 33.4359L275.781 36.469L273.284 35.9338C273.069 35.8862 272.891 35.791 272.748 35.6483C272.629 35.5056 272.57 35.3152 272.57 35.0774V33.4359H276.21ZM287.985 33.4359L287.557 36.469L285.059 35.9338C284.845 35.8862 284.666 35.791 284.524 35.6483C284.405 35.5056 284.345 35.3152 284.345 35.0774V33.4359H287.985ZM297.217 51.5986V33.4359H299.251C299.655 33.4359 299.929 33.5073 300.072 33.65C300.238 33.7928 300.333 34.0426 300.357 34.3994L300.607 37.0399C301.226 35.8029 301.975 34.8395 302.855 34.1496C303.759 33.4597 304.818 33.1148 306.031 33.1148C306.507 33.1148 306.935 33.1743 307.315 33.2932C307.72 33.4122 308.089 33.5668 308.422 33.7571L307.958 36.4333C307.934 36.5761 307.863 36.695 307.744 36.7901C307.625 36.8615 307.494 36.8972 307.351 36.8972C307.185 36.8972 306.875 36.8496 306.423 36.7545C305.971 36.6593 305.567 36.6117 305.21 36.6117C304.163 36.6117 303.283 36.9091 302.57 37.5038C301.856 38.0985 301.261 38.9668 300.785 40.1087V51.5986H297.217ZM299.751 51.5986L300.179 48.5656L302.677 49.1008C302.891 49.1484 303.057 49.2435 303.176 49.3863C303.295 49.529 303.355 49.7193 303.355 49.9572V51.5986H299.751ZM294.612 51.5986V49.9572C294.612 49.7193 294.672 49.529 294.791 49.3863C294.91 49.2435 295.088 49.1484 295.326 49.1008L297.788 48.5656L298.216 51.5986H294.612ZM298.216 33.4359L297.788 36.469L295.326 35.9338C295.088 35.8862 294.91 35.791 294.791 35.6483C294.672 35.5056 294.612 35.3152 294.612 35.0774V33.4359H298.216ZM312.445 51.5986V33.4359H316.013V51.5986H312.445ZM309.84 51.5986V49.9572C309.84 49.7193 309.9 49.529 310.019 49.3863C310.138 49.2435 310.316 49.1484 310.554 49.1008L313.016 48.5656L313.444 51.5986H309.84ZM314.979 51.5986L315.407 48.5656L317.905 49.1008C318.119 49.1484 318.285 49.2435 318.404 49.3863C318.523 49.529 318.583 49.7193 318.583 49.9572V51.5986H314.979ZM313.444 33.4359L313.016 36.469L310.554 35.9338C310.316 35.8862 310.138 35.791 310.019 35.6483C309.9 35.5056 309.84 35.3152 309.84 35.0774V33.4359H313.444ZM314.194 30.2601C313.551 30.2601 312.98 30.0223 312.481 29.5465C312.005 29.0707 311.767 28.5117 311.767 27.8694C311.767 27.2033 312.005 26.6324 312.481 26.1566C312.98 25.657 313.551 25.4072 314.194 25.4072C314.86 25.4072 315.431 25.657 315.906 26.1566C316.406 26.6324 316.656 27.2033 316.656 27.8694C316.656 28.5117 316.406 29.0707 315.906 29.5465C315.431 30.0223 314.86 30.2601 314.194 30.2601ZM327.007 51.8841C325.532 51.8841 324.39 51.4678 323.581 50.6352C322.773 49.8026 322.368 48.625 322.368 47.1026V36.2906H320.298C320.084 36.2906 319.906 36.2311 319.763 36.1122C319.621 35.9932 319.549 35.8029 319.549 35.5412V34.1139L322.511 33.6857L323.332 28.3333C323.403 27.8813 323.665 27.6553 324.117 27.6553H325.936V33.7214H331.003V36.2906H325.936V46.8885C325.936 47.5783 326.103 48.1017 326.436 48.4585C326.793 48.8154 327.257 48.9938 327.828 48.9938C328.089 48.9938 328.351 48.9343 328.613 48.8154C328.898 48.6726 329.16 48.5418 329.398 48.4228C329.636 48.2801 329.826 48.2087 329.969 48.2087C330.135 48.2087 330.29 48.3158 330.432 48.5299L331.503 50.2427C330.908 50.7422 330.218 51.1466 329.433 51.4559C328.648 51.7414 327.84 51.8841 327.007 51.8841ZM338.002 57.7004L341.357 50.4211L333.899 33.4359H337.003C337.312 33.4359 337.55 33.5192 337.717 33.6857C337.883 33.8285 338.002 33.9831 338.074 34.1496L342.605 44.9616C342.677 45.1757 342.76 45.4492 342.855 45.7823C342.974 46.0915 343.069 46.377 343.141 46.6387C343.188 46.4722 343.236 46.2937 343.283 46.1034C343.355 45.9131 343.426 45.7228 343.498 45.5325C343.593 45.3184 343.664 45.1162 343.712 44.9259L348.065 34.1496C348.136 33.9593 348.267 33.7928 348.457 33.65C348.672 33.5073 348.886 33.4359 349.1 33.4359H351.954L341.927 56.844C341.809 57.1057 341.654 57.3079 341.464 57.4507C341.297 57.6172 341.035 57.7004 340.679 57.7004H338.002ZM336.539 34.3994V33.4359H339.18V34.3994H336.539ZM347.244 34.3994V33.4359H349.885V34.3994H347.244ZM336.504 33.4359L336.075 36.469L333.613 35.9338C333.375 35.8862 333.197 35.791 333.078 35.6483C332.959 35.5056 332.9 35.3152 332.9 35.0774V33.4359H336.504ZM341.178 33.4359V35.0774C341.178 35.3152 341.119 35.5056 341 35.6483C340.881 35.791 340.702 35.8862 340.464 35.9338L337.967 36.469L337.574 33.4359H341.178ZM348.279 33.4359L347.851 36.469L345.389 35.9338C345.151 35.8862 344.972 35.791 344.853 35.6483C344.735 35.5056 344.675 35.3152 344.675 35.0774V33.4359H348.279ZM352.954 33.4359V35.0774C352.954 35.3152 352.894 35.5056 352.775 35.6483C352.656 35.791 352.478 35.8862 352.24 35.9338L349.742 36.469L349.35 33.4359H352.954Z" fill="#24635C"/>
<path d="M150.844 31.6275C151.716 30.8136 152.879 30.3485 154.041 30.3485H154.1C156.657 30.3485 158.808 32.4995 158.808 35.0574C158.808 36.2782 158.285 37.4991 157.413 38.3711L145.379 50.405C145.03 50.7538 144.856 51.2189 144.856 51.7421C144.856 52.7885 145.67 53.6024 146.716 53.6024C147.24 53.6024 147.705 53.428 148.054 53.0792L161.948 39.185C162.82 38.313 164.041 37.7897 165.261 37.7897C167.877 37.7897 169.97 39.9407 169.97 42.4986C169.97 43.7195 169.447 44.9403 168.575 45.8123L162.529 51.8583C161.89 52.4978 161.599 53.3117 161.599 54.1256C161.599 55.9278 162.994 57.323 164.796 57.323H165.029C165.378 57.323 165.668 57.323 166.017 57.2067L168.11 56.5091C168.866 56.2184 169.621 56.6254 169.854 57.3811C170.145 58.0788 169.738 58.8926 168.982 59.1252L166.889 59.8228C166.308 60.0553 165.668 60.1716 165.029 60.1716H164.796C161.483 60.1716 158.808 57.4393 158.808 54.1256C158.808 52.556 159.39 51.0445 160.552 49.8818L166.598 43.8357C166.947 43.4869 167.18 43.0219 167.18 42.4986C167.18 41.4522 166.308 40.5802 165.261 40.5802C164.738 40.5802 164.273 40.8127 163.924 41.1616L150.03 55.0557C149.158 55.9278 147.937 56.3928 146.716 56.3928C144.158 56.3928 142.066 54.3 142.066 51.7421C142.066 50.4631 142.531 49.3004 143.403 48.4284L155.437 36.3945C155.785 36.0457 156.018 35.5806 156.018 35.0574C156.018 34.011 155.146 33.139 154.1 33.139H154.041C153.576 33.139 153.053 33.3715 152.704 33.6622L142.531 43.0219C141.949 43.5451 141.077 43.4869 140.554 42.9637C140.031 42.3824 140.089 41.5104 140.612 40.9871L150.844 31.6275Z" fill="#C97600"/>
<path d="M171.947 52.9632L173.226 46.6265L188.341 31.4534L189.271 32.3835L194.852 37.9644L195.782 38.8946L180.667 54.0678L174.331 55.3467L171.366 55.9281L171.947 52.9632ZM189.678 30.1744L191.713 28.1397L193.689 26.1631L195.608 28.1397L199.154 31.6278L201.131 33.6043L199.154 35.5809L197.119 37.6156L196.189 36.6855L190.608 31.1046L189.678 30.1744ZM177.121 46.6265L175.784 48.0217L174.912 52.3819L179.272 51.5098L180.667 50.1146V49.417H177.877V46.6265H177.121ZM190.318 36.3948L189.039 35.0577L188.341 35.7553L179.97 44.1267L179.33 44.7662L180.667 46.1033L181.307 45.4057L189.678 37.0343L190.318 36.3948Z" fill="#64D2C5"/>
</svg>
